#VRML V2.0 utf8
# 3D model generated by easyeda2kicad.py (https://github.com/uPesy/easyeda2kicad.py)

Shape{
    appearance Appearance {
        material  Material 	{
            diffuseColor 1.0 1.0 1.0
            specularColor 0.5019607843137255 0.5019607843137255 0.5019607843137255
            ambientIntensity 0.2
            transparency 0
            shininess 0.5
        }
    }
    geometry IndexedFaceSet {
        ccw TRUE
        solid FALSE
        coord DEF co Coordinate {
            point [
                2.4409 0.1024 0.0945, 2.9331 0.1024 0.0945, 2.4409 0.7717 0.0945, 2.9331 0.7717 0.0945, 2.4366 0.1024 0.095, 2.4366 0.7717 0.095, 2.4324 0.1024 0.0964, 2.4324 0.7717 0.0964, 2.4287 0.1024 0.0988, 2.4287 0.7717 0.0988, 2.4256 0.1024 0.1019, 2.4256 0.7717 0.1019, 2.4232 0.1024 0.1056, 2.4232 0.7717 0.1056, 2.4218 0.1024 0.1098, 2.4218 0.7717 0.1098, 2.4213 0.1024 0.1142, 2.4213 0.7717 0.1142, 2.4213 0.1024 0.7677, 2.4213 0.7717 0.7677, 2.4218 0.1024 0.7721, 2.4218 0.7717 0.7721, 2.4232 0.1024 0.7763, 2.4232 0.7717 0.7763, 2.4256 0.1024 0.78, 2.4256 0.7717 0.78, 2.4287 0.1024 0.7831, 2.4287 0.7717 0.7831, 2.4324 0.1024 0.7855, 2.4324 0.7717 0.7855, 2.4366 0.1024 0.7869, 2.4366 0.7717 0.7869, 2.4409 0.1024 0.7874, 2.4409 0.7717 0.7874, 2.7165 0.1024 0.7874, 2.7165 0.7717 0.7874, 2.7165 0.1024 0.8858, 2.7165 0.7717 0.8858, 2.4409 0.1024 0.8858, 2.4409 0.7717 0.8858, 2.4147 0.7717 0.8829, 2.4147 0.1024 0.8829, 2.3897 0.7717 0.8741, 2.3897 0.1024 0.8741, 2.3673 0.7717 0.8601, 2.3673 0.1024 0.8601, 2.3486 0.7717 0.8414, 2.3486 0.1024 0.8414, 2.3345 0.7717 0.819, 2.3345 0.1024 0.819, 2.3258 0.7717 0.794, 2.3258 0.1024 0.794, 2.3228 0.7717 0.7677, 2.3228 0.1024 0.7677, 2.3228 0.1024 0.1142, 2.3228 0.7717 0.1142, 2.3258 0.7717 0.0879, 2.3258 0.1024 0.0879, 2.3345 0.7717 0.0629, 2.3345 0.1024 0.0629, 2.3486 0.7717 0.0405, 2.3486 0.1024 0.0405, 2.3673 0.7717 0.0218, 2.3673 0.1024 0.0218, 2.3897 0.7717 0.0078, 2.3897 0.1024 0.0078, 2.4147 0.7717 -0.001, 2.4147 0.1024 -0.001, 2.4409 0.7717 -0.0039, 2.4409 0.1024 -0.0039, 2.9331 0.1024 -0.0039, 2.9331 0.7717 -0.0039, -2.9331 0.1024 0.0945, -2.4409 0.1024 0.0945, -2.9331 0.7717 0.0945, -2.4409 0.7717 0.0945, -2.4213 0.1024 0.1142, -2.4213 0.7717 0.1142, -2.4218 0.1024 0.1098, -2.4218 0.7717 0.1098, -2.4232 0.1024 0.1056, -2.4232 0.7717 0.1056, -2.4256 0.1024 0.1019, -2.4256 0.7717 0.1019, -2.4287 0.1024 0.0988, -2.4287 0.7717 0.0988, -2.4324 0.1024 0.0964, -2.4324 0.7717 0.0964, -2.4366 0.1024 0.095, -2.4366 0.7717 0.095, -2.4213 0.1024 0.7677, -2.4213 0.7717 0.7677, -2.4409 0.1024 0.7874, -2.4409 0.7717 0.7874, -2.4366 0.1024 0.7869, -2.4366 0.7717 0.7869, -2.4324 0.1024 0.7855, -2.4324 0.7717 0.7855, -2.4287 0.1024 0.7831, -2.4287 0.7717 0.7831, -2.4256 0.1024 0.78, -2.4256 0.7717 0.78, -2.4232 0.1024 0.7763, -2.4232 0.7717 0.7763, -2.4218 0.1024 0.7721, -2.4218 0.7717 0.7721, -2.7165 0.1024 0.7874, -2.7165 0.7717 0.7874, -2.7165 0.1024 0.8858, -2.7165 0.7717 0.8858, -2.4409 0.1024 0.8858, -2.4409 0.7717 0.8858, -2.3228 0.1024 0.7677, -2.3228 0.7717 0.7677, -2.3258 0.7717 0.794, -2.3258 0.1024 0.794, -2.3345 0.7717 0.819, -2.3345 0.1024 0.819, -2.3486 0.7717 0.8414, -2.3486 0.1024 0.8414, -2.3673 0.7717 0.8601, -2.3673 0.1024 0.8601, -2.3897 0.7717 0.8741, -2.3897 0.1024 0.8741, -2.4147 0.7717 0.8829, -2.4147 0.1024 0.8829, -2.3228 0.1024 0.1142, -2.3228 0.7717 0.1142, -2.4409 0.1024 -0.0039, -2.4409 0.7717 -0.0039, -2.4147 0.7717 -0.001, -2.4147 0.1024 -0.001, -2.3897 0.7717 0.0078, -2.3897 0.1024 0.0078, -2.3673 0.7717 0.0218, -2.3673 0.1024 0.0218, -2.3486 0.7717 0.0405, -2.3486 0.1024 0.0405, -2.3345 0.7717 0.0629, -2.3345 0.1024 0.0629, -2.3258 0.7717 0.0879, -2.3258 0.1024 0.0879, -2.9331 0.1024 -0.0039, -2.9331 0.7717 -0.0039, -2.9331 0.7717 -0.0039
            ]
        }
        coordIndex [
            0,1,2,-1,2,1,3,-1,0,2,4,-1,4,2,5,-1,4,5,6,-1,6,5,7,-1,6,7,8,-1,8,7,9,-1,8,9,10,-1,10,9,11,-1,10,11,12,-1,12,11,13,-1,12,13,14,-1,14,13,15,-1,14,15,16,-1,16,15,17,-1,18,16,19,-1,19,16,17,-1,18,19,20,-1,20,19,21,-1,20,21,22,-1,22,21,23,-1,22,23,24,-1,24,23,25,-1,24,25,26,-1,26,25,27,-1,26,27,28,-1,28,27,29,-1,28,29,30,-1,30,29,31,-1,30,31,32,-1,32,31,33,-1,34,32,35,-1,35,32,33,-1,36,34,37,-1,37,34,35,-1,38,36,39,-1,39,36,37,-1,38,39,40,-1,38,40,41,-1,41,40,42,-1,41,42,43,-1,43,42,44,-1,43,44,45,-1,45,44,46,-1,45,46,47,-1,47,46,48,-1,47,48,49,-1,49,48,50,-1,49,50,51,-1,51,50,52,-1,51,52,53,-1,54,53,55,-1,55,53,52,-1,54,55,56,-1,54,56,57,-1,57,56,58,-1,57,58,59,-1,59,58,60,-1,59,60,61,-1,61,60,62,-1,61,62,63,-1,63,62,64,-1,63,64,65,-1,65,64,66,-1,65,66,67,-1,67,66,68,-1,67,68,69,-1,70,69,71,-1,71,69,68,-1,1,70,3,-1,3,70,71,-1,34,36,32,-1,32,36,38,-1,32,38,30,-1,30,38,41,-1,30,41,28,-1,28,41,43,-1,28,43,26,-1,26,43,45,-1,26,45,24,-1,24,45,47,-1,24,47,22,-1,22,47,49,-1,22,49,20,-1,20,49,51,-1,20,51,18,-1,18,51,53,-1,18,53,16,-1,16,53,54,-1,16,54,14,-1,14,54,57,-1,14,57,12,-1,12,57,59,-1,12,59,10,-1,10,59,61,-1,10,61,8,-1,8,61,63,-1,8,63,6,-1,6,63,65,-1,6,65,4,-1,4,65,67,-1,4,67,0,-1,0,67,69,-1,0,69,1,-1,1,69,70,-1,3,71,2,-1,2,71,68,-1,2,68,5,-1,5,68,66,-1,5,66,7,-1,7,66,64,-1,7,64,9,-1,9,64,62,-1,9,62,11,-1,11,62,60,-1,11,60,13,-1,13,60,58,-1,13,58,15,-1,15,58,56,-1,15,56,17,-1,17,56,55,-1,17,55,19,-1,19,55,52,-1,19,52,21,-1,21,52,50,-1,21,50,23,-1,23,50,48,-1,23,48,25,-1,25,48,46,-1,25,46,27,-1,27,46,44,-1,27,44,29,-1,29,44,42,-1,29,42,31,-1,31,42,40,-1,31,40,33,-1,33,40,39,-1,33,39,35,-1,35,39,37,-1,72,73,74,-1,74,73,75,-1,76,77,78,-1,78,77,79,-1,78,79,80,-1,80,79,81,-1,80,81,82,-1,82,81,83,-1,82,83,84,-1,84,83,85,-1,84,85,86,-1,86,85,87,-1,86,87,88,-1,88,87,89,-1,88,89,73,-1,73,89,75,-1,76,90,77,-1,77,90,91,-1,92,93,94,-1,94,93,95,-1,94,95,96,-1,96,95,97,-1,96,97,98,-1,98,97,99,-1,98,99,100,-1,100,99,101,-1,100,101,102,-1,102,101,103,-1,102,103,104,-1,104,103,105,-1,104,105,90,-1,90,105,91,-1,92,106,93,-1,93,106,107,-1,106,108,107,-1,107,108,109,-1,108,110,109,-1,109,110,111,-1,112,113,114,-1,112,114,115,-1,115,114,116,-1,115,116,117,-1,117,116,118,-1,117,118,119,-1,119,118,120,-1,119,120,121,-1,121,120,122,-1,121,122,123,-1,123,122,124,-1,123,124,125,-1,125,124,111,-1,125,111,110,-1,112,126,113,-1,113,126,127,-1,128,129,130,-1,128,130,131,-1,131,130,132,-1,131,132,133,-1,133,132,134,-1,133,134,135,-1,135,134,136,-1,135,136,137,-1,137,136,138,-1,137,138,139,-1,139,138,140,-1,139,140,141,-1,141,140,127,-1,141,127,126,-1,128,142,129,-1,129,142,143,-1,142,72,143,-1,143,72,74,-1,72,142,73,-1,73,142,128,-1,73,128,88,-1,88,128,131,-1,88,131,86,-1,86,131,133,-1,86,133,84,-1,84,133,135,-1,84,135,82,-1,82,135,137,-1,82,137,80,-1,80,137,139,-1,80,139,78,-1,78,139,141,-1,78,141,76,-1,76,141,126,-1,76,126,90,-1,90,126,112,-1,90,112,104,-1,104,112,115,-1,104,115,102,-1,102,115,117,-1,102,117,100,-1,100,117,119,-1,100,119,98,-1,98,119,121,-1,98,121,96,-1,96,121,123,-1,96,123,94,-1,94,123,125,-1,94,125,92,-1,92,125,110,-1,92,110,106,-1,106,110,108,-1,107,109,93,-1,93,109,111,-1,93,111,95,-1,95,111,124,-1,95,124,97,-1,97,124,122,-1,97,122,99,-1,99,122,120,-1,99,120,101,-1,101,120,118,-1,101,118,103,-1,103,118,116,-1,103,116,105,-1,105,116,114,-1,105,114,91,-1,91,114,113,-1,91,113,77,-1,77,113,127,-1,77,127,79,-1,79,127,140,-1,79,140,81,-1,81,140,138,-1,81,138,83,-1,83,138,136,-1,83,136,85,-1,85,136,134,-1,85,134,87,-1,87,134,132,-1,87,132,89,-1,89,132,130,-1,89,130,75,-1,75,130,129,-1,75,129,74,-1,74,129,143,-1,
        ]
    }
}
Shape{
    appearance Appearance {
        material  Material 	{
            diffuseColor 1.0 0.8862745098039215 0.8117647058823529
            specularColor 0.5019607843137255 0.44313725490196076 0.403921568627451
            ambientIntensity 0.2
            transparency 0
            shininess 0.5
        }
    }
    geometry IndexedFaceSet {
        ccw TRUE
        solid FALSE
        coord DEF co Coordinate {
            point [
                -0.03 0.267 0.1181, -0.0278 0.2863 0.1181, 0.1178 0.2244 0.1181, 0.1476 0.1824 0.1181, -0.0492 0.1824 0.1181, 0.1158 0.2209 0.1181, 0.1374 0.2209 0.1181, 0.1441 0.2354 0.1181, 0.1476 0.2487 0.1181, -0.1476 0.7717 0.1181, 0.1476 0.7717 0.1181, 0.1476 0.4849 0.1181, -0.0276 0.0816 0.1181, -0.0276 0.156 0.1181, 0.0372 0.156 0.1181, -0.0492 0.4849 0.1181, -0.0492 0.4585 0.1181, -0.1476 -0.5748 0.1181, 0.126 0.4585 0.1181, 0.126 0.3841 0.1181, -0.0269 0.243 0.1181, -0.0174 0.2209 0.1181, -0.0438 0.2209 0.1181, -0.0492 0.0384 0.1181, 0.0372 0.0864 0.1181, 0.1476 0.0384 0.1181, 0.0588 0.0864 0.1181, -0.0462 -0.0456 0.1181, -0.0381 -0.0686 0.1181, -0.0492 -0.2089 0.1181, -0.0237 -0.09 0.1181, 0.1476 0.0768 0.1181, 0.126 0.0768 0.1181, 0.126 0.156 0.1181, 0.0588 0.156 0.1181, 0.1476 -0.0151 0.1181, 0.1476 -0.1344 0.1181, 0.1454 -0.0401 0.1181, 0.1385 -0.0627 0.1181, -0.0492 -0.0171 0.1181, -0.0225 0.3011 0.1181, -0.0134 0.3147 0.1181, -0.0003 0.3266 0.1181, 0.0513 0.3409 0.1181, 0.0726 0.3389 0.1181, 0.0896 0.3335 0.1181, 0.1264 0.2897 0.1181, 0.1284 0.2714 0.1181, 0.1211 0.3041 0.1181, 0.113 0.3162 0.1181, 0.1032 0.3254 0.1181, 0.1255 0.2453 0.1181, 0.0249 0.3645 0.1181, 0.0026 0.3569 0.1181, 0.1163 0.3482 0.1181, 0.1312 0.3337 0.1181, 0.1476 0.3841 0.1181, 0.1412 0.3179 0.1181, 0.1476 0.2988 0.1181, 0.0936 -0.1102 0.1181, 0.111 -0.0992 0.1181, 0.1265 -0.0831 0.1181, 0.1476 -0.3121 0.1181, 0.1476 -0.5748 0.1181, -0.0492 -0.2353 0.1181, 0.0149 0.3347 0.1181, 0.036 0.3399 0.1181, -0.016 0.3452 0.1181, -0.0331 0.3273 0.1181, -0.0438 0.3085 0.1181, -0.0236 -0.0902 0.1181, -0.0081 -0.1042 0.1181, 0.0091 -0.1134 0.1181, 0.0979 0.3589 0.1181, 0.0769 0.3652 0.1181, 0.0529 0.3673 0.1181, -0.0501 0.2866 0.1181, -0.0516 0.2672 0.1181, -0.05 0.2436 0.1181, -0.0492 0.0816 0.1181, 0.0286 -0.1187 0.1181, 0.0467 -0.12 0.1181, 0.0731 -0.1173 0.1181, 0.0924 -0.2634 0.1181, 0.0924 -0.182 0.1181, 0.1476 -0.2833 0.1181, 0.1476 -0.1632 0.1181, 0.1673 0.7717 0.1378, 0.1673 -0.5748 0.1378, 0.148 0.2507 0.1185, 0.148 0.2969 0.1185, -1.8012 0.7717 0.3543, -1.7815 0.7244 0.3543, -1.7815 0.2323 0.3543, -1.6634 0.7244 0.3543, -1.6437 0.7717 0.3543, -1.6634 0.2323 0.3543, -1.6437 -0.5748 0.3543, -1.8012 -0.5748 0.3543, -1.3091 0.7717 0.3543, -1.2894 0.7244 0.3543, -1.2894 0.2323 0.3543, -1.1713 0.7244 0.3543, -1.1516 0.7717 0.3543, -1.1713 0.2323 0.3543, -1.1516 -0.5748 0.3543, -1.3091 -0.5748 0.3543, -0.8169 0.7717 0.3543, -0.7972 0.7244 0.3543, -0.7972 0.2323 0.3543, -0.6791 0.7244 0.3543, -0.6594 0.7717 0.3543, -0.6791 0.2323 0.3543, -0.6594 -0.5748 0.3543, -0.8169 -0.5748 0.3543, -0.3248 0.7717 0.3543, -0.3051 0.7244 0.3543, -0.3051 0.2323 0.3543, -0.187 0.7244 0.3543, -0.1673 0.7717 0.3543, -0.187 0.2323 0.3543, -0.1673 -0.5748 0.3543, -0.3248 -0.5748 0.3543, 1.6437 0.7717 0.3543, 1.6634 0.7244 0.3543, 1.6634 0.2323 0.3543, 1.7815 0.7244 0.3543, 1.8012 0.7717 0.3543, 1.7815 0.2323 0.3543, 1.8012 -0.5748 0.3543, 1.6437 -0.5748 0.3543, 1.1516 0.7717 0.3543, 1.1713 0.7244 0.3543, 1.1713 0.2323 0.3543, 1.2894 0.7244 0.3543, 1.3091 0.7717 0.3543, 1.2894 0.2323 0.3543, 1.3091 -0.5748 0.3543, 1.1516 -0.5748 0.3543, 0.6594 0.7717 0.3543, 0.6791 0.7244 0.3543, 0.6791 0.2323 0.3543, 0.7972 0.7244 0.3543, 0.8169 0.7717 0.3543, 0.7972 0.2323 0.3543, 0.8169 -0.5748 0.3543, 0.6594 -0.5748 0.3543, 0.1673 0.7717 0.3543, 0.187 0.7244 0.3543, 0.187 0.2323 0.3543, 0.3051 0.7244 0.3543, 0.3248 0.7717 0.3543, 0.3051 0.2323 0.3543, 0.3248 -0.5748 0.3543, 0.1673 -0.5748 0.3543, -1.8209 -0.5748 0.1181, -2.0866 -0.5748 0.1181, -1.8209 0.7717 0.1181, -2.0866 0.7717 0.1181, -1.624 0.7717 0.1181, -1.3287 0.7717 0.1181, -1.624 -0.5748 0.1181, -1.3287 -0.5748 0.1181, -1.1319 0.7717 0.1181, -0.8366 0.7717 0.1181, -1.1319 -0.5748 0.1181, -0.8366 -0.5748 0.1181, 1.624 -0.5748 0.1181, 1.3287 -0.5748 0.1181, 1.624 0.7717 0.1181, 1.3287 0.7717 0.1181, 1.1319 -0.5748 0.1181, 0.8366 -0.5748 0.1181, 1.1319 0.7717 0.1181, 0.8366 0.7717 0.1181, 0.6398 -0.5748 0.1181, 0.3445 -0.5748 0.1181, 0.6398 0.7717 0.1181, 0.3445 0.7717 0.1181, -0.6398 0.7717 0.1181, -0.3445 0.7717 0.1181, -0.6398 -0.5748 0.1181, -0.3445 -0.5748 0.1181, -2.0866 -0.5748 0.0, -2.3228 -0.5748 0.0, -2.0866 0.7717 0.0, -2.3228 0.7717 0.0, 2.874 0.7717 0.0945, 2.7165 0.7717 0.0945, 2.9331 0.7717 0.1969, 2.7165 0.7717 0.8858, 2.9331 0.7717 0.8858, 2.9331 -0.3386 0.8858, 2.3228 -0.3386 0.8858, 2.9331 -0.3386 0.1969, 2.3228 -0.3386 0.0945, 2.874 -0.3386 0.0945, 2.7165 0.1024 0.8858, 2.7165 0.1024 0.0945, 2.3228 0.1024 0.8858, 2.3228 0.1024 0.0945, 2.3228 0.7717 1.8701, 2.3228 0.7717 0.0, 2.0866 0.7717 0.1181, 2.0866 0.7717 0.0, 0.8169 0.7717 0.1378, 1.0925 0.7717 0.689, -1.2008 0.7717 1.8701, 1.0925 0.7717 1.2795, 1.2008 0.7717 1.8701, 1.2008 0.7717 1.2795, 0.3248 0.7717 0.1378, 1.6437 0.7717 0.1378, 1.8209 0.7717 0.1181, 1.8012 0.7717 0.1378, 1.3091 0.7717 0.1378, 1.1516 0.7717 0.1378, -1.0925 0.7717 1.2795, -1.2008 0.7717 1.2795, 1.3583 0.7717 1.2795, 1.3583 0.7717 1.8701, 1.4665 0.7717 1.2795, 1.4665 0.7717 0.689, -0.1673 0.7717 0.1378, 0.6594 0.7717 0.1378, -1.4665 0.7717 0.689, -1.0925 0.7717 0.689, -1.1516 0.7717 0.1378, -0.6594 0.7717 0.1378, -0.3248 0.7717 0.1378, -2.3228 0.7717 1.8701, -1.3583 0.7717 1.8701, -1.3583 0.7717 1.2795, -1.4665 0.7717 1.2795, -0.8169 0.7717 0.1378, -1.8012 0.7717 0.1378, -1.6437 0.7717 0.1378, -1.3091 0.7717 0.1378, 2.0866 0.2126 1.7717, 2.0866 0.5354 1.7717, 2.0866 0.2126 0.4921, 2.0866 0.5354 0.4921, -2.0866 0.2126 0.4921, -2.0866 0.5354 0.4921, -2.0866 0.2126 1.7717, -2.0866 0.5354 1.7717, 2.185 0.6339 1.8701, 2.185 0.2126 1.8701, -2.185 0.6339 1.8701, -2.185 0.2126 1.8701, -1.3583 0.6339 1.8701, -2.3228 -0.3386 1.8701, -2.185 -0.1024 1.8701, -2.185 -0.3386 1.8701, 1.3583 0.6339 1.8701, 2.3228 -0.3386 1.8701, 2.185 -0.1024 1.8701, 2.185 -0.3386 1.8701, 2.0866 -0.5748 0.1181, 2.0866 -0.5748 0.0, 2.3228 -0.5748 0.0, -0.9843 -0.5748 0.4921, -1.1516 -0.5748 0.1378, -0.4921 -0.5748 0.4921, -0.3248 -0.5748 0.1378, -1.8898 -0.5748 0.4921, -2.3228 -0.5748 1.2795, -1.8898 -0.5748 1.2795, -0.8169 -0.5748 0.1378, -0.6594 -0.5748 0.1378, -1.8012 -0.5748 0.1378, -1.4764 -0.5748 0.4921, 0.0 -0.5748 0.4921, -0.1673 -0.5748 0.1378, 0.4921 -0.5748 0.4921, -1.6437 -0.5748 0.1378, 0.6594 -0.5748 0.1378, -1.3091 -0.5748 0.1378, 0.3248 -0.5748 0.1378, 1.1516 -0.5748 0.1378, 0.8169 -0.5748 0.1378, 0.9843 -0.5748 0.4921, 1.4764 -0.5748 0.4921, 1.8898 -0.5748 0.4921, 1.6437 -0.5748 0.1378, 1.3091 -0.5748 0.1378, 1.8012 -0.5748 0.1378, 1.8209 -0.5748 0.1181, 2.3228 -0.5748 1.2795, 1.8898 -0.5748 1.2795, 2.0866 -0.3386 0.4921, 1.8898 -0.3386 0.4921, 2.0866 -0.3386 1.2795, 1.8898 -0.3386 1.2795, -2.0866 -0.3386 0.4921, -2.0866 -0.3386 1.2795, -1.9833 -0.3386 0.4921, -1.8898 -0.3386 1.2795, -1.8898 -0.3386 0.4921, -2.9331 0.7717 0.8858, -2.7165 0.7717 0.8858, -2.9331 0.7717 0.1969, -2.7165 0.7717 0.0945, -2.874 0.7717 0.0945, -2.9331 -0.3386 0.1969, -2.9331 -0.3386 0.8858, 1.2008 0.6339 1.8701, -1.2008 0.6339 1.8701, 2.0866 -0.1024 1.7717, 2.0866 -0.1024 0.4921, 2.0866 -0.1713 0.4921, 2.0866 -0.3386 1.7717, -2.0866 -0.1713 0.4921, -2.0866 -0.1024 0.4921, -2.0866 -0.1024 1.7717, -2.0866 -0.3386 1.7717, 1.3583 0.5354 1.7717, 1.3583 0.5354 1.2795, 1.4665 0.5354 1.2795, 1.4665 0.5354 0.689, 1.4764 0.5354 0.4921, 1.0925 0.5354 0.689, -1.4665 0.5354 1.2795, -1.3583 0.5354 1.2795, -1.3583 0.5354 1.7717, 1.2008 0.5354 1.2795, 1.2008 0.5354 1.7717, 1.0925 0.5354 1.2795, -1.2008 0.5354 1.7717, -1.0925 0.5354 1.2795, -1.2008 0.5354 1.2795, -1.9833 0.5354 0.4921, 0.4921 0.5354 0.4921, 0.9843 0.5354 0.4921, -1.4665 0.5354 0.689, -1.4764 0.5354 0.4921, -1.0925 0.5354 0.689, -0.9843 0.5354 0.4921, -0.4921 0.5354 0.4921, 0.0 0.5354 0.4921, 1.4764 -0.1713 0.4921, -1.9833 -0.1713 0.4921, -1.4764 -0.1713 0.4921, -2.185 -0.1024 0.4921, -2.185 0.2126 0.4921, 2.185 -0.1024 0.4921, 2.185 0.2126 0.4921, 1.6634 0.2323 0.4921, 1.6634 0.4094 0.4921, 1.7815 0.4094 0.4921, 1.7815 0.2323 0.4921, 1.1713 0.4094 0.4921, 1.1713 0.2323 0.4921, 0.9843 -0.1713 0.4921, 1.2894 0.2323 0.4921, 1.2894 0.4094 0.4921, 0.6791 0.4094 0.4921, 0.6791 0.2323 0.4921, 0.4921 -0.1713 0.4921, 0.7972 0.2323 0.4921, 0.7972 0.4094 0.4921, 0.187 0.4094 0.4921, 0.187 0.2323 0.4921, 0.0 -0.1713 0.4921, 0.3051 0.2323 0.4921, 0.3051 0.4094 0.4921, -0.3051 0.4094 0.4921, -0.3051 0.2323 0.4921, -0.4921 -0.1713 0.4921, -0.187 0.2323 0.4921, -0.187 0.4094 0.4921, -0.7972 0.4094 0.4921, -0.7972 0.2323 0.4921, -0.9843 -0.1713 0.4921, -0.6791 0.2323 0.4921, -0.6791 0.4094 0.4921, -1.2894 0.4094 0.4921, -1.2894 0.2323 0.4921, -1.1713 0.2323 0.4921, -1.1713 0.4094 0.4921, -1.7815 0.4094 0.4921, -1.7815 0.2323 0.4921, -1.6634 0.2323 0.4921, -1.6634 0.4094 0.4921, 2.3228 -0.3386 1.2795, -2.3228 -0.3386 1.2795, -2.3228 0.1024 0.8858, -2.3228 -0.3386 0.8858, -2.3228 -0.3386 0.0945, -2.3228 0.1024 0.0945, -2.7165 0.1024 0.8858, -2.874 -0.3386 0.0945, -2.7165 0.1024 0.0945, -2.7165 0.1024 0.0945
            ]
        }
        coordIndex [
            0,1,2,-1,3,4,5,-1,5,6,3,-1,3,6,7,-1,3,7,8,-1,9,10,11,-1,12,13,14,-1,11,15,9,-1,9,15,16,-1,9,16,17,-1,16,18,19,-1,0,2,20,-1,20,2,5,-1,20,5,21,-1,21,5,4,-1,21,4,22,-1,23,24,25,-1,25,24,26,-1,27,28,29,-1,29,28,30,-1,31,25,32,-1,32,25,26,-1,32,26,33,-1,33,26,34,-1,35,36,37,-1,37,36,38,-1,17,23,39,-1,1,40,2,-1,2,40,41,-1,2,41,42,-1,43,44,2,-1,2,44,45,-1,46,47,48,-1,48,47,49,-1,45,50,2,-1,2,50,49,-1,2,49,51,-1,51,49,47,-1,52,53,16,-1,54,19,55,-1,55,19,56,-1,55,56,57,-1,57,56,58,-1,59,60,36,-1,36,60,61,-1,36,61,38,-1,62,63,64,-1,64,63,17,-1,64,17,29,-1,29,17,39,-1,29,39,27,-1,42,65,2,-1,2,65,66,-1,2,66,43,-1,53,67,16,-1,16,67,68,-1,16,68,69,-1,30,70,29,-1,29,70,71,-1,29,71,72,-1,54,73,19,-1,19,73,74,-1,19,74,16,-1,16,74,75,-1,16,75,52,-1,69,76,16,-1,16,76,77,-1,16,77,17,-1,17,77,78,-1,14,24,12,-1,12,24,23,-1,12,23,79,-1,79,23,17,-1,79,17,4,-1,4,17,78,-1,4,78,22,-1,72,80,29,-1,29,80,81,-1,29,81,36,-1,36,81,82,-1,36,82,59,-1,83,84,85,-1,85,84,86,-1,10,87,11,-1,11,87,56,-1,88,63,62,-1,62,85,88,-1,88,85,86,-1,88,86,36,-1,3,8,89,-1,36,35,88,-1,88,35,25,-1,88,25,31,-1,31,3,88,-1,88,3,89,-1,88,89,87,-1,87,89,90,-1,87,90,56,-1,56,90,58,-1,91,92,93,-1,92,91,94,-1,94,91,95,-1,94,95,96,-1,96,95,97,-1,96,97,93,-1,93,97,98,-1,93,98,91,-1,99,100,101,-1,100,99,102,-1,102,99,103,-1,102,103,104,-1,104,103,105,-1,104,105,101,-1,101,105,106,-1,101,106,99,-1,107,108,109,-1,108,107,110,-1,110,107,111,-1,110,111,112,-1,112,111,113,-1,112,113,109,-1,109,113,114,-1,109,114,107,-1,115,116,117,-1,116,115,118,-1,118,115,119,-1,118,119,120,-1,120,119,121,-1,120,121,117,-1,117,121,122,-1,117,122,115,-1,123,124,125,-1,124,123,126,-1,126,123,127,-1,126,127,128,-1,128,127,129,-1,128,129,125,-1,125,129,130,-1,125,130,123,-1,131,132,133,-1,132,131,134,-1,134,131,135,-1,134,135,136,-1,136,135,137,-1,136,137,133,-1,133,137,138,-1,133,138,131,-1,139,140,141,-1,140,139,142,-1,142,139,143,-1,142,143,144,-1,144,143,145,-1,144,145,141,-1,141,145,146,-1,141,146,139,-1,147,148,149,-1,148,147,150,-1,150,147,151,-1,150,151,152,-1,152,151,153,-1,152,153,149,-1,149,153,154,-1,149,154,147,-1,155,156,157,-1,157,156,158,-1,159,160,161,-1,161,160,162,-1,163,164,165,-1,165,164,166,-1,167,168,169,-1,169,168,170,-1,171,172,173,-1,173,172,174,-1,175,176,177,-1,177,176,178,-1,179,180,181,-1,181,180,182,-1,183,184,185,-1,185,184,186,-1,187,188,189,-1,189,188,190,-1,189,190,191,-1,192,193,194,-1,194,193,195,-1,194,195,196,-1,197,190,198,-1,198,190,188,-1,199,197,200,-1,200,197,198,-1,187,189,196,-1,196,189,194,-1,201,202,203,-1,203,202,204,-1,174,205,143,-1,206,207,208,-1,208,207,209,-1,208,209,210,-1,178,211,151,-1,212,169,123,-1,123,169,170,-1,213,214,203,-1,203,214,127,-1,203,127,201,-1,201,127,123,-1,201,123,135,-1,135,123,170,-1,135,170,215,-1,173,174,216,-1,216,174,143,-1,216,143,131,-1,217,218,207,-1,219,220,221,-1,221,220,201,-1,221,201,222,-1,222,201,135,-1,222,135,206,-1,206,135,131,-1,206,131,207,-1,9,223,119,-1,177,178,224,-1,224,178,151,-1,224,151,139,-1,119,115,225,-1,147,226,217,-1,10,9,87,-1,87,9,119,-1,87,119,147,-1,147,119,225,-1,147,225,226,-1,131,143,207,-1,207,143,139,-1,207,139,217,-1,217,139,151,-1,217,151,147,-1,163,227,103,-1,228,111,179,-1,179,111,229,-1,179,229,180,-1,230,231,232,-1,232,233,230,-1,230,233,225,-1,230,225,99,-1,99,225,103,-1,164,163,234,-1,234,163,103,-1,234,103,107,-1,107,103,225,-1,107,225,111,-1,111,225,115,-1,111,115,229,-1,91,235,157,-1,236,95,159,-1,159,95,237,-1,159,237,160,-1,185,186,158,-1,158,186,230,-1,157,158,91,-1,91,158,230,-1,91,230,95,-1,95,230,99,-1,95,99,237,-1,238,239,240,-1,240,239,241,-1,242,243,244,-1,244,243,245,-1,246,239,247,-1,247,239,238,-1,245,248,244,-1,244,248,249,-1,250,231,248,-1,248,231,230,-1,248,230,249,-1,249,230,251,-1,249,251,252,-1,252,251,253,-1,201,220,254,-1,254,246,201,-1,201,246,247,-1,201,247,255,-1,255,247,256,-1,255,256,257,-1,258,259,260,-1,261,105,262,-1,263,261,114,-1,182,264,122,-1,183,156,184,-1,184,156,265,-1,184,265,266,-1,266,265,267,-1,268,114,166,-1,166,114,261,-1,166,261,165,-1,165,261,262,-1,114,113,263,-1,263,113,269,-1,263,269,181,-1,155,270,156,-1,156,270,98,-1,156,98,265,-1,265,98,271,-1,181,182,263,-1,263,182,122,-1,263,122,272,-1,272,122,121,-1,272,121,273,-1,274,272,154,-1,98,97,271,-1,271,97,275,-1,271,275,161,-1,175,276,146,-1,105,261,106,-1,106,261,271,-1,106,271,277,-1,277,271,161,-1,277,161,162,-1,88,154,63,-1,63,154,272,-1,63,272,17,-1,17,272,273,-1,154,153,274,-1,274,153,278,-1,274,278,176,-1,171,279,138,-1,145,280,172,-1,176,175,274,-1,274,175,146,-1,274,146,281,-1,281,146,145,-1,281,145,282,-1,282,145,283,-1,137,283,138,-1,138,283,145,-1,138,145,171,-1,171,145,172,-1,167,284,130,-1,137,285,168,-1,129,286,287,-1,260,288,258,-1,258,288,289,-1,258,289,283,-1,168,167,137,-1,137,167,130,-1,137,130,283,-1,283,130,129,-1,283,129,258,-1,258,129,287,-1,290,291,292,-1,292,291,293,-1,291,283,293,-1,293,283,289,-1,294,295,296,-1,296,295,297,-1,296,297,298,-1,189,191,194,-1,194,191,192,-1,299,300,301,-1,301,300,302,-1,301,302,303,-1,304,305,301,-1,301,305,299,-1,306,209,307,-1,307,209,207,-1,204,202,259,-1,259,202,260,-1,308,309,310,-1,310,290,308,-1,308,290,292,-1,308,292,311,-1,312,313,314,-1,294,312,295,-1,295,312,314,-1,295,314,315,-1,316,317,239,-1,239,317,318,-1,239,318,241,-1,241,318,319,-1,241,319,320,-1,320,319,321,-1,322,323,324,-1,325,326,327,-1,327,326,328,-1,327,328,329,-1,329,328,330,-1,245,243,331,-1,327,332,321,-1,321,332,333,-1,321,333,320,-1,324,245,322,-1,322,245,331,-1,322,331,334,-1,334,331,335,-1,334,335,336,-1,336,335,337,-1,336,337,329,-1,329,337,338,-1,329,338,327,-1,327,338,339,-1,327,339,332,-1,298,265,271,-1,290,310,291,-1,291,310,340,-1,341,296,342,-1,342,296,298,-1,341,331,242,-1,242,331,243,-1,294,296,312,-1,312,296,341,-1,312,341,313,-1,313,341,242,-1,313,242,343,-1,343,242,344,-1,345,346,309,-1,309,346,240,-1,310,309,340,-1,340,309,347,-1,340,347,320,-1,320,347,348,-1,320,348,241,-1,241,348,349,-1,241,349,240,-1,240,349,350,-1,240,350,309,-1,309,350,347,-1,351,333,352,-1,352,333,353,-1,352,353,354,-1,354,353,340,-1,354,340,355,-1,355,340,320,-1,355,320,351,-1,351,320,333,-1,356,332,357,-1,357,332,358,-1,357,358,359,-1,359,358,353,-1,359,353,360,-1,360,353,333,-1,360,333,356,-1,356,333,332,-1,361,339,362,-1,362,339,363,-1,362,363,364,-1,364,363,358,-1,364,358,365,-1,365,358,332,-1,365,332,361,-1,361,332,339,-1,366,338,367,-1,367,338,368,-1,367,368,369,-1,369,368,363,-1,369,363,370,-1,370,363,339,-1,370,339,366,-1,366,339,338,-1,371,337,372,-1,372,337,373,-1,372,373,374,-1,374,373,368,-1,374,368,375,-1,375,368,338,-1,375,338,371,-1,371,338,337,-1,376,335,377,-1,377,335,342,-1,377,342,378,-1,378,342,373,-1,378,373,379,-1,379,373,337,-1,379,337,376,-1,376,337,335,-1,380,331,381,-1,381,331,341,-1,381,341,382,-1,382,341,342,-1,382,342,383,-1,383,342,335,-1,383,335,380,-1,380,335,331,-1,298,271,342,-1,342,271,261,-1,342,261,373,-1,373,261,263,-1,373,263,368,-1,368,263,272,-1,368,272,363,-1,363,272,274,-1,363,274,358,-1,358,274,281,-1,358,281,353,-1,353,281,282,-1,353,282,340,-1,340,282,283,-1,340,283,291,-1,267,265,297,-1,297,265,298,-1,199,193,197,-1,197,193,192,-1,197,192,190,-1,190,192,191,-1,255,384,201,-1,201,384,199,-1,201,199,202,-1,202,199,200,-1,202,200,260,-1,260,200,195,-1,260,195,288,-1,288,195,193,-1,288,193,384,-1,384,193,199,-1,385,251,230,-1,386,387,266,-1,266,387,184,-1,184,387,388,-1,184,388,389,-1,266,385,386,-1,386,385,230,-1,386,230,389,-1,389,230,186,-1,389,186,184,-1,300,299,390,-1,390,299,305,-1,390,305,386,-1,386,305,387,-1,391,388,304,-1,304,388,387,-1,304,387,305,-1,295,315,385,-1,385,315,253,-1,385,253,251,-1,385,266,295,-1,295,266,267,-1,295,267,297,-1,311,292,257,-1,257,292,384,-1,257,384,255,-1,288,384,289,-1,289,384,292,-1,289,292,293,-1,221,318,219,-1,219,318,317,-1,317,316,219,-1,219,316,254,-1,219,254,220,-1,326,325,306,-1,306,325,210,-1,306,210,209,-1,210,325,208,-1,208,325,327,-1,208,327,206,-1,206,327,321,-1,206,321,222,-1,222,321,319,-1,222,319,221,-1,221,319,318,-1,324,323,250,-1,250,323,232,-1,250,232,231,-1,232,323,233,-1,233,323,322,-1,233,322,225,-1,225,322,334,-1,225,334,226,-1,226,334,336,-1,226,336,217,-1,217,336,329,-1,217,329,218,-1,218,329,330,-1,330,328,218,-1,218,328,307,-1,218,307,207,-1,239,246,316,-1,316,246,254,-1,311,257,308,-1,308,257,256,-1,307,328,306,-1,306,328,326,-1,253,315,252,-1,252,315,314,-1,248,245,250,-1,250,245,324,-1,249,252,344,-1,344,252,343,-1,344,242,249,-1,249,242,244,-1,313,343,314,-1,314,343,252,-1,240,346,238,-1,238,346,247,-1,256,247,345,-1,345,247,346,-1,345,309,256,-1,256,309,308,-1,392,390,389,-1,389,390,386,-1,302,300,392,-1,392,300,390,-1,304,301,391,-1,391,301,303,-1,389,388,392,-1,392,388,391,-1,392,391,302,-1,302,391,303,-1,188,187,198,-1,198,187,196,-1,198,196,200,-1,200,196,195,-1,158,156,185,-1,185,156,183,-1,258,203,259,-1,259,203,204,-1,213,203,287,-1,287,203,258,-1,229,115,264,-1,264,115,122,-1,273,121,223,-1,223,121,119,-1,180,229,182,-1,182,229,264,-1,17,273,9,-1,9,273,223,-1,87,147,88,-1,88,147,154,-1,278,153,211,-1,211,153,151,-1,224,139,276,-1,276,139,146,-1,280,145,205,-1,205,145,143,-1,216,131,279,-1,279,131,138,-1,285,137,215,-1,215,137,135,-1,212,123,284,-1,284,123,130,-1,286,129,214,-1,214,129,127,-1,234,107,268,-1,268,107,114,-1,269,113,228,-1,228,113,111,-1,237,99,277,-1,277,99,106,-1,262,105,227,-1,227,105,103,-1,235,91,270,-1,270,91,98,-1,275,97,236,-1,236,97,95,-1,164,234,166,-1,166,234,268,-1,181,269,179,-1,179,269,228,-1,160,237,162,-1,162,237,277,-1,165,262,163,-1,163,262,227,-1,157,235,155,-1,155,235,270,-1,161,275,159,-1,159,275,236,-1,176,278,178,-1,178,278,211,-1,177,224,175,-1,175,224,276,-1,172,280,174,-1,174,280,205,-1,173,216,171,-1,171,216,279,-1,168,285,170,-1,170,285,215,-1,169,212,167,-1,167,212,284,-1,287,286,213,-1,213,286,214,-1,
        ]
    }
}
Shape{
    appearance Appearance {
        material  Material 	{
            diffuseColor 1.0 1.0 1.0
            specularColor 0.5019607843137255 0.5019607843137255 0.5019607843137255
            ambientIntensity 0.2
            transparency 0
            shininess 0.5
        }
    }
    geometry IndexedFaceSet {
        ccw TRUE
        solid FALSE
        coord DEF co Coordinate {
            point [
                0.3051 -0.4513 0.252, 0.3051 0.2323 0.252, 0.187 -0.4513 0.252, 0.187 0.2323 0.252, 0.3051 -0.5301 0.1732, 0.187 -0.5301 0.1732, 0.3051 -0.7323 0.1732, 0.187 -0.7323 0.1732, 0.187 -0.7717 0.1339, 0.187 -0.7717 0.0354, 0.3051 -0.7717 0.1339, 0.3051 -0.7717 0.0354, 0.187 -0.7323 -0.0039, 0.187 -0.4567 -0.0039, 0.3051 -0.7323 -0.0039, 0.3051 -0.4567 -0.0039, 0.3051 -0.378 0.0748, 0.187 -0.378 0.0748, 0.3051 0.685 0.0748, 0.187 0.685 0.0748, 0.3051 0.7244 0.3543, 0.3051 0.2323 0.3543, 0.3051 0.7244 0.1142, 0.3051 0.7231 0.104, 0.3051 0.7191 0.0945, 0.3051 0.6952 0.0761, 0.3051 0.7047 0.0801, 0.3051 0.7129 0.0863, 0.3051 -0.752 0.168, 0.3051 -0.7601 0.1617, 0.3051 -0.7425 0.1719, 0.3051 -0.7664 0.1535, 0.3051 -0.7703 0.144, 0.3051 -0.7703 0.0252, 0.3051 -0.7664 0.0157, 0.3051 -0.7425 -0.0026, 0.3051 -0.7601 0.0076, 0.3051 -0.752 0.0013, 0.187 0.2323 0.3543, 0.187 0.7244 0.3543, 0.187 0.7244 0.1142, 0.187 0.7231 0.104, 0.187 0.7191 0.0945, 0.187 0.7129 0.0863, 0.187 0.7047 0.0801, 0.187 0.6952 0.0761, 0.187 -0.752 0.0013, 0.187 -0.7601 0.0076, 0.187 -0.7425 -0.0026, 0.187 -0.7664 0.0157, 0.187 -0.7703 0.0252, 0.187 -0.7703 0.144, 0.187 -0.7664 0.1535, 0.187 -0.7425 0.1719, 0.187 -0.7601 0.1617, 0.187 -0.752 0.168, 0.3051 0.4094 1.1378, 0.3051 0.4094 0.4921, 0.187 0.4094 1.1378, 0.187 0.4094 0.4921, 0.187 0.2323 1.1378, 0.187 0.2323 0.4921, 0.3051 0.2323 1.1378, 0.3051 0.2323 0.4921, 0.3051 0.3747 1.3346, 0.3051 0.267 1.3346, 0.187 0.3747 1.3346, 0.187 0.267 1.3346, 0.7972 -0.4513 0.252, 0.7972 0.2323 0.252, 0.6791 -0.4513 0.252, 0.6791 0.2323 0.252, 0.7972 -0.5301 0.1732, 0.6791 -0.5301 0.1732, 0.7972 -0.7323 0.1732, 0.6791 -0.7323 0.1732, 0.6791 -0.7717 0.1339, 0.6791 -0.7717 0.0354, 0.7972 -0.7717 0.1339, 0.7972 -0.7717 0.0354, 0.6791 -0.7323 -0.0039, 0.6791 -0.4567 -0.0039, 0.7972 -0.7323 -0.0039, 0.7972 -0.4567 -0.0039, 0.7972 -0.378 0.0748, 0.6791 -0.378 0.0748, 0.7972 0.685 0.0748, 0.6791 0.685 0.0748, 0.7972 0.7244 0.3543, 0.7972 0.2323 0.3543, 0.7972 0.7244 0.1142, 0.7972 0.7231 0.104, 0.7972 0.7191 0.0945, 0.7972 0.6952 0.0761, 0.7972 0.7047 0.0801, 0.7972 0.7129 0.0863, 0.7972 -0.752 0.168, 0.7972 -0.7601 0.1617, 0.7972 -0.7425 0.1719, 0.7972 -0.7664 0.1535, 0.7972 -0.7703 0.144, 0.7972 -0.7703 0.0252, 0.7972 -0.7664 0.0157, 0.7972 -0.7425 -0.0026, 0.7972 -0.7601 0.0076, 0.7972 -0.752 0.0013, 0.6791 0.2323 0.3543, 0.6791 0.7244 0.3543, 0.6791 0.7244 0.1142, 0.6791 0.7231 0.104, 0.6791 0.7191 0.0945, 0.6791 0.7129 0.0863, 0.6791 0.7047 0.0801, 0.6791 0.6952 0.0761, 0.6791 -0.752 0.0013, 0.6791 -0.7601 0.0076, 0.6791 -0.7425 -0.0026, 0.6791 -0.7664 0.0157, 0.6791 -0.7703 0.0252, 0.6791 -0.7703 0.144, 0.6791 -0.7664 0.1535, 0.6791 -0.7425 0.1719, 0.6791 -0.7601 0.1617, 0.6791 -0.752 0.168, 0.7972 0.4094 1.1378, 0.7972 0.4094 0.4921, 0.6791 0.4094 1.1378, 0.6791 0.4094 0.4921, 0.6791 0.2323 1.1378, 0.6791 0.2323 0.4921, 0.7972 0.2323 1.1378, 0.7972 0.2323 0.4921, 0.7972 0.3747 1.3346, 0.7972 0.267 1.3346, 0.6791 0.3747 1.3346, 0.6791 0.267 1.3346, 1.2894 -0.4513 0.252, 1.2894 0.2323 0.252, 1.1713 -0.4513 0.252, 1.1713 0.2323 0.252, 1.2894 -0.5301 0.1732, 1.1713 -0.5301 0.1732, 1.2894 -0.7323 0.1732, 1.1713 -0.7323 0.1732, 1.1713 -0.7717 0.1339, 1.1713 -0.7717 0.0354, 1.2894 -0.7717 0.1339, 1.2894 -0.7717 0.0354, 1.1713 -0.7323 -0.0039, 1.1713 -0.4567 -0.0039, 1.2894 -0.7323 -0.0039, 1.2894 -0.4567 -0.0039, 1.2894 -0.378 0.0748, 1.1713 -0.378 0.0748, 1.2894 0.685 0.0748, 1.1713 0.685 0.0748, 1.2894 0.7244 0.3543, 1.2894 0.2323 0.3543, 1.2894 0.7244 0.1142, 1.2894 0.7231 0.104, 1.2894 0.7191 0.0945, 1.2894 0.6952 0.0761, 1.2894 0.7047 0.0801, 1.2894 0.7129 0.0863, 1.2894 -0.752 0.168, 1.2894 -0.7601 0.1617, 1.2894 -0.7425 0.1719, 1.2894 -0.7664 0.1535, 1.2894 -0.7703 0.144, 1.2894 -0.7703 0.0252, 1.2894 -0.7664 0.0157, 1.2894 -0.7425 -0.0026, 1.2894 -0.7601 0.0076, 1.2894 -0.752 0.0013, 1.1713 0.2323 0.3543, 1.1713 0.7244 0.3543, 1.1713 0.7244 0.1142, 1.1713 0.7231 0.104, 1.1713 0.7191 0.0945, 1.1713 0.7129 0.0863, 1.1713 0.7047 0.0801, 1.1713 0.6952 0.0761, 1.1713 -0.752 0.0013, 1.1713 -0.7601 0.0076, 1.1713 -0.7425 -0.0026, 1.1713 -0.7664 0.0157, 1.1713 -0.7703 0.0252, 1.1713 -0.7703 0.144, 1.1713 -0.7664 0.1535, 1.1713 -0.7425 0.1719, 1.1713 -0.7601 0.1617, 1.1713 -0.752 0.168, 1.2894 0.4094 1.1378, 1.2894 0.4094 0.4921, 1.1713 0.4094 1.1378, 1.1713 0.4094 0.4921, 1.1713 0.2323 1.1378, 1.1713 0.2323 0.4921, 1.2894 0.2323 1.1378, 1.2894 0.2323 0.4921, 1.2894 0.3747 1.3346, 1.2894 0.267 1.3346, 1.1713 0.3747 1.3346, 1.1713 0.267 1.3346, 1.7815 -0.4513 0.252, 1.7815 0.2323 0.252, 1.6634 -0.4513 0.252, 1.6634 0.2323 0.252, 1.7815 -0.5301 0.1732, 1.6634 -0.5301 0.1732, 1.7815 -0.7323 0.1732, 1.6634 -0.7323 0.1732, 1.6634 -0.7717 0.1339, 1.6634 -0.7717 0.0354, 1.7815 -0.7717 0.1339, 1.7815 -0.7717 0.0354, 1.6634 -0.7323 -0.0039, 1.6634 -0.4567 -0.0039, 1.7815 -0.7323 -0.0039, 1.7815 -0.4567 -0.0039, 1.7815 -0.378 0.0748, 1.6634 -0.378 0.0748, 1.7815 0.685 0.0748, 1.6634 0.685 0.0748, 1.7815 0.7244 0.3543, 1.7815 0.2323 0.3543, 1.7815 0.7244 0.1142, 1.7815 0.7231 0.104, 1.7815 0.7191 0.0945, 1.7815 0.6952 0.0761, 1.7815 0.7047 0.0801, 1.7815 0.7129 0.0863, 1.7815 -0.752 0.168, 1.7815 -0.7601 0.1617, 1.7815 -0.7425 0.1719, 1.7815 -0.7664 0.1535, 1.7815 -0.7703 0.144, 1.7815 -0.7703 0.0252, 1.7815 -0.7664 0.0157, 1.7815 -0.7425 -0.0026, 1.7815 -0.7601 0.0076, 1.7815 -0.752 0.0013, 1.6634 0.2323 0.3543, 1.6634 0.7244 0.3543, 1.6634 0.7244 0.1142, 1.6634 0.7231 0.104, 1.6634 0.7191 0.0945, 1.6634 0.7129 0.0863, 1.6634 0.7047 0.0801, 1.6634 0.6952 0.0761, 1.6634 -0.752 0.0013, 1.6634 -0.7601 0.0076, 1.6634 -0.7425 -0.0026, 1.6634 -0.7664 0.0157, 1.6634 -0.7703 0.0252, 1.6634 -0.7703 0.144, 1.6634 -0.7664 0.1535, 1.6634 -0.7425 0.1719, 1.6634 -0.7601 0.1617, 1.6634 -0.752 0.168, 1.7815 0.4094 1.1378, 1.7815 0.4094 0.4921, 1.6634 0.4094 1.1378, 1.6634 0.4094 0.4921, 1.6634 0.2323 1.1378, 1.6634 0.2323 0.4921, 1.7815 0.2323 1.1378, 1.7815 0.2323 0.4921, 1.7815 0.3747 1.3346, 1.7815 0.267 1.3346, 1.6634 0.3747 1.3346, 1.6634 0.267 1.3346, -0.187 -0.4513 0.252, -0.187 0.2323 0.252, -0.3051 -0.4513 0.252, -0.3051 0.2323 0.252, -0.187 -0.5301 0.1732, -0.3051 -0.5301 0.1732, -0.187 -0.7323 0.1732, -0.3051 -0.7323 0.1732, -0.3051 -0.7717 0.1339, -0.3051 -0.7717 0.0354, -0.187 -0.7717 0.1339, -0.187 -0.7717 0.0354, -0.3051 -0.7323 -0.0039, -0.3051 -0.4567 -0.0039, -0.187 -0.7323 -0.0039, -0.187 -0.4567 -0.0039, -0.187 -0.378 0.0748, -0.3051 -0.378 0.0748, -0.187 0.685 0.0748, -0.3051 0.685 0.0748, -0.187 0.7244 0.3543, -0.187 0.2323 0.3543, -0.187 0.7244 0.1142, -0.187 0.7231 0.104, -0.187 0.7191 0.0945, -0.187 0.6952 0.0761, -0.187 0.7047 0.0801, -0.187 0.7129 0.0863, -0.187 -0.752 0.168, -0.187 -0.7601 0.1617, -0.187 -0.7425 0.1719, -0.187 -0.7664 0.1535, -0.187 -0.7703 0.144, -0.187 -0.7703 0.0252, -0.187 -0.7664 0.0157, -0.187 -0.7425 -0.0026, -0.187 -0.7601 0.0076, -0.187 -0.752 0.0013, -0.3051 0.2323 0.3543, -0.3051 0.7244 0.3543, -0.3051 0.7244 0.1142, -0.3051 0.7231 0.104, -0.3051 0.7191 0.0945, -0.3051 0.7129 0.0863, -0.3051 0.7047 0.0801, -0.3051 0.6952 0.0761, -0.3051 -0.752 0.0013, -0.3051 -0.7601 0.0076, -0.3051 -0.7425 -0.0026, -0.3051 -0.7664 0.0157, -0.3051 -0.7703 0.0252, -0.3051 -0.7703 0.144, -0.3051 -0.7664 0.1535, -0.3051 -0.7425 0.1719, -0.3051 -0.7601 0.1617, -0.3051 -0.752 0.168, -0.187 0.4094 1.1378, -0.187 0.4094 0.4921, -0.3051 0.4094 1.1378, -0.3051 0.4094 0.4921, -0.3051 0.2323 1.1378, -0.3051 0.2323 0.4921, -0.187 0.2323 1.1378, -0.187 0.2323 0.4921, -0.187 0.3747 1.3346, -0.187 0.267 1.3346, -0.3051 0.3747 1.3346, -0.3051 0.267 1.3346, -0.6791 -0.4513 0.252, -0.6791 0.2323 0.252, -0.7972 -0.4513 0.252, -0.7972 0.2323 0.252, -0.6791 -0.5301 0.1732, -0.7972 -0.5301 0.1732, -0.6791 -0.7323 0.1732, -0.7972 -0.7323 0.1732, -0.7972 -0.7717 0.1339, -0.7972 -0.7717 0.0354, -0.6791 -0.7717 0.1339, -0.6791 -0.7717 0.0354, -0.7972 -0.7323 -0.0039, -0.7972 -0.4567 -0.0039, -0.6791 -0.7323 -0.0039, -0.6791 -0.4567 -0.0039, -0.6791 -0.378 0.0748, -0.7972 -0.378 0.0748, -0.6791 0.685 0.0748, -0.7972 0.685 0.0748, -0.6791 0.7244 0.3543, -0.6791 0.2323 0.3543, -0.6791 0.7244 0.1142, -0.6791 0.7231 0.104, -0.6791 0.7191 0.0945, -0.6791 0.6952 0.0761, -0.6791 0.7047 0.0801, -0.6791 0.7129 0.0863, -0.6791 -0.752 0.168, -0.6791 -0.7601 0.1617, -0.6791 -0.7425 0.1719, -0.6791 -0.7664 0.1535, -0.6791 -0.7703 0.144, -0.6791 -0.7703 0.0252, -0.6791 -0.7664 0.0157, -0.6791 -0.7425 -0.0026, -0.6791 -0.7601 0.0076, -0.6791 -0.752 0.0013, -0.7972 0.2323 0.3543, -0.7972 0.7244 0.3543, -0.7972 0.7244 0.1142, -0.7972 0.7231 0.104, -0.7972 0.7191 0.0945, -0.7972 0.7129 0.0863, -0.7972 0.7047 0.0801, -0.7972 0.6952 0.0761, -0.7972 -0.752 0.0013, -0.7972 -0.7601 0.0076, -0.7972 -0.7425 -0.0026, -0.7972 -0.7664 0.0157, -0.7972 -0.7703 0.0252, -0.7972 -0.7703 0.144, -0.7972 -0.7664 0.1535, -0.7972 -0.7425 0.1719, -0.7972 -0.7601 0.1617, -0.7972 -0.752 0.168, -0.6791 0.4094 1.1378, -0.6791 0.4094 0.4921, -0.7972 0.4094 1.1378, -0.7972 0.4094 0.4921, -0.7972 0.2323 1.1378, -0.7972 0.2323 0.4921, -0.6791 0.2323 1.1378, -0.6791 0.2323 0.4921, -0.6791 0.3747 1.3346, -0.6791 0.267 1.3346, -0.7972 0.3747 1.3346, -0.7972 0.267 1.3346, -1.1713 -0.4513 0.252, -1.1713 0.2323 0.252, -1.2894 -0.4513 0.252, -1.2894 0.2323 0.252, -1.1713 -0.5301 0.1732, -1.2894 -0.5301 0.1732, -1.1713 -0.7323 0.1732, -1.2894 -0.7323 0.1732, -1.2894 -0.7717 0.1339, -1.2894 -0.7717 0.0354, -1.1713 -0.7717 0.1339, -1.1713 -0.7717 0.0354, -1.2894 -0.7323 -0.0039, -1.2894 -0.4567 -0.0039, -1.1713 -0.7323 -0.0039, -1.1713 -0.4567 -0.0039, -1.1713 -0.378 0.0748, -1.2894 -0.378 0.0748, -1.1713 0.685 0.0748, -1.2894 0.685 0.0748, -1.1713 0.7244 0.3543, -1.1713 0.2323 0.3543, -1.1713 0.7244 0.1142, -1.1713 0.7231 0.104, -1.1713 0.7191 0.0945, -1.1713 0.6952 0.0761, -1.1713 0.7047 0.0801, -1.1713 0.7129 0.0863, -1.1713 -0.752 0.168, -1.1713 -0.7601 0.1617, -1.1713 -0.7425 0.1719, -1.1713 -0.7664 0.1535, -1.1713 -0.7703 0.144, -1.1713 -0.7703 0.0252, -1.1713 -0.7664 0.0157, -1.1713 -0.7425 -0.0026, -1.1713 -0.7601 0.0076, -1.1713 -0.752 0.0013, -1.2894 0.2323 0.3543, -1.2894 0.7244 0.3543, -1.2894 0.7244 0.1142, -1.2894 0.7231 0.104, -1.2894 0.7191 0.0945, -1.2894 0.7129 0.0863, -1.2894 0.7047 0.0801, -1.2894 0.6952 0.0761, -1.2894 -0.752 0.0013, -1.2894 -0.7601 0.0076, -1.2894 -0.7425 -0.0026, -1.2894 -0.7664 0.0157, -1.2894 -0.7703 0.0252, -1.2894 -0.7703 0.144, -1.2894 -0.7664 0.1535, -1.2894 -0.7425 0.1719, -1.2894 -0.7601 0.1617, -1.2894 -0.752 0.168, -1.1713 0.4094 1.1378, -1.1713 0.4094 0.4921, -1.2894 0.4094 1.1378, -1.2894 0.4094 0.4921, -1.2894 0.2323 1.1378, -1.2894 0.2323 0.4921, -1.1713 0.2323 1.1378, -1.1713 0.2323 0.4921, -1.1713 0.3747 1.3346, -1.1713 0.267 1.3346, -1.2894 0.3747 1.3346, -1.2894 0.267 1.3346, -1.6634 -0.4513 0.252, -1.6634 0.2323 0.252, -1.7815 -0.4513 0.252, -1.7815 0.2323 0.252, -1.6634 -0.5301 0.1732, -1.7815 -0.5301 0.1732, -1.6634 -0.7323 0.1732, -1.7815 -0.7323 0.1732, -1.7815 -0.7717 0.1339, -1.7815 -0.7717 0.0354, -1.6634 -0.7717 0.1339, -1.6634 -0.7717 0.0354, -1.7815 -0.7323 -0.0039, -1.7815 -0.4567 -0.0039, -1.6634 -0.7323 -0.0039, -1.6634 -0.4567 -0.0039, -1.6634 -0.378 0.0748, -1.7815 -0.378 0.0748, -1.6634 0.685 0.0748, -1.7815 0.685 0.0748, -1.6634 0.7244 0.3543, -1.6634 0.2323 0.3543, -1.6634 0.7244 0.1142, -1.6634 0.7231 0.104, -1.6634 0.7191 0.0945, -1.6634 0.6952 0.0761, -1.6634 0.7047 0.0801, -1.6634 0.7129 0.0863, -1.6634 -0.752 0.168, -1.6634 -0.7601 0.1617, -1.6634 -0.7425 0.1719, -1.6634 -0.7664 0.1535, -1.6634 -0.7703 0.144, -1.6634 -0.7703 0.0252, -1.6634 -0.7664 0.0157, -1.6634 -0.7425 -0.0026, -1.6634 -0.7601 0.0076, -1.6634 -0.752 0.0013, -1.7815 0.2323 0.3543, -1.7815 0.7244 0.3543, -1.7815 0.7244 0.1142, -1.7815 0.7231 0.104, -1.7815 0.7191 0.0945, -1.7815 0.7129 0.0863, -1.7815 0.7047 0.0801, -1.7815 0.6952 0.0761, -1.7815 -0.752 0.0013, -1.7815 -0.7601 0.0076, -1.7815 -0.7425 -0.0026, -1.7815 -0.7664 0.0157, -1.7815 -0.7703 0.0252, -1.7815 -0.7703 0.144, -1.7815 -0.7664 0.1535, -1.7815 -0.7425 0.1719, -1.7815 -0.7601 0.1617, -1.7815 -0.752 0.168, -1.6634 0.4094 1.1378, -1.6634 0.4094 0.4921, -1.7815 0.4094 1.1378, -1.7815 0.4094 0.4921, -1.7815 0.2323 1.1378, -1.7815 0.2323 0.4921, -1.6634 0.2323 1.1378, -1.6634 0.2323 0.4921, -1.6634 0.3747 1.3346, -1.6634 0.267 1.3346, -1.7815 0.3747 1.3346, -1.7815 0.267 1.3346, -1.7815 0.267 1.3346
            ]
        }
        coordIndex [
            0,1,2,-1,2,1,3,-1,4,0,5,-1,5,0,2,-1,6,4,7,-1,7,4,5,-1,8,9,10,-1,10,9,11,-1,12,13,14,-1,14,13,15,-1,16,15,17,-1,17,15,13,-1,18,16,19,-1,19,16,17,-1,20,21,22,-1,22,21,1,-1,22,1,23,-1,23,1,24,-1,4,15,0,-1,0,15,16,-1,0,16,1,-1,1,16,18,-1,1,18,25,-1,10,4,6,-1,4,10,15,-1,15,10,11,-1,15,11,14,-1,25,26,1,-1,1,26,27,-1,1,27,24,-1,28,29,30,-1,30,29,31,-1,30,31,6,-1,6,31,32,-1,6,32,10,-1,11,33,14,-1,14,33,34,-1,14,34,35,-1,35,34,36,-1,35,36,37,-1,7,5,8,-1,38,39,3,-1,3,39,40,-1,3,40,41,-1,41,42,3,-1,3,42,43,-1,3,43,44,-1,8,5,9,-1,12,9,13,-1,13,9,5,-1,13,5,17,-1,17,5,2,-1,17,2,19,-1,19,2,3,-1,19,3,45,-1,45,3,44,-1,46,47,48,-1,48,47,49,-1,48,49,12,-1,12,49,50,-1,12,50,9,-1,8,51,7,-1,7,51,52,-1,7,52,53,-1,53,52,54,-1,53,54,55,-1,3,1,38,-1,38,1,21,-1,56,57,58,-1,58,57,59,-1,60,61,62,-1,62,61,63,-1,64,65,56,-1,56,65,62,-1,56,62,57,-1,57,62,63,-1,59,61,58,-1,58,61,60,-1,58,60,66,-1,66,60,67,-1,66,67,64,-1,64,67,65,-1,40,39,22,-1,22,39,20,-1,18,19,45,-1,18,45,25,-1,25,45,44,-1,25,44,26,-1,26,44,43,-1,26,43,27,-1,27,43,42,-1,27,42,24,-1,24,42,41,-1,24,41,23,-1,23,41,40,-1,23,40,22,-1,8,10,32,-1,8,32,51,-1,51,32,31,-1,51,31,52,-1,52,31,29,-1,52,29,54,-1,54,29,28,-1,54,28,55,-1,55,28,30,-1,55,30,53,-1,53,30,6,-1,53,6,7,-1,11,9,50,-1,11,50,33,-1,33,50,49,-1,33,49,34,-1,34,49,47,-1,34,47,36,-1,36,47,46,-1,36,46,37,-1,37,46,48,-1,37,48,35,-1,35,48,12,-1,35,12,14,-1,58,66,56,-1,56,66,64,-1,67,60,65,-1,65,60,62,-1,68,69,70,-1,70,69,71,-1,72,68,73,-1,73,68,70,-1,74,72,75,-1,75,72,73,-1,76,77,78,-1,78,77,79,-1,80,81,82,-1,82,81,83,-1,84,83,85,-1,85,83,81,-1,86,84,87,-1,87,84,85,-1,88,89,90,-1,90,89,69,-1,90,69,91,-1,91,69,92,-1,72,83,68,-1,68,83,84,-1,68,84,69,-1,69,84,86,-1,69,86,93,-1,78,72,74,-1,72,78,83,-1,83,78,79,-1,83,79,82,-1,93,94,69,-1,69,94,95,-1,69,95,92,-1,96,97,98,-1,98,97,99,-1,98,99,74,-1,74,99,100,-1,74,100,78,-1,79,101,82,-1,82,101,102,-1,82,102,103,-1,103,102,104,-1,103,104,105,-1,75,73,76,-1,106,107,71,-1,71,107,108,-1,71,108,109,-1,109,110,71,-1,71,110,111,-1,71,111,112,-1,76,73,77,-1,80,77,81,-1,81,77,73,-1,81,73,85,-1,85,73,70,-1,85,70,87,-1,87,70,71,-1,87,71,113,-1,113,71,112,-1,114,115,116,-1,116,115,117,-1,116,117,80,-1,80,117,118,-1,80,118,77,-1,76,119,75,-1,75,119,120,-1,75,120,121,-1,121,120,122,-1,121,122,123,-1,71,69,106,-1,106,69,89,-1,124,125,126,-1,126,125,127,-1,128,129,130,-1,130,129,131,-1,132,133,124,-1,124,133,130,-1,124,130,125,-1,125,130,131,-1,127,129,126,-1,126,129,128,-1,126,128,134,-1,134,128,135,-1,134,135,132,-1,132,135,133,-1,136,137,138,-1,138,137,139,-1,140,136,141,-1,141,136,138,-1,142,140,143,-1,143,140,141,-1,144,145,146,-1,146,145,147,-1,148,149,150,-1,150,149,151,-1,152,151,153,-1,153,151,149,-1,154,152,155,-1,155,152,153,-1,156,157,158,-1,158,157,137,-1,158,137,159,-1,159,137,160,-1,140,151,136,-1,136,151,152,-1,136,152,137,-1,137,152,154,-1,137,154,161,-1,146,140,142,-1,140,146,151,-1,151,146,147,-1,151,147,150,-1,161,162,137,-1,137,162,163,-1,137,163,160,-1,164,165,166,-1,166,165,167,-1,166,167,142,-1,142,167,168,-1,142,168,146,-1,147,169,150,-1,150,169,170,-1,150,170,171,-1,171,170,172,-1,171,172,173,-1,143,141,144,-1,174,175,139,-1,139,175,176,-1,139,176,177,-1,177,178,139,-1,139,178,179,-1,139,179,180,-1,144,141,145,-1,148,145,149,-1,149,145,141,-1,149,141,153,-1,153,141,138,-1,153,138,155,-1,155,138,139,-1,155,139,181,-1,181,139,180,-1,182,183,184,-1,184,183,185,-1,184,185,148,-1,148,185,186,-1,148,186,145,-1,144,187,143,-1,143,187,188,-1,143,188,189,-1,189,188,190,-1,189,190,191,-1,139,137,174,-1,174,137,157,-1,192,193,194,-1,194,193,195,-1,196,197,198,-1,198,197,199,-1,200,201,192,-1,192,201,198,-1,192,198,193,-1,193,198,199,-1,195,197,194,-1,194,197,196,-1,194,196,202,-1,202,196,203,-1,202,203,200,-1,200,203,201,-1,204,205,206,-1,206,205,207,-1,208,204,209,-1,209,204,206,-1,210,208,211,-1,211,208,209,-1,212,213,214,-1,214,213,215,-1,216,217,218,-1,218,217,219,-1,220,219,221,-1,221,219,217,-1,222,220,223,-1,223,220,221,-1,224,225,226,-1,226,225,205,-1,226,205,227,-1,227,205,228,-1,208,219,204,-1,204,219,220,-1,204,220,205,-1,205,220,222,-1,205,222,229,-1,214,208,210,-1,208,214,219,-1,219,214,215,-1,219,215,218,-1,229,230,205,-1,205,230,231,-1,205,231,228,-1,232,233,234,-1,234,233,235,-1,234,235,210,-1,210,235,236,-1,210,236,214,-1,215,237,218,-1,218,237,238,-1,218,238,239,-1,239,238,240,-1,239,240,241,-1,211,209,212,-1,242,243,207,-1,207,243,244,-1,207,244,245,-1,245,246,207,-1,207,246,247,-1,207,247,248,-1,212,209,213,-1,216,213,217,-1,217,213,209,-1,217,209,221,-1,221,209,206,-1,221,206,223,-1,223,206,207,-1,223,207,249,-1,249,207,248,-1,250,251,252,-1,252,251,253,-1,252,253,216,-1,216,253,254,-1,216,254,213,-1,212,255,211,-1,211,255,256,-1,211,256,257,-1,257,256,258,-1,257,258,259,-1,207,205,242,-1,242,205,225,-1,260,261,262,-1,262,261,263,-1,264,265,266,-1,266,265,267,-1,268,269,260,-1,260,269,266,-1,260,266,261,-1,261,266,267,-1,263,265,262,-1,262,265,264,-1,262,264,270,-1,270,264,271,-1,270,271,268,-1,268,271,269,-1,272,273,274,-1,274,273,275,-1,276,272,277,-1,277,272,274,-1,278,276,279,-1,279,276,277,-1,280,281,282,-1,282,281,283,-1,284,285,286,-1,286,285,287,-1,288,287,289,-1,289,287,285,-1,290,288,291,-1,291,288,289,-1,292,293,294,-1,294,293,273,-1,294,273,295,-1,295,273,296,-1,276,287,272,-1,272,287,288,-1,272,288,273,-1,273,288,290,-1,273,290,297,-1,282,276,278,-1,276,282,287,-1,287,282,283,-1,287,283,286,-1,297,298,273,-1,273,298,299,-1,273,299,296,-1,300,301,302,-1,302,301,303,-1,302,303,278,-1,278,303,304,-1,278,304,282,-1,283,305,286,-1,286,305,306,-1,286,306,307,-1,307,306,308,-1,307,308,309,-1,279,277,280,-1,310,311,275,-1,275,311,312,-1,275,312,313,-1,313,314,275,-1,275,314,315,-1,275,315,316,-1,280,277,281,-1,284,281,285,-1,285,281,277,-1,285,277,289,-1,289,277,274,-1,289,274,291,-1,291,274,275,-1,291,275,317,-1,317,275,316,-1,318,319,320,-1,320,319,321,-1,320,321,284,-1,284,321,322,-1,284,322,281,-1,280,323,279,-1,279,323,324,-1,279,324,325,-1,325,324,326,-1,325,326,327,-1,275,273,310,-1,310,273,293,-1,328,329,330,-1,330,329,331,-1,332,333,334,-1,334,333,335,-1,336,337,328,-1,328,337,334,-1,328,334,329,-1,329,334,335,-1,331,333,330,-1,330,333,332,-1,330,332,338,-1,338,332,339,-1,338,339,336,-1,336,339,337,-1,340,341,342,-1,342,341,343,-1,344,340,345,-1,345,340,342,-1,346,344,347,-1,347,344,345,-1,348,349,350,-1,350,349,351,-1,352,353,354,-1,354,353,355,-1,356,355,357,-1,357,355,353,-1,358,356,359,-1,359,356,357,-1,360,361,362,-1,362,361,341,-1,362,341,363,-1,363,341,364,-1,344,355,340,-1,340,355,356,-1,340,356,341,-1,341,356,358,-1,341,358,365,-1,350,344,346,-1,344,350,355,-1,355,350,351,-1,355,351,354,-1,365,366,341,-1,341,366,367,-1,341,367,364,-1,368,369,370,-1,370,369,371,-1,370,371,346,-1,346,371,372,-1,346,372,350,-1,351,373,354,-1,354,373,374,-1,354,374,375,-1,375,374,376,-1,375,376,377,-1,347,345,348,-1,378,379,343,-1,343,379,380,-1,343,380,381,-1,381,382,343,-1,343,382,383,-1,343,383,384,-1,348,345,349,-1,352,349,353,-1,353,349,345,-1,353,345,357,-1,357,345,342,-1,357,342,359,-1,359,342,343,-1,359,343,385,-1,385,343,384,-1,386,387,388,-1,388,387,389,-1,388,389,352,-1,352,389,390,-1,352,390,349,-1,348,391,347,-1,347,391,392,-1,347,392,393,-1,393,392,394,-1,393,394,395,-1,343,341,378,-1,378,341,361,-1,396,397,398,-1,398,397,399,-1,400,401,402,-1,402,401,403,-1,404,405,396,-1,396,405,402,-1,396,402,397,-1,397,402,403,-1,399,401,398,-1,398,401,400,-1,398,400,406,-1,406,400,407,-1,406,407,404,-1,404,407,405,-1,408,409,410,-1,410,409,411,-1,412,408,413,-1,413,408,410,-1,414,412,415,-1,415,412,413,-1,416,417,418,-1,418,417,419,-1,420,421,422,-1,422,421,423,-1,424,423,425,-1,425,423,421,-1,426,424,427,-1,427,424,425,-1,428,429,430,-1,430,429,409,-1,430,409,431,-1,431,409,432,-1,412,423,408,-1,408,423,424,-1,408,424,409,-1,409,424,426,-1,409,426,433,-1,418,412,414,-1,412,418,423,-1,423,418,419,-1,423,419,422,-1,433,434,409,-1,409,434,435,-1,409,435,432,-1,436,437,438,-1,438,437,439,-1,438,439,414,-1,414,439,440,-1,414,440,418,-1,419,441,422,-1,422,441,442,-1,422,442,443,-1,443,442,444,-1,443,444,445,-1,415,413,416,-1,446,447,411,-1,411,447,448,-1,411,448,449,-1,449,450,411,-1,411,450,451,-1,411,451,452,-1,416,413,417,-1,420,417,421,-1,421,417,413,-1,421,413,425,-1,425,413,410,-1,425,410,427,-1,427,410,411,-1,427,411,453,-1,453,411,452,-1,454,455,456,-1,456,455,457,-1,456,457,420,-1,420,457,458,-1,420,458,417,-1,416,459,415,-1,415,459,460,-1,415,460,461,-1,461,460,462,-1,461,462,463,-1,411,409,446,-1,446,409,429,-1,464,465,466,-1,466,465,467,-1,468,469,470,-1,470,469,471,-1,472,473,464,-1,464,473,470,-1,464,470,465,-1,465,470,471,-1,467,469,466,-1,466,469,468,-1,466,468,474,-1,474,468,475,-1,474,475,472,-1,472,475,473,-1,476,477,478,-1,478,477,479,-1,480,476,481,-1,481,476,478,-1,482,480,483,-1,483,480,481,-1,484,485,486,-1,486,485,487,-1,488,489,490,-1,490,489,491,-1,492,491,493,-1,493,491,489,-1,494,492,495,-1,495,492,493,-1,496,497,498,-1,498,497,477,-1,498,477,499,-1,499,477,500,-1,480,491,476,-1,476,491,492,-1,476,492,477,-1,477,492,494,-1,477,494,501,-1,486,480,482,-1,480,486,491,-1,491,486,487,-1,491,487,490,-1,501,502,477,-1,477,502,503,-1,477,503,500,-1,504,505,506,-1,506,505,507,-1,506,507,482,-1,482,507,508,-1,482,508,486,-1,487,509,490,-1,490,509,510,-1,490,510,511,-1,511,510,512,-1,511,512,513,-1,483,481,484,-1,514,515,479,-1,479,515,516,-1,479,516,517,-1,517,518,479,-1,479,518,519,-1,479,519,520,-1,484,481,485,-1,488,485,489,-1,489,485,481,-1,489,481,493,-1,493,481,478,-1,493,478,495,-1,495,478,479,-1,495,479,521,-1,521,479,520,-1,522,523,524,-1,524,523,525,-1,524,525,488,-1,488,525,526,-1,488,526,485,-1,484,527,483,-1,483,527,528,-1,483,528,529,-1,529,528,530,-1,529,530,531,-1,479,477,514,-1,514,477,497,-1,532,533,534,-1,534,533,535,-1,536,537,538,-1,538,537,539,-1,540,541,532,-1,532,541,538,-1,532,538,533,-1,533,538,539,-1,535,537,534,-1,534,537,536,-1,534,536,542,-1,542,536,543,-1,542,543,540,-1,540,543,541,-1,108,107,90,-1,90,107,88,-1,176,175,158,-1,158,175,156,-1,244,243,226,-1,226,243,224,-1,312,311,294,-1,294,311,292,-1,380,379,362,-1,362,379,360,-1,448,447,430,-1,430,447,428,-1,516,515,498,-1,498,515,496,-1,86,87,113,-1,86,113,93,-1,93,113,112,-1,93,112,94,-1,94,112,111,-1,94,111,95,-1,95,111,110,-1,95,110,92,-1,92,110,109,-1,92,109,91,-1,91,109,108,-1,91,108,90,-1,76,78,100,-1,76,100,119,-1,119,100,99,-1,119,99,120,-1,120,99,97,-1,120,97,122,-1,122,97,96,-1,122,96,123,-1,123,96,98,-1,123,98,121,-1,121,98,74,-1,121,74,75,-1,79,77,118,-1,79,118,101,-1,101,118,117,-1,101,117,102,-1,102,117,115,-1,102,115,104,-1,104,115,114,-1,104,114,105,-1,105,114,116,-1,105,116,103,-1,103,116,80,-1,103,80,82,-1,154,155,181,-1,154,181,161,-1,161,181,180,-1,161,180,162,-1,162,180,179,-1,162,179,163,-1,163,179,178,-1,163,178,160,-1,160,178,177,-1,160,177,159,-1,159,177,176,-1,159,176,158,-1,144,146,168,-1,144,168,187,-1,187,168,167,-1,187,167,188,-1,188,167,165,-1,188,165,190,-1,190,165,164,-1,190,164,191,-1,191,164,166,-1,191,166,189,-1,189,166,142,-1,189,142,143,-1,147,145,186,-1,147,186,169,-1,169,186,185,-1,169,185,170,-1,170,185,183,-1,170,183,172,-1,172,183,182,-1,172,182,173,-1,173,182,184,-1,173,184,171,-1,171,184,148,-1,171,148,150,-1,222,223,249,-1,222,249,229,-1,229,249,248,-1,229,248,230,-1,230,248,247,-1,230,247,231,-1,231,247,246,-1,231,246,228,-1,228,246,245,-1,228,245,227,-1,227,245,244,-1,227,244,226,-1,212,214,236,-1,212,236,255,-1,255,236,235,-1,255,235,256,-1,256,235,233,-1,256,233,258,-1,258,233,232,-1,258,232,259,-1,259,232,234,-1,259,234,257,-1,257,234,210,-1,257,210,211,-1,215,213,254,-1,215,254,237,-1,237,254,253,-1,237,253,238,-1,238,253,251,-1,238,251,240,-1,240,251,250,-1,240,250,241,-1,241,250,252,-1,241,252,239,-1,239,252,216,-1,239,216,218,-1,290,291,317,-1,290,317,297,-1,297,317,316,-1,297,316,298,-1,298,316,315,-1,298,315,299,-1,299,315,314,-1,299,314,296,-1,296,314,313,-1,296,313,295,-1,295,313,312,-1,295,312,294,-1,280,282,304,-1,280,304,323,-1,323,304,303,-1,323,303,324,-1,324,303,301,-1,324,301,326,-1,326,301,300,-1,326,300,327,-1,327,300,302,-1,327,302,325,-1,325,302,278,-1,325,278,279,-1,283,281,322,-1,283,322,305,-1,305,322,321,-1,305,321,306,-1,306,321,319,-1,306,319,308,-1,308,319,318,-1,308,318,309,-1,309,318,320,-1,309,320,307,-1,307,320,284,-1,307,284,286,-1,358,359,385,-1,358,385,365,-1,365,385,384,-1,365,384,366,-1,366,384,383,-1,366,383,367,-1,367,383,382,-1,367,382,364,-1,364,382,381,-1,364,381,363,-1,363,381,380,-1,363,380,362,-1,348,350,372,-1,348,372,391,-1,391,372,371,-1,391,371,392,-1,392,371,369,-1,392,369,394,-1,394,369,368,-1,394,368,395,-1,395,368,370,-1,395,370,393,-1,393,370,346,-1,393,346,347,-1,351,349,390,-1,351,390,373,-1,373,390,389,-1,373,389,374,-1,374,389,387,-1,374,387,376,-1,376,387,386,-1,376,386,377,-1,377,386,388,-1,377,388,375,-1,375,388,352,-1,375,352,354,-1,426,427,453,-1,426,453,433,-1,433,453,452,-1,433,452,434,-1,434,452,451,-1,434,451,435,-1,435,451,450,-1,435,450,432,-1,432,450,449,-1,432,449,431,-1,431,449,448,-1,431,448,430,-1,416,418,440,-1,416,440,459,-1,459,440,439,-1,459,439,460,-1,460,439,437,-1,460,437,462,-1,462,437,436,-1,462,436,463,-1,463,436,438,-1,463,438,461,-1,461,438,414,-1,461,414,415,-1,419,417,458,-1,419,458,441,-1,441,458,457,-1,441,457,442,-1,442,457,455,-1,442,455,444,-1,444,455,454,-1,444,454,445,-1,445,454,456,-1,445,456,443,-1,443,456,420,-1,443,420,422,-1,494,495,521,-1,494,521,501,-1,501,521,520,-1,501,520,502,-1,502,520,519,-1,502,519,503,-1,503,519,518,-1,503,518,500,-1,500,518,517,-1,500,517,499,-1,499,517,516,-1,499,516,498,-1,484,486,508,-1,484,508,527,-1,527,508,507,-1,527,507,528,-1,528,507,505,-1,528,505,530,-1,530,505,504,-1,530,504,531,-1,531,504,506,-1,531,506,529,-1,529,506,482,-1,529,482,483,-1,487,485,526,-1,487,526,509,-1,509,526,525,-1,509,525,510,-1,510,525,523,-1,510,523,512,-1,512,523,522,-1,512,522,513,-1,513,522,524,-1,513,524,511,-1,511,524,488,-1,511,488,490,-1,126,134,124,-1,124,134,132,-1,135,128,133,-1,133,128,130,-1,194,202,192,-1,192,202,200,-1,203,196,201,-1,201,196,198,-1,262,270,260,-1,260,270,268,-1,271,264,269,-1,269,264,266,-1,330,338,328,-1,328,338,336,-1,339,332,337,-1,337,332,334,-1,398,406,396,-1,396,406,404,-1,407,400,405,-1,405,400,402,-1,466,474,464,-1,464,474,472,-1,475,468,473,-1,473,468,470,-1,534,542,532,-1,532,542,540,-1,543,536,541,-1,541,536,538,-1,
        ]
    }
}
Shape{
    appearance Appearance {
        material  Material 	{
            diffuseColor 0.25098039215686274 0.25098039215686274 0.25098039215686274
            specularColor 0.12549019607843137 0.12549019607843137 0.12549019607843137
            ambientIntensity 0.2
            transparency 0
            shininess 0.5
        }
    }
    geometry IndexedFaceSet {
        ccw TRUE
        solid FALSE
        coord DEF co Coordinate {
            point [
                -0.0492 -0.2353 0.1185, 0.1476 -0.3121 0.1185, -0.0492 -0.2353 0.1181, 0.1476 -0.3121 0.1181, 0.1476 -0.2833 0.1185, 0.1476 -0.2833 0.1181, 0.0924 -0.2634 0.1185, 0.0924 -0.2634 0.1181, 0.0924 -0.182 0.1185, 0.0924 -0.182 0.1181, 0.1476 -0.1632 0.1185, 0.1476 -0.1632 0.1181, 0.1476 -0.1344 0.1185, 0.1476 -0.1344 0.1181, -0.0492 -0.2089 0.1185, -0.0492 -0.2089 0.1181, 0.0708 -0.1887 0.1185, -0.0114 -0.218 0.1185, -0.0182 -0.2199 0.1185, -0.0252 -0.2212 0.1185, -0.0252 -0.2218 0.1185, -0.0183 -0.2231 0.1185, -0.0114 -0.2249 0.1185, 0.0708 -0.2545 0.1185, 0.0708 -0.1887 0.1181, 0.0708 -0.2545 0.1181, -0.0114 -0.218 0.1181, -0.0182 -0.2199 0.1181, -0.0252 -0.2212 0.1181, -0.0252 -0.2218 0.1181, -0.0183 -0.2231 0.1181, -0.0114 -0.2249 0.1181, 0.1476 -0.0151 0.1185, 0.1476 0.0384 0.1185, 0.1476 -0.0151 0.1181, 0.1476 0.0384 0.1181, -0.0492 0.0384 0.1185, -0.0492 0.0384 0.1181, -0.0492 -0.0171 0.1185, -0.0492 -0.0171 0.1181, 0.0467 -0.12 0.1185, 0.0467 -0.12 0.1181, 0.0286 -0.1187 0.1181, 0.0286 -0.1187 0.1185, 0.0091 -0.1134 0.1181, 0.0091 -0.1134 0.1185, -0.0081 -0.1042 0.1181, -0.0081 -0.1042 0.1185, -0.0236 -0.0902 0.1181, -0.0236 -0.0902 0.1185, -0.0237 -0.09 0.1181, -0.0237 -0.09 0.1185, -0.0381 -0.0686 0.1181, -0.0381 -0.0686 0.1185, -0.0462 -0.0456 0.1181, -0.0462 -0.0456 0.1185, 0.1454 -0.0401 0.1181, 0.1454 -0.0401 0.1185, 0.1385 -0.0627 0.1181, 0.1385 -0.0627 0.1185, 0.1265 -0.0831 0.1181, 0.1265 -0.0831 0.1185, 0.111 -0.0992 0.1181, 0.111 -0.0992 0.1185, 0.0936 -0.1102 0.1181, 0.0936 -0.1102 0.1185, 0.0731 -0.1173 0.1181, 0.0731 -0.1173 0.1185, -0.0 -0.0805 0.1185, -0.0102 -0.071 0.1185, -0.0194 -0.0566 0.1185, -0.0251 -0.0403 0.1185, -0.0276 -0.017 0.1185, -0.0276 0.012 0.1185, 0.126 0.012 0.1185, 0.126 -0.0159 0.1185, 0.1241 -0.0368 0.1185, 0.1189 -0.0533 0.1185, 0.1109 -0.0668 0.1185, 0.0999 -0.0779 0.1185, 0.0865 -0.086 0.1185, 0.0708 -0.0912 0.1185, 0.0473 -0.0936 0.1185, 0.0277 -0.092 0.1185, 0.0121 -0.0873 0.1185, -0.0276 -0.017 0.1181, -0.0276 0.012 0.1181, -0.0251 -0.0403 0.1181, -0.0194 -0.0566 0.1181, -0.0102 -0.071 0.1181, -0.0 -0.0805 0.1181, 0.0121 -0.0873 0.1181, 0.0277 -0.092 0.1181, 0.0473 -0.0936 0.1181, 0.0708 -0.0912 0.1181, 0.0865 -0.086 0.1181, 0.0999 -0.0779 0.1181, 0.1109 -0.0668 0.1181, 0.1189 -0.0533 0.1181, 0.1241 -0.0368 0.1181, 0.126 -0.0159 0.1181, 0.126 0.012 0.1181, 0.126 0.0768 0.1185, 0.1476 0.0768 0.1185, 0.126 0.0768 0.1181, 0.1476 0.0768 0.1181, 0.1476 0.1824 0.1185, 0.1476 0.1824 0.1181, -0.0492 0.1824 0.1185, -0.0492 0.1824 0.1181, -0.0492 0.0816 0.1185, -0.0492 0.0816 0.1181, -0.0276 0.0816 0.1185, -0.0276 0.0816 0.1181, -0.0276 0.156 0.1185, -0.0276 0.156 0.1181, 0.0372 0.156 0.1185, 0.0372 0.156 0.1181, 0.0372 0.0864 0.1185, 0.0372 0.0864 0.1181, 0.0588 0.0864 0.1185, 0.0588 0.0864 0.1181, 0.0588 0.156 0.1185, 0.0588 0.156 0.1181, 0.126 0.156 0.1185, 0.126 0.156 0.1181, 0.1158 0.2209 0.1185, 0.1374 0.2209 0.1185, 0.1158 0.2209 0.1181, 0.1374 0.2209 0.1181, 0.1441 0.2354 0.1185, 0.148 0.2507 0.1185, 0.1476 0.2487 0.1181, 0.1441 0.2354 0.1181, 0.0529 0.3673 0.1185, 0.0529 0.3673 0.1181, 0.0769 0.3652 0.1181, 0.0769 0.3652 0.1185, 0.0979 0.3589 0.1181, 0.0979 0.3589 0.1185, 0.1163 0.3482 0.1181, 0.1163 0.3482 0.1185, 0.1312 0.3337 0.1181, 0.1312 0.3337 0.1185, 0.1412 0.3179 0.1181, 0.1412 0.3179 0.1185, 0.1476 0.2988 0.1181, 0.148 0.2969 0.1185, -0.0516 0.2672 0.1185, -0.0516 0.2672 0.1181, -0.0501 0.2866 0.1181, -0.0501 0.2866 0.1185, -0.0438 0.3085 0.1181, -0.0438 0.3085 0.1185, -0.0331 0.3273 0.1181, -0.0331 0.3273 0.1185, -0.016 0.3452 0.1181, -0.016 0.3452 0.1185, 0.0026 0.3569 0.1181, 0.0026 0.3569 0.1185, 0.0249 0.3645 0.1181, 0.0249 0.3645 0.1185, -0.0438 0.2209 0.1185, -0.0438 0.2209 0.1181, -0.05 0.2436 0.1181, -0.05 0.2436 0.1185, -0.0174 0.2209 0.1185, -0.0174 0.2209 0.1181, -0.03 0.267 0.1185, -0.03 0.267 0.1181, -0.0269 0.243 0.1181, -0.0269 0.243 0.1185, 0.0513 0.3409 0.1185, 0.0513 0.3409 0.1181, 0.036 0.3399 0.1181, 0.036 0.3399 0.1185, 0.0149 0.3347 0.1181, 0.0149 0.3347 0.1185, -0.0003 0.3266 0.1181, -0.0003 0.3266 0.1185, -0.0134 0.3147 0.1181, -0.0134 0.3147 0.1185, -0.0225 0.3011 0.1181, -0.0225 0.3011 0.1185, -0.0278 0.2863 0.1181, -0.0278 0.2863 0.1185, 0.1284 0.2714 0.1185, 0.1284 0.2714 0.1181, 0.1264 0.2897 0.1181, 0.1264 0.2897 0.1185, 0.1211 0.3041 0.1181, 0.1211 0.3041 0.1185, 0.113 0.3162 0.1181, 0.113 0.3162 0.1185, 0.1032 0.3254 0.1181, 0.1032 0.3254 0.1185, 0.0896 0.3335 0.1181, 0.0896 0.3335 0.1185, 0.0726 0.3389 0.1181, 0.0726 0.3389 0.1185, 0.1178 0.2244 0.1181, 0.1178 0.2244 0.1185, 0.1255 0.2453 0.1181, 0.1255 0.2453 0.1185, 0.126 0.3841 0.1185, 0.1476 0.3841 0.1185, 0.126 0.3841 0.1181, 0.1476 0.3841 0.1181, 0.1476 0.4849 0.1185, 0.1476 0.4849 0.1181, -0.0492 0.4849 0.1185, -0.0492 0.4849 0.1181, -0.0492 0.4585 0.1185, -0.0492 0.4585 0.1181, 0.126 0.4585 0.1185, 0.126 0.4585 0.1181, 0.126 0.4585 0.1181
            ]
        }
        coordIndex [
            0,1,2,-1,2,1,3,-1,1,4,3,-1,3,4,5,-1,4,6,5,-1,5,6,7,-1,6,8,7,-1,7,8,9,-1,8,10,9,-1,9,10,11,-1,10,12,11,-1,11,12,13,-1,12,14,13,-1,13,14,15,-1,14,0,15,-1,15,0,2,-1,16,17,14,-1,12,10,8,-1,17,18,14,-1,14,18,19,-1,14,19,0,-1,0,19,20,-1,0,20,21,-1,21,22,0,-1,0,22,23,-1,0,23,1,-1,4,1,6,-1,6,1,23,-1,6,23,8,-1,8,23,16,-1,8,16,12,-1,12,16,14,-1,16,23,24,-1,24,23,25,-1,17,16,26,-1,26,16,24,-1,17,26,27,-1,17,27,18,-1,18,27,28,-1,18,28,19,-1,20,19,29,-1,29,19,28,-1,20,29,30,-1,20,30,21,-1,21,30,31,-1,21,31,22,-1,23,22,25,-1,25,22,31,-1,32,33,34,-1,34,33,35,-1,33,36,35,-1,35,36,37,-1,36,38,37,-1,37,38,39,-1,40,41,42,-1,40,42,43,-1,43,42,44,-1,43,44,45,-1,45,44,46,-1,45,46,47,-1,47,46,48,-1,47,48,49,-1,49,48,50,-1,49,50,51,-1,51,50,52,-1,51,52,53,-1,53,52,54,-1,53,54,55,-1,55,54,39,-1,55,39,38,-1,32,34,56,-1,32,56,57,-1,57,56,58,-1,57,58,59,-1,59,58,60,-1,59,60,61,-1,61,60,62,-1,61,62,63,-1,63,62,64,-1,63,64,65,-1,65,64,66,-1,65,66,67,-1,67,66,41,-1,67,41,40,-1,45,47,68,-1,68,47,49,-1,68,49,69,-1,69,49,51,-1,69,51,70,-1,70,51,53,-1,70,53,71,-1,71,53,55,-1,71,55,72,-1,72,55,38,-1,72,38,73,-1,73,38,36,-1,73,36,74,-1,74,36,33,-1,74,33,75,-1,75,33,32,-1,75,32,76,-1,76,32,57,-1,76,57,77,-1,77,57,59,-1,77,59,78,-1,78,59,61,-1,78,61,79,-1,79,61,63,-1,79,63,80,-1,80,63,65,-1,80,65,81,-1,81,65,67,-1,81,67,82,-1,82,67,40,-1,82,40,83,-1,83,40,43,-1,83,43,84,-1,84,43,45,-1,84,45,68,-1,72,73,85,-1,85,73,86,-1,72,85,87,-1,72,87,71,-1,71,87,88,-1,71,88,70,-1,70,88,89,-1,70,89,69,-1,69,89,90,-1,69,90,68,-1,68,90,91,-1,68,91,84,-1,84,91,92,-1,84,92,83,-1,83,92,93,-1,83,93,82,-1,82,93,94,-1,82,94,81,-1,81,94,95,-1,81,95,80,-1,80,95,96,-1,80,96,79,-1,79,96,97,-1,79,97,78,-1,78,97,98,-1,78,98,77,-1,77,98,99,-1,77,99,76,-1,76,99,100,-1,76,100,75,-1,74,75,101,-1,101,75,100,-1,73,74,86,-1,86,74,101,-1,102,103,104,-1,104,103,105,-1,103,106,105,-1,105,106,107,-1,106,108,107,-1,107,108,109,-1,108,110,109,-1,109,110,111,-1,110,112,111,-1,111,112,113,-1,112,114,113,-1,113,114,115,-1,114,116,115,-1,115,116,117,-1,116,118,117,-1,117,118,119,-1,118,120,119,-1,119,120,121,-1,120,122,121,-1,121,122,123,-1,122,124,123,-1,123,124,125,-1,124,102,125,-1,125,102,104,-1,106,103,102,-1,102,124,106,-1,106,124,122,-1,106,122,108,-1,112,110,114,-1,114,110,108,-1,114,108,116,-1,116,108,122,-1,116,122,118,-1,118,122,120,-1,126,127,128,-1,128,127,129,-1,130,131,132,-1,132,133,130,-1,130,133,129,-1,130,129,127,-1,134,135,136,-1,134,136,137,-1,137,136,138,-1,137,138,139,-1,139,138,140,-1,139,140,141,-1,141,140,142,-1,141,142,143,-1,143,142,144,-1,143,144,145,-1,145,144,146,-1,145,146,147,-1,148,149,150,-1,148,150,151,-1,151,150,152,-1,151,152,153,-1,153,152,154,-1,153,154,155,-1,155,154,156,-1,155,156,157,-1,157,156,158,-1,157,158,159,-1,159,158,160,-1,159,160,161,-1,161,160,135,-1,161,135,134,-1,162,163,164,-1,162,164,165,-1,165,164,149,-1,165,149,148,-1,162,166,163,-1,163,166,167,-1,168,169,170,-1,168,170,171,-1,171,170,167,-1,171,167,166,-1,172,173,174,-1,172,174,175,-1,175,174,176,-1,175,176,177,-1,177,176,178,-1,177,178,179,-1,179,178,180,-1,179,180,181,-1,181,180,182,-1,181,182,183,-1,183,182,184,-1,183,184,185,-1,185,184,169,-1,185,169,168,-1,186,187,188,-1,186,188,189,-1,189,188,190,-1,189,190,191,-1,191,190,192,-1,191,192,193,-1,193,192,194,-1,193,194,195,-1,195,194,196,-1,195,196,197,-1,197,196,198,-1,197,198,199,-1,199,198,173,-1,199,173,172,-1,126,128,200,-1,126,200,201,-1,201,200,202,-1,201,202,203,-1,203,202,187,-1,203,187,186,-1,166,162,171,-1,171,162,165,-1,171,165,168,-1,168,165,148,-1,168,148,185,-1,185,148,151,-1,185,151,183,-1,183,151,153,-1,183,153,181,-1,181,153,155,-1,181,155,179,-1,179,155,157,-1,179,157,177,-1,177,157,159,-1,177,159,175,-1,175,159,161,-1,175,161,172,-1,172,161,134,-1,172,134,199,-1,199,134,137,-1,199,137,197,-1,197,137,139,-1,197,139,195,-1,195,139,141,-1,195,141,193,-1,193,141,143,-1,193,143,191,-1,191,143,145,-1,191,145,189,-1,189,145,147,-1,189,147,186,-1,186,147,131,-1,186,131,203,-1,203,131,130,-1,203,130,201,-1,201,130,127,-1,201,127,126,-1,204,205,206,-1,206,205,207,-1,205,208,207,-1,207,208,209,-1,208,210,209,-1,209,210,211,-1,210,212,211,-1,211,212,213,-1,212,214,213,-1,213,214,215,-1,214,204,215,-1,215,204,206,-1,212,210,214,-1,214,210,208,-1,214,208,204,-1,204,208,205,-1,
        ]
    }
}
Shape{
    appearance Appearance {
        material  Material 	{
            diffuseColor 1.0 0.8862745098039215 0.8117647058823529
            specularColor 0.5019607843137255 0.44313725490196076 0.403921568627451
            ambientIntensity 0.2
            transparency 0
            shininess 0.5
        }
    }
    geometry IndexedFaceSet {
        ccw TRUE
        solid FALSE
        coord DEF co Coordinate {
            point [
                0.0708 -0.1887 0.1181, 0.0708 -0.2545 0.1181, -0.0114 -0.218 0.1181, -0.0114 -0.2249 0.1181, -0.0182 -0.2199 0.1181, -0.0183 -0.2231 0.1181, -0.0252 -0.2212 0.1181, -0.0252 -0.2218 0.1181, -0.0276 0.012 0.1181, 0.126 0.012 0.1181, -0.0276 -0.017 0.1181, 0.126 -0.0159 0.1181, 0.0708 -0.0912 0.1181, 0.0473 -0.0936 0.1181, 0.0277 -0.092 0.1181, 0.0121 -0.0873 0.1181, -0.0251 -0.0403 0.1181, 0.1241 -0.0368 0.1181, 0.1189 -0.0533 0.1181, 0.1109 -0.0668 0.1181, -0.0 -0.0805 0.1181, -0.0102 -0.071 0.1181, -0.0194 -0.0566 0.1181, 0.0999 -0.0779 0.1181, 0.0865 -0.086 0.1181, 0.0865 -0.086 0.1181
            ]
        }
        coordIndex [
            0,1,2,-1,2,1,3,-1,2,3,4,-1,4,3,5,-1,4,5,6,-1,6,5,7,-1,8,9,10,-1,10,9,11,-1,12,13,10,-1,13,14,10,-1,10,14,15,-1,10,15,16,-1,11,17,10,-1,10,17,18,-1,10,18,19,-1,20,21,15,-1,15,21,22,-1,15,22,16,-1,19,23,10,-1,10,23,24,-1,10,24,12,-1,
        ]
    }
}