#VRML V2.0 utf8
# 3D model generated by easyeda2kicad.py (https://github.com/uPesy/easyeda2kicad.py)

Shape{
    appearance Appearance {
        material  Material 	{
            diffuseColor 0.5882352941176471 0.5725490196078431 0.5254901960784314
            specularColor 0.043137254901960784 0.0392156862745098 0.0392156862745098
            ambientIntensity 0.2
            transparency 0
            shininess 0.5
        }
    }
    geometry IndexedFaceSet {
        ccw TRUE
        solid FALSE
        coord DEF co Coordinate {
            point [
                1.2598 -1.1417 -0.5906, 1.4173 -1.1417 -0.5906, 1.4173 -1.7323 -0.5906, -0.315 -0.1181 -0.5906, -0.3051 -0.1181 -0.5906, -0.0931 -0.7809 -0.5906, -0.187 -0.1181 -0.5906, -0.6693 -0.0 -0.5906, -0.315 -0.0 -0.5906, -1.2598 -0.1181 -0.5906, -1.1713 -0.1181 -0.5906, -1.2598 -0.7813 -0.5906, -1.1614 -0.1181 -0.5906, -1.1614 -0.0 -0.5906, -0.8071 -0.0 -0.5906, -0.8071 -0.1181 -0.5906, -0.7972 -0.1181 -0.5906, -0.6693 -0.1181 -0.5906, -0.1335 -0.7021 -0.5906, -0.6791 -0.1181 -0.5906, -0.1642 -0.7809 -0.5906, -0.1229 -0.7021 -0.5906, -0.0872 -0.7366 -0.5906, -0.0874 -0.7405 -0.5906, -0.0576 -0.7033 -0.5906, -0.0668 -0.7066 -0.5906, -0.1772 0.0 -0.5906, -0.0746 -0.7116 -0.5906, -0.1772 -0.1181 -0.5906, -0.0857 -0.7283 -0.5906, -0.024 -0.7809 -0.5906, -0.024 -0.7021 -0.5906, -0.0067 -0.7108 -0.5906, -0.0067 -0.7021 -0.5906, -0.0777 -0.7145 -0.5906, -0.0824 -0.7206 -0.5906, 0.0336 -0.7021 -0.5906, 0.0413 0.0 -0.5906, -0.0462 -0.7021 -0.5906, -0.0863 -0.751 -0.5906, -0.0835 -0.7592 -0.5906, -0.079 -0.7662 -0.5906, -0.0048 -0.7453 -0.5906, 0.023 -0.7453 -0.5906, 0.023 -0.7722 -0.5906, -0.0086 -0.7722 -0.5906, -0.0048 -0.7367 -0.5906, 0.023 -0.7367 -0.5906, 0.023 -0.7108 -0.5906, -0.0086 -0.7809 -0.5906, 0.0336 -0.7809 -0.5906, 0.0413 -0.7813 -0.5906, -0.0726 -0.7724 -0.5906, -0.0645 -0.7772 -0.5906, -0.0554 -0.78 -0.5906, -0.0454 -0.7809 -0.5906, -0.1527 -0.7809 -0.5906, -0.1447 -0.7588 -0.5906, -0.1122 -0.7588 -0.5906, -0.1047 -0.7809 -0.5906, -1.4173 -1.7323 -0.5906, -1.4173 -1.1417 -0.5906, 0.0413 -1.7323 -0.5906, -1.2598 -1.1417 -0.5906, 0.0706 -0.7818 -0.5906, 1.2598 -0.7813 -0.5906, 0.0753 -0.7813 -0.5906, 0.049 -0.7681 -0.5906, 0.049 -0.7768 -0.5906, 0.0574 -0.7802 -0.5906, 0.0653 -0.7813 -0.5906, 0.0685 -0.7818 -0.5906, 0.315 -0.1181 -0.5906, 0.315 0.0 -0.5906, 0.6693 0.0 -0.5906, 0.1772 0.0 -0.5906, 0.1772 -0.1181 -0.5906, 0.0674 -0.7098 -0.5906, 0.0504 -0.7689 -0.5906, 0.0578 -0.711 -0.5906, 0.049 -0.7148 -0.5906, 0.049 -0.7043 -0.5906, 0.0581 -0.7018 -0.5906, 0.8071 -0.1181 -0.5906, 0.8071 0.0 -0.5906, 1.1614 0.0 -0.5906, 0.6693 -0.1181 -0.5906, 0.0845 -0.7045 -0.5906, 0.3051 -0.1181 -0.5906, 0.0752 -0.7107 -0.5906, 0.081 -0.7128 -0.5906, 0.0866 -0.7165 -0.5906, 0.0913 -0.7218 -0.5906, 0.0946 -0.7279 -0.5906, 0.0966 -0.7364 -0.5906, 0.097 -0.7423 -0.5906, 0.0962 -0.7508 -0.5906, 0.0941 -0.7576 -0.5906, 0.0692 -0.7732 -0.5906, 0.0871 -0.7669 -0.5906, 0.0765 -0.7724 -0.5906, 0.0823 -0.7702 -0.5906, 0.0908 -0.7631 -0.5906, 0.0587 -0.772 -0.5906, 0.187 -0.1181 -0.5906, 0.0758 -0.7019 -0.5906, 0.0675 -0.7012 -0.5906, 1.1713 -0.1181 -0.5906, 1.2598 -0.1181 -0.5906, 0.1546 -0.7809 -0.5906, 0.1034 -0.7228 -0.5906, 0.0987 -0.7154 -0.5906, 0.144 -0.7021 -0.5906, 0.0918 -0.7088 -0.5906, 0.7972 -0.1181 -0.5906, 0.1546 -0.7021 -0.5906, 1.1614 -0.1181 -0.5906, 0.6791 -0.1181 -0.5906, 0.088 -0.7782 -0.5906, 0.0944 -0.7741 -0.5906, 0.1143 -0.7809 -0.5906, 0.1001 -0.768 -0.5906, 0.1143 -0.7722 -0.5906, 0.1043 -0.7606 -0.5906, 0.144 -0.7722 -0.5906, 0.0803 -0.7808 -0.5906, 0.1068 -0.7522 -0.5906, 0.1075 -0.743 -0.5906, 0.1064 -0.7318 -0.5906, -2.6575 -1.2598 -0.6299, -2.9528 -1.2598 -0.6299, -2.6575 -0.5118 -0.6299, -2.9528 -0.3346 -0.6299, -2.7953 -0.1772 -0.6299, -2.5591 -0.1772 -0.6299, -2.5591 -0.5118 -0.6299, -2.7953 -1.2598 0.3346, -2.9528 -1.2598 0.3346, -2.7953 -1.2598 0.2362, -2.6575 -1.2598 0.2362, -0.187 -0.1181 0.2559, -0.3051 -0.1181 0.2559, -0.315 -0.1181 0.689, -0.1772 -0.1181 0.689, -0.6791 -0.1181 0.2559, -0.7972 -0.1181 0.2559, -0.8071 -0.1181 0.689, -0.6693 -0.1181 0.689, -1.1713 -0.1181 0.2559, -1.2894 -0.1181 -0.4331, -1.2992 -0.1181 -0.4331, -1.2894 -0.1181 0.2559, -1.2992 -0.1181 0.689, -1.1614 -0.1181 0.689, -1.6535 -0.1181 -0.4331, -1.6634 -0.1181 -0.4331, -1.6634 -0.1181 0.2559, -1.7815 -0.1181 -0.5906, -1.7913 -0.1181 -0.5906, -1.7815 -0.1181 0.2559, -1.7913 -0.1181 0.689, -1.6535 -0.1181 0.689, -1.6535 -0.0 -0.4331, -1.6535 -0.0 0.689, -1.2992 -0.0 -0.4331, -1.2992 -0.0 0.689, 1.4173 -1.7323 -0.5118, -1.4173 -1.7323 -0.5118, -1.5354 -1.6535 -0.4331, -1.5354 -1.1417 -0.4331, -2.3425 -1.6535 -0.4331, -1.6929 -1.1417 -0.4331, -1.6929 -0.5512 -0.4331, -2.0817 -0.5512 -0.4331, -2.3425 -0.5512 -0.4331, 1.4173 -1.6535 -0.4331, -1.4173 -1.6535 -0.4331, -1.5354 -1.1417 -0.5906, -1.5354 -1.7323 -0.5906, -1.6929 -1.1417 -0.5906, -2.3425 -1.7323 -0.5906, -2.3425 -0.0 -0.5906, -1.7913 -0.0 -0.5906, -1.6929 -0.1181 -0.5906, -0.1772 -0.0 0.689, 0.1772 -0.0 0.689, -0.6693 -0.0 0.689, -0.315 -0.0 0.689, -1.1614 -0.0 0.689, -0.8071 -0.0 0.689, -2.3425 -1.6535 -0.1378, -2.3425 -0.5512 -0.1378, -1.7913 -0.0 0.689, -2.5591 -0.0 0.689, 1.6535 -0.1181 0.689, 1.6535 0.0 0.689, 1.2992 0.0 0.689, 2.185 -1.0433 0.689, 2.185 -1.2598 0.689, 2.5591 -1.2598 0.689, 1.2992 -0.1181 0.689, 1.1614 -0.1181 0.689, 0.6693 -0.1181 0.689, 0.6693 0.0 0.689, 0.315 -0.0 0.689, 2.5591 0.0 0.689, 1.7913 0.0 0.689, 1.7913 -0.1181 0.689, 0.1772 -0.1181 0.689, -2.185 -1.0433 0.689, 0.315 -0.1181 0.689, 1.1614 0.0 0.689, 0.8071 0.0 0.689, 0.8071 -0.1181 0.689, -2.5591 -1.2598 0.689, -2.185 -1.2598 0.689, -2.185 -1.2598 0.4921, -2.3425 -1.2598 0.4921, -2.185 -0.9252 0.4921, -2.3425 -0.5512 0.4921, -2.0817 -0.5512 0.4921, -1.4764 -0.5512 0.4921, -0.9843 -0.5512 0.4921, -0.4921 -0.5512 0.4921, 0.0 -0.5512 0.4921, 2.185 -0.9252 0.4921, 0.4921 -0.5512 0.4921, 0.9843 -0.5512 0.4921, 2.3425 -1.2598 0.4921, 2.185 -1.2598 0.4921, 2.3425 -0.5512 0.4921, 1.4764 -0.5512 0.4921, -2.9528 -0.3346 0.3346, -2.3425 -0.0 -0.689, -2.5591 -0.0 -0.689, -2.7953 -0.5118 0.3346, -2.7953 -0.1772 0.3346, -2.5591 -0.5118 0.3346, -2.5591 -0.1772 0.3346, -2.3425 -1.7323 -0.689, -2.5591 -1.7323 -0.689, -2.4213 -1.7323 0.4921, -2.5591 -1.7323 0.4921, -2.4213 -1.7323 -0.5118, -1.5354 -1.7323 -0.5118, -2.5591 -1.2598 0.4921, -2.3425 -1.6535 0.1772, -2.3425 -0.5512 0.1772, -2.3425 -0.5512 0.2461, -2.3425 -1.6535 0.4921, 1.4173 -1.1417 -0.4331, 1.2598 -1.1417 -0.4331, -1.2598 -1.1417 -0.4331, -1.4173 -1.1417 -0.4331, 1.2598 -0.5512 -0.4331, 0.9843 -0.5512 -0.4331, 0.4921 -0.5512 -0.4331, 0.0 -0.5512 -0.4331, -0.4921 -0.5512 -0.4331, -0.9843 -0.5512 -0.4331, -1.2598 -0.5512 -0.4331, -2.0817 -0.5512 0.2461, -2.3819 -0.5512 -0.1378, -2.3819 -0.5512 0.1772, 2.3819 -0.5512 -0.1378, 2.3819 -0.5512 0.1772, 2.3425 -0.5512 -0.1378, 2.3425 -0.5512 0.1772, 1.6634 -0.5512 -0.2756, 1.6634 -0.5512 -0.0, 1.4764 -0.5512 0.2461, 1.7815 -0.5512 -0.0, 1.4764 -0.5512 -0.4331, 1.6929 -0.5512 -0.4331, 1.7815 -0.5512 -0.2756, 2.3425 -0.5512 -0.4331, 2.3425 -0.5512 0.2461, -1.4764 -0.5512 0.2461, -0.9843 -0.5512 0.2461, -0.4921 -0.5512 0.2461, 0.0 -0.5512 0.2461, 0.4921 -0.5512 0.2461, 0.9843 -0.5512 0.2461, 1.2894 -0.5512 -0.2756, 1.2894 -0.5512 -0.0, 1.1713 -0.5512 -0.0, 1.1713 -0.5512 -0.2756, 0.7972 -0.5512 -0.0, 0.6791 -0.5512 -0.0, 0.6791 -0.5512 -0.2756, 0.7972 -0.5512 -0.2756, 0.3051 -0.5512 -0.0, 0.187 -0.5512 -0.0, 0.187 -0.5512 -0.2756, 0.3051 -0.5512 -0.2756, -0.187 -0.5512 -0.0, -0.3051 -0.5512 -0.0, -0.3051 -0.5512 -0.2756, -0.187 -0.5512 -0.2756, -0.6791 -0.5512 -0.0, -0.7972 -0.5512 -0.0, -0.7972 -0.5512 -0.2756, -0.6791 -0.5512 -0.2756, -1.4764 -0.5512 -0.4331, -1.2894 -0.5512 -0.2756, -1.1713 -0.5512 -0.2756, -1.1713 -0.5512 -0.0, -1.2894 -0.5512 -0.0, -1.6634 -0.5512 -0.2756, -1.6634 -0.5512 -0.0, -1.7815 -0.5512 -0.0, -1.7815 -0.5512 -0.2756, -2.3819 -1.6929 0.1772, -2.3819 -1.6929 -0.1378, -2.185 -1.0433 0.6102, 2.185 -1.0433 0.6102, -1.6929 -0.1181 -0.4331, -1.2598 -0.1181 -0.4331, -1.2598 -0.1181 -0.4331
            ]
        }
        coordIndex [
            0,1,2,-1,3,4,5,-1,5,4,6,-1,7,8,3,-1,9,10,11,-1,11,10,12,-1,13,14,12,-1,12,14,15,-1,12,15,11,-1,11,15,16,-1,17,18,19,-1,19,18,20,-1,17,7,18,-1,18,7,3,-1,18,3,21,-1,21,3,5,-1,5,22,23,-1,24,25,26,-1,26,25,27,-1,6,28,5,-1,5,28,26,-1,5,26,22,-1,22,26,29,-1,30,31,32,-1,32,31,33,-1,27,34,26,-1,26,34,35,-1,26,35,29,-1,36,33,37,-1,37,33,31,-1,37,31,26,-1,26,31,38,-1,26,38,24,-1,23,39,5,-1,5,39,40,-1,5,40,41,-1,42,43,44,-1,44,45,42,-1,42,45,30,-1,42,30,46,-1,46,30,32,-1,46,32,47,-1,47,32,48,-1,49,50,51,-1,51,50,36,-1,41,52,5,-1,5,52,53,-1,5,53,54,-1,45,49,30,-1,30,49,51,-1,30,51,55,-1,20,56,51,-1,57,58,56,-1,56,58,59,-1,56,59,51,-1,51,59,5,-1,51,5,55,-1,55,5,54,-1,60,61,62,-1,62,61,63,-1,62,63,51,-1,51,63,11,-1,51,11,20,-1,20,11,16,-1,20,16,19,-1,2,62,0,-1,0,62,64,-1,0,64,65,-1,65,64,66,-1,36,37,51,-1,51,37,67,-1,51,67,68,-1,68,69,51,-1,51,69,70,-1,51,70,62,-1,62,70,71,-1,62,71,64,-1,72,73,74,-1,37,75,76,-1,77,78,79,-1,79,78,67,-1,79,67,80,-1,80,67,37,-1,80,37,81,-1,81,37,76,-1,81,76,82,-1,83,84,85,-1,74,86,72,-1,72,86,87,-1,72,87,88,-1,77,89,78,-1,78,89,90,-1,78,90,91,-1,91,92,78,-1,78,92,93,-1,78,93,94,-1,94,95,78,-1,78,95,96,-1,78,96,97,-1,98,99,100,-1,100,99,101,-1,97,102,78,-1,78,102,99,-1,78,99,103,-1,103,99,98,-1,88,87,104,-1,104,87,105,-1,104,105,76,-1,76,105,106,-1,76,106,82,-1,107,108,109,-1,110,111,112,-1,112,111,113,-1,114,83,115,-1,115,83,85,-1,115,85,109,-1,109,85,116,-1,109,116,107,-1,113,87,112,-1,112,87,86,-1,112,86,115,-1,115,86,117,-1,115,117,114,-1,118,119,120,-1,120,119,121,-1,120,121,122,-1,122,121,123,-1,122,123,124,-1,108,65,109,-1,109,65,66,-1,109,66,120,-1,120,66,125,-1,120,125,118,-1,123,126,124,-1,124,126,127,-1,124,127,112,-1,112,127,128,-1,112,128,110,-1,129,130,131,-1,131,130,132,-1,132,133,131,-1,131,133,134,-1,131,134,135,-1,136,137,138,-1,138,137,130,-1,138,130,139,-1,139,130,129,-1,28,6,140,-1,4,3,141,-1,141,3,142,-1,141,142,140,-1,140,142,143,-1,140,143,28,-1,17,19,144,-1,16,15,145,-1,145,15,146,-1,145,146,144,-1,144,146,147,-1,144,147,17,-1,12,10,148,-1,149,150,151,-1,151,150,152,-1,151,152,148,-1,148,152,153,-1,148,153,12,-1,154,155,156,-1,157,158,159,-1,159,158,160,-1,159,160,156,-1,156,160,161,-1,156,161,154,-1,162,163,164,-1,164,163,165,-1,2,166,62,-1,62,166,167,-1,62,167,60,-1,168,169,170,-1,170,169,171,-1,171,172,170,-1,170,172,173,-1,170,173,174,-1,175,176,166,-1,166,176,167,-1,177,178,179,-1,179,178,180,-1,181,182,180,-1,180,182,158,-1,180,158,179,-1,179,158,157,-1,179,157,183,-1,161,163,154,-1,154,163,162,-1,165,152,164,-1,164,152,150,-1,26,184,37,-1,37,184,185,-1,37,185,75,-1,7,186,8,-1,8,186,187,-1,13,188,14,-1,14,188,189,-1,190,170,191,-1,191,170,174,-1,160,192,193,-1,194,195,196,-1,197,198,199,-1,197,200,201,-1,202,203,204,-1,205,206,199,-1,199,206,207,-1,199,207,197,-1,197,207,194,-1,197,194,200,-1,200,194,196,-1,208,209,210,-1,210,209,197,-1,142,209,143,-1,143,209,208,-1,143,208,184,-1,184,208,185,-1,211,212,201,-1,201,212,213,-1,201,213,197,-1,197,213,202,-1,197,202,210,-1,210,202,204,-1,214,215,209,-1,187,186,142,-1,142,186,147,-1,142,147,209,-1,209,147,146,-1,189,188,146,-1,146,188,153,-1,146,153,209,-1,209,153,152,-1,193,214,160,-1,160,214,209,-1,160,209,161,-1,161,209,152,-1,161,152,163,-1,163,152,165,-1,216,217,218,-1,218,217,219,-1,219,220,218,-1,218,220,221,-1,218,221,222,-1,222,223,218,-1,218,223,224,-1,218,224,225,-1,225,224,226,-1,225,226,227,-1,228,229,230,-1,230,229,225,-1,230,225,231,-1,231,225,227,-1,132,130,232,-1,232,130,137,-1,233,234,181,-1,181,234,193,-1,181,193,182,-1,182,193,192,-1,137,136,232,-1,232,136,235,-1,232,235,236,-1,236,235,237,-1,236,237,238,-1,239,240,233,-1,233,240,234,-1,241,242,243,-1,243,242,240,-1,178,244,180,-1,180,244,243,-1,180,243,239,-1,239,243,240,-1,240,242,245,-1,234,240,135,-1,135,240,245,-1,135,245,237,-1,237,245,214,-1,237,214,238,-1,238,214,193,-1,238,193,134,-1,134,193,234,-1,134,234,135,-1,236,238,133,-1,133,238,134,-1,133,132,236,-1,236,132,232,-1,246,247,248,-1,248,219,246,-1,246,219,217,-1,246,217,249,-1,175,250,251,-1,175,251,176,-1,176,251,252,-1,176,252,253,-1,254,255,251,-1,251,255,256,-1,251,256,252,-1,252,256,257,-1,257,258,252,-1,252,258,259,-1,252,259,260,-1,261,248,173,-1,173,248,247,-1,174,173,191,-1,191,173,247,-1,191,247,262,-1,262,247,263,-1,264,265,266,-1,266,265,267,-1,268,269,270,-1,270,269,271,-1,270,272,268,-1,268,272,273,-1,268,273,274,-1,274,273,275,-1,274,275,271,-1,271,275,266,-1,271,266,270,-1,270,266,267,-1,270,267,276,-1,219,248,220,-1,220,248,261,-1,220,261,221,-1,221,261,277,-1,221,277,222,-1,222,277,278,-1,222,278,223,-1,223,278,279,-1,223,279,224,-1,224,279,280,-1,224,280,226,-1,226,280,281,-1,226,281,227,-1,227,281,282,-1,227,282,231,-1,231,282,270,-1,231,270,230,-1,230,270,276,-1,255,254,283,-1,283,254,272,-1,283,272,284,-1,284,272,270,-1,284,270,285,-1,285,270,282,-1,285,282,286,-1,286,282,255,-1,286,255,283,-1,287,282,288,-1,288,282,281,-1,288,281,289,-1,289,281,256,-1,289,256,290,-1,290,256,255,-1,290,255,287,-1,287,255,282,-1,291,281,292,-1,292,281,280,-1,292,280,293,-1,293,280,257,-1,293,257,294,-1,294,257,256,-1,294,256,291,-1,291,256,281,-1,295,280,296,-1,296,280,279,-1,296,279,297,-1,297,279,258,-1,297,258,298,-1,298,258,257,-1,298,257,295,-1,295,257,280,-1,299,279,300,-1,300,279,278,-1,300,278,301,-1,301,278,259,-1,301,259,302,-1,302,259,258,-1,302,258,299,-1,299,258,279,-1,277,303,304,-1,304,303,260,-1,304,260,305,-1,305,260,259,-1,305,259,306,-1,306,259,278,-1,306,278,307,-1,307,278,277,-1,307,277,304,-1,173,172,308,-1,308,172,303,-1,308,303,309,-1,309,303,277,-1,309,277,310,-1,310,277,261,-1,310,261,311,-1,311,261,173,-1,311,173,308,-1,170,243,168,-1,168,243,244,-1,246,249,312,-1,312,249,241,-1,312,241,313,-1,313,241,243,-1,313,243,190,-1,190,243,170,-1,233,181,239,-1,239,181,180,-1,242,241,245,-1,245,241,249,-1,245,249,217,-1,214,245,215,-1,215,245,217,-1,215,217,216,-1,209,215,314,-1,314,215,216,-1,314,216,218,-1,197,209,315,-1,315,209,314,-1,315,314,225,-1,225,314,218,-1,313,190,262,-1,262,190,191,-1,263,247,312,-1,312,247,246,-1,262,263,313,-1,313,263,312,-1,160,158,192,-1,192,158,182,-1,188,13,153,-1,153,13,12,-1,186,7,147,-1,147,7,17,-1,146,15,189,-1,189,15,14,-1,184,26,143,-1,143,26,28,-1,142,3,187,-1,187,3,8,-1,171,179,172,-1,172,179,183,-1,172,183,316,-1,317,9,260,-1,260,9,11,-1,260,11,252,-1,252,11,63,-1,172,316,155,-1,162,164,154,-1,154,164,150,-1,317,260,149,-1,149,260,303,-1,149,303,150,-1,150,303,172,-1,150,172,154,-1,154,172,155,-1,63,61,252,-1,252,61,253,-1,179,171,177,-1,177,171,169,-1,176,253,167,-1,167,253,61,-1,167,61,60,-1,244,178,168,-1,168,178,177,-1,168,177,169,-1,
        ]
    }
}
Shape{
    appearance Appearance {
        material  Material 	{
            diffuseColor 0.6666666666666666 0.6666666666666666 0.6666666666666666
            specularColor 0.4666666666666667 0.4666666666666667 0.4666666666666667
            ambientIntensity 0.2
            transparency 0
            shininess 0.5
        }
    }
    geometry IndexedFaceSet {
        ccw TRUE
        solid FALSE
        coord DEF co Coordinate {
            point [
                -1.6634 -1.3386 -0.0, -1.6634 -0.5512 -0.0, -1.7815 -1.3386 -0.0, -1.7815 -0.5512 -0.0, -1.7815 -1.3386 -0.2756, -1.7815 -0.5512 -0.2756, -1.6634 -1.3386 -0.2756, -1.6634 -0.5512 -0.2756, -1.7468 -1.5354 -0.2039, -1.6981 -1.5354 -0.2039, -1.7468 -1.5354 -0.0716, -1.6981 -1.5354 -0.0716, -1.6634 -0.1181 -0.4331, -1.6929 -0.1181 -0.4331, -1.6929 -0.1181 -0.5906, -1.7815 -0.1181 -0.5906, -1.7815 -0.1181 -0.689, -1.6634 -0.1181 -0.689, -1.7815 -0.1181 0.2559, -1.6634 -0.1181 0.2559, -1.6634 -0.1171 0.2647, -1.7815 -0.1171 0.2647, -1.6634 -0.1142 0.273, -1.7815 -0.1142 0.273, -1.6634 -0.1095 0.2805, -1.7815 -0.1095 0.2805, -1.6634 -0.1033 0.2867, -1.7815 -0.1033 0.2867, -1.6634 -0.0958 0.2914, -1.7815 -0.0958 0.2914, -1.6634 -0.0875 0.2943, -1.7815 -0.0875 0.2943, -1.6634 -0.0787 0.2953, -1.7815 -0.0787 0.2953, -1.7815 0.0394 0.2953, -1.6634 0.0394 0.2953, -1.6634 0.0481 0.2943, -1.7815 0.0481 0.2943, -1.6634 0.0565 0.2914, -1.7815 0.0565 0.2914, -1.6634 0.0639 0.2867, -1.7815 0.0639 0.2867, -1.6634 0.0702 0.2805, -1.7815 0.0702 0.2805, -1.6634 0.0748 0.273, -1.7815 0.0748 0.273, -1.6634 0.0778 0.2647, -1.7815 0.0778 0.2647, -1.6634 0.0787 0.2559, -1.7815 0.0787 0.2559, -1.7815 0.0787 -0.3579, -1.6634 0.0787 -0.3579, -1.7815 0.0806 -0.3749, -1.6634 0.0806 -0.3749, -1.7815 0.0861 -0.3911, -1.6634 0.0861 -0.3911, -1.7815 0.095 -0.4058, -1.6634 0.095 -0.4058, -1.7815 0.1069 -0.4182, -1.6634 0.1069 -0.4182, -1.7815 0.1211 -0.4277, -1.6634 0.1211 -0.4277, -1.7815 0.1371 -0.4339, -1.6634 0.1371 -0.4339, -1.7815 0.296 -0.4765, -1.6634 0.296 -0.4765, -1.6634 0.315 -0.4844, -1.7815 0.315 -0.4844, -1.6634 0.3313 -0.4969, -1.7815 0.3313 -0.4969, -1.6634 0.3438 -0.5132, -1.7815 0.3438 -0.5132, -1.6634 0.3516 -0.5322, -1.7815 0.3516 -0.5322, -1.6634 0.3543 -0.5525, -1.7815 0.3543 -0.5525, -1.7815 0.3543 -0.6496, -1.6634 0.3543 -0.6496, -1.6634 0.3524 -0.6671, -1.7815 0.3524 -0.6671, -1.6634 0.3465 -0.6838, -1.7815 0.3465 -0.6838, -1.6634 0.3372 -0.6987, -1.7815 0.3372 -0.6987, -1.6634 0.3247 -0.7112, -1.7815 0.3247 -0.7112, -1.6634 0.3098 -0.7205, -1.7815 0.3098 -0.7205, -1.6634 0.2931 -0.7264, -1.7815 0.2931 -0.7264, -1.6634 0.2756 -0.7283, -1.7815 0.2756 -0.7283, -1.7815 -0.0787 -0.7283, -1.6634 -0.0787 -0.7283, -1.6634 -0.0889 -0.727, -1.7815 -0.0889 -0.727, -1.6634 -0.0984 -0.7231, -1.7815 -0.0984 -0.7231, -1.6634 -0.1066 -0.7168, -1.7815 -0.1066 -0.7168, -1.6634 -0.1128 -0.7087, -1.7815 -0.1128 -0.7087, -1.6634 -0.1168 -0.6992, -1.7815 -0.1168 -0.6992, -1.1713 -1.3386 -0.0, -1.1713 -0.5512 -0.0, -1.2894 -1.3386 -0.0, -1.2894 -0.5512 -0.0, -1.2894 -1.3386 -0.2756, -1.2894 -0.5512 -0.2756, -1.1713 -1.3386 -0.2756, -1.1713 -0.5512 -0.2756, -1.2547 -1.5354 -0.2039, -1.206 -1.5354 -0.2039, -1.2547 -1.5354 -0.0716, -1.206 -1.5354 -0.0716, -1.2598 -0.1181 -0.4331, -1.2894 -0.1181 -0.4331, -1.2598 -0.1181 -0.5906, -1.2894 -0.1181 -0.689, -1.1713 -0.1181 -0.5906, -1.1713 -0.1181 -0.689, -1.2894 -0.1181 0.2559, -1.1713 -0.1181 0.2559, -1.1713 -0.1171 0.2647, -1.2894 -0.1171 0.2647, -1.1713 -0.1142 0.273, -1.2894 -0.1142 0.273, -1.1713 -0.1095 0.2805, -1.2894 -0.1095 0.2805, -1.1713 -0.1033 0.2867, -1.2894 -0.1033 0.2867, -1.1713 -0.0958 0.2914, -1.2894 -0.0958 0.2914, -1.1713 -0.0875 0.2943, -1.2894 -0.0875 0.2943, -1.1713 -0.0787 0.2953, -1.2894 -0.0787 0.2953, -1.2894 0.0394 0.2953, -1.1713 0.0394 0.2953, -1.1713 0.0481 0.2943, -1.2894 0.0481 0.2943, -1.1713 0.0565 0.2914, -1.2894 0.0565 0.2914, -1.1713 0.0639 0.2867, -1.2894 0.0639 0.2867, -1.1713 0.0702 0.2805, -1.2894 0.0702 0.2805, -1.1713 0.0748 0.273, -1.2894 0.0748 0.273, -1.1713 0.0778 0.2647, -1.2894 0.0778 0.2647, -1.1713 0.0787 0.2559, -1.2894 0.0787 0.2559, -1.2894 0.0787 -0.3579, -1.1713 0.0787 -0.3579, -1.2894 0.0806 -0.3749, -1.1713 0.0806 -0.3749, -1.2894 0.0861 -0.3911, -1.1713 0.0861 -0.3911, -1.2894 0.095 -0.4058, -1.1713 0.095 -0.4058, -1.2894 0.1069 -0.4182, -1.1713 0.1069 -0.4182, -1.2894 0.1211 -0.4277, -1.1713 0.1211 -0.4277, -1.2894 0.1371 -0.4339, -1.1713 0.1371 -0.4339, -1.2894 0.296 -0.4765, -1.1713 0.296 -0.4765, -1.1713 0.315 -0.4844, -1.2894 0.315 -0.4844, -1.1713 0.3313 -0.4969, -1.2894 0.3313 -0.4969, -1.1713 0.3438 -0.5132, -1.2894 0.3438 -0.5132, -1.1713 0.3516 -0.5322, -1.2894 0.3516 -0.5322, -1.1713 0.3543 -0.5525, -1.2894 0.3543 -0.5525, -1.2894 0.3543 -0.6496, -1.1713 0.3543 -0.6496, -1.1713 0.3524 -0.6671, -1.2894 0.3524 -0.6671, -1.1713 0.3465 -0.6838, -1.2894 0.3465 -0.6838, -1.1713 0.3372 -0.6987, -1.2894 0.3372 -0.6987, -1.1713 0.3247 -0.7112, -1.2894 0.3247 -0.7112, -1.1713 0.3098 -0.7205, -1.2894 0.3098 -0.7205, -1.1713 0.2931 -0.7264, -1.2894 0.2931 -0.7264, -1.1713 0.2756 -0.7283, -1.2894 0.2756 -0.7283, -1.2894 -0.0787 -0.7283, -1.1713 -0.0787 -0.7283, -1.1713 -0.0889 -0.727, -1.2894 -0.0889 -0.727, -1.1713 -0.0984 -0.7231, -1.2894 -0.0984 -0.7231, -1.1713 -0.1066 -0.7168, -1.2894 -0.1066 -0.7168, -1.1713 -0.1128 -0.7087, -1.2894 -0.1128 -0.7087, -1.1713 -0.1168 -0.6992, -1.2894 -0.1168 -0.6992, -0.6791 -1.3386 -0.0, -0.6791 -0.5512 -0.0, -0.7972 -1.3386 -0.0, -0.7972 -0.5512 -0.0, -0.7972 -1.3386 -0.2756, -0.7972 -0.5512 -0.2756, -0.6791 -1.3386 -0.2756, -0.6791 -0.5512 -0.2756, -0.7625 -1.5354 -0.2039, -0.7138 -1.5354 -0.2039, -0.7625 -1.5354 -0.0716, -0.7138 -1.5354 -0.0716, -0.7972 -0.1181 -0.689, -0.6791 -0.1181 -0.689, -0.7972 -0.1181 -0.5906, -0.6791 -0.1181 -0.5906, -0.7972 -0.1181 0.2559, -0.6791 -0.1181 0.2559, -0.6791 -0.1171 0.2647, -0.7972 -0.1171 0.2647, -0.6791 -0.1142 0.273, -0.7972 -0.1142 0.273, -0.6791 -0.1095 0.2805, -0.7972 -0.1095 0.2805, -0.6791 -0.1033 0.2867, -0.7972 -0.1033 0.2867, -0.6791 -0.0958 0.2914, -0.7972 -0.0958 0.2914, -0.6791 -0.0875 0.2943, -0.7972 -0.0875 0.2943, -0.6791 -0.0787 0.2953, -0.7972 -0.0787 0.2953, -0.7972 0.0394 0.2953, -0.6791 0.0394 0.2953, -0.6791 0.0481 0.2943, -0.7972 0.0481 0.2943, -0.6791 0.0565 0.2914, -0.7972 0.0565 0.2914, -0.6791 0.0639 0.2867, -0.7972 0.0639 0.2867, -0.6791 0.0702 0.2805, -0.7972 0.0702 0.2805, -0.6791 0.0748 0.273, -0.7972 0.0748 0.273, -0.6791 0.0778 0.2647, -0.7972 0.0778 0.2647, -0.6791 0.0787 0.2559, -0.7972 0.0787 0.2559, -0.7972 0.0787 -0.3579, -0.6791 0.0787 -0.3579, -0.7972 0.0806 -0.3749, -0.6791 0.0806 -0.3749, -0.7972 0.0861 -0.3911, -0.6791 0.0861 -0.3911, -0.7972 0.095 -0.4058, -0.6791 0.095 -0.4058, -0.7972 0.1069 -0.4182, -0.6791 0.1069 -0.4182, -0.7972 0.1211 -0.4277, -0.6791 0.1211 -0.4277, -0.7972 0.1371 -0.4339, -0.6791 0.1371 -0.4339, -0.7972 0.296 -0.4765, -0.6791 0.296 -0.4765, -0.6791 0.315 -0.4844, -0.7972 0.315 -0.4844, -0.6791 0.3313 -0.4969, -0.7972 0.3313 -0.4969, -0.6791 0.3438 -0.5132, -0.7972 0.3438 -0.5132, -0.6791 0.3516 -0.5322, -0.7972 0.3516 -0.5322, -0.6791 0.3543 -0.5525, -0.7972 0.3543 -0.5525, -0.7972 0.3543 -0.6496, -0.6791 0.3543 -0.6496, -0.6791 0.3524 -0.6671, -0.7972 0.3524 -0.6671, -0.6791 0.3465 -0.6838, -0.7972 0.3465 -0.6838, -0.6791 0.3372 -0.6987, -0.7972 0.3372 -0.6987, -0.6791 0.3247 -0.7112, -0.7972 0.3247 -0.7112, -0.6791 0.3098 -0.7205, -0.7972 0.3098 -0.7205, -0.6791 0.2931 -0.7264, -0.7972 0.2931 -0.7264, -0.6791 0.2756 -0.7283, -0.7972 0.2756 -0.7283, -0.7972 -0.0787 -0.7283, -0.6791 -0.0787 -0.7283, -0.6791 -0.0889 -0.727, -0.7972 -0.0889 -0.727, -0.6791 -0.0984 -0.7231, -0.7972 -0.0984 -0.7231, -0.6791 -0.1066 -0.7168, -0.7972 -0.1066 -0.7168, -0.6791 -0.1128 -0.7087, -0.7972 -0.1128 -0.7087, -0.6791 -0.1168 -0.6992, -0.7972 -0.1168 -0.6992, -0.187 -1.3386 -0.0, -0.187 -0.5512 -0.0, -0.3051 -1.3386 -0.0, -0.3051 -0.5512 -0.0, -0.3051 -1.3386 -0.2756, -0.3051 -0.5512 -0.2756, -0.187 -1.3386 -0.2756, -0.187 -0.5512 -0.2756, -0.2704 -1.5354 -0.2039, -0.2217 -1.5354 -0.2039, -0.2704 -1.5354 -0.0716, -0.2217 -1.5354 -0.0716, -0.3051 -0.1181 -0.689, -0.187 -0.1181 -0.689, -0.3051 -0.1181 -0.5906, -0.187 -0.1181 -0.5906, -0.3051 -0.1181 0.2559, -0.187 -0.1181 0.2559, -0.187 -0.1171 0.2647, -0.3051 -0.1171 0.2647, -0.187 -0.1142 0.273, -0.3051 -0.1142 0.273, -0.187 -0.1095 0.2805, -0.3051 -0.1095 0.2805, -0.187 -0.1033 0.2867, -0.3051 -0.1033 0.2867, -0.187 -0.0958 0.2914, -0.3051 -0.0958 0.2914, -0.187 -0.0875 0.2943, -0.3051 -0.0875 0.2943, -0.187 -0.0787 0.2953, -0.3051 -0.0787 0.2953, -0.3051 0.0394 0.2953, -0.187 0.0394 0.2953, -0.187 0.0481 0.2943, -0.3051 0.0481 0.2943, -0.187 0.0565 0.2914, -0.3051 0.0565 0.2914, -0.187 0.0639 0.2867, -0.3051 0.0639 0.2867, -0.187 0.0702 0.2805, -0.3051 0.0702 0.2805, -0.187 0.0748 0.273, -0.3051 0.0748 0.273, -0.187 0.0778 0.2647, -0.3051 0.0778 0.2647, -0.187 0.0787 0.2559, -0.3051 0.0787 0.2559, -0.3051 0.0787 -0.3579, -0.187 0.0787 -0.3579, -0.3051 0.0806 -0.3749, -0.187 0.0806 -0.3749, -0.3051 0.0861 -0.3911, -0.187 0.0861 -0.3911, -0.3051 0.095 -0.4058, -0.187 0.095 -0.4058, -0.3051 0.1069 -0.4182, -0.187 0.1069 -0.4182, -0.3051 0.1211 -0.4277, -0.187 0.1211 -0.4277, -0.3051 0.1371 -0.4339, -0.187 0.1371 -0.4339, -0.3051 0.296 -0.4765, -0.187 0.296 -0.4765, -0.187 0.315 -0.4844, -0.3051 0.315 -0.4844, -0.187 0.3313 -0.4969, -0.3051 0.3313 -0.4969, -0.187 0.3438 -0.5132, -0.3051 0.3438 -0.5132, -0.187 0.3516 -0.5322, -0.3051 0.3516 -0.5322, -0.187 0.3543 -0.5525, -0.3051 0.3543 -0.5525, -0.3051 0.3543 -0.6496, -0.187 0.3543 -0.6496, -0.187 0.3524 -0.6671, -0.3051 0.3524 -0.6671, -0.187 0.3465 -0.6838, -0.3051 0.3465 -0.6838, -0.187 0.3372 -0.6987, -0.3051 0.3372 -0.6987, -0.187 0.3247 -0.7112, -0.3051 0.3247 -0.7112, -0.187 0.3098 -0.7205, -0.3051 0.3098 -0.7205, -0.187 0.2931 -0.7264, -0.3051 0.2931 -0.7264, -0.187 0.2756 -0.7283, -0.3051 0.2756 -0.7283, -0.3051 -0.0787 -0.7283, -0.187 -0.0787 -0.7283, -0.187 -0.0889 -0.727, -0.3051 -0.0889 -0.727, -0.187 -0.0984 -0.7231, -0.3051 -0.0984 -0.7231, -0.187 -0.1066 -0.7168, -0.3051 -0.1066 -0.7168, -0.187 -0.1128 -0.7087, -0.3051 -0.1128 -0.7087, -0.187 -0.1168 -0.6992, -0.3051 -0.1168 -0.6992, -0.3051 -0.1168 -0.6992
            ]
        }
        coordIndex [
            0,1,2,-1,2,1,3,-1,4,5,6,-1,6,5,7,-1,2,3,4,-1,4,3,5,-1,6,7,0,-1,0,7,1,-1,8,9,10,-1,10,9,11,-1,12,13,14,-1,15,16,14,-1,14,16,17,-1,14,17,12,-1,18,19,20,-1,18,20,21,-1,21,20,22,-1,21,22,23,-1,23,22,24,-1,23,24,25,-1,25,24,26,-1,25,26,27,-1,27,26,28,-1,27,28,29,-1,29,28,30,-1,29,30,31,-1,31,30,32,-1,31,32,33,-1,34,33,35,-1,35,33,32,-1,34,35,36,-1,34,36,37,-1,37,36,38,-1,37,38,39,-1,39,38,40,-1,39,40,41,-1,41,40,42,-1,41,42,43,-1,43,42,44,-1,43,44,45,-1,45,44,46,-1,45,46,47,-1,47,46,48,-1,47,48,49,-1,50,49,51,-1,51,49,48,-1,50,51,52,-1,52,51,53,-1,52,53,54,-1,54,53,55,-1,54,55,56,-1,56,55,57,-1,56,57,58,-1,58,57,59,-1,58,59,60,-1,60,59,61,-1,60,61,62,-1,62,61,63,-1,64,62,65,-1,65,62,63,-1,64,65,66,-1,64,66,67,-1,67,66,68,-1,67,68,69,-1,69,68,70,-1,69,70,71,-1,71,70,72,-1,71,72,73,-1,73,72,74,-1,73,74,75,-1,76,75,77,-1,77,75,74,-1,76,77,78,-1,76,78,79,-1,79,78,80,-1,79,80,81,-1,81,80,82,-1,81,82,83,-1,83,82,84,-1,83,84,85,-1,85,84,86,-1,85,86,87,-1,87,86,88,-1,87,88,89,-1,89,88,90,-1,89,90,91,-1,92,91,93,-1,93,91,90,-1,92,93,94,-1,92,94,95,-1,95,94,96,-1,95,96,97,-1,97,96,98,-1,97,98,99,-1,99,98,100,-1,99,100,101,-1,101,100,102,-1,101,102,103,-1,103,102,17,-1,103,17,16,-1,49,50,34,-1,97,99,60,-1,89,91,76,-1,52,54,15,-1,15,54,56,-1,15,56,16,-1,16,56,58,-1,16,58,103,-1,103,58,60,-1,103,60,101,-1,101,60,99,-1,76,91,75,-1,34,50,33,-1,18,27,29,-1,18,21,27,-1,27,21,23,-1,27,23,25,-1,29,31,18,-1,18,31,33,-1,18,33,15,-1,15,33,50,-1,15,50,52,-1,67,75,64,-1,64,75,91,-1,64,91,62,-1,62,91,92,-1,62,92,60,-1,60,92,95,-1,60,95,97,-1,67,69,75,-1,75,69,71,-1,75,71,73,-1,81,83,79,-1,79,83,85,-1,79,85,76,-1,76,85,87,-1,76,87,89,-1,39,41,47,-1,47,41,43,-1,47,43,45,-1,49,34,47,-1,47,34,37,-1,47,37,39,-1,19,12,32,-1,93,90,65,-1,17,102,61,-1,102,100,61,-1,61,100,98,-1,61,98,96,-1,65,63,93,-1,93,63,61,-1,93,61,94,-1,94,61,96,-1,55,12,57,-1,57,12,17,-1,57,17,59,-1,59,17,61,-1,55,53,12,-1,12,53,51,-1,12,51,32,-1,32,51,48,-1,32,48,35,-1,35,48,36,-1,88,86,77,-1,77,86,84,-1,77,84,78,-1,78,84,82,-1,78,82,80,-1,70,68,72,-1,72,68,74,-1,68,66,74,-1,74,66,65,-1,74,65,77,-1,77,65,90,-1,77,90,88,-1,28,26,20,-1,20,26,24,-1,20,24,22,-1,42,40,44,-1,44,40,46,-1,46,40,48,-1,48,40,38,-1,48,38,36,-1,19,32,20,-1,20,32,30,-1,20,30,28,-1,10,11,2,-1,2,11,0,-1,4,6,8,-1,8,6,9,-1,10,2,8,-1,8,2,4,-1,0,11,6,-1,6,11,9,-1,104,105,106,-1,106,105,107,-1,108,109,110,-1,110,109,111,-1,106,107,108,-1,108,107,109,-1,110,111,104,-1,104,111,105,-1,112,113,114,-1,114,113,115,-1,116,117,118,-1,118,117,119,-1,118,119,120,-1,120,119,121,-1,122,123,124,-1,122,124,125,-1,125,124,126,-1,125,126,127,-1,127,126,128,-1,127,128,129,-1,129,128,130,-1,129,130,131,-1,131,130,132,-1,131,132,133,-1,133,132,134,-1,133,134,135,-1,135,134,136,-1,135,136,137,-1,138,137,139,-1,139,137,136,-1,138,139,140,-1,138,140,141,-1,141,140,142,-1,141,142,143,-1,143,142,144,-1,143,144,145,-1,145,144,146,-1,145,146,147,-1,147,146,148,-1,147,148,149,-1,149,148,150,-1,149,150,151,-1,151,150,152,-1,151,152,153,-1,154,153,155,-1,155,153,152,-1,154,155,156,-1,156,155,157,-1,156,157,158,-1,158,157,159,-1,158,159,160,-1,160,159,161,-1,160,161,162,-1,162,161,163,-1,162,163,164,-1,164,163,165,-1,164,165,166,-1,166,165,167,-1,168,166,169,-1,169,166,167,-1,168,169,170,-1,168,170,171,-1,171,170,172,-1,171,172,173,-1,173,172,174,-1,173,174,175,-1,175,174,176,-1,175,176,177,-1,177,176,178,-1,177,178,179,-1,180,179,181,-1,181,179,178,-1,180,181,182,-1,180,182,183,-1,183,182,184,-1,183,184,185,-1,185,184,186,-1,185,186,187,-1,187,186,188,-1,187,188,189,-1,189,188,190,-1,189,190,191,-1,191,190,192,-1,191,192,193,-1,193,192,194,-1,193,194,195,-1,196,195,197,-1,197,195,194,-1,196,197,198,-1,196,198,199,-1,199,198,200,-1,199,200,201,-1,201,200,202,-1,201,202,203,-1,203,202,204,-1,203,204,205,-1,205,204,206,-1,205,206,207,-1,207,206,121,-1,207,121,119,-1,153,154,138,-1,201,203,164,-1,117,156,158,-1,193,195,180,-1,117,158,119,-1,158,160,119,-1,119,160,162,-1,119,162,207,-1,207,162,164,-1,207,164,205,-1,205,164,203,-1,180,195,179,-1,138,154,137,-1,122,131,133,-1,122,125,131,-1,131,125,127,-1,131,127,129,-1,133,135,122,-1,122,135,137,-1,122,137,117,-1,117,137,154,-1,117,154,156,-1,171,179,168,-1,168,179,195,-1,168,195,166,-1,166,195,196,-1,166,196,164,-1,164,196,199,-1,164,199,201,-1,171,173,179,-1,179,173,175,-1,179,175,177,-1,185,187,183,-1,183,187,189,-1,183,189,180,-1,180,189,191,-1,180,191,193,-1,143,145,151,-1,151,145,147,-1,151,147,149,-1,153,138,151,-1,151,138,141,-1,151,141,143,-1,159,157,120,-1,197,194,169,-1,206,204,165,-1,165,204,202,-1,165,202,200,-1,169,167,197,-1,197,167,165,-1,197,165,198,-1,198,165,200,-1,206,165,121,-1,121,165,163,-1,121,163,120,-1,120,163,161,-1,120,161,159,-1,140,139,152,-1,152,139,136,-1,152,136,155,-1,130,128,126,-1,192,190,181,-1,181,190,188,-1,181,188,182,-1,182,188,186,-1,182,186,184,-1,172,178,174,-1,174,178,176,-1,172,170,178,-1,178,170,169,-1,178,169,181,-1,181,169,194,-1,181,194,192,-1,157,155,120,-1,120,155,136,-1,120,136,123,-1,123,136,134,-1,134,132,123,-1,123,132,130,-1,123,130,124,-1,124,130,126,-1,146,144,148,-1,148,144,150,-1,150,144,152,-1,152,144,142,-1,152,142,140,-1,208,209,210,-1,210,209,211,-1,212,213,214,-1,214,213,215,-1,210,211,212,-1,212,211,213,-1,214,215,208,-1,208,215,209,-1,216,217,218,-1,218,217,219,-1,220,221,222,-1,222,221,223,-1,224,225,226,-1,224,226,227,-1,227,226,228,-1,227,228,229,-1,229,228,230,-1,229,230,231,-1,231,230,232,-1,231,232,233,-1,233,232,234,-1,233,234,235,-1,235,234,236,-1,235,236,237,-1,237,236,238,-1,237,238,239,-1,240,239,241,-1,241,239,238,-1,240,241,242,-1,240,242,243,-1,243,242,244,-1,243,244,245,-1,245,244,246,-1,245,246,247,-1,247,246,248,-1,247,248,249,-1,249,248,250,-1,249,250,251,-1,251,250,252,-1,251,252,253,-1,253,252,254,-1,253,254,255,-1,256,255,257,-1,257,255,254,-1,256,257,258,-1,258,257,259,-1,258,259,260,-1,260,259,261,-1,260,261,262,-1,262,261,263,-1,262,263,264,-1,264,263,265,-1,264,265,266,-1,266,265,267,-1,266,267,268,-1,268,267,269,-1,270,268,271,-1,271,268,269,-1,270,271,272,-1,270,272,273,-1,273,272,274,-1,273,274,275,-1,275,274,276,-1,275,276,277,-1,277,276,278,-1,277,278,279,-1,279,278,280,-1,279,280,281,-1,282,281,283,-1,283,281,280,-1,282,283,284,-1,282,284,285,-1,285,284,286,-1,285,286,287,-1,287,286,288,-1,287,288,289,-1,289,288,290,-1,289,290,291,-1,291,290,292,-1,291,292,293,-1,293,292,294,-1,293,294,295,-1,295,294,296,-1,295,296,297,-1,298,297,299,-1,299,297,296,-1,298,299,300,-1,298,300,301,-1,301,300,302,-1,301,302,303,-1,303,302,304,-1,303,304,305,-1,305,304,306,-1,305,306,307,-1,307,306,308,-1,307,308,309,-1,309,308,221,-1,309,221,220,-1,255,256,240,-1,303,305,266,-1,295,297,282,-1,258,260,222,-1,222,260,262,-1,222,262,220,-1,220,262,264,-1,220,264,309,-1,309,264,266,-1,309,266,307,-1,307,266,305,-1,282,297,281,-1,240,256,239,-1,224,233,235,-1,224,227,233,-1,233,227,229,-1,233,229,231,-1,235,237,224,-1,224,237,239,-1,224,239,222,-1,222,239,256,-1,222,256,258,-1,273,281,270,-1,270,281,297,-1,270,297,268,-1,268,297,298,-1,268,298,266,-1,266,298,301,-1,266,301,303,-1,273,275,281,-1,281,275,277,-1,281,277,279,-1,287,289,285,-1,285,289,291,-1,285,291,282,-1,282,291,293,-1,282,293,295,-1,245,247,253,-1,253,247,249,-1,253,249,251,-1,255,240,253,-1,253,240,243,-1,253,243,245,-1,225,223,238,-1,299,296,271,-1,308,306,267,-1,267,306,304,-1,267,304,302,-1,271,269,299,-1,299,269,267,-1,299,267,300,-1,300,267,302,-1,308,267,221,-1,221,267,265,-1,221,265,223,-1,223,265,263,-1,223,263,261,-1,261,259,223,-1,223,259,257,-1,223,257,238,-1,238,257,254,-1,238,254,241,-1,241,254,242,-1,294,292,283,-1,283,292,290,-1,283,290,284,-1,284,290,288,-1,284,288,286,-1,276,274,278,-1,278,274,280,-1,274,272,280,-1,280,272,271,-1,280,271,283,-1,283,271,296,-1,283,296,294,-1,234,232,226,-1,226,232,230,-1,226,230,228,-1,248,246,250,-1,250,246,252,-1,252,246,254,-1,254,246,244,-1,254,244,242,-1,225,238,226,-1,226,238,236,-1,226,236,234,-1,310,311,312,-1,312,311,313,-1,314,315,316,-1,316,315,317,-1,312,313,314,-1,314,313,315,-1,316,317,310,-1,310,317,311,-1,318,319,320,-1,320,319,321,-1,322,323,324,-1,324,323,325,-1,326,327,328,-1,326,328,329,-1,329,328,330,-1,329,330,331,-1,331,330,332,-1,331,332,333,-1,333,332,334,-1,333,334,335,-1,335,334,336,-1,335,336,337,-1,337,336,338,-1,337,338,339,-1,339,338,340,-1,339,340,341,-1,342,341,343,-1,343,341,340,-1,342,343,344,-1,342,344,345,-1,345,344,346,-1,345,346,347,-1,347,346,348,-1,347,348,349,-1,349,348,350,-1,349,350,351,-1,351,350,352,-1,351,352,353,-1,353,352,354,-1,353,354,355,-1,355,354,356,-1,355,356,357,-1,358,357,359,-1,359,357,356,-1,358,359,360,-1,360,359,361,-1,360,361,362,-1,362,361,363,-1,362,363,364,-1,364,363,365,-1,364,365,366,-1,366,365,367,-1,366,367,368,-1,368,367,369,-1,368,369,370,-1,370,369,371,-1,372,370,373,-1,373,370,371,-1,372,373,374,-1,372,374,375,-1,375,374,376,-1,375,376,377,-1,377,376,378,-1,377,378,379,-1,379,378,380,-1,379,380,381,-1,381,380,382,-1,381,382,383,-1,384,383,385,-1,385,383,382,-1,384,385,386,-1,384,386,387,-1,387,386,388,-1,387,388,389,-1,389,388,390,-1,389,390,391,-1,391,390,392,-1,391,392,393,-1,393,392,394,-1,393,394,395,-1,395,394,396,-1,395,396,397,-1,397,396,398,-1,397,398,399,-1,400,399,401,-1,401,399,398,-1,400,401,402,-1,400,402,403,-1,403,402,404,-1,403,404,405,-1,405,404,406,-1,405,406,407,-1,407,406,408,-1,407,408,409,-1,409,408,410,-1,409,410,411,-1,411,410,323,-1,411,323,322,-1,357,358,342,-1,405,407,368,-1,397,399,384,-1,360,362,324,-1,324,362,364,-1,324,364,322,-1,322,364,366,-1,322,366,411,-1,411,366,368,-1,411,368,409,-1,409,368,407,-1,384,399,383,-1,342,358,341,-1,326,335,337,-1,326,329,335,-1,335,329,331,-1,335,331,333,-1,337,339,326,-1,326,339,341,-1,326,341,324,-1,324,341,358,-1,324,358,360,-1,375,383,372,-1,372,383,399,-1,372,399,370,-1,370,399,400,-1,370,400,368,-1,368,400,403,-1,368,403,405,-1,375,377,383,-1,383,377,379,-1,383,379,381,-1,389,391,387,-1,387,391,393,-1,387,393,384,-1,384,393,395,-1,384,395,397,-1,347,349,355,-1,355,349,351,-1,355,351,353,-1,357,342,355,-1,355,342,345,-1,355,345,347,-1,327,325,340,-1,401,398,373,-1,410,408,369,-1,369,408,406,-1,369,406,404,-1,373,371,401,-1,401,371,369,-1,401,369,402,-1,402,369,404,-1,410,369,323,-1,323,369,367,-1,323,367,325,-1,325,367,365,-1,325,365,363,-1,363,361,325,-1,325,361,359,-1,325,359,340,-1,340,359,356,-1,340,356,343,-1,343,356,344,-1,396,394,385,-1,385,394,392,-1,385,392,386,-1,386,392,390,-1,386,390,388,-1,376,382,378,-1,378,382,380,-1,376,374,382,-1,382,374,373,-1,382,373,385,-1,385,373,398,-1,385,398,396,-1,332,330,334,-1,334,330,328,-1,334,328,336,-1,350,348,352,-1,352,348,354,-1,354,348,356,-1,356,348,346,-1,356,346,344,-1,327,340,328,-1,328,340,338,-1,328,338,336,-1,114,115,106,-1,106,115,104,-1,108,110,112,-1,112,110,113,-1,218,219,210,-1,210,219,208,-1,212,214,216,-1,216,214,217,-1,320,321,312,-1,312,321,310,-1,314,316,318,-1,318,316,319,-1,114,106,112,-1,112,106,108,-1,104,115,110,-1,110,115,113,-1,218,210,216,-1,216,210,212,-1,208,219,214,-1,214,219,217,-1,320,312,318,-1,318,312,314,-1,310,321,316,-1,316,321,319,-1,
        ]
    }
}
Shape{
    appearance Appearance {
        material  Material 	{
            diffuseColor 0.5882352941176471 0.5725490196078431 0.5254901960784314
            specularColor 0.043137254901960784 0.0392156862745098 0.0392156862745098
            ambientIntensity 0.2
            transparency 0
            shininess 0.5
        }
    }
    geometry IndexedFaceSet {
        ccw TRUE
        solid FALSE
        coord DEF co Coordinate {
            point [
                -2.6575 -1.2598 -0.6299, -2.6575 -0.5118 -0.6299, -2.6575 -1.2598 0.2362, -2.6575 -0.5118 0.2362, -2.5591 -0.5118 -0.6299, -2.5591 -0.5118 0.3346, -2.7953 -0.5118 0.2362, -2.7953 -0.5118 0.3346, -2.7953 -1.2598 0.2362, -2.7953 -1.2598 0.3346, 2.5591 -0.1772 -0.6299, 2.7953 -0.1772 -0.6299, 2.9528 -0.3346 -0.6299, 2.5591 -0.5118 -0.6299, 2.6575 -0.5118 -0.6299, 2.6575 -1.2598 -0.6299, 2.9528 -1.2598 -0.6299, 2.9528 -1.2598 0.3346, 2.7953 -1.2598 0.3346, 2.7953 -1.2598 0.2362, 2.6575 -1.2598 0.2362, 0.315 -0.1181 -0.5906, 0.3051 -0.1181 -0.5906, 0.3051 -0.1181 0.2559, 0.187 -0.1181 -0.5906, 0.1772 -0.1181 -0.5906, 0.187 -0.1181 0.2559, 0.1772 -0.1181 0.689, 0.315 -0.1181 0.689, 0.8071 -0.1181 -0.5906, 0.7972 -0.1181 -0.5906, 0.7972 -0.1181 0.2559, 0.6791 -0.1181 -0.5906, 0.6693 -0.1181 -0.5906, 0.6791 -0.1181 0.2559, 0.6693 -0.1181 0.689, 0.8071 -0.1181 0.689, 1.2992 -0.1181 -0.4331, 1.2894 -0.1181 -0.4331, 1.2894 -0.1181 0.2559, 1.1713 -0.1181 -0.5906, 1.1614 -0.1181 -0.5906, 1.1713 -0.1181 0.2559, 1.1614 -0.1181 0.689, 1.2992 -0.1181 0.689, 1.7913 -0.1181 -0.5906, 1.7815 -0.1181 -0.5906, 1.7815 -0.1181 0.2559, 1.6634 -0.1181 -0.4331, 1.6535 -0.1181 -0.4331, 1.6634 -0.1181 0.2559, 1.6535 -0.1181 0.689, 1.7913 -0.1181 0.689, 1.6535 0.0 0.689, 1.6535 0.0 -0.4331, 1.2992 0.0 0.689, 1.2992 0.0 -0.4331, 1.5354 -1.1417 -0.4331, 1.5354 -1.6535 -0.4331, 1.6929 -1.1417 -0.4331, 2.3425 -1.6535 -0.4331, 1.6929 -0.5512 -0.4331, 2.3425 -0.5512 -0.4331, 1.5354 -1.7323 -0.5906, 1.5354 -1.1417 -0.5906, 2.3425 -1.7323 -0.5906, 1.6929 -1.1417 -0.5906, 1.7913 0.0 -0.5906, 2.3425 0.0 -0.5906, 1.6929 -0.1181 -0.5906, 0.6693 0.0 0.689, 0.6693 0.0 -0.5906, 0.315 -0.0 0.689, 0.315 0.0 -0.5906, 1.1614 0.0 0.689, 1.1614 0.0 -0.5906, 0.8071 0.0 0.689, 0.8071 0.0 -0.5906, 2.3425 -1.6535 -0.1378, 2.3425 -0.5512 -0.1378, 2.9528 -0.3346 0.3346, 2.5591 0.0 -0.689, 2.3425 0.0 -0.689, 1.7913 0.0 0.689, 2.5591 0.0 0.689, 2.7953 -0.5118 0.3346, 2.5591 -0.5118 0.3346, 2.7953 -0.1772 0.3346, 2.5591 -0.1772 0.3346, 2.5591 -1.7323 -0.689, 2.3425 -1.7323 -0.689, 1.5354 -1.7323 -0.5118, 2.4213 -1.7323 -0.5118, 2.4213 -1.7323 0.4921, 2.5591 -1.7323 0.4921, 2.5591 -1.2598 0.689, 2.5591 -1.2598 0.4921, 2.3425 -1.6535 0.1772, 2.3425 -1.6535 0.4921, 2.3425 -1.2598 0.4921, 2.3425 -0.5512 0.4921, 2.3425 -0.5512 0.2461, 2.3425 -0.5512 0.1772, 2.3819 -1.6929 -0.1378, 2.3819 -1.6929 0.1772, 2.185 -1.2598 0.689, 2.185 -1.2598 0.4921, 2.185 -1.0433 0.689, 2.185 -1.0433 0.6102, 2.185 -0.9252 0.4921, 2.3819 -0.5512 -0.1378, 2.3819 -0.5512 0.1772, 0.1772 0.0 -0.5906, 0.1772 -0.0 0.689, 1.6929 -0.1181 -0.4331, 1.2598 -1.1417 -0.4331, 1.2598 -1.1417 -0.5906, 1.2598 -0.5512 -0.4331, 1.2598 -0.7813 -0.5906, 1.2598 -0.1181 -0.4331, 1.2598 -0.1181 -0.5906, 1.4764 -0.5512 -0.4331, 1.4173 -1.1417 -0.5906, 1.4173 -1.1417 -0.4331, 1.4173 -1.6535 -0.4331, 1.4173 -1.7323 -0.5118, 1.4173 -1.7323 -0.5906, 1.4173 -1.7323 -0.5906
            ]
        }
        coordIndex [
            0,1,2,-1,2,1,3,-1,1,4,3,-1,3,4,5,-1,3,5,6,-1,6,5,7,-1,6,7,8,-1,8,7,9,-1,3,6,2,-1,2,6,8,-1,10,11,12,-1,13,10,14,-1,14,10,12,-1,14,12,15,-1,15,12,16,-1,17,18,19,-1,20,15,19,-1,19,15,16,-1,19,16,17,-1,21,22,23,-1,24,25,26,-1,26,25,27,-1,26,27,23,-1,23,27,28,-1,23,28,21,-1,29,30,31,-1,32,33,34,-1,34,33,35,-1,34,35,31,-1,31,35,36,-1,31,36,29,-1,37,38,39,-1,40,41,42,-1,42,41,43,-1,42,43,39,-1,39,43,44,-1,39,44,37,-1,45,46,47,-1,48,49,50,-1,50,49,51,-1,50,51,47,-1,47,51,52,-1,47,52,45,-1,53,54,55,-1,55,54,56,-1,57,58,59,-1,59,58,60,-1,59,60,61,-1,61,60,62,-1,63,64,65,-1,65,64,66,-1,67,68,45,-1,45,68,65,-1,45,65,46,-1,46,65,66,-1,46,66,69,-1,53,51,54,-1,54,51,49,-1,44,55,37,-1,37,55,56,-1,70,71,72,-1,72,71,73,-1,74,75,76,-1,76,75,77,-1,60,78,62,-1,62,78,79,-1,16,12,17,-1,17,12,80,-1,81,82,68,-1,67,83,68,-1,68,83,84,-1,68,84,81,-1,18,17,85,-1,85,17,80,-1,85,80,86,-1,86,80,87,-1,86,87,88,-1,89,90,81,-1,81,90,82,-1,91,63,92,-1,92,63,65,-1,65,90,92,-1,92,90,89,-1,92,89,93,-1,93,89,94,-1,94,89,13,-1,13,89,81,-1,13,81,10,-1,10,81,88,-1,88,81,84,-1,88,84,86,-1,86,84,95,-1,86,95,13,-1,13,95,96,-1,13,96,94,-1,88,87,10,-1,10,87,11,-1,12,11,80,-1,80,11,87,-1,97,98,99,-1,99,100,97,-1,97,100,101,-1,97,101,102,-1,92,60,91,-1,91,60,58,-1,103,78,60,-1,93,98,97,-1,97,104,93,-1,93,104,103,-1,93,103,92,-1,92,103,60,-1,68,82,65,-1,65,82,90,-1,93,94,98,-1,98,94,96,-1,98,96,99,-1,96,95,99,-1,99,95,105,-1,99,105,106,-1,105,107,106,-1,106,107,108,-1,106,108,109,-1,78,103,79,-1,79,103,110,-1,102,111,97,-1,97,111,104,-1,111,110,104,-1,104,110,103,-1,45,52,67,-1,67,52,83,-1,75,74,41,-1,41,74,43,-1,71,70,33,-1,33,70,35,-1,29,36,77,-1,77,36,76,-1,112,113,25,-1,25,113,27,-1,21,28,73,-1,73,28,72,-1,66,59,69,-1,69,59,61,-1,69,61,114,-1,115,116,117,-1,117,116,118,-1,117,118,119,-1,119,118,120,-1,117,119,38,-1,56,54,37,-1,37,54,49,-1,114,61,48,-1,48,61,121,-1,48,121,49,-1,49,121,117,-1,49,117,37,-1,37,117,38,-1,122,116,123,-1,123,116,115,-1,59,66,57,-1,57,66,64,-1,123,124,122,-1,122,124,125,-1,122,125,126,-1,58,57,91,-1,91,57,64,-1,91,64,63,-1,
        ]
    }
}
Shape{
    appearance Appearance {
        material  Material 	{
            diffuseColor 0.6666666666666666 0.6666666666666666 0.6666666666666666
            specularColor 0.4666666666666667 0.4666666666666667 0.4666666666666667
            ambientIntensity 0.2
            transparency 0
            shininess 0.5
        }
    }
    geometry IndexedFaceSet {
        ccw TRUE
        solid FALSE
        coord DEF co Coordinate {
            point [
                1.6634 -0.5512 -0.0, 1.6634 -1.3386 -0.0, 1.7815 -0.5512 -0.0, 1.7815 -1.3386 -0.0, 1.7815 -0.5512 -0.2756, 1.7815 -1.3386 -0.2756, 1.6634 -0.5512 -0.2756, 1.6634 -1.3386 -0.2756, 1.6981 -1.5354 -0.2039, 1.7468 -1.5354 -0.2039, 1.6981 -1.5354 -0.0716, 1.7468 -1.5354 -0.0716, 1.6929 -0.1181 -0.4331, 1.6634 -0.1181 -0.4331, 1.6929 -0.1181 -0.5906, 1.6634 -0.1181 -0.689, 1.7815 -0.1181 -0.5906, 1.7815 -0.1181 -0.689, 1.7815 -0.0787 0.2953, 1.6634 -0.0787 0.2953, 1.6634 -0.0875 0.2943, 1.7815 -0.0875 0.2943, 1.6634 -0.0958 0.2914, 1.7815 -0.0958 0.2914, 1.6634 -0.1033 0.2867, 1.7815 -0.1033 0.2867, 1.6634 -0.1095 0.2805, 1.7815 -0.1095 0.2805, 1.6634 -0.1142 0.273, 1.7815 -0.1142 0.273, 1.6634 -0.1171 0.2647, 1.7815 -0.1171 0.2647, 1.6634 -0.1181 0.2559, 1.7815 -0.1181 0.2559, 1.7815 0.0394 0.2953, 1.6634 0.0394 0.2953, 1.7815 0.0787 0.2559, 1.6634 0.0787 0.2559, 1.6634 0.0778 0.2647, 1.7815 0.0778 0.2647, 1.6634 0.0748 0.273, 1.7815 0.0748 0.273, 1.6634 0.0702 0.2805, 1.7815 0.0702 0.2805, 1.6634 0.0639 0.2867, 1.7815 0.0639 0.2867, 1.6634 0.0565 0.2914, 1.7815 0.0565 0.2914, 1.6634 0.0481 0.2943, 1.7815 0.0481 0.2943, 1.7815 0.0787 -0.3579, 1.6634 0.0787 -0.3579, 1.7815 0.1371 -0.4339, 1.6634 0.1371 -0.4339, 1.7815 0.1181 -0.4261, 1.6634 0.1181 -0.4261, 1.7815 0.1018 -0.4135, 1.6634 0.1018 -0.4135, 1.7815 0.0893 -0.3972, 1.6634 0.0893 -0.3972, 1.7815 0.0814 -0.3782, 1.6634 0.0814 -0.3782, 1.7815 0.296 -0.4765, 1.6634 0.296 -0.4765, 1.7815 0.3543 -0.5525, 1.6634 0.3543 -0.5525, 1.6634 0.3516 -0.5322, 1.7815 0.3516 -0.5322, 1.6634 0.3438 -0.5132, 1.7815 0.3438 -0.5132, 1.6634 0.3313 -0.4969, 1.7815 0.3313 -0.4969, 1.6634 0.315 -0.4844, 1.7815 0.315 -0.4844, 1.7815 0.3543 -0.6496, 1.6634 0.3543 -0.6496, 1.7815 0.2756 -0.7283, 1.6634 0.2756 -0.7283, 1.6634 0.2931 -0.7264, 1.7815 0.2931 -0.7264, 1.6634 0.3098 -0.7205, 1.7815 0.3098 -0.7205, 1.6634 0.3247 -0.7112, 1.7815 0.3247 -0.7112, 1.6634 0.3372 -0.6987, 1.7815 0.3372 -0.6987, 1.6634 0.3465 -0.6838, 1.7815 0.3465 -0.6838, 1.6634 0.3524 -0.6671, 1.7815 0.3524 -0.6671, 1.7815 -0.0787 -0.7283, 1.6634 -0.0787 -0.7283, 1.6634 -0.1168 -0.6992, 1.7815 -0.1168 -0.6992, 1.6634 -0.1128 -0.7087, 1.7815 -0.1128 -0.7087, 1.6634 -0.1066 -0.7168, 1.7815 -0.1066 -0.7168, 1.6634 -0.0984 -0.7231, 1.7815 -0.0984 -0.7231, 1.6634 -0.0889 -0.727, 1.7815 -0.0889 -0.727, 1.1713 -0.5512 -0.0, 1.1713 -1.3386 -0.0, 1.2894 -0.5512 -0.0, 1.2894 -1.3386 -0.0, 1.2894 -0.5512 -0.2756, 1.2894 -1.3386 -0.2756, 1.1713 -0.5512 -0.2756, 1.1713 -1.3386 -0.2756, 1.206 -1.5354 -0.2039, 1.2547 -1.5354 -0.2039, 1.206 -1.5354 -0.0716, 1.2547 -1.5354 -0.0716, 1.2894 -0.1181 -0.4331, 1.2598 -0.1181 -0.4331, 1.2598 -0.1181 -0.5906, 1.1713 -0.1181 -0.5906, 1.1713 -0.1181 -0.689, 1.2894 -0.1181 -0.689, 1.2894 -0.0787 0.2953, 1.1713 -0.0787 0.2953, 1.1713 -0.0875 0.2943, 1.2894 -0.0875 0.2943, 1.1713 -0.0958 0.2914, 1.2894 -0.0958 0.2914, 1.1713 -0.1033 0.2867, 1.2894 -0.1033 0.2867, 1.1713 -0.1095 0.2805, 1.2894 -0.1095 0.2805, 1.1713 -0.1142 0.273, 1.2894 -0.1142 0.273, 1.1713 -0.1171 0.2647, 1.2894 -0.1171 0.2647, 1.1713 -0.1181 0.2559, 1.2894 -0.1181 0.2559, 1.2894 0.0394 0.2953, 1.1713 0.0394 0.2953, 1.2894 0.0787 0.2559, 1.1713 0.0787 0.2559, 1.1713 0.0778 0.2647, 1.2894 0.0778 0.2647, 1.1713 0.0748 0.273, 1.2894 0.0748 0.273, 1.1713 0.0702 0.2805, 1.2894 0.0702 0.2805, 1.1713 0.0639 0.2867, 1.2894 0.0639 0.2867, 1.1713 0.0565 0.2914, 1.2894 0.0565 0.2914, 1.1713 0.0481 0.2943, 1.2894 0.0481 0.2943, 1.2894 0.0787 -0.3579, 1.1713 0.0787 -0.3579, 1.2894 0.1371 -0.4339, 1.1713 0.1371 -0.4339, 1.2894 0.1181 -0.4261, 1.1713 0.1181 -0.4261, 1.2894 0.1018 -0.4135, 1.1713 0.1018 -0.4135, 1.2894 0.0893 -0.3972, 1.1713 0.0893 -0.3972, 1.2894 0.0814 -0.3782, 1.1713 0.0814 -0.3782, 1.2894 0.296 -0.4765, 1.1713 0.296 -0.4765, 1.2894 0.3543 -0.5525, 1.1713 0.3543 -0.5525, 1.1713 0.3516 -0.5322, 1.2894 0.3516 -0.5322, 1.1713 0.3438 -0.5132, 1.2894 0.3438 -0.5132, 1.1713 0.3313 -0.4969, 1.2894 0.3313 -0.4969, 1.1713 0.315 -0.4844, 1.2894 0.315 -0.4844, 1.2894 0.3543 -0.6496, 1.1713 0.3543 -0.6496, 1.2894 0.2756 -0.7283, 1.1713 0.2756 -0.7283, 1.1713 0.2931 -0.7264, 1.2894 0.2931 -0.7264, 1.1713 0.3098 -0.7205, 1.2894 0.3098 -0.7205, 1.1713 0.3247 -0.7112, 1.2894 0.3247 -0.7112, 1.1713 0.3372 -0.6987, 1.2894 0.3372 -0.6987, 1.1713 0.3465 -0.6838, 1.2894 0.3465 -0.6838, 1.1713 0.3524 -0.6671, 1.2894 0.3524 -0.6671, 1.2894 -0.0787 -0.7283, 1.1713 -0.0787 -0.7283, 1.1713 -0.1168 -0.6992, 1.2894 -0.1168 -0.6992, 1.1713 -0.1128 -0.7087, 1.2894 -0.1128 -0.7087, 1.1713 -0.1066 -0.7168, 1.2894 -0.1066 -0.7168, 1.1713 -0.0984 -0.7231, 1.2894 -0.0984 -0.7231, 1.1713 -0.0889 -0.727, 1.2894 -0.0889 -0.727, 0.6791 -0.5512 -0.0, 0.6791 -1.3386 -0.0, 0.7972 -0.5512 -0.0, 0.7972 -1.3386 -0.0, 0.7972 -0.5512 -0.2756, 0.7972 -1.3386 -0.2756, 0.6791 -0.5512 -0.2756, 0.6791 -1.3386 -0.2756, 0.7138 -1.5354 -0.2039, 0.7625 -1.5354 -0.2039, 0.7138 -1.5354 -0.0716, 0.7625 -1.5354 -0.0716, 0.6791 -0.1181 -0.689, 0.7972 -0.1181 -0.689, 0.6791 -0.1181 -0.5906, 0.7972 -0.1181 -0.5906, 0.7972 -0.0787 0.2953, 0.6791 -0.0787 0.2953, 0.6791 -0.0875 0.2943, 0.7972 -0.0875 0.2943, 0.6791 -0.0958 0.2914, 0.7972 -0.0958 0.2914, 0.6791 -0.1033 0.2867, 0.7972 -0.1033 0.2867, 0.6791 -0.1095 0.2805, 0.7972 -0.1095 0.2805, 0.6791 -0.1142 0.273, 0.7972 -0.1142 0.273, 0.6791 -0.1171 0.2647, 0.7972 -0.1171 0.2647, 0.6791 -0.1181 0.2559, 0.7972 -0.1181 0.2559, 0.7972 0.0394 0.2953, 0.6791 0.0394 0.2953, 0.7972 0.0787 0.2559, 0.6791 0.0787 0.2559, 0.6791 0.0778 0.2647, 0.7972 0.0778 0.2647, 0.6791 0.0748 0.273, 0.7972 0.0748 0.273, 0.6791 0.0702 0.2805, 0.7972 0.0702 0.2805, 0.6791 0.0639 0.2867, 0.7972 0.0639 0.2867, 0.6791 0.0565 0.2914, 0.7972 0.0565 0.2914, 0.6791 0.0481 0.2943, 0.7972 0.0481 0.2943, 0.7972 0.0787 -0.3579, 0.6791 0.0787 -0.3579, 0.7972 0.1371 -0.4339, 0.6791 0.1371 -0.4339, 0.7972 0.1181 -0.4261, 0.6791 0.1181 -0.4261, 0.7972 0.1018 -0.4135, 0.6791 0.1018 -0.4135, 0.7972 0.0893 -0.3972, 0.6791 0.0893 -0.3972, 0.7972 0.0814 -0.3782, 0.6791 0.0814 -0.3782, 0.7972 0.296 -0.4765, 0.6791 0.296 -0.4765, 0.7972 0.3543 -0.5525, 0.6791 0.3543 -0.5525, 0.6791 0.3516 -0.5322, 0.7972 0.3516 -0.5322, 0.6791 0.3438 -0.5132, 0.7972 0.3438 -0.5132, 0.6791 0.3313 -0.4969, 0.7972 0.3313 -0.4969, 0.6791 0.315 -0.4844, 0.7972 0.315 -0.4844, 0.7972 0.3543 -0.6496, 0.6791 0.3543 -0.6496, 0.7972 0.2756 -0.7283, 0.6791 0.2756 -0.7283, 0.6791 0.2931 -0.7264, 0.7972 0.2931 -0.7264, 0.6791 0.3098 -0.7205, 0.7972 0.3098 -0.7205, 0.6791 0.3247 -0.7112, 0.7972 0.3247 -0.7112, 0.6791 0.3372 -0.6987, 0.7972 0.3372 -0.6987, 0.6791 0.3465 -0.6838, 0.7972 0.3465 -0.6838, 0.6791 0.3524 -0.6671, 0.7972 0.3524 -0.6671, 0.7972 -0.0787 -0.7283, 0.6791 -0.0787 -0.7283, 0.6791 -0.1168 -0.6992, 0.7972 -0.1168 -0.6992, 0.6791 -0.1128 -0.7087, 0.7972 -0.1128 -0.7087, 0.6791 -0.1066 -0.7168, 0.7972 -0.1066 -0.7168, 0.6791 -0.0984 -0.7231, 0.7972 -0.0984 -0.7231, 0.6791 -0.0889 -0.727, 0.7972 -0.0889 -0.727, 0.187 -0.5512 -0.0, 0.187 -1.3386 -0.0, 0.3051 -0.5512 -0.0, 0.3051 -1.3386 -0.0, 0.3051 -0.5512 -0.2756, 0.3051 -1.3386 -0.2756, 0.187 -0.5512 -0.2756, 0.187 -1.3386 -0.2756, 0.2217 -1.5354 -0.2039, 0.2704 -1.5354 -0.2039, 0.2217 -1.5354 -0.0716, 0.2704 -1.5354 -0.0716, 0.187 -0.1181 -0.689, 0.3051 -0.1181 -0.689, 0.187 -0.1181 -0.5906, 0.3051 -0.1181 -0.5906, 0.3051 -0.0787 0.2953, 0.187 -0.0787 0.2953, 0.187 -0.0875 0.2943, 0.3051 -0.0875 0.2943, 0.187 -0.0958 0.2914, 0.3051 -0.0958 0.2914, 0.187 -0.1033 0.2867, 0.3051 -0.1033 0.2867, 0.187 -0.1095 0.2805, 0.3051 -0.1095 0.2805, 0.187 -0.1142 0.273, 0.3051 -0.1142 0.273, 0.187 -0.1171 0.2647, 0.3051 -0.1171 0.2647, 0.187 -0.1181 0.2559, 0.3051 -0.1181 0.2559, 0.3051 0.0394 0.2953, 0.187 0.0394 0.2953, 0.3051 0.0787 0.2559, 0.187 0.0787 0.2559, 0.187 0.0778 0.2647, 0.3051 0.0778 0.2647, 0.187 0.0748 0.273, 0.3051 0.0748 0.273, 0.187 0.0702 0.2805, 0.3051 0.0702 0.2805, 0.187 0.0639 0.2867, 0.3051 0.0639 0.2867, 0.187 0.0565 0.2914, 0.3051 0.0565 0.2914, 0.187 0.0481 0.2943, 0.3051 0.0481 0.2943, 0.3051 0.0787 -0.3579, 0.187 0.0787 -0.3579, 0.3051 0.1371 -0.4339, 0.187 0.1371 -0.4339, 0.3051 0.1181 -0.4261, 0.187 0.1181 -0.4261, 0.3051 0.1018 -0.4135, 0.187 0.1018 -0.4135, 0.3051 0.0893 -0.3972, 0.187 0.0893 -0.3972, 0.3051 0.0814 -0.3782, 0.187 0.0814 -0.3782, 0.3051 0.296 -0.4765, 0.187 0.296 -0.4765, 0.3051 0.3543 -0.5525, 0.187 0.3543 -0.5525, 0.187 0.3516 -0.5322, 0.3051 0.3516 -0.5322, 0.187 0.3438 -0.5132, 0.3051 0.3438 -0.5132, 0.187 0.3313 -0.4969, 0.3051 0.3313 -0.4969, 0.187 0.315 -0.4844, 0.3051 0.315 -0.4844, 0.3051 0.3543 -0.6496, 0.187 0.3543 -0.6496, 0.3051 0.2756 -0.7283, 0.187 0.2756 -0.7283, 0.187 0.2931 -0.7264, 0.3051 0.2931 -0.7264, 0.187 0.3098 -0.7205, 0.3051 0.3098 -0.7205, 0.187 0.3247 -0.7112, 0.3051 0.3247 -0.7112, 0.187 0.3372 -0.6987, 0.3051 0.3372 -0.6987, 0.187 0.3465 -0.6838, 0.3051 0.3465 -0.6838, 0.187 0.3524 -0.6671, 0.3051 0.3524 -0.6671, 0.3051 -0.0787 -0.7283, 0.187 -0.0787 -0.7283, 0.187 -0.1168 -0.6992, 0.3051 -0.1168 -0.6992, 0.187 -0.1128 -0.7087, 0.3051 -0.1128 -0.7087, 0.187 -0.1066 -0.7168, 0.3051 -0.1066 -0.7168, 0.187 -0.0984 -0.7231, 0.3051 -0.0984 -0.7231, 0.187 -0.0889 -0.727, 0.3051 -0.0889 -0.727, 0.3051 -0.0889 -0.727
            ]
        }
        coordIndex [
            0,1,2,-1,2,1,3,-1,4,5,6,-1,6,5,7,-1,2,3,4,-1,4,3,5,-1,6,7,0,-1,0,7,1,-1,8,9,10,-1,10,9,11,-1,12,13,14,-1,14,13,15,-1,14,15,16,-1,16,15,17,-1,18,19,20,-1,18,20,21,-1,21,20,22,-1,21,22,23,-1,23,22,24,-1,23,24,25,-1,25,24,26,-1,25,26,27,-1,27,26,28,-1,27,28,29,-1,29,28,30,-1,29,30,31,-1,31,30,32,-1,31,32,33,-1,18,34,19,-1,19,34,35,-1,36,37,38,-1,36,38,39,-1,39,38,40,-1,39,40,41,-1,41,40,42,-1,41,42,43,-1,43,42,44,-1,43,44,45,-1,45,44,46,-1,45,46,47,-1,47,46,48,-1,47,48,49,-1,49,48,35,-1,49,35,34,-1,36,50,37,-1,37,50,51,-1,52,53,54,-1,54,53,55,-1,54,55,56,-1,56,55,57,-1,56,57,58,-1,58,57,59,-1,58,59,60,-1,60,59,61,-1,60,61,50,-1,50,61,51,-1,52,62,53,-1,53,62,63,-1,64,65,66,-1,64,66,67,-1,67,66,68,-1,67,68,69,-1,69,68,70,-1,69,70,71,-1,71,70,72,-1,71,72,73,-1,73,72,63,-1,73,63,62,-1,64,74,65,-1,65,74,75,-1,76,77,78,-1,76,78,79,-1,79,78,80,-1,79,80,81,-1,81,80,82,-1,81,82,83,-1,83,82,84,-1,83,84,85,-1,85,84,86,-1,85,86,87,-1,87,86,88,-1,87,88,89,-1,89,88,75,-1,89,75,74,-1,76,90,77,-1,77,90,91,-1,17,15,92,-1,17,92,93,-1,93,92,94,-1,93,94,95,-1,95,94,96,-1,95,96,97,-1,97,96,98,-1,97,98,99,-1,99,98,100,-1,99,100,101,-1,101,100,91,-1,101,91,90,-1,58,60,16,-1,58,16,56,-1,90,76,62,-1,50,36,18,-1,47,49,36,-1,36,49,34,-1,36,34,18,-1,25,27,29,-1,64,62,74,-1,74,62,76,-1,74,76,79,-1,56,16,54,-1,54,16,17,-1,54,17,93,-1,41,43,45,-1,60,50,16,-1,16,50,18,-1,16,18,33,-1,33,18,21,-1,21,23,33,-1,33,23,25,-1,33,25,31,-1,31,25,29,-1,79,81,74,-1,74,81,83,-1,74,83,89,-1,89,83,85,-1,89,85,87,-1,64,67,62,-1,62,67,69,-1,62,69,73,-1,73,69,71,-1,93,95,54,-1,54,95,97,-1,54,97,99,-1,62,52,90,-1,90,52,54,-1,90,54,101,-1,101,54,99,-1,47,36,45,-1,45,36,39,-1,45,39,41,-1,78,77,75,-1,98,96,55,-1,75,77,65,-1,13,19,51,-1,51,19,35,-1,51,35,37,-1,37,35,48,-1,37,48,38,-1,22,30,24,-1,24,30,28,-1,24,28,26,-1,51,61,13,-1,13,61,59,-1,13,59,15,-1,15,59,57,-1,15,57,92,-1,92,57,55,-1,92,55,94,-1,94,55,96,-1,13,32,19,-1,19,32,30,-1,19,30,20,-1,20,30,22,-1,72,65,63,-1,63,65,77,-1,63,77,53,-1,53,77,91,-1,53,91,55,-1,55,91,100,-1,55,100,98,-1,72,70,65,-1,65,70,68,-1,65,68,66,-1,86,84,88,-1,88,84,82,-1,88,82,75,-1,75,82,80,-1,75,80,78,-1,48,46,38,-1,38,46,44,-1,38,44,40,-1,40,44,42,-1,10,11,1,-1,1,11,3,-1,7,5,8,-1,8,5,9,-1,3,11,5,-1,5,11,9,-1,10,1,8,-1,8,1,7,-1,102,103,104,-1,104,103,105,-1,106,107,108,-1,108,107,109,-1,104,105,106,-1,106,105,107,-1,108,109,102,-1,102,109,103,-1,110,111,112,-1,112,111,113,-1,114,115,116,-1,117,118,116,-1,116,118,119,-1,116,119,114,-1,120,121,122,-1,120,122,123,-1,123,122,124,-1,123,124,125,-1,125,124,126,-1,125,126,127,-1,127,126,128,-1,127,128,129,-1,129,128,130,-1,129,130,131,-1,131,130,132,-1,131,132,133,-1,133,132,134,-1,133,134,135,-1,120,136,121,-1,121,136,137,-1,138,139,140,-1,138,140,141,-1,141,140,142,-1,141,142,143,-1,143,142,144,-1,143,144,145,-1,145,144,146,-1,145,146,147,-1,147,146,148,-1,147,148,149,-1,149,148,150,-1,149,150,151,-1,151,150,137,-1,151,137,136,-1,138,152,139,-1,139,152,153,-1,154,155,156,-1,156,155,157,-1,156,157,158,-1,158,157,159,-1,158,159,160,-1,160,159,161,-1,160,161,162,-1,162,161,163,-1,162,163,152,-1,152,163,153,-1,154,164,155,-1,155,164,165,-1,166,167,168,-1,166,168,169,-1,169,168,170,-1,169,170,171,-1,171,170,172,-1,171,172,173,-1,173,172,174,-1,173,174,175,-1,175,174,165,-1,175,165,164,-1,166,176,167,-1,167,176,177,-1,178,179,180,-1,178,180,181,-1,181,180,182,-1,181,182,183,-1,183,182,184,-1,183,184,185,-1,185,184,186,-1,185,186,187,-1,187,186,188,-1,187,188,189,-1,189,188,190,-1,189,190,191,-1,191,190,177,-1,191,177,176,-1,178,192,179,-1,179,192,193,-1,119,118,194,-1,119,194,195,-1,195,194,196,-1,195,196,197,-1,197,196,198,-1,197,198,199,-1,199,198,200,-1,199,200,201,-1,201,200,202,-1,201,202,203,-1,203,202,193,-1,203,193,192,-1,192,178,164,-1,160,162,114,-1,114,162,152,-1,114,152,120,-1,120,152,138,-1,131,133,120,-1,120,133,135,-1,120,135,114,-1,197,199,156,-1,156,199,201,-1,149,151,138,-1,138,151,136,-1,138,136,120,-1,160,114,158,-1,158,114,119,-1,158,119,156,-1,156,119,195,-1,156,195,197,-1,164,154,192,-1,192,154,156,-1,192,156,203,-1,203,156,201,-1,143,145,147,-1,120,123,125,-1,181,183,176,-1,176,183,185,-1,176,185,191,-1,191,185,187,-1,191,187,189,-1,171,173,169,-1,169,173,166,-1,173,175,166,-1,166,175,164,-1,166,164,176,-1,176,164,178,-1,176,178,181,-1,125,127,120,-1,120,127,129,-1,120,129,131,-1,149,138,147,-1,147,138,141,-1,147,141,143,-1,121,137,153,-1,134,126,124,-1,153,137,139,-1,139,137,150,-1,139,150,140,-1,200,198,157,-1,163,161,117,-1,117,161,159,-1,117,159,118,-1,118,159,157,-1,134,132,126,-1,126,132,130,-1,126,130,128,-1,124,122,134,-1,134,122,121,-1,134,121,117,-1,117,121,153,-1,117,153,163,-1,165,179,155,-1,155,179,193,-1,155,193,157,-1,157,193,202,-1,157,202,200,-1,198,196,157,-1,157,196,194,-1,157,194,118,-1,172,170,174,-1,174,170,165,-1,170,168,165,-1,165,168,167,-1,165,167,179,-1,179,167,177,-1,179,177,180,-1,186,184,188,-1,188,184,190,-1,190,184,177,-1,177,184,182,-1,177,182,180,-1,150,148,140,-1,140,148,146,-1,140,146,142,-1,142,146,144,-1,204,205,206,-1,206,205,207,-1,208,209,210,-1,210,209,211,-1,206,207,208,-1,208,207,209,-1,210,211,204,-1,204,211,205,-1,212,213,214,-1,214,213,215,-1,216,217,218,-1,218,217,219,-1,220,221,222,-1,220,222,223,-1,223,222,224,-1,223,224,225,-1,225,224,226,-1,225,226,227,-1,227,226,228,-1,227,228,229,-1,229,228,230,-1,229,230,231,-1,231,230,232,-1,231,232,233,-1,233,232,234,-1,233,234,235,-1,220,236,221,-1,221,236,237,-1,238,239,240,-1,238,240,241,-1,241,240,242,-1,241,242,243,-1,243,242,244,-1,243,244,245,-1,245,244,246,-1,245,246,247,-1,247,246,248,-1,247,248,249,-1,249,248,250,-1,249,250,251,-1,251,250,237,-1,251,237,236,-1,238,252,239,-1,239,252,253,-1,254,255,256,-1,256,255,257,-1,256,257,258,-1,258,257,259,-1,258,259,260,-1,260,259,261,-1,260,261,262,-1,262,261,263,-1,262,263,252,-1,252,263,253,-1,254,264,255,-1,255,264,265,-1,266,267,268,-1,266,268,269,-1,269,268,270,-1,269,270,271,-1,271,270,272,-1,271,272,273,-1,273,272,274,-1,273,274,275,-1,275,274,265,-1,275,265,264,-1,266,276,267,-1,267,276,277,-1,278,279,280,-1,278,280,281,-1,281,280,282,-1,281,282,283,-1,283,282,284,-1,283,284,285,-1,285,284,286,-1,285,286,287,-1,287,286,288,-1,287,288,289,-1,289,288,290,-1,289,290,291,-1,291,290,277,-1,291,277,276,-1,278,292,279,-1,279,292,293,-1,217,216,294,-1,217,294,295,-1,295,294,296,-1,295,296,297,-1,297,296,298,-1,297,298,299,-1,299,298,300,-1,299,300,301,-1,301,300,302,-1,301,302,303,-1,303,302,293,-1,303,293,292,-1,260,262,219,-1,260,219,258,-1,252,238,220,-1,249,251,238,-1,238,251,236,-1,238,236,220,-1,227,229,231,-1,281,276,278,-1,278,276,264,-1,278,264,292,-1,258,219,256,-1,256,219,217,-1,256,217,295,-1,243,245,247,-1,262,252,219,-1,219,252,220,-1,219,220,235,-1,235,220,223,-1,223,225,235,-1,235,225,227,-1,235,227,233,-1,233,227,231,-1,281,283,276,-1,276,283,285,-1,276,285,291,-1,291,285,287,-1,291,287,289,-1,269,271,273,-1,295,297,256,-1,256,297,299,-1,256,299,301,-1,264,254,292,-1,292,254,256,-1,292,256,303,-1,303,256,301,-1,276,266,264,-1,264,266,269,-1,264,269,275,-1,275,269,273,-1,249,238,247,-1,247,238,241,-1,247,241,243,-1,253,263,218,-1,218,221,253,-1,253,221,237,-1,253,237,239,-1,239,237,250,-1,239,250,240,-1,300,298,257,-1,263,261,218,-1,218,261,259,-1,218,259,216,-1,216,259,257,-1,224,232,226,-1,226,232,230,-1,226,230,228,-1,272,270,268,-1,218,234,221,-1,221,234,232,-1,221,232,222,-1,222,232,224,-1,265,279,255,-1,255,279,293,-1,255,293,257,-1,257,293,302,-1,257,302,300,-1,298,296,257,-1,257,296,294,-1,257,294,216,-1,288,286,290,-1,290,286,284,-1,290,284,277,-1,277,284,282,-1,250,248,240,-1,240,248,246,-1,240,246,242,-1,242,246,244,-1,282,280,277,-1,277,280,279,-1,277,279,267,-1,267,279,265,-1,267,265,268,-1,268,265,274,-1,268,274,272,-1,304,305,306,-1,306,305,307,-1,308,309,310,-1,310,309,311,-1,306,307,308,-1,308,307,309,-1,310,311,304,-1,304,311,305,-1,312,313,314,-1,314,313,315,-1,316,317,318,-1,318,317,319,-1,320,321,322,-1,320,322,323,-1,323,322,324,-1,323,324,325,-1,325,324,326,-1,325,326,327,-1,327,326,328,-1,327,328,329,-1,329,328,330,-1,329,330,331,-1,331,330,332,-1,331,332,333,-1,333,332,334,-1,333,334,335,-1,320,336,321,-1,321,336,337,-1,338,339,340,-1,338,340,341,-1,341,340,342,-1,341,342,343,-1,343,342,344,-1,343,344,345,-1,345,344,346,-1,345,346,347,-1,347,346,348,-1,347,348,349,-1,349,348,350,-1,349,350,351,-1,351,350,337,-1,351,337,336,-1,338,352,339,-1,339,352,353,-1,354,355,356,-1,356,355,357,-1,356,357,358,-1,358,357,359,-1,358,359,360,-1,360,359,361,-1,360,361,362,-1,362,361,363,-1,362,363,352,-1,352,363,353,-1,354,364,355,-1,355,364,365,-1,366,367,368,-1,366,368,369,-1,369,368,370,-1,369,370,371,-1,371,370,372,-1,371,372,373,-1,373,372,374,-1,373,374,375,-1,375,374,365,-1,375,365,364,-1,366,376,367,-1,367,376,377,-1,378,379,380,-1,378,380,381,-1,381,380,382,-1,381,382,383,-1,383,382,384,-1,383,384,385,-1,385,384,386,-1,385,386,387,-1,387,386,388,-1,387,388,389,-1,389,388,390,-1,389,390,391,-1,391,390,377,-1,391,377,376,-1,378,392,379,-1,379,392,393,-1,317,316,394,-1,317,394,395,-1,395,394,396,-1,395,396,397,-1,397,396,398,-1,397,398,399,-1,399,398,400,-1,399,400,401,-1,401,400,402,-1,401,402,403,-1,403,402,393,-1,403,393,392,-1,358,360,319,-1,392,378,364,-1,360,362,319,-1,319,362,352,-1,319,352,320,-1,320,352,338,-1,331,333,320,-1,320,333,335,-1,320,335,319,-1,383,385,376,-1,349,351,338,-1,338,351,336,-1,338,336,320,-1,376,366,364,-1,358,319,356,-1,356,319,317,-1,356,317,395,-1,343,345,347,-1,320,323,325,-1,364,378,376,-1,376,378,381,-1,376,381,383,-1,387,389,385,-1,385,389,391,-1,385,391,376,-1,366,369,364,-1,364,369,371,-1,364,371,375,-1,375,371,373,-1,395,397,356,-1,356,397,399,-1,356,399,401,-1,364,354,392,-1,392,354,356,-1,392,356,403,-1,403,356,401,-1,325,327,320,-1,320,327,329,-1,320,329,331,-1,349,338,347,-1,347,338,341,-1,347,341,343,-1,353,363,318,-1,380,379,377,-1,377,379,367,-1,318,321,353,-1,353,321,337,-1,353,337,339,-1,339,337,350,-1,339,350,340,-1,400,398,357,-1,363,361,318,-1,318,361,359,-1,318,359,316,-1,316,359,357,-1,324,332,326,-1,326,332,330,-1,326,330,328,-1,318,334,321,-1,321,334,332,-1,321,332,322,-1,322,332,324,-1,398,396,357,-1,357,396,394,-1,357,394,316,-1,374,367,365,-1,365,367,379,-1,365,379,355,-1,355,379,393,-1,355,393,357,-1,357,393,402,-1,357,402,400,-1,374,372,367,-1,367,372,370,-1,367,370,368,-1,386,384,388,-1,388,384,390,-1,390,384,377,-1,377,384,382,-1,377,382,380,-1,350,348,340,-1,340,348,346,-1,340,346,342,-1,342,346,344,-1,112,113,103,-1,103,113,105,-1,109,107,110,-1,110,107,111,-1,214,215,205,-1,205,215,207,-1,211,209,212,-1,212,209,213,-1,314,315,305,-1,305,315,307,-1,311,309,312,-1,312,309,313,-1,105,113,107,-1,107,113,111,-1,112,103,110,-1,110,103,109,-1,207,215,209,-1,209,215,213,-1,214,205,212,-1,212,205,211,-1,307,315,309,-1,309,315,313,-1,314,305,312,-1,312,305,311,-1,
        ]
    }
}
Shape{
    appearance Appearance {
        material  Material 	{
            diffuseColor 0.5882352941176471 0.5725490196078431 0.5254901960784314
            specularColor 0.043137254901960784 0.0392156862745098 0.0392156862745098
            ambientIntensity 0.2
            transparency 0
            shininess 0.5
        }
    }
    geometry IndexedFaceSet {
        ccw TRUE
        solid FALSE
        coord DEF co Coordinate {
            point [
                2.6575 -0.5118 -0.6299, 2.6575 -1.2598 -0.6299, 2.6575 -0.5118 0.2362, 2.6575 -1.2598 0.2362, 2.7953 -0.5118 0.2362, 2.7953 -0.5118 0.3346, 2.5591 -0.5118 0.3346, 2.5591 -0.5118 -0.6299, 2.7953 -1.2598 0.3346, 2.7953 -1.2598 0.2362, 2.7953 -1.2598 0.2362
            ]
        }
        coordIndex [
            0,1,2,-1,2,1,3,-1,4,5,2,-1,2,5,6,-1,2,6,0,-1,0,6,7,-1,5,4,8,-1,8,4,9,-1,4,2,9,-1,9,2,3,-1,
        ]
    }
}
Shape{
    appearance Appearance {
        material  Material 	{
            diffuseColor 1.0 1.0 1.0
            specularColor 0.8784313725490196 0.8784313725490196 0.8784313725490196
            ambientIntensity 0.2
            transparency 0
            shininess 0.5
        }
    }
    geometry IndexedFaceSet {
        ccw TRUE
        solid FALSE
        coord DEF co Coordinate {
            point [
                -0.1335 -0.7021 -0.5827, -0.1642 -0.7809 -0.5827, -0.1335 -0.7021 -0.5906, -0.1642 -0.7809 -0.5906, -0.1527 -0.7809 -0.5827, -0.1527 -0.7809 -0.5906, -0.1447 -0.7588 -0.5827, -0.1447 -0.7588 -0.5906, -0.1122 -0.7588 -0.5827, -0.1122 -0.7588 -0.5906, -0.1047 -0.7809 -0.5827, -0.1047 -0.7809 -0.5906, -0.0931 -0.7809 -0.5827, -0.0931 -0.7809 -0.5906, -0.1229 -0.7021 -0.5827, -0.1229 -0.7021 -0.5906, -0.1148 -0.7501 -0.5827, -0.1266 -0.7172 -0.5827, -0.1273 -0.7145 -0.5827, -0.1278 -0.7117 -0.5827, -0.1281 -0.7117 -0.5827, -0.1286 -0.7145 -0.5827, -0.1293 -0.7172 -0.5827, -0.1412 -0.7501 -0.5827, -0.1148 -0.7501 -0.5906, -0.1412 -0.7501 -0.5906, -0.1266 -0.7172 -0.5906, -0.1273 -0.7145 -0.5906, -0.1278 -0.7117 -0.5906, -0.1281 -0.7117 -0.5906, -0.1286 -0.7145 -0.5906, -0.1293 -0.7172 -0.5906, -0.0454 -0.7809 -0.5827, -0.024 -0.7809 -0.5827, -0.0454 -0.7809 -0.5906, -0.024 -0.7809 -0.5906, -0.024 -0.7021 -0.5827, -0.024 -0.7021 -0.5906, -0.0462 -0.7021 -0.5827, -0.0462 -0.7021 -0.5906, -0.0874 -0.7405 -0.5827, -0.0874 -0.7405 -0.5906, -0.0872 -0.7366 -0.5906, -0.0872 -0.7366 -0.5827, -0.0857 -0.7283 -0.5906, -0.0857 -0.7283 -0.5827, -0.0824 -0.7206 -0.5906, -0.0824 -0.7206 -0.5827, -0.0777 -0.7145 -0.5906, -0.0777 -0.7145 -0.5827, -0.0746 -0.7116 -0.5906, -0.0746 -0.7116 -0.5827, -0.0668 -0.7066 -0.5906, -0.0668 -0.7066 -0.5827, -0.0576 -0.7033 -0.5906, -0.0576 -0.7033 -0.5827, -0.0554 -0.78 -0.5906, -0.0554 -0.78 -0.5827, -0.0645 -0.7772 -0.5906, -0.0645 -0.7772 -0.5827, -0.0726 -0.7724 -0.5906, -0.0726 -0.7724 -0.5827, -0.079 -0.7662 -0.5906, -0.079 -0.7662 -0.5827, -0.0835 -0.7592 -0.5906, -0.0835 -0.7592 -0.5827, -0.0863 -0.751 -0.5906, -0.0863 -0.751 -0.5827, -0.0768 -0.7407 -0.5827, -0.0762 -0.7329 -0.5827, -0.0743 -0.7267 -0.5827, -0.0716 -0.7218 -0.5827, -0.0678 -0.7178 -0.5827, -0.0621 -0.714 -0.5827, -0.0556 -0.7118 -0.5827, -0.0462 -0.7108 -0.5827, -0.0346 -0.7108 -0.5827, -0.0346 -0.7722 -0.5827, -0.0457 -0.7722 -0.5827, -0.0541 -0.7714 -0.5827, -0.0607 -0.7694 -0.5827, -0.066 -0.7662 -0.5827, -0.0705 -0.7618 -0.5827, -0.0738 -0.7565 -0.5827, -0.0758 -0.7502 -0.5827, -0.0462 -0.7108 -0.5906, -0.0346 -0.7108 -0.5906, -0.0556 -0.7118 -0.5906, -0.0621 -0.714 -0.5906, -0.0678 -0.7178 -0.5906, -0.0716 -0.7218 -0.5906, -0.0743 -0.7267 -0.5906, -0.0762 -0.7329 -0.5906, -0.0768 -0.7407 -0.5906, -0.0758 -0.7502 -0.5906, -0.0738 -0.7565 -0.5906, -0.0705 -0.7618 -0.5906, -0.066 -0.7662 -0.5906, -0.0607 -0.7694 -0.5906, -0.0541 -0.7714 -0.5906, -0.0457 -0.7722 -0.5906, -0.0346 -0.7722 -0.5906, -0.0086 -0.7722 -0.5827, -0.0086 -0.7809 -0.5827, -0.0086 -0.7722 -0.5906, -0.0086 -0.7809 -0.5906, 0.0336 -0.7809 -0.5827, 0.0336 -0.7809 -0.5906, 0.0336 -0.7021 -0.5827, 0.0336 -0.7021 -0.5906, -0.0067 -0.7021 -0.5827, -0.0067 -0.7021 -0.5906, -0.0067 -0.7108 -0.5827, -0.0067 -0.7108 -0.5906, 0.023 -0.7108 -0.5827, 0.023 -0.7108 -0.5906, 0.023 -0.7367 -0.5827, 0.023 -0.7367 -0.5906, -0.0048 -0.7367 -0.5827, -0.0048 -0.7367 -0.5906, -0.0048 -0.7453 -0.5827, -0.0048 -0.7453 -0.5906, 0.023 -0.7453 -0.5827, 0.023 -0.7453 -0.5906, 0.023 -0.7722 -0.5827, 0.023 -0.7722 -0.5906, 0.049 -0.7681 -0.5827, 0.049 -0.7768 -0.5827, 0.049 -0.7681 -0.5906, 0.049 -0.7768 -0.5906, 0.0574 -0.7802 -0.5827, 0.0706 -0.7818 -0.5827, 0.0706 -0.7818 -0.5906, 0.0685 -0.7818 -0.5906, 0.0685 -0.7818 -0.5827, 0.0653 -0.7813 -0.5906, 0.0574 -0.7802 -0.5906, 0.1075 -0.743 -0.5827, 0.1075 -0.743 -0.5906, 0.1068 -0.7522 -0.5906, 0.1068 -0.7522 -0.5827, 0.1043 -0.7606 -0.5906, 0.1043 -0.7606 -0.5827, 0.1001 -0.768 -0.5906, 0.1001 -0.768 -0.5827, 0.0944 -0.7741 -0.5906, 0.0944 -0.7741 -0.5827, 0.088 -0.7782 -0.5906, 0.088 -0.7782 -0.5827, 0.0803 -0.7808 -0.5906, 0.0803 -0.7808 -0.5827, 0.0753 -0.7813 -0.5906, 0.0675 -0.7012 -0.5827, 0.0675 -0.7012 -0.5906, 0.0758 -0.7019 -0.5906, 0.0758 -0.7019 -0.5827, 0.0845 -0.7045 -0.5906, 0.0845 -0.7045 -0.5827, 0.0918 -0.7088 -0.5906, 0.0918 -0.7088 -0.5827, 0.0987 -0.7154 -0.5906, 0.0987 -0.7154 -0.5827, 0.1034 -0.7228 -0.5906, 0.1034 -0.7228 -0.5827, 0.1064 -0.7318 -0.5906, 0.1064 -0.7318 -0.5827, 0.049 -0.7043 -0.5827, 0.049 -0.7043 -0.5906, 0.0581 -0.7018 -0.5906, 0.0581 -0.7018 -0.5827, 0.049 -0.7148 -0.5827, 0.049 -0.7148 -0.5906, 0.0674 -0.7098 -0.5827, 0.0674 -0.7098 -0.5906, 0.0578 -0.711 -0.5906, 0.0578 -0.711 -0.5827, 0.097 -0.7423 -0.5827, 0.097 -0.7423 -0.5906, 0.0966 -0.7364 -0.5906, 0.0966 -0.7364 -0.5827, 0.0946 -0.7279 -0.5906, 0.0946 -0.7279 -0.5827, 0.0913 -0.7218 -0.5906, 0.0913 -0.7218 -0.5827, 0.0866 -0.7165 -0.5906, 0.0866 -0.7165 -0.5827, 0.081 -0.7128 -0.5906, 0.081 -0.7128 -0.5827, 0.0752 -0.7107 -0.5906, 0.0752 -0.7107 -0.5827, 0.0692 -0.7732 -0.5827, 0.0692 -0.7732 -0.5906, 0.0765 -0.7724 -0.5906, 0.0765 -0.7724 -0.5827, 0.0823 -0.7702 -0.5906, 0.0823 -0.7702 -0.5827, 0.0871 -0.7669 -0.5906, 0.0871 -0.7669 -0.5827, 0.0908 -0.7631 -0.5906, 0.0908 -0.7631 -0.5827, 0.0941 -0.7576 -0.5906, 0.0941 -0.7576 -0.5827, 0.0962 -0.7508 -0.5906, 0.0962 -0.7508 -0.5827, 0.0504 -0.7689 -0.5906, 0.0504 -0.7689 -0.5827, 0.0587 -0.772 -0.5906, 0.0587 -0.772 -0.5827, 0.1143 -0.7722 -0.5827, 0.1143 -0.7809 -0.5827, 0.1143 -0.7722 -0.5906, 0.1143 -0.7809 -0.5906, 0.1546 -0.7809 -0.5827, 0.1546 -0.7809 -0.5906, 0.1546 -0.7021 -0.5827, 0.1546 -0.7021 -0.5906, 0.144 -0.7021 -0.5827, 0.144 -0.7021 -0.5906, 0.144 -0.7722 -0.5827, 0.144 -0.7722 -0.5906, 0.144 -0.7722 -0.5906
            ]
        }
        coordIndex [
            0,1,2,-1,2,1,3,-1,1,4,3,-1,3,4,5,-1,4,6,5,-1,5,6,7,-1,6,8,7,-1,7,8,9,-1,8,10,9,-1,9,10,11,-1,10,12,11,-1,11,12,13,-1,12,14,13,-1,13,14,15,-1,14,0,15,-1,15,0,2,-1,16,17,14,-1,12,10,8,-1,17,18,14,-1,14,18,19,-1,14,19,0,-1,0,19,20,-1,0,20,21,-1,21,22,0,-1,0,22,23,-1,0,23,1,-1,4,1,6,-1,6,1,23,-1,6,23,8,-1,8,23,16,-1,8,16,12,-1,12,16,14,-1,16,23,24,-1,24,23,25,-1,17,16,26,-1,26,16,24,-1,17,26,27,-1,17,27,18,-1,18,27,28,-1,18,28,19,-1,20,19,29,-1,29,19,28,-1,20,29,30,-1,20,30,21,-1,21,30,31,-1,21,31,22,-1,23,22,25,-1,25,22,31,-1,32,33,34,-1,34,33,35,-1,33,36,35,-1,35,36,37,-1,36,38,37,-1,37,38,39,-1,40,41,42,-1,40,42,43,-1,43,42,44,-1,43,44,45,-1,45,44,46,-1,45,46,47,-1,47,46,48,-1,47,48,49,-1,49,48,50,-1,49,50,51,-1,51,50,52,-1,51,52,53,-1,53,52,54,-1,53,54,55,-1,55,54,39,-1,55,39,38,-1,32,34,56,-1,32,56,57,-1,57,56,58,-1,57,58,59,-1,59,58,60,-1,59,60,61,-1,61,60,62,-1,61,62,63,-1,63,62,64,-1,63,64,65,-1,65,64,66,-1,65,66,67,-1,67,66,41,-1,67,41,40,-1,67,40,68,-1,68,40,43,-1,68,43,69,-1,69,43,45,-1,69,45,70,-1,70,45,47,-1,70,47,71,-1,71,47,49,-1,71,49,72,-1,72,49,51,-1,72,51,73,-1,73,51,53,-1,73,53,74,-1,74,53,55,-1,74,55,75,-1,75,55,38,-1,75,38,76,-1,76,38,36,-1,76,36,77,-1,77,36,33,-1,77,33,78,-1,78,33,32,-1,78,32,79,-1,79,32,57,-1,79,57,80,-1,80,57,59,-1,80,59,81,-1,81,59,61,-1,81,61,82,-1,82,61,63,-1,82,63,83,-1,83,63,65,-1,83,65,84,-1,84,65,67,-1,84,67,68,-1,75,76,85,-1,85,76,86,-1,75,85,87,-1,75,87,74,-1,74,87,88,-1,74,88,73,-1,73,88,89,-1,73,89,72,-1,72,89,90,-1,72,90,71,-1,71,90,91,-1,71,91,70,-1,70,91,92,-1,70,92,69,-1,69,92,93,-1,69,93,68,-1,68,93,94,-1,68,94,84,-1,84,94,95,-1,84,95,83,-1,83,95,96,-1,83,96,82,-1,82,96,97,-1,82,97,81,-1,81,97,98,-1,81,98,80,-1,80,98,99,-1,80,99,79,-1,79,99,100,-1,79,100,78,-1,77,78,101,-1,101,78,100,-1,76,77,86,-1,86,77,101,-1,102,103,104,-1,104,103,105,-1,103,106,105,-1,105,106,107,-1,106,108,107,-1,107,108,109,-1,108,110,109,-1,109,110,111,-1,110,112,111,-1,111,112,113,-1,112,114,113,-1,113,114,115,-1,114,116,115,-1,115,116,117,-1,116,118,117,-1,117,118,119,-1,118,120,119,-1,119,120,121,-1,120,122,121,-1,121,122,123,-1,122,124,123,-1,123,124,125,-1,124,102,125,-1,125,102,104,-1,106,103,102,-1,102,124,106,-1,106,124,122,-1,106,122,108,-1,112,110,114,-1,114,110,108,-1,114,108,116,-1,116,108,122,-1,116,122,118,-1,118,122,120,-1,126,127,128,-1,128,127,129,-1,129,127,130,-1,131,132,133,-1,131,133,134,-1,134,133,135,-1,134,135,130,-1,130,135,136,-1,130,136,129,-1,137,138,139,-1,137,139,140,-1,140,139,141,-1,140,141,142,-1,142,141,143,-1,142,143,144,-1,144,143,145,-1,144,145,146,-1,146,145,147,-1,146,147,148,-1,148,147,149,-1,148,149,150,-1,150,149,131,-1,131,149,151,-1,131,151,132,-1,152,153,154,-1,152,154,155,-1,155,154,156,-1,155,156,157,-1,157,156,158,-1,157,158,159,-1,159,158,160,-1,159,160,161,-1,161,160,162,-1,161,162,163,-1,163,162,164,-1,163,164,165,-1,165,164,138,-1,165,138,137,-1,166,167,168,-1,166,168,169,-1,169,168,153,-1,169,153,152,-1,166,170,167,-1,167,170,171,-1,172,173,174,-1,172,174,175,-1,175,174,171,-1,175,171,170,-1,176,177,178,-1,176,178,179,-1,179,178,180,-1,179,180,181,-1,181,180,182,-1,181,182,183,-1,183,182,184,-1,183,184,185,-1,185,184,186,-1,185,186,187,-1,187,186,188,-1,187,188,189,-1,189,188,173,-1,189,173,172,-1,190,191,192,-1,190,192,193,-1,193,192,194,-1,193,194,195,-1,195,194,196,-1,195,196,197,-1,197,196,198,-1,197,198,199,-1,199,198,200,-1,199,200,201,-1,201,200,202,-1,201,202,203,-1,203,202,177,-1,203,177,176,-1,126,128,204,-1,126,204,205,-1,205,204,206,-1,205,206,207,-1,207,206,191,-1,207,191,190,-1,193,131,190,-1,190,131,134,-1,190,134,207,-1,207,134,130,-1,207,130,205,-1,205,130,127,-1,205,127,126,-1,170,166,175,-1,175,166,169,-1,175,169,172,-1,172,169,152,-1,172,152,189,-1,189,152,155,-1,189,155,187,-1,187,155,157,-1,187,157,185,-1,185,157,159,-1,185,159,183,-1,183,159,161,-1,183,161,181,-1,181,161,163,-1,181,163,179,-1,179,163,165,-1,179,165,176,-1,176,165,137,-1,176,137,203,-1,203,137,140,-1,203,140,201,-1,201,140,142,-1,201,142,199,-1,199,142,144,-1,199,144,197,-1,197,144,146,-1,197,146,195,-1,195,146,148,-1,195,148,193,-1,193,148,150,-1,193,150,131,-1,208,209,210,-1,210,209,211,-1,209,212,211,-1,211,212,213,-1,212,214,213,-1,213,214,215,-1,214,216,215,-1,215,216,217,-1,216,218,217,-1,217,218,219,-1,218,208,219,-1,219,208,210,-1,216,214,218,-1,218,214,212,-1,218,212,208,-1,208,212,209,-1,
        ]
    }
}
Shape{
    appearance Appearance {
        material  Material 	{
            diffuseColor 0.5882352941176471 0.5725490196078431 0.5254901960784314
            specularColor 0.043137254901960784 0.0392156862745098 0.0392156862745098
            ambientIntensity 0.2
            transparency 0
            shininess 0.5
        }
    }
    geometry IndexedFaceSet {
        ccw TRUE
        solid FALSE
        coord DEF co Coordinate {
            point [
                -0.1148 -0.7501 -0.5906, -0.1412 -0.7501 -0.5906, -0.1266 -0.7172 -0.5906, -0.1293 -0.7172 -0.5906, -0.1273 -0.7145 -0.5906, -0.1286 -0.7145 -0.5906, -0.1278 -0.7117 -0.5906, -0.1281 -0.7117 -0.5906, -0.0346 -0.7108 -0.5906, -0.0346 -0.7722 -0.5906, -0.0462 -0.7108 -0.5906, -0.0457 -0.7722 -0.5906, -0.0758 -0.7502 -0.5906, -0.0768 -0.7407 -0.5906, -0.0762 -0.7329 -0.5906, -0.0743 -0.7267 -0.5906, -0.0556 -0.7118 -0.5906, -0.0541 -0.7714 -0.5906, -0.0607 -0.7694 -0.5906, -0.066 -0.7662 -0.5906, -0.0716 -0.7218 -0.5906, -0.0678 -0.7178 -0.5906, -0.0621 -0.714 -0.5906, -0.0705 -0.7618 -0.5906, -0.0738 -0.7565 -0.5906, -0.0738 -0.7565 -0.5906
            ]
        }
        coordIndex [
            0,1,2,-1,2,1,3,-1,2,3,4,-1,4,3,5,-1,4,5,6,-1,6,5,7,-1,8,9,10,-1,10,9,11,-1,12,13,10,-1,13,14,10,-1,10,14,15,-1,10,15,16,-1,11,17,10,-1,10,17,18,-1,10,18,19,-1,20,21,15,-1,15,21,22,-1,15,22,16,-1,19,23,10,-1,10,23,24,-1,10,24,12,-1,
        ]
    }
}
Shape{
    appearance Appearance {
        material  Material 	{
            diffuseColor 0.6666666666666666 0.6666666666666666 0.6666666666666666
            specularColor 0.4666666666666667 0.4666666666666667 0.4666666666666667
            ambientIntensity 0.2
            transparency 0
            shininess 0.5
        }
    }
    geometry IndexedFaceSet {
        ccw TRUE
        solid FALSE
        coord DEF co Coordinate {
            point [
                2.9528 -0.5118 -0.6299, 2.6575 -0.5118 -0.6299, 2.9528 -1.2598 -0.6299, 2.6575 -1.2598 -0.6299, 2.6575 -0.5118 0.2362, 2.6575 -1.2598 0.2362, 2.7926 -0.5702 0.2362, 2.7953 -0.5906 0.2362, 2.7165 -0.5118 0.2362, 2.7559 -0.5224 0.2362, 2.7722 -0.5349 0.2362, 2.7847 -0.5512 0.2362, 2.7953 -1.1811 0.2362, 2.7369 -0.5145 0.2362, 2.7559 -1.2493 0.2362, 2.7369 -1.2572 0.2362, 2.7165 -1.2598 0.2362, 2.7926 -1.2015 0.2362, 2.7847 -1.2205 0.2362, 2.7722 -1.2368 0.2362, 2.7953 -1.1811 0.3346, 2.7953 -0.5906 0.3346, 2.6575 -1.2598 0.3346, 2.6575 -0.5118 0.3346, 2.7165 -0.5118 0.3346, 2.7926 -0.5702 0.3346, 2.7847 -0.5512 0.3346, 2.7165 -1.2598 0.3346, 2.7369 -1.2572 0.3346, 2.7559 -1.2493 0.3346, 2.7722 -0.5349 0.3346, 2.7559 -0.5224 0.3346, 2.7369 -0.5145 0.3346, 2.7722 -1.2368 0.3346, 2.7847 -1.2205 0.3346, 2.7926 -1.2015 0.3346, 2.5591 -0.5118 0.2362, 2.5591 -1.2598 0.2362, 2.5615 -1.2598 0.2581, 2.5615 -0.5118 0.2581, 2.5688 -1.2598 0.2789, 2.5688 -0.5118 0.2789, 2.5805 -1.2598 0.2976, 2.5805 -0.5118 0.2976, 2.5961 -1.2598 0.3132, 2.5961 -0.5118 0.3132, 2.6148 -1.2598 0.3249, 2.6148 -0.5118 0.3249, 2.6356 -1.2598 0.3322, 2.6356 -0.5118 0.3322, 2.5591 -0.5118 -0.6299, 2.5591 -1.2598 -0.6299, 2.6575 -0.5118 -0.7283, 2.6575 -1.2598 -0.7283, 2.6356 -1.2598 -0.7259, 2.6356 -0.5118 -0.7259, 2.6148 -1.2598 -0.7186, 2.6148 -0.5118 -0.7186, 2.5961 -1.2598 -0.7069, 2.5961 -0.5118 -0.7069, 2.5805 -1.2598 -0.6913, 2.5805 -0.5118 -0.6913, 2.5688 -1.2598 -0.6726, 2.5688 -0.5118 -0.6726, 2.5615 -1.2598 -0.6518, 2.5615 -0.5118 -0.6518, 2.9528 -0.5118 -0.7283, 2.9528 -1.2598 -0.7283, -2.6575 -0.5118 -0.6299, -2.9528 -0.5118 -0.6299, -2.6575 -1.2598 -0.6299, -2.9528 -1.2598 -0.6299, -2.6575 -0.5118 0.2362, -2.6575 -1.2598 0.2362, -2.7165 -0.5118 0.2362, -2.7165 -1.2598 0.2362, -2.7926 -0.5702 0.2362, -2.7847 -0.5512 0.2362, -2.7722 -0.5349 0.2362, -2.7559 -0.5224 0.2362, -2.7369 -0.5145 0.2362, -2.7369 -1.2572 0.2362, -2.7559 -1.2493 0.2362, -2.7722 -1.2368 0.2362, -2.7847 -1.2205 0.2362, -2.7926 -1.2015 0.2362, -2.7953 -1.1811 0.2362, -2.7953 -0.5906 0.2362, -2.7953 -0.5906 0.3346, -2.7953 -1.1811 0.3346, -2.7926 -0.5702 0.3346, -2.7165 -0.5118 0.3346, -2.7165 -1.2598 0.3346, -2.6575 -0.5118 0.3346, -2.6575 -1.2598 0.3346, -2.7369 -0.5145 0.3346, -2.7559 -0.5224 0.3346, -2.7722 -0.5349 0.3346, -2.7847 -0.5512 0.3346, -2.7722 -1.2368 0.3346, -2.7559 -1.2493 0.3346, -2.7369 -1.2572 0.3346, -2.7926 -1.2015 0.3346, -2.7847 -1.2205 0.3346, -2.6356 -1.2598 0.3322, -2.6356 -0.5118 0.3322, -2.6148 -1.2598 0.3249, -2.6148 -0.5118 0.3249, -2.5961 -1.2598 0.3132, -2.5961 -0.5118 0.3132, -2.5805 -1.2598 0.2976, -2.5805 -0.5118 0.2976, -2.5688 -1.2598 0.2789, -2.5688 -0.5118 0.2789, -2.5615 -1.2598 0.2581, -2.5615 -0.5118 0.2581, -2.5591 -1.2598 0.2362, -2.5591 -0.5118 0.2362, -2.5591 -0.5118 -0.6299, -2.5591 -1.2598 -0.6299, -2.5615 -1.2598 -0.6518, -2.5615 -0.5118 -0.6518, -2.5688 -1.2598 -0.6726, -2.5688 -0.5118 -0.6726, -2.5805 -1.2598 -0.6913, -2.5805 -0.5118 -0.6913, -2.5961 -1.2598 -0.7069, -2.5961 -0.5118 -0.7069, -2.6148 -1.2598 -0.7186, -2.6148 -0.5118 -0.7186, -2.6356 -1.2598 -0.7259, -2.6356 -0.5118 -0.7259, -2.6575 -1.2598 -0.7283, -2.6575 -0.5118 -0.7283, -2.9528 -0.5118 -0.7283, -2.9528 -1.2598 -0.7283, -2.9528 -1.2598 -0.7283
            ]
        }
        coordIndex [
            0,1,2,-1,2,1,3,-1,1,4,3,-1,3,4,5,-1,6,7,8,-1,9,10,11,-1,12,5,7,-1,7,5,4,-1,7,4,8,-1,6,8,11,-1,11,8,13,-1,11,13,9,-1,14,15,12,-1,12,15,16,-1,12,16,5,-1,17,18,12,-1,12,18,19,-1,12,19,14,-1,12,7,20,-1,20,7,21,-1,22,20,23,-1,23,20,21,-1,23,21,24,-1,24,21,25,-1,24,25,26,-1,22,27,20,-1,20,27,28,-1,20,28,29,-1,30,31,26,-1,26,31,32,-1,26,32,24,-1,29,33,20,-1,20,33,34,-1,20,34,35,-1,36,37,38,-1,36,38,39,-1,39,38,40,-1,39,40,41,-1,41,40,42,-1,41,42,43,-1,43,42,44,-1,43,44,45,-1,45,44,46,-1,45,46,47,-1,47,46,48,-1,47,48,49,-1,49,48,22,-1,49,22,23,-1,36,50,37,-1,37,50,51,-1,52,53,54,-1,52,54,55,-1,55,54,56,-1,55,56,57,-1,57,56,58,-1,57,58,59,-1,59,58,60,-1,59,60,61,-1,61,60,62,-1,61,62,63,-1,63,62,64,-1,63,64,65,-1,65,64,51,-1,65,51,50,-1,52,66,53,-1,53,66,67,-1,66,0,67,-1,67,0,2,-1,24,8,23,-1,23,8,4,-1,23,4,49,-1,49,4,47,-1,39,41,4,-1,1,61,63,-1,41,43,4,-1,4,43,45,-1,4,45,47,-1,0,66,1,-1,1,66,52,-1,1,52,55,-1,63,65,1,-1,1,65,50,-1,1,50,4,-1,4,50,36,-1,4,36,39,-1,55,57,1,-1,1,57,59,-1,1,59,61,-1,67,2,53,-1,53,2,3,-1,53,3,54,-1,54,3,56,-1,16,27,5,-1,5,27,22,-1,40,5,42,-1,42,5,44,-1,64,62,3,-1,22,48,5,-1,5,48,46,-1,5,46,44,-1,40,38,5,-1,5,38,37,-1,5,37,3,-1,3,37,51,-1,3,51,64,-1,62,60,3,-1,3,60,58,-1,3,58,56,-1,8,24,32,-1,8,32,13,-1,13,32,31,-1,13,31,9,-1,9,31,30,-1,9,30,10,-1,10,30,26,-1,10,26,11,-1,11,26,25,-1,11,25,6,-1,6,25,21,-1,6,21,7,-1,27,16,15,-1,27,15,28,-1,28,15,14,-1,28,14,29,-1,29,14,19,-1,29,19,33,-1,33,19,18,-1,33,18,34,-1,34,18,17,-1,34,17,35,-1,35,17,12,-1,35,12,20,-1,68,69,70,-1,70,69,71,-1,72,68,73,-1,73,68,70,-1,74,72,75,-1,75,72,73,-1,74,76,77,-1,77,78,74,-1,74,78,79,-1,74,79,80,-1,81,82,83,-1,83,84,81,-1,81,84,85,-1,81,85,75,-1,75,85,86,-1,75,86,74,-1,74,86,87,-1,74,87,76,-1,87,86,88,-1,88,86,89,-1,90,88,91,-1,91,88,92,-1,91,92,93,-1,93,92,94,-1,95,96,97,-1,95,97,91,-1,91,97,98,-1,91,98,90,-1,99,100,101,-1,88,89,92,-1,92,89,102,-1,92,102,101,-1,101,102,103,-1,101,103,99,-1,93,94,104,-1,93,104,105,-1,105,104,106,-1,105,106,107,-1,107,106,108,-1,107,108,109,-1,109,108,110,-1,109,110,111,-1,111,110,112,-1,111,112,113,-1,113,112,114,-1,113,114,115,-1,115,114,116,-1,115,116,117,-1,118,117,119,-1,119,117,116,-1,118,119,120,-1,118,120,121,-1,121,120,122,-1,121,122,123,-1,123,122,124,-1,123,124,125,-1,125,124,126,-1,125,126,127,-1,127,126,128,-1,127,128,129,-1,129,128,130,-1,129,130,131,-1,131,130,132,-1,131,132,133,-1,134,133,135,-1,135,133,132,-1,69,134,71,-1,71,134,135,-1,72,74,91,-1,134,69,133,-1,133,69,68,-1,91,93,72,-1,72,93,105,-1,72,105,107,-1,107,109,72,-1,72,109,111,-1,72,111,113,-1,121,123,68,-1,68,123,125,-1,68,125,127,-1,127,129,68,-1,68,129,131,-1,68,131,133,-1,113,115,72,-1,72,115,117,-1,72,117,68,-1,68,117,118,-1,68,118,121,-1,110,108,73,-1,73,108,106,-1,92,75,94,-1,94,75,73,-1,94,73,104,-1,104,73,106,-1,116,73,119,-1,119,73,70,-1,116,114,73,-1,73,114,112,-1,73,112,110,-1,71,135,70,-1,70,135,132,-1,70,132,130,-1,124,122,70,-1,70,122,120,-1,70,120,119,-1,130,128,70,-1,70,128,126,-1,70,126,124,-1,87,88,90,-1,87,90,76,-1,76,90,98,-1,76,98,77,-1,77,98,97,-1,77,97,78,-1,78,97,96,-1,78,96,79,-1,79,96,95,-1,79,95,80,-1,80,95,91,-1,80,91,74,-1,89,86,85,-1,89,85,102,-1,102,85,84,-1,102,84,103,-1,103,84,83,-1,103,83,99,-1,99,83,82,-1,99,82,100,-1,100,82,81,-1,100,81,101,-1,101,81,75,-1,101,75,92,-1,
        ]
    }
}