#VRML V2.0 utf8
# 3D model generated by easyeda2kicad.py (https://github.com/uPesy/easyeda2kicad.py)

Shape{
    appearance Appearance {
        material  Material 	{
            diffuseColor 0.25098039215686274 0.25098039215686274 0.25098039215686274
            specularColor 0.12549019607843137 0.12549019607843137 0.12549019607843137
            ambientIntensity 0.2
            transparency 0
            shininess 0.5
        }
    }
    geometry IndexedFaceSet {
        ccw TRUE
        solid FALSE
        coord DEF co Coordinate {
            point [
                -0.7096 -0.0558 0.0, -0.7874 -0.0558 0.0, -0.7874 0.0637 0.0, -0.1691 -0.7244 0.0, -0.2945 -0.7244 0.0, -0.2945 -0.0558 0.0, -0.7096 0.7793 0.0, -0.6319 0.6614 0.0, -0.7096 0.0637 0.0, -0.6319 0.0637 0.0, -0.6319 -0.0558 0.0, -0.2945 0.7874 0.0, -0.3091 0.6614 0.0, -0.6693 0.7874 0.0, -0.6999 0.7834 0.0, -0.7528 0.7528 0.0, -0.7283 0.7716 0.0, -0.7716 0.7283 0.0, -0.7834 0.6999 0.0, -0.7874 -0.6693 0.0, -0.7096 -0.7244 0.0, -0.7834 -0.6999 0.0, -0.7283 -0.7716 0.0, -0.7528 -0.7528 0.0, -0.7716 -0.7283 0.0, -0.7732 -0.7244 0.0, -0.6693 -0.7874 0.0, -0.6999 -0.7834 0.0, -0.7096 -0.7793 0.0, 0.7528 -0.7528 0.0, 0.7283 -0.7716 0.0, 0.7716 -0.7283 0.0, 0.7732 -0.7244 0.0, 0.2536 -0.7874 0.0, 0.2536 -0.7244 0.0, 0.6693 -0.7874 0.0, 0.6999 -0.7834 0.0, 0.7874 -0.6693 0.0, 0.6319 -0.6614 0.0, 0.7874 -0.0558 0.0, 0.6319 -0.0558 0.0, 0.6319 0.0637 0.0, 0.7834 -0.6999 0.0, 0.3091 -0.6614 0.0, 0.3091 -0.0558 0.0, 0.2536 0.7874 0.0, 0.6693 0.7874 0.0, 0.6319 0.6614 0.0, 0.6999 0.7834 0.0, 0.7283 0.7716 0.0, 0.7528 0.7528 0.0, 0.7716 0.7283 0.0, 0.7834 0.6999 0.0, 0.7874 0.6693 0.0, 0.7874 0.0637 0.0, 0.3091 0.6614 0.0, 0.3091 0.0637 0.0, 0.2536 0.0637 0.0, 0.2536 -0.0558 0.0, 0.0282 0.0637 0.0, 0.0398 -0.036 0.0, 0.0282 -0.0558 0.0, 0.0398 -0.049 0.0, 0.0523 -0.0541 0.0, 0.0571 0.0637 0.0, 0.0534 0.0635 0.0, 0.0398 0.0598 0.0, 0.0398 0.0439 0.0, 0.0531 0.0496 0.0, 0.0419 -0.0372 0.0, 0.0674 0.0515 0.0, 0.079 0.0502 0.0, 0.0879 0.047 0.0, 0.0961 0.0415 0.0, 0.1032 0.0337 0.0, 0.1118 0.0027 0.0, 0.1106 -0.0101 0.0, 0.1074 -0.0202 0.0, 0.0811 -0.0423 0.0, 0.0701 -0.0436 0.0, 0.0897 -0.0392 0.0, 0.0969 -0.0343 0.0, 0.1025 -0.0284 0.0, 0.0544 -0.0418 0.0, 0.1081 0.0245 0.0, 0.1112 0.0119 0.0, 0.0675 0.0645 0.0, 0.0282 0.7874 0.0, 0.0764 0.0637 0.0, 0.1327 0.7874 0.0, 0.1214 0.0319 0.0, 0.1145 0.0429 0.0, 0.1327 0.0637 0.0, 0.0983 -0.0511 0.0, 0.1078 -0.045 0.0, 0.1327 -0.0558 0.0, 0.1166 -0.0357 0.0, 0.1229 -0.0244 0.0, 0.1038 0.0532 0.0, 0.0926 0.0597 0.0, 0.0794 0.0635 0.0, 0.1265 -0.0119 0.0, 0.1276 0.0017 0.0, 0.1259 0.0185 0.0, 0.0643 -0.0558 0.0, 0.069 -0.0565 0.0, 0.0282 -0.7244 0.0, 0.1327 -0.7244 0.0, 0.0722 -0.0565 0.0, 0.0792 -0.0558 0.0, 0.0868 -0.055 0.0, 0.1327 -0.7874 0.0, 0.0282 -0.7874 0.0, -0.0582 -0.7244 0.0, -0.2945 -0.7874 0.0, -0.1691 -0.7874 0.0, -0.0582 -0.7874 0.0, -0.0582 -0.0558 0.0, -0.1691 -0.0558 0.0, 0.1377 -0.0421 0.0, 0.1377 -0.0551 0.0, 0.1982 -0.0551 0.0, 0.1823 -0.0421 0.0, 0.1823 0.063 0.0, 0.1982 0.063 0.0, -0.0438 0.063 0.0, -0.0582 0.0637 0.0, -0.0438 0.0501 0.0, -0.0467 -0.0421 0.0, -0.0467 -0.0551 0.0, 0.0167 -0.0551 0.0, 0.0167 0.063 0.0, 0.0009 -0.0018 0.0, 0.0009 -0.0421 0.0, -0.0409 -0.0018 0.0, -0.0409 0.0112 0.0, 0.0009 0.0112 0.0, 0.0009 0.0501 0.0, -0.1589 -0.0227 0.0, -0.1631 -0.0104 0.0, -0.1648 0.0054 0.0, -0.1521 -0.0333 0.0, -0.1424 -0.0426 0.0, -0.1301 -0.0498 0.0, -0.1201 0.0612 0.0, -0.1691 0.0637 0.0, -0.103 0.063 0.0, -0.1339 0.0563 0.0, -0.1468 0.0477 0.0, -0.1469 0.0476 0.0, -0.1553 0.0384 0.0, -0.1608 0.0282 0.0, -0.1639 0.0166 0.0, -0.1164 -0.0538 0.0, -0.1018 -0.0551 0.0, -0.0697 -0.0551 0.0, -0.0697 0.063 0.0, -0.1907 -0.0551 0.0, -0.1734 -0.0551 0.0, -0.2339 0.063 0.0, -0.28 -0.0551 0.0, -0.2627 -0.0551 0.0, -0.2508 -0.022 0.0, -0.202 -0.022 0.0, -0.2181 0.063 0.0, -0.2945 0.0637 0.0, -0.3091 0.0637 0.0, -0.3091 -0.0558 0.0, -0.3091 -0.6614 0.0, -0.6319 -0.6614 0.0, -0.7874 0.6693 0.0, -0.1691 0.7874 0.0, -0.0582 0.7874 0.0, 0.7874 0.6693 1.1024, 0.7874 -0.6693 1.1024, 0.6693 0.7874 1.1024, -0.6693 0.7874 1.1024, -0.7874 -0.6693 1.1024, -0.7874 0.6693 1.1024, -0.6693 -0.7874 1.1024, 0.6693 -0.7874 1.1024, 0.6693 0.748 1.1417, -0.748 0.6693 1.1417, 0.748 -0.6693 1.1417, -0.748 -0.6693 1.1417, -0.6693 -0.748 1.1417, -0.7461 -0.6868 1.1417, -0.6868 -0.7461 1.1417, -0.7402 -0.7035 1.1417, -0.7309 -0.7184 1.1417, -0.7184 -0.7309 1.1417, -0.7035 -0.7402 1.1417, 0.6693 -0.748 1.1417, 0.6868 -0.7461 1.1417, 0.7035 -0.7402 1.1417, 0.748 0.6693 1.1417, 0.7461 0.6868 1.1417, 0.7402 0.7035 1.1417, 0.7184 -0.7309 1.1417, 0.7309 -0.7184 1.1417, 0.7461 -0.6868 1.1417, 0.7402 -0.7035 1.1417, 0.7309 0.7184 1.1417, 0.7184 0.7309 1.1417, 0.6868 0.7461 1.1417, 0.7035 0.7402 1.1417, -0.6693 0.748 1.1417, -0.6868 0.7461 1.1417, -0.7035 0.7402 1.1417, -0.7184 0.7309 1.1417, -0.7309 0.7184 1.1417, -0.7461 0.6868 1.1417, -0.7402 0.7035 1.1417, 0.7844 0.6956 1.1024, 0.783 0.6997 1.1024, 0.7757 0.7205 1.1024, 0.771 0.728 1.1024, 0.7616 0.7429 1.1024, 0.7523 0.7523 1.1024, 0.7429 0.7616 1.1024, 0.728 0.771 1.1024, 0.7205 0.7757 1.1024, 0.6997 0.783 1.1024, 0.6956 0.7844 1.1024, -0.6956 0.7844 1.1024, -0.6997 0.783 1.1024, -0.7205 0.7757 1.1024, -0.728 0.771 1.1024, -0.7429 0.7616 1.1024, -0.7523 0.7523 1.1024, -0.7616 0.7429 1.1024, -0.771 0.728 1.1024, -0.7757 0.7205 1.1024, -0.783 0.6997 1.1024, -0.7844 0.6956 1.1024, -0.7844 -0.6956 1.1024, -0.783 -0.6997 1.1024, -0.7757 -0.7205 1.1024, -0.771 -0.728 1.1024, -0.7616 -0.7429 1.1024, -0.7523 -0.7523 1.1024, -0.7429 -0.7616 1.1024, -0.728 -0.771 1.1024, -0.7205 -0.7757 1.1024, -0.6997 -0.783 1.1024, -0.6956 -0.7844 1.1024, 0.6956 -0.7844 1.1024, 0.6997 -0.783 1.1024, 0.7205 -0.7757 1.1024, 0.728 -0.771 1.1024, 0.7429 -0.7616 1.1024, 0.7523 -0.7523 1.1024, 0.7616 -0.7429 1.1024, 0.771 -0.728 1.1024, 0.7757 -0.7205 1.1024, 0.783 -0.6997 1.1024, 0.7844 -0.6956 1.1024, 0.7844 -0.6956 1.1024
            ]
        }
        coordIndex [
            0,1,2,-1,3,4,5,-1,6,7,8,-1,8,7,9,-1,8,9,10,-1,11,12,13,-1,13,12,7,-1,13,7,14,-1,14,7,6,-1,15,16,17,-1,17,16,6,-1,17,6,18,-1,1,0,19,-1,19,0,20,-1,19,20,21,-1,20,22,23,-1,23,24,20,-1,20,24,25,-1,20,25,21,-1,26,27,20,-1,20,27,28,-1,20,28,22,-1,29,30,31,-1,31,30,32,-1,33,34,35,-1,35,34,32,-1,35,32,36,-1,36,32,30,-1,37,38,39,-1,39,38,40,-1,39,40,41,-1,37,42,38,-1,38,42,32,-1,38,32,43,-1,43,32,34,-1,43,34,44,-1,45,46,47,-1,47,46,48,-1,48,49,47,-1,47,49,50,-1,47,50,51,-1,51,52,47,-1,47,52,53,-1,47,53,41,-1,41,53,54,-1,41,54,39,-1,55,56,57,-1,57,56,44,-1,57,44,58,-1,58,44,34,-1,59,60,61,-1,61,60,62,-1,61,62,63,-1,59,64,65,-1,65,66,59,-1,59,66,67,-1,59,67,60,-1,60,67,68,-1,60,68,69,-1,69,68,70,-1,69,70,71,-1,71,72,69,-1,69,72,73,-1,69,73,74,-1,75,76,69,-1,69,76,77,-1,78,79,80,-1,80,79,81,-1,77,82,69,-1,69,82,81,-1,69,81,83,-1,83,81,79,-1,74,84,69,-1,69,84,85,-1,69,85,75,-1,86,87,88,-1,88,87,89,-1,90,91,92,-1,93,94,95,-1,95,94,96,-1,95,96,97,-1,91,98,92,-1,92,98,99,-1,92,99,100,-1,97,101,95,-1,95,101,102,-1,95,102,92,-1,92,102,103,-1,92,103,90,-1,104,105,106,-1,106,105,107,-1,105,108,107,-1,107,108,109,-1,107,109,95,-1,95,109,110,-1,95,110,93,-1,107,111,106,-1,106,111,112,-1,106,112,113,-1,26,20,114,-1,114,20,4,-1,114,4,115,-1,115,4,3,-1,115,3,116,-1,63,104,61,-1,61,104,106,-1,61,106,117,-1,117,106,113,-1,117,113,118,-1,92,119,95,-1,95,119,120,-1,95,120,121,-1,122,119,123,-1,123,119,92,-1,123,92,124,-1,124,92,57,-1,124,57,121,-1,121,57,58,-1,121,58,95,-1,95,58,34,-1,95,34,107,-1,107,34,33,-1,107,33,111,-1,125,126,59,-1,125,127,126,-1,126,127,128,-1,126,128,117,-1,117,128,129,-1,117,129,61,-1,61,129,130,-1,61,130,59,-1,59,130,131,-1,59,131,125,-1,132,133,134,-1,134,133,128,-1,134,128,135,-1,135,128,127,-1,135,127,136,-1,136,127,137,-1,138,118,139,-1,139,118,140,-1,138,141,118,-1,118,141,142,-1,118,142,143,-1,144,145,146,-1,146,145,126,-1,144,147,145,-1,145,147,148,-1,145,148,149,-1,149,150,145,-1,145,150,151,-1,145,151,152,-1,143,153,118,-1,118,153,154,-1,118,154,117,-1,117,154,155,-1,117,155,126,-1,126,155,156,-1,126,156,146,-1,157,158,118,-1,118,158,145,-1,118,145,140,-1,140,145,152,-1,159,160,5,-1,5,160,161,-1,162,163,161,-1,161,163,157,-1,161,157,5,-1,5,157,118,-1,5,118,3,-1,3,118,113,-1,3,113,116,-1,116,113,112,-1,158,164,145,-1,145,164,159,-1,145,159,165,-1,165,159,5,-1,165,5,166,-1,166,5,167,-1,167,5,168,-1,168,5,4,-1,168,4,169,-1,169,4,20,-1,169,20,10,-1,10,20,0,-1,10,0,8,-1,8,0,2,-1,8,2,6,-1,6,2,170,-1,6,170,18,-1,100,88,92,-1,92,88,89,-1,92,89,57,-1,57,89,45,-1,57,45,55,-1,55,45,47,-1,166,12,165,-1,165,12,11,-1,165,11,145,-1,145,11,171,-1,145,171,126,-1,126,171,172,-1,126,172,59,-1,59,172,87,-1,59,87,64,-1,64,87,86,-1,53,173,54,-1,54,173,174,-1,54,174,39,-1,39,174,37,-1,175,46,45,-1,45,89,175,-1,175,89,87,-1,175,87,176,-1,176,87,172,-1,172,171,176,-1,176,171,11,-1,176,11,13,-1,19,177,1,-1,1,177,178,-1,1,178,2,-1,2,178,170,-1,179,26,114,-1,114,115,179,-1,179,115,116,-1,179,116,180,-1,180,116,112,-1,112,111,180,-1,180,111,33,-1,180,33,35,-1,181,182,183,-1,183,182,184,-1,183,184,185,-1,185,184,186,-1,185,186,187,-1,187,186,188,-1,188,189,187,-1,187,189,190,-1,187,190,191,-1,185,192,183,-1,183,192,193,-1,183,193,194,-1,183,195,181,-1,181,195,196,-1,181,196,197,-1,194,198,183,-1,183,198,199,-1,183,199,200,-1,200,199,201,-1,197,202,181,-1,181,202,203,-1,181,203,204,-1,204,203,205,-1,181,206,182,-1,182,206,207,-1,182,207,208,-1,208,209,182,-1,182,209,210,-1,182,210,211,-1,211,210,212,-1,213,173,53,-1,213,53,214,-1,214,53,52,-1,214,52,215,-1,215,52,51,-1,215,51,216,-1,216,51,217,-1,217,51,50,-1,217,50,218,-1,218,50,219,-1,219,50,49,-1,219,49,220,-1,220,49,221,-1,221,49,48,-1,221,48,222,-1,222,48,223,-1,223,48,46,-1,223,46,175,-1,224,176,13,-1,224,13,225,-1,13,14,225,-1,225,14,6,-1,225,6,226,-1,226,6,16,-1,226,16,227,-1,227,16,228,-1,228,16,15,-1,228,15,229,-1,229,15,230,-1,230,15,17,-1,230,17,231,-1,231,17,232,-1,232,17,18,-1,232,18,233,-1,233,18,234,-1,234,18,170,-1,234,170,178,-1,235,177,19,-1,235,19,236,-1,236,19,21,-1,236,21,237,-1,237,21,25,-1,237,25,238,-1,238,25,24,-1,238,24,239,-1,239,24,23,-1,239,23,240,-1,240,23,241,-1,241,23,22,-1,241,22,242,-1,242,22,243,-1,243,22,28,-1,243,28,244,-1,244,28,27,-1,244,27,245,-1,245,27,26,-1,245,26,179,-1,246,180,35,-1,246,35,247,-1,247,35,36,-1,247,36,248,-1,248,36,30,-1,248,30,249,-1,249,30,250,-1,250,30,29,-1,250,29,251,-1,251,29,252,-1,252,29,31,-1,252,31,253,-1,253,31,254,-1,254,31,32,-1,254,32,255,-1,255,32,42,-1,255,42,256,-1,256,42,37,-1,256,37,174,-1,
        ]
    }
}
Shape{
    appearance Appearance {
        material  Material 	{
            diffuseColor 0.7529411764705882 0.7529411764705882 0.7529411764705882
            specularColor 0.3764705882352941 0.3764705882352941 0.3764705882352941
            ambientIntensity 0.2
            transparency 0
            shininess 0.5
        }
    }
    geometry IndexedFaceSet {
        ccw TRUE
        solid FALSE
        coord DEF co Coordinate {
            point [
                0.3091 -0.6614 -0.0591, 0.3091 -0.6614 0.0, 0.3091 -0.0558 0.0, 0.3091 0.0637 0.0, 0.3091 0.6417 -0.0787, 0.3091 -0.6417 -0.0787, 0.3091 0.6614 0.0, 0.3091 0.6614 -0.0591, 0.3091 -0.6468 -0.0781, 0.3091 -0.6516 -0.0761, 0.3091 -0.6557 -0.073, 0.3091 -0.6588 -0.0689, 0.3091 -0.6607 -0.0641, 0.3091 0.6607 -0.0641, 0.3091 0.6588 -0.0689, 0.3091 0.6557 -0.073, 0.3091 0.6516 -0.0761, 0.3091 0.6468 -0.0781, 0.6319 0.6614 -0.0591, 0.6319 0.6614 0.0, 0.6319 0.0637 0.0, 0.6319 0.6417 -0.0787, 0.6319 -0.0558 0.0, 0.6319 0.6468 -0.0781, 0.6319 0.6516 -0.0761, 0.6319 0.6557 -0.073, 0.6319 0.6588 -0.0689, 0.6319 0.6607 -0.0641, 0.6319 -0.6614 0.0, 0.6319 -0.6614 -0.0591, 0.6319 -0.6607 -0.0641, 0.6319 -0.6588 -0.0689, 0.6319 -0.6557 -0.073, 0.6319 -0.6516 -0.0761, 0.6319 -0.6468 -0.0781, 0.6319 -0.6417 -0.0787, -0.3091 0.6614 -0.0591, -0.3091 0.6614 0.0, -0.3091 0.0637 0.0, -0.3091 0.6607 -0.0641, -0.3091 -0.0558 0.0, -0.3091 -0.6417 -0.0787, -0.3091 0.6417 -0.0787, -0.3091 -0.6614 0.0, -0.3091 -0.6614 -0.0591, -0.3091 0.6468 -0.0781, -0.3091 0.6516 -0.0761, -0.3091 0.6557 -0.073, -0.3091 0.6588 -0.0689, -0.3091 -0.6607 -0.0641, -0.3091 -0.6588 -0.0689, -0.3091 -0.6557 -0.073, -0.3091 -0.6516 -0.0761, -0.3091 -0.6468 -0.0781, -0.6319 -0.6614 -0.0591, -0.6319 -0.6614 0.0, -0.6319 -0.0558 0.0, -0.6319 -0.6417 -0.0787, -0.6319 0.6417 -0.0787, -0.6319 0.0637 0.0, -0.6319 0.6468 -0.0781, -0.6319 -0.6468 -0.0781, -0.6319 -0.6516 -0.0761, -0.6319 -0.6557 -0.073, -0.6319 -0.6588 -0.0689, -0.6319 -0.6607 -0.0641, -0.6319 0.6614 0.0, -0.6319 0.6614 -0.0591, -0.6319 0.6607 -0.0641, -0.6319 0.6588 -0.0689, -0.6319 0.6557 -0.073, -0.6319 0.6516 -0.0761, -0.2339 0.063 0.0004, -0.28 -0.0551 0.0004, -0.2339 0.063 0.0, -0.28 -0.0551 0.0, -0.2627 -0.0551 0.0004, -0.2627 -0.0551 0.0, -0.2508 -0.022 0.0004, -0.2508 -0.022 0.0, -0.202 -0.022 0.0004, -0.202 -0.022 0.0, -0.1907 -0.0551 0.0004, -0.1907 -0.0551 0.0, -0.1734 -0.0551 0.0004, -0.1734 -0.0551 0.0, -0.2181 0.063 0.0004, -0.2181 0.063 0.0, -0.206 -0.009 0.0004, -0.2455 -0.009 0.0004, -0.2236 0.0403 0.0004, -0.2247 0.0444 0.0004, -0.2255 0.0486 0.0004, -0.2259 0.0486 0.0004, -0.2266 0.0444 0.0004, -0.2277 0.0403 0.0004, -0.206 -0.009 0.0, -0.2455 -0.009 0.0, -0.2236 0.0403 0.0, -0.2247 0.0444 0.0, -0.2255 0.0486 0.0, -0.2259 0.0486 0.0, -0.2266 0.0444 0.0, -0.2277 0.0403 0.0, -0.1018 -0.0551 0.0004, -0.0697 -0.0551 0.0004, -0.1018 -0.0551 0.0, -0.0697 -0.0551 0.0, -0.0697 0.063 0.0004, -0.0697 0.063 0.0, -0.103 0.063 0.0004, -0.103 0.063 0.0, -0.1648 0.0054 0.0004, -0.1648 0.0054 0.0, -0.1639 0.0166 0.0, -0.1639 0.0166 0.0004, -0.1608 0.0282 0.0, -0.1608 0.0282 0.0004, -0.1553 0.0384 0.0, -0.1553 0.0384 0.0004, -0.1469 0.0476 0.0, -0.1469 0.0476 0.0004, -0.1468 0.0477 0.0, -0.1468 0.0477 0.0004, -0.1339 0.0563 0.0, -0.1339 0.0563 0.0004, -0.1201 0.0612 0.0, -0.1201 0.0612 0.0004, -0.1164 -0.0538 0.0, -0.1164 -0.0538 0.0004, -0.1301 -0.0498 0.0, -0.1301 -0.0498 0.0004, -0.1424 -0.0426 0.0, -0.1424 -0.0426 0.0004, -0.1521 -0.0333 0.0, -0.1521 -0.0333 0.0004, -0.1589 -0.0227 0.0, -0.1589 -0.0227 0.0004, -0.1631 -0.0104 0.0, -0.1631 -0.0104 0.0004, -0.1411 0.0335 0.0004, -0.1353 0.0396 0.0004, -0.1267 0.0452 0.0004, -0.117 0.0486 0.0004, -0.103 0.0501 0.0004, -0.0856 0.0501 0.0004, -0.0856 -0.0421 0.0004, -0.1023 -0.0421 0.0004, -0.1148 -0.041 0.0004, -0.1247 -0.0379 0.0004, -0.1328 -0.0331 0.0004, -0.1394 -0.0265 0.0004, -0.1444 -0.0184 0.0004, -0.1479 -0.0073 0.0004, -0.1489 0.0051 0.0004, -0.1479 0.0169 0.0004, -0.1452 0.0262 0.0004, -0.103 0.0501 0.0, -0.0856 0.0501 0.0, -0.117 0.0486 0.0, -0.1267 0.0452 0.0, -0.1353 0.0396 0.0, -0.1411 0.0335 0.0, -0.1452 0.0262 -0.0, -0.1479 0.0169 0.0, -0.1489 0.0051 0.0, -0.1479 -0.0073 -0.0, -0.1444 -0.0184 0.0, -0.1394 -0.0265 0.0, -0.1328 -0.0331 -0.0, -0.1247 -0.0379 0.0, -0.1148 -0.041 0.0, -0.1023 -0.0421 0.0, -0.0856 -0.0421 0.0, -0.0467 -0.0421 0.0004, -0.0467 -0.0551 0.0004, -0.0467 -0.0421 0.0, -0.0467 -0.0551 0.0, 0.0167 -0.0551 0.0004, 0.0167 -0.0551 0.0, 0.0167 0.063 0.0004, 0.0167 0.063 0.0, -0.0438 0.063 0.0004, -0.0438 0.063 0.0, -0.0438 0.0501 0.0004, -0.0438 0.0501 0.0, 0.0009 0.0501 0.0004, 0.0009 0.0501 0.0, 0.0009 0.0112 0.0004, 0.0009 0.0112 0.0, -0.0409 0.0112 0.0004, -0.0409 0.0112 0.0, -0.0409 -0.0018 0.0004, -0.0409 -0.0018 0.0, 0.0009 -0.0018 0.0004, 0.0009 -0.0018 0.0, 0.0009 -0.0421 0.0004, 0.0009 -0.0421 0.0, 0.0398 -0.036 0.0004, 0.0398 -0.049 0.0004, 0.0398 -0.036 0.0, 0.0398 -0.049 0.0, 0.0523 -0.0541 0.0004, 0.0722 -0.0565 0.0004, 0.0722 -0.0565 0.0, 0.069 -0.0565 0.0, 0.069 -0.0565 0.0004, 0.0643 -0.0558 0.0, 0.0523 -0.0541 0.0, 0.0792 -0.0558 0.0, 0.0868 -0.055 0.0004, 0.0868 -0.055 0.0, 0.0983 -0.0511 0.0004, 0.0983 -0.0511 0.0, 0.1078 -0.045 0.0004, 0.1078 -0.045 0.0, 0.1166 -0.0357 0.0004, 0.1166 -0.0357 0.0, 0.1229 -0.0244 0.0004, 0.1229 -0.0244 0.0, 0.1265 -0.0119 0.0004, 0.1265 -0.0119 0.0, 0.1276 0.0017 0.0004, 0.1276 0.0017 0.0, 0.0794 0.0635 0.0004, 0.0675 0.0645 0.0004, 0.0764 0.0637 0.0, 0.0675 0.0645 0.0, 0.0794 0.0635 0.0, 0.0926 0.0597 0.0, 0.0926 0.0597 0.0004, 0.1038 0.0532 0.0, 0.1038 0.0532 0.0004, 0.1145 0.0429 0.0, 0.1145 0.0429 0.0004, 0.1214 0.0319 0.0, 0.1214 0.0319 0.0004, 0.1259 0.0185 0.0, 0.1259 0.0185 0.0004, 0.0571 0.0637 0.0, 0.0534 0.0635 0.0004, 0.0534 0.0635 0.0, 0.0398 0.0598 0.0004, 0.0398 0.0598 0.0, 0.0398 0.0439 0.0004, 0.0398 0.0439 0.0, 0.0674 0.0515 0.0004, 0.0674 0.0515 0.0, 0.0531 0.0496 0.0, 0.0531 0.0496 0.0004, 0.1118 0.0027 0.0004, 0.1118 0.0027 0.0, 0.1112 0.0119 0.0, 0.1112 0.0119 0.0004, 0.1081 0.0245 0.0, 0.1081 0.0245 0.0004, 0.1032 0.0337 0.0, 0.1032 0.0337 0.0004, 0.0961 0.0415 0.0, 0.0961 0.0415 0.0004, 0.0879 0.047 0.0, 0.0879 0.047 0.0004, 0.079 0.0502 0.0, 0.079 0.0502 0.0004, 0.0701 -0.0436 0.0004, 0.0701 -0.0436 0.0, 0.0811 -0.0423 0.0, 0.0811 -0.0423 0.0004, 0.0897 -0.0392 0.0, 0.0897 -0.0392 0.0004, 0.0969 -0.0343 0.0, 0.0969 -0.0343 0.0004, 0.1025 -0.0284 0.0, 0.1025 -0.0284 0.0004, 0.1074 -0.0202 0.0, 0.1074 -0.0202 0.0004, 0.1106 -0.0101 0.0, 0.1106 -0.0101 0.0004, 0.0419 -0.0372 0.0, 0.0419 -0.0372 0.0004, 0.0544 -0.0418 0.0, 0.0544 -0.0418 0.0004, 0.1377 -0.0421 0.0004, 0.1377 -0.0551 0.0004, 0.1377 -0.0421 0.0, 0.1377 -0.0551 0.0, 0.1982 -0.0551 0.0004, 0.1982 -0.0551 0.0, 0.1982 0.063 0.0004, 0.1982 0.063 0.0, 0.1823 0.063 0.0004, 0.1823 0.063 0.0, 0.1823 -0.0421 0.0004, 0.1823 -0.0421 0.0, 0.1823 -0.0421 0.0
            ]
        }
        coordIndex [
            0,1,2,-1,3,4,2,-1,2,4,5,-1,3,6,7,-1,5,8,2,-1,2,8,9,-1,2,9,10,-1,10,11,2,-1,2,11,12,-1,2,12,0,-1,7,13,3,-1,3,13,14,-1,3,14,15,-1,15,16,3,-1,3,16,17,-1,3,17,4,-1,7,6,18,-1,18,6,19,-1,18,19,20,-1,21,20,22,-1,21,23,20,-1,20,23,24,-1,20,24,25,-1,25,26,20,-1,20,26,27,-1,20,27,18,-1,28,29,22,-1,22,29,30,-1,30,31,22,-1,22,31,32,-1,22,32,33,-1,33,34,22,-1,22,34,35,-1,22,35,21,-1,29,28,0,-1,0,28,1,-1,5,4,35,-1,35,4,21,-1,5,35,34,-1,5,34,8,-1,8,34,33,-1,8,33,9,-1,9,33,32,-1,9,32,10,-1,10,32,31,-1,10,31,11,-1,11,31,30,-1,11,30,12,-1,12,30,29,-1,12,29,0,-1,21,4,17,-1,21,17,23,-1,23,17,16,-1,23,16,24,-1,24,16,15,-1,24,15,25,-1,25,15,14,-1,25,14,26,-1,26,14,13,-1,26,13,27,-1,27,13,7,-1,27,7,18,-1,36,37,38,-1,36,38,39,-1,40,41,42,-1,40,43,44,-1,40,42,38,-1,38,42,45,-1,38,45,46,-1,46,47,38,-1,38,47,48,-1,38,48,39,-1,44,49,40,-1,40,49,50,-1,40,50,51,-1,51,52,40,-1,40,52,53,-1,40,53,41,-1,44,43,54,-1,54,43,55,-1,54,55,56,-1,57,56,58,-1,58,56,59,-1,58,59,60,-1,57,61,56,-1,56,61,62,-1,56,62,63,-1,63,64,56,-1,56,64,65,-1,56,65,54,-1,66,67,59,-1,59,67,68,-1,59,68,69,-1,69,70,59,-1,59,70,71,-1,59,71,60,-1,67,66,36,-1,36,66,37,-1,57,58,41,-1,41,58,42,-1,57,41,53,-1,57,53,61,-1,61,53,52,-1,61,52,62,-1,62,52,51,-1,62,51,63,-1,63,51,50,-1,63,50,64,-1,64,50,49,-1,64,49,65,-1,65,49,44,-1,65,44,54,-1,42,58,60,-1,42,60,45,-1,45,60,71,-1,45,71,46,-1,46,71,70,-1,46,70,47,-1,47,70,69,-1,47,69,48,-1,48,69,68,-1,48,68,39,-1,39,68,67,-1,39,67,36,-1,72,73,74,-1,74,73,75,-1,73,76,75,-1,75,76,77,-1,76,78,77,-1,77,78,79,-1,78,80,79,-1,79,80,81,-1,80,82,81,-1,81,82,83,-1,82,84,83,-1,83,84,85,-1,84,86,85,-1,85,86,87,-1,86,72,87,-1,87,72,74,-1,88,80,89,-1,89,80,78,-1,90,86,88,-1,88,86,84,-1,88,84,80,-1,80,84,82,-1,90,91,86,-1,86,91,92,-1,86,92,72,-1,72,92,93,-1,72,93,94,-1,94,95,72,-1,72,95,89,-1,72,89,73,-1,73,89,78,-1,73,78,76,-1,88,89,96,-1,96,89,97,-1,90,88,98,-1,98,88,96,-1,90,98,99,-1,90,99,91,-1,91,99,100,-1,91,100,92,-1,93,92,101,-1,101,92,100,-1,93,101,102,-1,93,102,94,-1,94,102,103,-1,94,103,95,-1,89,95,97,-1,97,95,103,-1,104,105,106,-1,106,105,107,-1,105,108,107,-1,107,108,109,-1,108,110,109,-1,109,110,111,-1,112,113,114,-1,112,114,115,-1,115,114,116,-1,115,116,117,-1,117,116,118,-1,117,118,119,-1,119,118,120,-1,119,120,121,-1,121,120,122,-1,121,122,123,-1,123,122,124,-1,123,124,125,-1,125,124,126,-1,125,126,127,-1,127,126,111,-1,127,111,110,-1,104,106,128,-1,104,128,129,-1,129,128,130,-1,129,130,131,-1,131,130,132,-1,131,132,133,-1,133,132,134,-1,133,134,135,-1,135,134,136,-1,135,136,137,-1,137,136,138,-1,137,138,139,-1,139,138,113,-1,139,113,112,-1,117,119,140,-1,140,119,121,-1,140,121,141,-1,141,121,123,-1,141,123,142,-1,142,123,125,-1,142,125,143,-1,143,125,127,-1,143,127,144,-1,144,127,110,-1,144,110,145,-1,145,110,108,-1,145,108,146,-1,146,108,105,-1,146,105,147,-1,147,105,104,-1,147,104,148,-1,148,104,129,-1,148,129,149,-1,149,129,131,-1,149,131,150,-1,150,131,133,-1,150,133,151,-1,151,133,135,-1,151,135,152,-1,152,135,137,-1,152,137,153,-1,153,137,139,-1,153,139,154,-1,154,139,112,-1,154,112,155,-1,155,112,115,-1,155,115,156,-1,156,115,117,-1,156,117,140,-1,144,145,157,-1,157,145,158,-1,144,157,159,-1,144,159,143,-1,143,159,160,-1,143,160,142,-1,142,160,161,-1,142,161,141,-1,141,161,162,-1,141,162,140,-1,140,162,163,-1,140,163,156,-1,156,163,164,-1,156,164,155,-1,155,164,165,-1,155,165,154,-1,154,165,166,-1,154,166,153,-1,153,166,167,-1,153,167,152,-1,152,167,168,-1,152,168,151,-1,151,168,169,-1,151,169,150,-1,150,169,170,-1,150,170,149,-1,149,170,171,-1,149,171,148,-1,148,171,172,-1,148,172,147,-1,146,147,173,-1,173,147,172,-1,145,146,158,-1,158,146,173,-1,174,175,176,-1,176,175,177,-1,175,178,177,-1,177,178,179,-1,178,180,179,-1,179,180,181,-1,180,182,181,-1,181,182,183,-1,182,184,183,-1,183,184,185,-1,184,186,185,-1,185,186,187,-1,186,188,187,-1,187,188,189,-1,188,190,189,-1,189,190,191,-1,190,192,191,-1,191,192,193,-1,192,194,193,-1,193,194,195,-1,194,196,195,-1,195,196,197,-1,196,174,197,-1,197,174,176,-1,178,175,174,-1,174,196,178,-1,178,196,194,-1,178,194,180,-1,184,182,186,-1,186,182,180,-1,186,180,188,-1,188,180,194,-1,188,194,190,-1,190,194,192,-1,198,199,200,-1,200,199,201,-1,201,199,202,-1,203,204,205,-1,203,205,206,-1,206,205,207,-1,206,207,202,-1,202,207,208,-1,202,208,201,-1,204,203,209,-1,209,203,210,-1,209,210,211,-1,211,210,212,-1,211,212,213,-1,213,212,214,-1,213,214,215,-1,215,214,216,-1,215,216,217,-1,217,216,218,-1,217,218,219,-1,219,218,220,-1,219,220,221,-1,221,220,222,-1,221,222,223,-1,224,225,226,-1,226,225,227,-1,226,228,224,-1,224,228,229,-1,224,229,230,-1,230,229,231,-1,230,231,232,-1,232,231,233,-1,232,233,234,-1,234,233,235,-1,234,235,236,-1,236,235,237,-1,236,237,238,-1,238,237,223,-1,238,223,222,-1,227,225,239,-1,239,225,240,-1,239,240,241,-1,241,240,242,-1,241,242,243,-1,242,244,243,-1,243,244,245,-1,246,247,248,-1,246,248,249,-1,249,248,245,-1,249,245,244,-1,250,251,252,-1,250,252,253,-1,253,252,254,-1,253,254,255,-1,255,254,256,-1,255,256,257,-1,257,256,258,-1,257,258,259,-1,259,258,260,-1,259,260,261,-1,261,260,262,-1,261,262,263,-1,263,262,247,-1,263,247,246,-1,264,265,266,-1,264,266,267,-1,267,266,268,-1,267,268,269,-1,269,268,270,-1,269,270,271,-1,271,270,272,-1,271,272,273,-1,273,272,274,-1,273,274,275,-1,275,274,276,-1,275,276,277,-1,277,276,251,-1,277,251,250,-1,198,200,278,-1,198,278,279,-1,279,278,280,-1,279,280,281,-1,281,280,265,-1,281,265,264,-1,267,203,264,-1,264,203,206,-1,264,206,281,-1,281,206,202,-1,281,202,279,-1,279,202,199,-1,279,199,198,-1,244,242,249,-1,249,242,240,-1,249,240,246,-1,246,240,225,-1,246,225,263,-1,263,225,224,-1,263,224,261,-1,261,224,230,-1,261,230,259,-1,259,230,232,-1,259,232,257,-1,257,232,234,-1,257,234,255,-1,255,234,236,-1,255,236,253,-1,253,236,238,-1,253,238,250,-1,250,238,222,-1,250,222,277,-1,277,222,220,-1,277,220,275,-1,275,220,218,-1,275,218,273,-1,273,218,216,-1,273,216,271,-1,271,216,214,-1,271,214,269,-1,269,214,212,-1,269,212,267,-1,267,212,210,-1,267,210,203,-1,282,283,284,-1,284,283,285,-1,283,286,285,-1,285,286,287,-1,286,288,287,-1,287,288,289,-1,288,290,289,-1,289,290,291,-1,290,292,291,-1,291,292,293,-1,292,282,293,-1,293,282,284,-1,290,288,292,-1,292,288,286,-1,292,286,282,-1,282,286,283,-1,
        ]
    }
}
Shape{
    appearance Appearance {
        material  Material 	{
            diffuseColor 0.25098039215686274 0.25098039215686274 0.25098039215686274
            specularColor 0.12549019607843137 0.12549019607843137 0.12549019607843137
            ambientIntensity 0.2
            transparency 0
            shininess 0.5
        }
    }
    geometry IndexedFaceSet {
        ccw TRUE
        solid FALSE
        coord DEF co Coordinate {
            point [
                -0.206 -0.009 0.0, -0.2455 -0.009 0.0, -0.2236 0.0403 0.0, -0.2277 0.0403 0.0, -0.2247 0.0444 0.0, -0.2266 0.0444 0.0, -0.2255 0.0486 0.0, -0.2259 0.0486 0.0, -0.0856 0.0501 0.0, -0.0856 -0.0421 0.0, -0.103 0.0501 0.0, -0.1023 -0.0421 0.0, -0.1148 -0.041 0.0, -0.1489 0.0051 0.0, -0.1479 0.0169 0.0, -0.1452 0.0262 -0.0, -0.117 0.0486 0.0, -0.1247 -0.0379 0.0, -0.1328 -0.0331 -0.0, -0.1394 -0.0265 0.0, -0.1444 -0.0184 0.0, -0.1479 -0.0073 -0.0, -0.1411 0.0335 0.0, -0.1353 0.0396 0.0, -0.1267 0.0452 0.0, -0.6997 0.783 1.1024, -0.7205 0.7757 1.1024, -0.72 0.7745 1.1126, -0.728 0.771 1.1024, -0.7429 0.7616 1.1024, -0.7421 0.7606 1.1126, -0.7523 0.7523 1.1024, -0.7616 0.7429 1.1024, -0.7606 0.7421 1.1126, -0.783 0.6997 1.1024, -0.7844 0.6956 1.1024, -0.7831 0.6953 1.1126, -0.7402 0.7035 1.1417, -0.7309 0.7184 1.1417, -0.7494 0.7079 1.1404, -0.7388 0.7247 1.1404, -0.758 0.712 1.1365, -0.7462 0.7307 1.1365, -0.7653 0.7155 1.1302, -0.7526 0.7357 1.1302, -0.771 0.7182 1.122, -0.7575 0.7396 1.122, -0.7745 0.72 1.1126, -0.748 0.6693 1.1417, -0.7461 0.6868 1.1417, -0.7582 0.6693 1.1404, -0.756 0.6891 1.1404, -0.7677 0.6693 1.1365, -0.7652 0.6912 1.1365, -0.7759 0.6693 1.1302, -0.7732 0.693 1.1302, -0.7821 0.6693 1.122, -0.7793 0.6944 1.122, -0.7861 0.6693 1.1126, -0.7874 0.6693 1.1024, -0.7757 0.7205 1.1024, -0.771 0.728 1.1024, -0.7396 0.7575 1.122, -0.7357 0.7526 1.1302, -0.7307 0.7462 1.1365, -0.7247 0.7388 1.1404, -0.7184 0.7309 1.1417, -0.7182 0.771 1.122, -0.7155 0.7653 1.1302, -0.712 0.758 1.1365, -0.7079 0.7494 1.1404, -0.7035 0.7402 1.1417, -0.6956 0.7844 1.1024, -0.6953 0.7831 1.1126, -0.6944 0.7793 1.122, -0.693 0.7732 1.1302, -0.6912 0.7652 1.1365, -0.6891 0.756 1.1404, -0.6868 0.7461 1.1417, -0.6693 0.748 1.1417, -0.6693 0.7582 1.1404, -0.6693 0.7677 1.1365, -0.6693 0.7759 1.1302, -0.6693 0.7821 1.122, -0.6693 0.7861 1.1126, -0.6693 0.7874 1.1024, -0.748 -0.6693 1.1417, -0.7582 -0.6693 1.1404, -0.7677 -0.6693 1.1365, -0.7759 -0.6693 1.1302, -0.7821 -0.6693 1.122, -0.7861 -0.6693 1.1126, -0.7874 -0.6693 1.1024, 0.6693 0.748 1.1417, 0.6693 0.7582 1.1404, 0.6693 0.7677 1.1365, 0.6693 0.7759 1.1302, 0.6693 0.7821 1.122, 0.6693 0.7861 1.1126, 0.6693 0.7874 1.1024, -0.783 -0.6997 1.1024, -0.7757 -0.7205 1.1024, -0.7745 -0.72 1.1126, -0.6997 -0.783 1.1024, -0.6956 -0.7844 1.1024, -0.6953 -0.7831 1.1126, -0.7035 -0.7402 1.1417, -0.7184 -0.7309 1.1417, -0.7079 -0.7494 1.1404, -0.7247 -0.7388 1.1404, -0.712 -0.758 1.1365, -0.7307 -0.7462 1.1365, -0.7155 -0.7653 1.1302, -0.7357 -0.7526 1.1302, -0.7182 -0.771 1.122, -0.7396 -0.7575 1.122, -0.72 -0.7745 1.1126, -0.7421 -0.7606 1.1126, -0.6693 -0.748 1.1417, -0.6868 -0.7461 1.1417, -0.6693 -0.7582 1.1404, -0.6891 -0.756 1.1404, -0.6693 -0.7677 1.1365, -0.6912 -0.7652 1.1365, -0.6693 -0.7759 1.1302, -0.693 -0.7732 1.1302, -0.6693 -0.7821 1.122, -0.6944 -0.7793 1.122, -0.6693 -0.7861 1.1126, -0.6693 -0.7874 1.1024, -0.7205 -0.7757 1.1024, -0.771 -0.728 1.1024, -0.7616 -0.7429 1.1024, -0.7606 -0.7421 1.1126, -0.7575 -0.7396 1.122, -0.7526 -0.7357 1.1302, -0.7462 -0.7307 1.1365, -0.7388 -0.7247 1.1404, -0.7309 -0.7184 1.1417, -0.7523 -0.7523 1.1024, -0.7429 -0.7616 1.1024, -0.728 -0.771 1.1024, -0.771 -0.7182 1.122, -0.7653 -0.7155 1.1302, -0.758 -0.712 1.1365, -0.7494 -0.7079 1.1404, -0.7402 -0.7035 1.1417, -0.7844 -0.6956 1.1024, -0.7831 -0.6953 1.1126, -0.7793 -0.6944 1.122, -0.7732 -0.693 1.1302, -0.7652 -0.6912 1.1365, -0.756 -0.6891 1.1404, -0.7461 -0.6868 1.1417, 0.783 0.6997 1.1024, 0.7757 0.7205 1.1024, 0.7745 0.72 1.1126, 0.771 0.728 1.1024, 0.7616 0.7429 1.1024, 0.7606 0.7421 1.1126, 0.7523 0.7523 1.1024, 0.7429 0.7616 1.1024, 0.7421 0.7606 1.1126, 0.6997 0.783 1.1024, 0.6956 0.7844 1.1024, 0.6953 0.7831 1.1126, 0.7035 0.7402 1.1417, 0.7184 0.7309 1.1417, 0.7079 0.7494 1.1404, 0.7247 0.7388 1.1404, 0.712 0.758 1.1365, 0.7307 0.7462 1.1365, 0.7155 0.7653 1.1302, 0.7357 0.7526 1.1302, 0.7182 0.771 1.122, 0.7396 0.7575 1.122, 0.72 0.7745 1.1126, 0.6868 0.7461 1.1417, 0.6891 0.756 1.1404, 0.6912 0.7652 1.1365, 0.693 0.7732 1.1302, 0.6944 0.7793 1.122, 0.7205 0.7757 1.1024, 0.728 0.771 1.1024, 0.7575 0.7396 1.122, 0.7526 0.7357 1.1302, 0.7462 0.7307 1.1365, 0.7388 0.7247 1.1404, 0.7309 0.7184 1.1417, 0.771 0.7182 1.122, 0.7653 0.7155 1.1302, 0.758 0.712 1.1365, 0.7494 0.7079 1.1404, 0.7402 0.7035 1.1417, 0.7844 0.6956 1.1024, 0.7831 0.6953 1.1126, 0.7793 0.6944 1.122, 0.7732 0.693 1.1302, 0.7652 0.6912 1.1365, 0.756 0.6891 1.1404, 0.7461 0.6868 1.1417, 0.748 0.6693 1.1417, 0.7582 0.6693 1.1404, 0.7677 0.6693 1.1365, 0.7759 0.6693 1.1302, 0.7821 0.6693 1.122, 0.7861 0.6693 1.1126, 0.7874 0.6693 1.1024, 0.6693 -0.748 1.1417, 0.6693 -0.7582 1.1404, 0.6693 -0.7677 1.1365, 0.6693 -0.7759 1.1302, 0.6693 -0.7821 1.122, 0.6693 -0.7861 1.1126, 0.6693 -0.7874 1.1024, 0.748 -0.6693 1.1417, 0.7582 -0.6693 1.1404, 0.7677 -0.6693 1.1365, 0.7759 -0.6693 1.1302, 0.7821 -0.6693 1.122, 0.7861 -0.6693 1.1126, 0.7874 -0.6693 1.1024, 0.6997 -0.783 1.1024, 0.7205 -0.7757 1.1024, 0.72 -0.7745 1.1126, 0.728 -0.771 1.1024, 0.7429 -0.7616 1.1024, 0.7421 -0.7606 1.1126, 0.7523 -0.7523 1.1024, 0.7616 -0.7429 1.1024, 0.7606 -0.7421 1.1126, 0.783 -0.6997 1.1024, 0.7844 -0.6956 1.1024, 0.7831 -0.6953 1.1126, 0.7402 -0.7035 1.1417, 0.7309 -0.7184 1.1417, 0.7494 -0.7079 1.1404, 0.7388 -0.7247 1.1404, 0.758 -0.712 1.1365, 0.7462 -0.7307 1.1365, 0.7653 -0.7155 1.1302, 0.7526 -0.7357 1.1302, 0.771 -0.7182 1.122, 0.7575 -0.7396 1.122, 0.7745 -0.72 1.1126, 0.7461 -0.6868 1.1417, 0.756 -0.6891 1.1404, 0.7652 -0.6912 1.1365, 0.7732 -0.693 1.1302, 0.7793 -0.6944 1.122, 0.7757 -0.7205 1.1024, 0.771 -0.728 1.1024, 0.7396 -0.7575 1.122, 0.7357 -0.7526 1.1302, 0.7307 -0.7462 1.1365, 0.7247 -0.7388 1.1404, 0.7184 -0.7309 1.1417, 0.7182 -0.771 1.122, 0.7155 -0.7653 1.1302, 0.712 -0.758 1.1365, 0.7079 -0.7494 1.1404, 0.7035 -0.7402 1.1417, 0.6956 -0.7844 1.1024, 0.6953 -0.7831 1.1126, 0.6944 -0.7793 1.122, 0.693 -0.7732 1.1302, 0.6912 -0.7652 1.1365, 0.6891 -0.756 1.1404, 0.6868 -0.7461 1.1417, 0.6868 -0.7461 1.1417
            ]
        }
        coordIndex [
            0,1,2,-1,2,1,3,-1,2,3,4,-1,4,3,5,-1,4,5,6,-1,6,5,7,-1,8,9,10,-1,10,9,11,-1,10,11,12,-1,13,14,10,-1,10,14,15,-1,10,15,16,-1,12,17,10,-1,10,17,18,-1,10,18,19,-1,19,20,10,-1,10,20,21,-1,10,21,13,-1,22,23,15,-1,15,23,24,-1,15,24,16,-1,25,26,27,-1,28,29,30,-1,31,32,33,-1,34,35,36,-1,37,38,39,-1,39,38,40,-1,39,40,41,-1,41,40,42,-1,41,42,43,-1,43,42,44,-1,43,44,45,-1,45,44,46,-1,45,46,47,-1,47,46,33,-1,48,49,50,-1,50,49,51,-1,50,51,52,-1,52,51,53,-1,52,53,54,-1,54,53,55,-1,54,55,56,-1,56,55,57,-1,56,57,58,-1,58,57,36,-1,58,36,59,-1,59,36,35,-1,60,34,47,-1,47,34,36,-1,47,36,45,-1,45,36,57,-1,45,57,43,-1,43,57,55,-1,43,55,41,-1,41,55,53,-1,41,53,39,-1,39,53,51,-1,39,51,37,-1,37,51,49,-1,33,32,47,-1,47,32,61,-1,47,61,60,-1,29,31,30,-1,30,31,33,-1,30,33,62,-1,62,33,46,-1,62,46,63,-1,63,46,44,-1,63,44,64,-1,64,44,42,-1,64,42,65,-1,65,42,40,-1,65,40,66,-1,66,40,38,-1,26,28,27,-1,27,28,30,-1,27,30,67,-1,67,30,62,-1,67,62,68,-1,68,62,63,-1,68,63,69,-1,69,63,64,-1,69,64,70,-1,70,64,65,-1,70,65,71,-1,71,65,66,-1,72,25,73,-1,73,25,27,-1,73,27,74,-1,74,27,67,-1,74,67,75,-1,75,67,68,-1,75,68,76,-1,76,68,69,-1,76,69,77,-1,77,69,70,-1,77,70,78,-1,78,70,71,-1,78,79,77,-1,77,79,80,-1,77,80,76,-1,76,80,81,-1,76,81,75,-1,75,81,82,-1,75,82,74,-1,74,82,83,-1,74,83,73,-1,73,83,84,-1,73,84,72,-1,72,84,85,-1,86,48,50,-1,86,50,87,-1,87,50,52,-1,87,52,88,-1,88,52,54,-1,88,54,89,-1,89,54,56,-1,89,56,90,-1,90,56,58,-1,90,58,91,-1,91,58,59,-1,91,59,92,-1,79,93,94,-1,79,94,80,-1,80,94,95,-1,80,95,81,-1,81,95,96,-1,81,96,82,-1,82,96,97,-1,82,97,83,-1,83,97,98,-1,83,98,84,-1,84,98,99,-1,84,99,85,-1,100,101,102,-1,103,104,105,-1,106,107,108,-1,108,107,109,-1,108,109,110,-1,110,109,111,-1,110,111,112,-1,112,111,113,-1,112,113,114,-1,114,113,115,-1,114,115,116,-1,116,115,117,-1,118,119,120,-1,120,119,121,-1,120,121,122,-1,122,121,123,-1,122,123,124,-1,124,123,125,-1,124,125,126,-1,126,125,127,-1,126,127,128,-1,128,127,105,-1,128,105,129,-1,129,105,104,-1,130,103,116,-1,116,103,105,-1,116,105,114,-1,114,105,127,-1,114,127,112,-1,112,127,125,-1,112,125,110,-1,110,125,123,-1,110,123,108,-1,108,123,121,-1,108,121,106,-1,106,121,119,-1,131,132,133,-1,133,132,117,-1,133,117,134,-1,134,117,115,-1,134,115,135,-1,135,115,113,-1,135,113,136,-1,136,113,111,-1,136,111,137,-1,137,111,109,-1,137,109,138,-1,138,109,107,-1,132,139,117,-1,117,139,140,-1,117,140,116,-1,116,140,141,-1,116,141,130,-1,101,131,102,-1,102,131,133,-1,102,133,142,-1,142,133,134,-1,142,134,143,-1,143,134,135,-1,143,135,144,-1,144,135,136,-1,144,136,145,-1,145,136,137,-1,145,137,146,-1,146,137,138,-1,147,100,148,-1,148,100,102,-1,148,102,149,-1,149,102,142,-1,149,142,150,-1,150,142,143,-1,150,143,151,-1,151,143,144,-1,151,144,152,-1,152,144,145,-1,152,145,153,-1,153,145,146,-1,153,86,152,-1,152,86,87,-1,152,87,151,-1,151,87,88,-1,151,88,150,-1,150,88,89,-1,150,89,149,-1,149,89,90,-1,149,90,148,-1,148,90,91,-1,148,91,147,-1,147,91,92,-1,154,155,156,-1,157,158,159,-1,160,161,162,-1,163,164,165,-1,166,167,168,-1,168,167,169,-1,168,169,170,-1,170,169,171,-1,170,171,172,-1,172,171,173,-1,172,173,174,-1,174,173,175,-1,174,175,176,-1,176,175,162,-1,93,177,94,-1,94,177,178,-1,94,178,95,-1,95,178,179,-1,95,179,96,-1,96,179,180,-1,96,180,97,-1,97,180,181,-1,97,181,98,-1,98,181,165,-1,98,165,99,-1,99,165,164,-1,182,163,176,-1,176,163,165,-1,176,165,174,-1,174,165,181,-1,174,181,172,-1,172,181,180,-1,172,180,170,-1,170,180,179,-1,170,179,168,-1,168,179,178,-1,168,178,166,-1,166,178,177,-1,162,161,176,-1,176,161,183,-1,176,183,182,-1,158,160,159,-1,159,160,162,-1,159,162,184,-1,184,162,175,-1,184,175,185,-1,185,175,173,-1,185,173,186,-1,186,173,171,-1,186,171,187,-1,187,171,169,-1,187,169,188,-1,188,169,167,-1,155,157,156,-1,156,157,159,-1,156,159,189,-1,189,159,184,-1,189,184,190,-1,190,184,185,-1,190,185,191,-1,191,185,186,-1,191,186,192,-1,192,186,187,-1,192,187,193,-1,193,187,188,-1,194,154,195,-1,195,154,156,-1,195,156,196,-1,196,156,189,-1,196,189,197,-1,197,189,190,-1,197,190,198,-1,198,190,191,-1,198,191,199,-1,199,191,192,-1,199,192,200,-1,200,192,193,-1,200,201,199,-1,199,201,202,-1,199,202,198,-1,198,202,203,-1,198,203,197,-1,197,203,204,-1,197,204,196,-1,196,204,205,-1,196,205,195,-1,195,205,206,-1,195,206,194,-1,194,206,207,-1,208,118,120,-1,208,120,209,-1,209,120,122,-1,209,122,210,-1,210,122,124,-1,210,124,211,-1,211,124,126,-1,211,126,212,-1,212,126,128,-1,212,128,213,-1,213,128,129,-1,213,129,214,-1,201,215,216,-1,201,216,202,-1,202,216,217,-1,202,217,203,-1,203,217,218,-1,203,218,204,-1,204,218,219,-1,204,219,205,-1,205,219,220,-1,205,220,206,-1,206,220,221,-1,206,221,207,-1,222,223,224,-1,225,226,227,-1,228,229,230,-1,231,232,233,-1,234,235,236,-1,236,235,237,-1,236,237,238,-1,238,237,239,-1,238,239,240,-1,240,239,241,-1,240,241,242,-1,242,241,243,-1,242,243,244,-1,244,243,230,-1,215,245,216,-1,216,245,246,-1,216,246,217,-1,217,246,247,-1,217,247,218,-1,218,247,248,-1,218,248,219,-1,219,248,249,-1,219,249,220,-1,220,249,233,-1,220,233,221,-1,221,233,232,-1,250,231,244,-1,244,231,233,-1,244,233,242,-1,242,233,249,-1,242,249,240,-1,240,249,248,-1,240,248,238,-1,238,248,247,-1,238,247,236,-1,236,247,246,-1,236,246,234,-1,234,246,245,-1,230,229,244,-1,244,229,251,-1,244,251,250,-1,226,228,227,-1,227,228,230,-1,227,230,252,-1,252,230,243,-1,252,243,253,-1,253,243,241,-1,253,241,254,-1,254,241,239,-1,254,239,255,-1,255,239,237,-1,255,237,256,-1,256,237,235,-1,223,225,224,-1,224,225,227,-1,224,227,257,-1,257,227,252,-1,257,252,258,-1,258,252,253,-1,258,253,259,-1,259,253,254,-1,259,254,260,-1,260,254,255,-1,260,255,261,-1,261,255,256,-1,262,222,263,-1,263,222,224,-1,263,224,264,-1,264,224,257,-1,264,257,265,-1,265,257,258,-1,265,258,266,-1,266,258,259,-1,266,259,267,-1,267,259,260,-1,267,260,268,-1,268,260,261,-1,268,208,267,-1,267,208,209,-1,267,209,266,-1,266,209,210,-1,266,210,265,-1,265,210,211,-1,265,211,264,-1,264,211,212,-1,264,212,263,-1,263,212,213,-1,263,213,262,-1,262,213,214,-1,
        ]
    }
}