#VRML V2.0 utf8
# 3D model generated by easyeda2kicad.py (https://github.com/uPesy/easyeda2kicad.py)

Shape{
    appearance Appearance {
        material  Material 	{
            diffuseColor 0.1803921568627451 0.1803921568627451 0.1803921568627451
            specularColor 0.1568627450980392 0.1568627450980392 0.1568627450980392
            ambientIntensity 0.2
            transparency 0
            shininess 0.5
        }
    }
    geometry IndexedFaceSet {
        ccw TRUE
        solid FALSE
        coord DEF co Coordinate {
            point [
                0.2035 0.707 -0.689, 0.2562 0.707 -0.689, 0.227 0.6412 -0.689, 0.2325 0.6412 -0.689, 0.2285 0.6358 -0.689, 0.2311 0.6357 -0.689, 0.2296 0.6302 -0.689, 0.2301 0.6302 -0.689, 0.5744 1.2402 -0.689, 0.5744 0.7694 -0.689, 0.1544 0.7694 -0.689, 0.0065 0.61 -0.689, 0.0065 0.5309 -0.689, -0.1087 0.5309 -0.689, -0.4921 0.0591 -0.689, -0.4921 -0.0591 -0.689, -0.5909 -0.0591 -0.689, -0.1241 0.743 -0.689, -0.1241 0.7603 -0.689, -0.1087 0.7694 -0.689, -0.1409 0.7672 -0.689, -0.1568 0.7694 -0.689, -0.1472 0.61 -0.689, -0.1423 0.6104 -0.689, -0.1087 0.61 -0.689, -0.1241 0.6153 -0.689, -0.1241 0.6364 -0.689, -0.1418 0.6288 -0.689, -0.1269 0.7446 -0.689, -0.161 0.6263 -0.689, -0.1765 0.6281 -0.689, -0.1883 0.6323 -0.689, -0.1992 0.6396 -0.689, -0.2087 0.6501 -0.689, -0.2201 0.6914 -0.689, -0.2185 0.7084 -0.689, -0.2142 0.722 -0.689, -0.1792 0.7514 -0.689, -0.1645 0.7531 -0.689, -0.1907 0.7472 -0.689, -0.2003 0.7407 -0.689, -0.2077 0.7329 -0.689, -0.1436 0.7508 -0.689, -0.2152 0.6623 -0.689, -0.2194 0.6791 -0.689, -0.1729 0.61 -0.689, -0.1611 0.6091 -0.689, -0.1767 0.7694 -0.689, -0.1868 0.7684 -0.689, -0.248 0.7694 -0.689, -0.2021 0.7631 -0.689, -0.2148 0.755 -0.689, -0.2237 0.6377 -0.689, -0.2095 0.6241 -0.689, -0.248 0.61 -0.689, -0.1945 0.6154 -0.689, -0.2412 0.6927 -0.689, -0.239 0.6703 -0.689, -0.2329 0.6525 -0.689, -0.248 0.5309 -0.689, -0.177 0.6103 -0.689, -0.2266 0.7426 -0.689, -0.235 0.7276 -0.689, -0.2397 0.7109 -0.689, -0.248 1.2402 -0.689, -0.1378 1.2402 -0.689, -0.1674 0.7704 -0.689, -0.1631 0.7703 -0.689, 0.5744 -0.0591 -0.689, 0.4921 -0.0591 -0.689, 0.4921 0.0591 -0.689, 0.5744 0.5309 -0.689, 0.1544 0.5309 -0.689, 0.5744 0.61 -0.689, 1.122 0.4528 -0.689, 1.2205 0.5309 -0.689, 1.122 0.3346 -0.689, 1.2205 -0.0591 -0.689, 0.8465 0.3346 -0.689, 0.8465 0.4528 -0.689, -1.122 0.3346 -0.689, -0.8465 0.3346 -0.689, -0.5909 0.5309 -0.689, -0.248 0.0591 -0.689, -0.8465 0.4528 -0.689, -1.122 0.4528 -0.689, -1.1713 0.5309 -0.689, -1.1713 -0.0591 -0.689, 0.1832 0.7685 -0.689, 0.1601 0.7685 -0.689, 0.2792 0.7685 -0.689, 0.2633 0.7243 -0.689, 0.1982 0.7243 -0.689, 0.1544 0.61 -0.689, 0.2197 0.611 -0.689, 0.2408 0.611 -0.689, 0.3023 0.7685 -0.689, 0.0663 0.611 -0.689, 0.0891 0.6134 -0.689, 0.1075 0.6199 -0.689, 0.1246 0.6314 -0.689, 0.1408 0.7253 -0.689, 0.1317 0.7394 -0.689, 0.1188 0.7518 -0.689, 0.1023 0.7613 -0.689, 0.1248 0.6315 -0.689, 0.1359 0.6439 -0.689, 0.1432 0.6574 -0.689, 0.0842 0.7668 -0.689, 0.0647 0.7685 -0.689, 0.0065 0.7694 -0.689, 0.0219 0.7685 -0.689, 0.0219 0.611 -0.689, 0.1475 0.6729 -0.689, 0.1486 0.6877 -0.689, 0.1464 0.7088 -0.689, -0.0934 0.7685 -0.689, -0.0934 0.611 -0.689, -0.0127 0.611 -0.689, -0.0722 0.6974 -0.689, -0.0722 0.7512 -0.689, -0.0165 0.6974 -0.689, -0.0089 0.7512 -0.689, -0.0127 0.6283 -0.689, -0.0722 0.6283 -0.689, -0.0722 0.6801 -0.689, -0.0165 0.6801 -0.689, -0.0089 0.7685 -0.689, -0.3353 0.7685 -0.689, -0.5909 0.61 -0.689, -0.5909 0.7694 -0.689, -0.3353 0.611 -0.689, -0.3142 0.611 -0.689, -0.2547 0.7512 -0.689, -0.2547 0.7685 -0.689, -0.1087 0.0591 -0.689, 0.0065 0.0591 -0.689, 0.1544 0.0591 -0.689, -0.3142 0.7512 -0.689, 1.2205 0.61 -0.689, 1.2205 0.7694 -0.689, 1.2205 1.2402 -0.689, -0.1087 1.2402 -0.689, 0.0065 1.2402 -0.689, 0.1378 1.2402 -0.689, 0.1544 1.2402 -0.689, -0.5909 1.2402 -0.689, -1.1713 0.61 -0.689, -1.1713 0.7694 -0.689, -1.1713 1.2402 -0.689, -1.2205 -0.0591 -0.689, -1.2205 0.5309 -0.689, -1.2205 0.61 -0.689, -1.2205 0.7694 -0.689, -1.2205 1.2402 -0.689, 0.043 0.6283 -0.689, 0.043 0.7512 -0.689, 0.0662 0.6283 -0.689, 0.0654 0.7512 -0.689, 0.082 0.7496 -0.689, 0.1275 0.6882 -0.689, 0.1262 0.6725 -0.689, 0.1225 0.6601 -0.689, 0.0849 0.6302 -0.689, 0.0952 0.7455 -0.689, 0.106 0.7391 -0.689, 0.1148 0.7304 -0.689, 0.1214 0.7195 -0.689, 0.1261 0.7047 -0.689, 0.117 0.6503 -0.689, 0.1094 0.6422 -0.689, 0.0979 0.6348 -0.689, 0.0979 0.6348 -0.689
            ]
        }
        coordIndex [
            0,1,2,-1,2,1,3,-1,2,3,4,-1,4,3,5,-1,4,5,6,-1,6,5,7,-1,8,9,10,-1,11,12,13,-1,14,15,16,-1,17,18,19,-1,19,18,20,-1,19,20,21,-1,22,23,24,-1,24,23,25,-1,24,25,26,-1,17,27,28,-1,28,27,29,-1,28,29,30,-1,30,31,28,-1,28,31,32,-1,28,32,33,-1,34,35,28,-1,28,35,36,-1,37,38,39,-1,39,38,40,-1,36,41,28,-1,28,41,40,-1,28,40,42,-1,42,40,38,-1,33,43,28,-1,28,43,44,-1,28,44,34,-1,45,46,13,-1,47,48,49,-1,49,48,50,-1,49,50,51,-1,52,53,54,-1,54,53,55,-1,56,57,54,-1,54,57,58,-1,54,58,52,-1,13,59,45,-1,45,59,54,-1,45,54,60,-1,60,54,55,-1,51,61,49,-1,49,61,62,-1,49,62,63,-1,49,64,47,-1,47,64,65,-1,47,65,66,-1,66,65,67,-1,68,69,70,-1,68,70,71,-1,71,70,72,-1,71,72,73,-1,74,75,76,-1,76,75,77,-1,76,77,78,-1,78,77,68,-1,78,68,79,-1,79,68,71,-1,80,81,16,-1,16,81,82,-1,16,82,14,-1,14,82,83,-1,84,85,86,-1,86,85,80,-1,86,80,87,-1,87,80,16,-1,88,89,10,-1,90,91,92,-1,10,89,93,-1,93,89,94,-1,93,94,95,-1,92,88,90,-1,90,88,10,-1,90,10,96,-1,96,10,9,-1,96,9,95,-1,95,9,73,-1,95,73,93,-1,93,73,72,-1,72,12,93,-1,93,12,11,-1,93,11,97,-1,97,98,93,-1,93,98,99,-1,93,99,100,-1,101,102,10,-1,10,102,103,-1,10,103,104,-1,100,105,93,-1,93,105,106,-1,93,106,107,-1,104,108,10,-1,10,108,109,-1,10,109,110,-1,110,109,111,-1,110,111,11,-1,11,111,112,-1,11,112,97,-1,107,113,93,-1,93,113,114,-1,93,114,10,-1,10,114,115,-1,10,115,101,-1,116,117,24,-1,24,117,118,-1,119,120,121,-1,121,120,122,-1,46,22,13,-1,13,22,24,-1,13,24,11,-1,11,24,118,-1,11,118,123,-1,124,125,123,-1,123,125,126,-1,123,126,11,-1,11,126,121,-1,11,121,110,-1,110,121,122,-1,122,127,110,-1,110,127,116,-1,110,116,19,-1,19,116,24,-1,19,24,17,-1,17,24,26,-1,17,26,27,-1,128,129,130,-1,131,132,54,-1,133,134,49,-1,128,131,129,-1,129,131,54,-1,129,54,82,-1,82,54,59,-1,82,59,83,-1,83,59,13,-1,83,13,135,-1,135,13,12,-1,135,12,136,-1,136,12,72,-1,136,72,137,-1,137,72,70,-1,63,56,49,-1,49,56,54,-1,49,54,133,-1,133,54,132,-1,133,132,138,-1,74,79,75,-1,75,79,71,-1,75,71,139,-1,139,71,73,-1,139,73,140,-1,140,73,9,-1,140,9,141,-1,141,9,8,-1,67,65,21,-1,21,65,142,-1,21,142,19,-1,19,142,143,-1,19,143,110,-1,110,143,144,-1,110,144,10,-1,10,144,145,-1,10,145,8,-1,134,128,49,-1,49,128,130,-1,49,130,64,-1,64,130,146,-1,81,84,82,-1,82,84,86,-1,82,86,129,-1,129,86,147,-1,129,147,130,-1,130,147,148,-1,130,148,146,-1,146,148,149,-1,87,150,86,-1,86,150,151,-1,86,151,147,-1,147,151,152,-1,147,152,148,-1,148,152,153,-1,148,153,149,-1,149,153,154,-1,155,156,157,-1,157,156,158,-1,157,158,159,-1,160,161,157,-1,157,161,162,-1,157,162,163,-1,159,164,157,-1,157,164,165,-1,157,165,166,-1,166,167,157,-1,157,167,168,-1,157,168,160,-1,169,170,162,-1,162,170,171,-1,162,171,163,-1,
        ]
    }
}
Shape{
    appearance Appearance {
        material  Material 	{
            diffuseColor 0.8941176470588236 0.8941176470588236 0.8941176470588236
            specularColor 0.788235294117647 0.788235294117647 0.788235294117647
            ambientIntensity 0.2
            transparency 0
            shininess 0.5
        }
    }
    geometry IndexedFaceSet {
        ccw TRUE
        solid FALSE
        coord DEF co Coordinate {
            point [
                0.2035 0.707 -0.689, 0.227 0.6412 -0.689, 0.2197 0.611 -0.689, 0.1601 0.7685 -0.689, 0.1832 0.7685 -0.689, 0.1982 0.7243 -0.689, 0.2285 0.6358 -0.689, 0.2296 0.6302 -0.689, 0.2408 0.611 -0.689, 0.2301 0.6302 -0.689, 0.2311 0.6357 -0.689, 0.2562 0.707 -0.689, 0.2633 0.7243 -0.689, 0.2325 0.6412 -0.689, 0.3023 0.7685 -0.689, 0.2792 0.7685 -0.689, 0.1432 0.6574 -0.689, 0.1359 0.6439 -0.689, 0.117 0.6503 -0.689, 0.1248 0.6315 -0.689, 0.1094 0.6422 -0.689, 0.1246 0.6314 -0.689, 0.0979 0.6348 -0.689, 0.1075 0.6199 -0.689, 0.0849 0.6302 -0.689, 0.0891 0.6134 -0.689, 0.0662 0.6283 -0.689, 0.0663 0.611 -0.689, 0.043 0.6283 -0.689, 0.0219 0.611 -0.689, 0.043 0.7512 -0.689, 0.0219 0.7685 -0.689, 0.0654 0.7512 -0.689, 0.0647 0.7685 -0.689, 0.082 0.7496 -0.689, 0.0842 0.7668 -0.689, 0.0952 0.7455 -0.689, 0.1023 0.7613 -0.689, 0.106 0.7391 -0.689, 0.1188 0.7518 -0.689, 0.1148 0.7304 -0.689, 0.1317 0.7394 -0.689, 0.1214 0.7195 -0.689, 0.1408 0.7253 -0.689, 0.1261 0.7047 -0.689, 0.1464 0.7088 -0.689, 0.1275 0.6882 -0.689, 0.1486 0.6877 -0.689, 0.1262 0.6725 -0.689, 0.1475 0.6729 -0.689, 0.1225 0.6601 -0.689, -0.0934 0.7685 -0.689, -0.0089 0.7685 -0.689, -0.0089 0.7512 -0.689, -0.0722 0.7512 -0.689, -0.0722 0.6974 -0.689, -0.0934 0.611 -0.689, -0.0127 0.6283 -0.689, -0.0127 0.611 -0.689, -0.0722 0.6283 -0.689, -0.0722 0.6801 -0.689, -0.0165 0.6801 -0.689, -0.0165 0.6974 -0.689, -0.1418 0.6288 -0.689, -0.1241 0.6364 -0.689, -0.1241 0.6153 -0.689, -0.1241 0.7603 -0.689, -0.1241 0.743 -0.689, -0.1269 0.7446 -0.689, -0.1409 0.7672 -0.689, -0.1436 0.7508 -0.689, -0.1568 0.7694 -0.689, -0.1645 0.7531 -0.689, -0.1631 0.7703 -0.689, -0.1674 0.7704 -0.689, -0.1792 0.7514 -0.689, -0.1767 0.7694 -0.689, -0.1423 0.6104 -0.689, -0.1472 0.61 -0.689, -0.161 0.6263 -0.689, -0.1611 0.6091 -0.689, -0.1729 0.61 -0.689, -0.1765 0.6281 -0.689, -0.177 0.6103 -0.689, -0.1883 0.6323 -0.689, -0.1945 0.6154 -0.689, -0.1992 0.6396 -0.689, -0.2095 0.6241 -0.689, -0.2087 0.6501 -0.689, -0.2237 0.6377 -0.689, -0.2152 0.6623 -0.689, -0.2329 0.6525 -0.689, -0.2194 0.6791 -0.689, -0.239 0.6703 -0.689, -0.2201 0.6914 -0.689, -0.2412 0.6927 -0.689, -0.2185 0.7084 -0.689, -0.2397 0.7109 -0.689, -0.2142 0.722 -0.689, -0.235 0.7276 -0.689, -0.2077 0.7329 -0.689, -0.2266 0.7426 -0.689, -0.2003 0.7407 -0.689, -0.2148 0.755 -0.689, -0.1907 0.7472 -0.689, -0.2021 0.7631 -0.689, -0.1868 0.7684 -0.689, -0.1868 0.7684 -0.689
            ]
        }
        coordIndex [
            0,1,2,-1,3,4,5,-1,1,6,2,-1,2,6,7,-1,2,7,8,-1,8,7,9,-1,8,9,10,-1,2,3,0,-1,0,3,5,-1,0,5,11,-1,11,5,12,-1,10,13,8,-1,8,13,11,-1,8,11,14,-1,14,11,12,-1,14,12,15,-1,16,17,18,-1,18,17,19,-1,18,19,20,-1,20,19,21,-1,20,21,22,-1,22,21,23,-1,22,23,24,-1,24,23,25,-1,24,25,26,-1,26,25,27,-1,26,27,28,-1,28,27,29,-1,28,29,30,-1,30,29,31,-1,30,31,32,-1,32,31,33,-1,32,33,34,-1,34,33,35,-1,34,35,36,-1,36,35,37,-1,36,37,38,-1,38,37,39,-1,38,39,40,-1,40,39,41,-1,40,41,42,-1,42,41,43,-1,42,43,44,-1,44,43,45,-1,44,45,46,-1,46,45,47,-1,46,47,48,-1,48,47,49,-1,48,49,50,-1,50,49,16,-1,50,16,18,-1,51,52,53,-1,53,54,51,-1,51,54,55,-1,51,55,56,-1,57,58,59,-1,59,58,56,-1,59,56,60,-1,60,56,55,-1,60,55,61,-1,61,55,62,-1,63,64,65,-1,66,67,68,-1,66,68,69,-1,69,68,70,-1,69,70,71,-1,71,70,72,-1,71,72,73,-1,73,72,74,-1,74,72,75,-1,74,75,76,-1,65,77,63,-1,63,77,78,-1,63,78,79,-1,78,80,79,-1,79,80,81,-1,79,81,82,-1,82,81,83,-1,82,83,84,-1,84,83,85,-1,84,85,86,-1,86,85,87,-1,86,87,88,-1,88,87,89,-1,88,89,90,-1,90,89,91,-1,90,91,92,-1,92,91,93,-1,92,93,94,-1,94,93,95,-1,94,95,96,-1,96,95,97,-1,96,97,98,-1,98,97,99,-1,98,99,100,-1,100,99,101,-1,100,101,102,-1,102,101,103,-1,102,103,104,-1,104,103,105,-1,104,105,75,-1,75,105,106,-1,75,106,76,-1,
        ]
    }
}
Shape{
    appearance Appearance {
        material  Material 	{
            diffuseColor 0.5019607843137255 0.5019607843137255 0.5019607843137255
            specularColor 0.44313725490196076 0.44313725490196076 0.44313725490196076
            ambientIntensity 0.2
            transparency 0
            shininess 0.5
        }
    }
    geometry IndexedFaceSet {
        ccw TRUE
        solid FALSE
        coord DEF co Coordinate {
            point [
                -1.3583 -0.3937 -0.685, -1.3583 -1.0433 0.685, -1.3583 -0.7874 -0.685, -1.3583 -1.0433 -0.9606, -1.3583 -0.7874 -0.9606, -1.3583 0.0984 -0.1575, -1.3583 0.6102 -0.1575, -1.3583 1.2402 -0.685, -1.3583 0.6102 0.1575, -1.3583 1.2402 0.685, -1.3583 0.0984 0.1575, -1.437 -1.0433 -0.9606, -1.437 -1.0433 0.685, -1.437 -0.7874 -0.9606, -1.437 -0.3937 -0.685, -1.437 -0.7874 -1.0471, -1.437 -0.3937 -1.0471, -1.437 0.6102 0.1575, -1.437 1.2402 0.685, -1.437 0.6102 -0.1575, -1.437 1.2402 -0.685, -1.437 0.0984 -0.1575, -1.437 0.0984 0.1575, -1.6432 -0.7874 -1.4438, -1.6472 -0.7874 -1.4744, -1.5291 -0.7874 -1.4744, -1.3189 -0.7874 -0.685, -1.3189 -0.7874 -1.0471, -1.6432 -0.7874 -1.505, -1.6314 -0.7874 -1.5335, -1.3505 -0.7874 -1.7836, -1.4528 -0.7874 -1.8427, -1.3331 -0.7874 -1.8209, -1.4441 -0.7874 -1.8613, -1.3225 -0.7874 -1.8607, -1.4413 -0.7874 -1.8701, -1.321 -0.7874 -1.8701, -1.3269 -0.7874 -1.1082, -1.4388 -0.7874 -1.0676, -1.4441 -0.7874 -1.0875, -1.3505 -0.7874 -1.1652, -1.4528 -0.7874 -1.1061, -1.6314 -0.7874 -1.4154, -1.4343 1.2605 -0.685, -1.4265 1.2795 -0.685, -1.4139 1.2958 -0.685, -0.1378 1.3189 -0.685, -0.1378 1.2402 -0.685, -1.3583 1.3189 -0.685, -1.2507 1.2402 -0.685, -1.3786 1.3162 -0.685, -1.3976 1.3083 -0.685, 1.3976 1.3083 -0.685, 1.4139 1.2958 -0.685, 1.3583 1.2402 -0.685, 1.4265 1.2795 -0.685, 1.437 -0.3937 -0.685, 1.3583 -0.3937 -0.685, 1.437 1.2402 -0.685, 1.4343 1.2605 -0.685, 0.1378 1.2402 -0.685, 0.1378 1.3189 -0.685, 1.2507 1.2402 -0.685, 1.3583 1.3189 -0.685, 1.3786 1.3162 -0.685, 1.3786 1.3162 -0.685
            ]
        }
        coordIndex [
            0,1,2,-1,2,1,3,-1,2,3,4,-1,5,0,6,-1,6,0,7,-1,6,7,8,-1,8,7,9,-1,8,9,10,-1,10,9,1,-1,10,1,5,-1,5,1,0,-1,11,12,13,-1,13,12,14,-1,13,14,15,-1,15,14,16,-1,17,18,19,-1,19,18,20,-1,19,20,21,-1,21,20,14,-1,21,14,22,-1,22,14,12,-1,22,12,17,-1,17,12,18,-1,23,24,25,-1,26,2,27,-1,27,2,4,-1,24,28,25,-1,25,28,29,-1,25,29,30,-1,30,29,31,-1,30,31,32,-1,32,31,33,-1,32,33,34,-1,34,33,35,-1,34,35,36,-1,4,13,27,-1,27,13,15,-1,27,15,37,-1,15,38,37,-1,37,38,39,-1,37,39,40,-1,40,39,41,-1,40,41,25,-1,25,41,42,-1,25,42,23,-1,0,14,7,-1,7,14,20,-1,20,43,7,-1,7,43,44,-1,7,44,45,-1,46,47,48,-1,48,47,49,-1,48,49,50,-1,50,49,7,-1,50,7,51,-1,51,7,45,-1,52,53,54,-1,54,53,55,-1,56,57,58,-1,58,57,54,-1,58,54,59,-1,59,54,55,-1,60,61,62,-1,62,61,63,-1,62,63,54,-1,54,63,64,-1,54,64,52,-1,
        ]
    }
}
Shape{
    appearance Appearance {
        material  Material 	{
            diffuseColor 0.1803921568627451 0.1803921568627451 0.1803921568627451
            specularColor 0.1568627450980392 0.1568627450980392 0.1568627450980392
            ambientIntensity 0.2
            transparency 0
            shininess 0.5
        }
    }
    geometry IndexedFaceSet {
        ccw TRUE
        solid FALSE
        coord DEF co Coordinate {
            point [
                1.2205 -0.0591 0.689, 0.4921 -0.0591 0.689, 1.3386 -0.0591 0.5709, 1.3346 -0.0591 -0.6014, 1.3386 -0.0591 -0.5709, 1.2205 -0.0591 -0.689, 0.5744 -0.0591 -0.689, 0.4921 -0.0591 -0.689, 1.251 -0.0591 -0.685, 1.2795 -0.0591 -0.6732, 1.304 -0.0591 -0.6544, 1.3346 -0.0591 0.6014, 1.3228 -0.0591 0.6299, 1.251 -0.0591 0.685, 1.304 -0.0591 0.6544, 1.2795 -0.0591 0.6732, 1.3228 -0.0591 -0.6299, 1.3228 -0.0591 -0.6299
            ]
        }
        coordIndex [
            0,1,2,-1,3,4,5,-1,5,4,2,-1,5,2,6,-1,6,2,1,-1,6,1,7,-1,8,9,10,-1,2,11,0,-1,0,11,12,-1,0,12,13,-1,13,12,14,-1,13,14,15,-1,8,10,5,-1,5,10,16,-1,5,16,3,-1,
        ]
    }
}
Shape{
    appearance Appearance {
        material  Material 	{
            diffuseColor 0.8941176470588236 0.8941176470588236 0.8941176470588236
            specularColor 0.788235294117647 0.788235294117647 0.788235294117647
            ambientIntensity 0.2
            transparency 0
            shininess 0.5
        }
    }
    geometry IndexedFaceSet {
        ccw TRUE
        solid FALSE
        coord DEF co Coordinate {
            point [
                -0.3142 0.611 -0.689, -0.3353 0.611 -0.689, -0.3142 0.7512 -0.689, -0.3353 0.7685 -0.689, -0.2547 0.7512 -0.689, -0.2547 0.7685 -0.689, -0.2547 0.7685 -0.689
            ]
        }
        coordIndex [
            0,1,2,-1,2,1,3,-1,2,3,4,-1,4,3,5,-1,
        ]
    }
}
Shape{
    appearance Appearance {
        material  Material 	{
            diffuseColor 0.1803921568627451 0.1803921568627451 0.1803921568627451
            specularColor 0.1568627450980392 0.1568627450980392 0.1568627450980392
            ambientIntensity 0.2
            transparency 0
            shininess 0.5
        }
    }
    geometry IndexedFaceSet {
        ccw TRUE
        solid FALSE
        coord DEF co Coordinate {
            point [
                -0.8465 1.2402 -0.4724, -0.8268 1.2402 -0.4921, -1.122 1.2402 -0.4724, -1.1417 1.2402 -0.4921, -1.122 1.2402 0.4724, -1.1417 1.2402 0.4921, -0.8465 1.2402 0.4724, -0.8268 1.2402 0.4921, 1.122 1.2402 0.4724, 1.1417 1.2402 0.4921, 1.122 1.2402 -0.4724, 1.1417 1.2402 -0.4921, 0.8465 1.2402 -0.4724, 0.8268 1.2402 -0.4921, 0.8465 1.2402 0.4724, 0.8268 1.2402 0.4921, -0.6299 1.2402 0.3346, -0.6144 1.2402 0.2798, -0.6299 1.2402 -0.3346, -0.6144 1.2402 -0.2798, -0.613 1.2402 -0.29, 0.6062 1.2402 0.3037, 0.6029 1.2402 0.3076, 0.6299 1.2402 0.3346, 0.599 1.2402 0.311, 0.599 1.2402 -0.311, 0.6029 1.2402 -0.3076, 0.6299 1.2402 -0.3346, 0.6062 1.2402 -0.3037, 0.6091 1.2402 -0.2994, 0.6144 1.2402 -0.2798, 0.6144 1.2402 0.2798, 0.613 1.2402 0.29, -0.5947 1.2402 0.3138, -0.599 1.2402 0.311, -0.6062 1.2402 -0.3037, -0.6029 1.2402 -0.3076, -0.599 1.2402 -0.311, -0.5947 1.2402 -0.3138, -0.575 1.2402 -0.3191, 0.575 1.2402 -0.3191, 0.5852 1.2402 -0.3177, 0.5901 1.2402 -0.3161, 0.5947 1.2402 -0.3138, 0.6114 1.2402 -0.2948, 0.613 1.2402 -0.29, 0.6114 1.2402 0.2948, 0.6091 1.2402 0.2994, 0.5947 1.2402 0.3138, 0.5901 1.2402 0.3161, 0.5852 1.2402 0.3177, -0.5901 1.2402 0.3161, -0.6029 1.2402 0.3076, -0.6062 1.2402 0.3037, -0.6091 1.2402 0.2994, -0.6114 1.2402 -0.2948, -0.6091 1.2402 -0.2994, -0.5901 1.2402 -0.3161, -0.5852 1.2402 -0.3177, 0.575 1.2402 0.3191, -0.575 1.2402 0.3191, -0.5852 1.2402 0.3177, -0.6114 1.2402 0.2948, -0.613 1.2402 0.29, -0.1378 1.2402 -0.689, -0.248 1.2402 -0.689, -0.1378 1.2402 -0.685, -0.5909 1.2402 -0.689, -1.2507 1.2402 -0.685, -1.1713 1.2402 -0.689, -1.2205 1.2402 -0.689, 1.2205 1.2402 0.689, 1.2507 1.2402 0.685, -1.2205 1.2402 0.689, -1.2507 1.2402 0.685, 1.2507 1.2402 -0.685, 1.2205 1.2402 -0.689, 0.5744 1.2402 -0.689, 0.1378 1.2402 -0.685, 0.1544 1.2402 -0.689, 0.1378 1.2402 -0.689, -1.3386 1.2402 0.5709, -1.3386 1.2402 -0.5709, -1.3386 -0.0591 0.5709, -1.3386 -0.0591 -0.5709, -0.4921 -0.0591 -0.689, -0.4921 -0.0591 0.689, -0.5909 -0.0591 -0.689, -1.2205 -0.0591 0.689, -1.1713 -0.0591 -0.689, -1.2205 -0.0591 -0.689, -1.3346 -0.0591 0.6014, -1.251 -0.0591 0.685, -1.2795 -0.0591 0.6732, -1.304 -0.0591 0.6544, -1.251 -0.0591 -0.685, -1.3346 -0.0591 -0.6014, -1.3228 -0.0591 -0.6299, -1.304 -0.0591 -0.6544, -1.3228 -0.0591 0.6299, -1.2795 -0.0591 -0.6732, 1.3386 -0.0591 0.5709, 1.3386 -0.0591 -0.5709, 1.3386 1.2402 0.5709, 1.3386 1.2402 -0.5709, 0.4921 -0.0591 0.689, 1.2205 -0.0591 0.689, 0.4921 0.0591 0.689, -0.4921 0.0591 0.689, -1.3346 1.2402 0.6014, -1.3228 1.2402 0.6299, -1.304 1.2402 0.6544, -1.2795 1.2402 0.6732, -1.251 1.2402 0.685, -1.3346 1.2402 -0.6014, -1.2205 0.5309 -0.689, -1.2205 0.61 -0.689, -1.251 1.2402 -0.685, -1.2205 0.7694 -0.689, -1.3228 1.2402 -0.6299, -1.304 1.2402 -0.6544, -1.2795 1.2402 -0.6732, 1.3346 1.2402 0.6014, 1.3346 -0.0591 0.6014, 1.3228 1.2402 0.6299, 1.3228 -0.0591 0.6299, 1.304 1.2402 0.6544, 1.304 -0.0591 0.6544, 1.2795 1.2402 0.6732, 1.2795 -0.0591 0.6732, 1.251 1.2402 0.685, 1.251 -0.0591 0.685, 1.251 1.2402 -0.685, 1.251 -0.0591 -0.685, 1.2795 1.2402 -0.6732, 1.2795 -0.0591 -0.6732, 1.304 1.2402 -0.6544, 1.304 -0.0591 -0.6544, 1.3228 1.2402 -0.6299, 1.3228 -0.0591 -0.6299, 1.3346 1.2402 -0.6014, 1.3346 -0.0591 -0.6014, 1.2205 -0.0591 -0.689, 1.2205 0.5309 -0.689, 1.2205 0.61 -0.689, 1.2205 0.7694 -0.689, 1.2205 0.7694 -0.689
            ]
        }
        coordIndex [
            0,1,2,-1,2,1,3,-1,2,3,4,-1,4,3,5,-1,4,5,6,-1,6,5,7,-1,6,7,0,-1,0,7,1,-1,8,9,10,-1,10,9,11,-1,10,11,12,-1,12,11,13,-1,12,13,14,-1,14,13,15,-1,14,15,8,-1,8,15,9,-1,16,17,18,-1,18,17,19,-1,18,19,20,-1,21,22,23,-1,23,22,24,-1,25,26,27,-1,27,26,28,-1,27,28,29,-1,27,30,23,-1,23,30,31,-1,23,31,32,-1,33,34,16,-1,35,36,18,-1,18,36,37,-1,18,37,38,-1,18,39,27,-1,27,39,40,-1,27,40,41,-1,41,42,27,-1,27,42,43,-1,27,43,25,-1,29,44,27,-1,27,44,45,-1,27,45,30,-1,32,46,23,-1,23,46,47,-1,23,47,21,-1,24,48,23,-1,23,48,49,-1,23,49,50,-1,33,16,51,-1,34,52,16,-1,16,52,53,-1,16,53,54,-1,20,55,18,-1,18,55,56,-1,18,56,35,-1,38,57,18,-1,18,57,58,-1,18,58,39,-1,50,59,23,-1,23,59,60,-1,23,60,16,-1,16,60,61,-1,16,61,51,-1,54,62,16,-1,16,62,63,-1,16,63,17,-1,64,65,66,-1,66,65,67,-1,66,67,68,-1,68,67,69,-1,68,69,70,-1,71,72,73,-1,73,72,74,-1,75,76,77,-1,75,77,78,-1,78,77,79,-1,78,79,80,-1,81,82,83,-1,83,82,84,-1,85,86,87,-1,87,86,88,-1,87,88,89,-1,89,88,90,-1,91,83,88,-1,92,93,94,-1,88,83,90,-1,90,83,84,-1,90,84,95,-1,96,97,98,-1,92,94,88,-1,88,94,99,-1,88,99,91,-1,96,98,84,-1,84,98,100,-1,84,100,95,-1,101,102,103,-1,103,102,104,-1,105,106,107,-1,107,106,71,-1,107,71,108,-1,108,71,73,-1,108,73,86,-1,86,73,88,-1,81,83,91,-1,81,91,109,-1,109,91,99,-1,109,99,110,-1,110,99,94,-1,110,94,111,-1,111,94,93,-1,111,93,112,-1,112,93,92,-1,112,92,113,-1,113,92,74,-1,74,92,88,-1,74,88,73,-1,84,82,114,-1,115,90,95,-1,116,117,118,-1,118,117,68,-1,118,68,70,-1,84,114,96,-1,96,114,119,-1,96,119,97,-1,97,119,120,-1,97,120,98,-1,98,120,121,-1,98,121,100,-1,100,121,117,-1,100,117,95,-1,95,117,116,-1,95,116,115,-1,101,103,122,-1,101,122,123,-1,123,122,124,-1,123,124,125,-1,125,124,126,-1,125,126,127,-1,127,126,128,-1,127,128,129,-1,129,128,130,-1,129,130,131,-1,131,130,106,-1,106,130,72,-1,106,72,71,-1,75,132,133,-1,133,132,134,-1,133,134,135,-1,135,134,136,-1,135,136,137,-1,137,136,138,-1,137,138,139,-1,139,138,140,-1,139,140,141,-1,141,140,104,-1,141,104,102,-1,142,143,133,-1,133,143,144,-1,133,144,75,-1,75,144,145,-1,75,145,76,-1,
        ]
    }
}
Shape{
    appearance Appearance {
        material  Material 	{
            diffuseColor 0.5019607843137255 0.5019607843137255 0.5019607843137255
            specularColor 0.44313725490196076 0.44313725490196076 0.44313725490196076
            ambientIntensity 0.2
            transparency 0
            shininess 0.5
        }
    }
    geometry IndexedFaceSet {
        ccw TRUE
        solid FALSE
        coord DEF co Coordinate {
            point [
                -1.3583 1.2402 -0.685, -1.2507 1.2402 -0.685, -1.251 1.2402 -0.685, -1.2795 1.2402 -0.6732, -1.304 1.2402 -0.6544, -1.3228 1.2402 -0.6299, -1.304 1.2402 0.6544, -1.3583 1.2402 0.685, -1.3228 1.2402 0.6299, -1.3346 1.2402 0.6014, -1.3346 1.2402 -0.6014, -1.3386 1.2402 -0.5709, -1.3386 1.2402 0.5709, -1.2795 1.2402 0.6732, -1.251 1.2402 0.685, -1.2507 1.2402 0.685, 1.251 1.2402 -0.685, 1.2507 1.2402 -0.685, 1.3583 1.2402 -0.685, 1.3583 1.2402 0.685, 1.2507 1.2402 0.685, 1.251 1.2402 0.685, 1.2795 1.2402 0.6732, 1.304 1.2402 0.6544, 1.3228 1.2402 0.6299, 1.3346 1.2402 -0.6014, 1.3228 1.2402 -0.6299, 1.3346 1.2402 0.6014, 1.3386 1.2402 0.5709, 1.3386 1.2402 -0.5709, 1.304 1.2402 -0.6544, 1.2795 1.2402 -0.6732, 1.3583 1.3189 0.685, -0.8268 1.3189 0.4921, -1.3583 1.3189 0.685, -1.1417 1.3189 0.4921, -1.3583 1.3189 -0.685, 0.8268 1.3189 -0.4921, 0.6299 1.3189 -0.3346, 0.8268 1.3189 0.4921, 0.6299 1.3189 0.3346, -0.6299 1.3189 0.3346, -0.8268 1.3189 -0.4921, -0.6299 1.3189 -0.3346, 0.1378 1.3189 -0.9606, -0.1378 1.3189 -0.9606, 0.1378 1.3189 -0.685, -0.1378 1.3189 -0.685, -1.1417 1.3189 -0.4921, 1.3583 1.3189 -0.685, 1.1417 1.3189 -0.4921, 1.1417 1.3189 0.4921, -1.3976 1.3083 0.685, -1.4139 1.2958 0.685, 1.3583 -0.8465 0.685, 1.437 -0.8465 0.685, 1.437 1.2402 0.685, -1.437 -1.0433 0.685, -1.3583 -1.0433 0.685, -1.437 1.2402 0.685, 1.4343 1.2605 0.685, 1.4265 1.2795 0.685, 1.4139 1.2958 0.685, -1.4265 1.2795 0.685, -1.4343 1.2605 0.685, 1.3976 1.3083 0.685, 1.3786 1.3162 0.685, -1.3786 1.3162 0.685, -0.6299 1.2402 -0.3346, -0.6299 1.2402 0.3346, 0.6299 1.2402 0.3346, 0.6299 1.2402 -0.3346, 0.8268 1.2402 -0.4921, 0.8268 1.2402 0.4921, 1.1417 1.2402 0.4921, 1.1417 1.2402 -0.4921, -1.1417 1.2402 -0.4921, -1.1417 1.2402 0.4921, -0.8268 1.2402 0.4921, -0.8268 1.2402 -0.4921, -0.8268 1.2402 -0.4921
            ]
        }
        coordIndex [
            0,1,2,-1,2,3,0,-1,0,3,4,-1,0,4,5,-1,6,7,8,-1,8,7,9,-1,5,10,0,-1,0,10,11,-1,0,11,7,-1,7,11,12,-1,7,12,9,-1,6,13,7,-1,7,13,14,-1,7,14,15,-1,16,17,18,-1,19,20,21,-1,21,22,19,-1,19,22,23,-1,19,23,24,-1,18,25,26,-1,24,27,19,-1,19,27,28,-1,19,28,18,-1,18,28,29,-1,18,29,25,-1,26,30,18,-1,18,30,31,-1,18,31,16,-1,32,33,34,-1,34,33,35,-1,34,35,36,-1,37,38,39,-1,39,38,40,-1,39,40,41,-1,32,39,33,-1,33,39,41,-1,33,41,42,-1,42,41,43,-1,42,43,38,-1,44,45,46,-1,46,45,47,-1,35,48,36,-1,36,48,42,-1,36,42,47,-1,47,42,38,-1,47,38,46,-1,46,38,37,-1,46,37,49,-1,49,37,50,-1,49,50,32,-1,32,50,51,-1,32,51,39,-1,52,53,7,-1,54,55,19,-1,19,55,56,-1,57,58,59,-1,59,58,7,-1,56,60,19,-1,19,60,61,-1,19,61,62,-1,53,63,7,-1,7,63,64,-1,7,64,59,-1,62,65,19,-1,19,65,66,-1,19,66,20,-1,20,66,32,-1,20,32,15,-1,15,32,34,-1,15,34,7,-1,7,34,67,-1,7,67,52,-1,43,41,68,-1,68,41,69,-1,41,40,69,-1,69,40,70,-1,40,38,70,-1,70,38,71,-1,38,43,71,-1,71,43,68,-1,37,39,72,-1,72,39,73,-1,39,51,73,-1,73,51,74,-1,51,50,74,-1,74,50,75,-1,50,37,75,-1,75,37,72,-1,48,35,76,-1,76,35,77,-1,35,33,77,-1,77,33,78,-1,33,42,78,-1,78,42,79,-1,42,48,79,-1,79,48,76,-1,
        ]
    }
}
Shape{
    appearance Appearance {
        material  Material 	{
            diffuseColor 0.1803921568627451 0.1803921568627451 0.1803921568627451
            specularColor 0.1568627450980392 0.1568627450980392 0.1568627450980392
            ambientIntensity 0.2
            transparency 0
            shininess 0.5
        }
    }
    geometry IndexedFaceSet {
        ccw TRUE
        solid FALSE
        coord DEF co Coordinate {
            point [
                -0.1378 1.2402 -0.685, -0.1378 1.3189 -0.685, -0.1378 1.2402 -0.689, -0.1378 1.3189 -0.9606, -0.1378 1.2402 -0.9606, 0.1378 1.3189 -0.9606, 0.1378 1.2402 -0.9606, 0.1378 1.2402 -0.689, 0.1378 1.3189 -0.685, 0.1378 1.2402 -0.685, -0.1087 1.2402 -0.689, 0.0065 1.2402 -0.689, 0.0065 1.2402 -0.689
            ]
        }
        coordIndex [
            0,1,2,-1,2,1,3,-1,2,3,4,-1,3,5,4,-1,4,5,6,-1,6,5,7,-1,7,5,8,-1,7,8,9,-1,2,4,10,-1,10,4,6,-1,10,6,11,-1,11,6,7,-1,
        ]
    }
}
Shape{
    appearance Appearance {
        material  Material 	{
            diffuseColor 0.5019607843137255 0.5019607843137255 0.5019607843137255
            specularColor 0.44313725490196076 0.44313725490196076 0.44313725490196076
            ambientIntensity 0.2
            transparency 0
            shininess 0.5
        }
    }
    geometry IndexedFaceSet {
        ccw TRUE
        solid FALSE
        coord DEF co Coordinate {
            point [
                1.3583 -1.0433 0.4882, 1.3583 -1.0433 -0.9606, 1.437 -1.0433 0.4882, 1.437 -1.0433 -0.9606, 1.3583 -0.8465 0.685, 1.3583 0.0984 0.1575, 1.3583 0.0984 -0.1575, 1.3583 -0.3937 -0.685, 1.3583 -1.0169 0.5866, 1.3583 -0.9857 0.6274, 1.3583 0.6102 0.1575, 1.3583 1.2402 0.685, 1.3583 0.6102 -0.1575, 1.3583 1.2402 -0.685, 1.3583 -0.7874 -0.9606, 1.3583 -0.7874 -0.685, 1.3583 -1.0366 0.5391, 1.3583 -0.9449 0.6587, 1.3583 -0.8974 0.6783, 1.437 1.2402 0.685, 1.437 1.2402 -0.685, 1.4343 1.2605 -0.685, 1.4343 1.2605 0.685, 1.4265 1.2795 -0.685, 1.4265 1.2795 0.685, 1.4139 1.2958 -0.685, 1.4139 1.2958 0.685, 1.3976 1.3083 -0.685, 1.3976 1.3083 0.685, 1.3786 1.3162 -0.685, 1.3786 1.3162 0.685, 1.3583 1.3189 -0.685, 1.3583 1.3189 0.685, 1.437 -0.7874 -1.0471, 1.437 -0.3937 -1.0471, 1.437 -0.7874 -0.9606, 1.437 -0.3937 -0.685, 1.437 0.0984 0.1575, 1.437 -1.0169 0.5866, 1.437 -1.0366 0.5391, 1.437 0.0984 -0.1575, 1.437 0.6102 -0.1575, 1.437 0.6102 0.1575, 1.437 -0.8465 0.685, 1.437 -0.8974 0.6783, 1.437 -0.9449 0.6587, 1.437 -0.9857 0.6274, 1.437 -0.9857 0.6274
            ]
        }
        coordIndex [
            0,1,2,-1,2,1,3,-1,4,5,6,-1,7,8,9,-1,5,4,10,-1,10,4,11,-1,10,11,12,-1,12,11,13,-1,12,13,6,-1,6,13,7,-1,6,7,4,-1,14,1,15,-1,15,1,0,-1,15,0,7,-1,7,0,16,-1,7,16,8,-1,9,17,7,-1,7,17,18,-1,7,18,4,-1,19,20,21,-1,19,21,22,-1,22,21,23,-1,22,23,24,-1,24,23,25,-1,24,25,26,-1,26,25,27,-1,26,27,28,-1,28,27,29,-1,28,29,30,-1,30,29,31,-1,30,31,32,-1,33,34,35,-1,35,34,36,-1,2,3,35,-1,37,38,39,-1,39,2,37,-1,37,2,35,-1,37,35,40,-1,40,35,36,-1,40,36,41,-1,41,36,20,-1,41,20,42,-1,42,20,19,-1,42,19,37,-1,37,19,43,-1,37,43,44,-1,44,45,37,-1,37,45,46,-1,37,46,38,-1,
        ]
    }
}
Shape{
    appearance Appearance {
        material  Material 	{
            diffuseColor 1.0 1.0 1.0
            specularColor 0.8784313725490196 0.8784313725490196 0.8784313725490196
            ambientIntensity 0.2
            transparency 0
            shininess 0.5
        }
    }
    geometry IndexedFaceSet {
        ccw TRUE
        solid FALSE
        coord DEF co Coordinate {
            point [
                0.6144 1.2402 0.2798, 0.6144 1.2402 -0.2798, 0.5957 1.5965 0.2611, 0.5957 1.5965 -0.2611, -0.5564 1.5965 -0.3004, 0.5564 1.5965 -0.3004, -0.575 1.2402 -0.3191, 0.575 1.2402 -0.3191, -0.5957 1.5965 0.2611, -0.5957 1.5965 -0.2611, -0.6144 1.2402 0.2798, -0.6144 1.2402 -0.2798, 0.5564 1.5965 0.3004, -0.5564 1.5965 0.3004, 0.575 1.2402 0.3191, -0.575 1.2402 0.3191, 0.5564 1.6339 0.2611, 0.5564 1.6339 -0.2611, -0.5564 1.6339 0.2611, -0.5564 1.6339 -0.2611, -0.5564 1.6339 -0.2611
            ]
        }
        coordIndex [
            0,1,2,-1,2,1,3,-1,4,5,6,-1,6,5,7,-1,8,9,10,-1,10,9,11,-1,12,13,14,-1,14,13,15,-1,16,17,18,-1,18,17,19,-1,
        ]
    }
}
Shape{
    appearance Appearance {
        material  Material 	{
            diffuseColor 0.1803921568627451 0.1803921568627451 0.1803921568627451
            specularColor 0.1568627450980392 0.1568627450980392 0.1568627450980392
            ambientIntensity 0.2
            transparency 0
            shininess 0.5
        }
    }
    geometry IndexedFaceSet {
        ccw TRUE
        solid FALSE
        coord DEF co Coordinate {
            point [
                1.122 1.3189 0.4724, 1.122 1.2402 0.4724, 1.122 1.3189 -0.4724, 1.122 1.2402 -0.4724, 0.8465 1.3189 -0.4724, 0.8465 1.2402 -0.4724, 0.8465 1.3189 0.4724, 0.8465 1.2402 0.4724, 1.0039 1.437 0.3543, 1.0039 1.437 -0.3543, 0.9646 1.437 0.3543, 0.9646 1.437 -0.3543, -0.8465 1.3189 0.4724, -0.8465 1.2402 0.4724, -0.8465 1.3189 -0.4724, -0.8465 1.2402 -0.4724, -1.122 1.3189 -0.4724, -1.122 1.2402 -0.4724, -1.122 1.3189 0.4724, -1.122 1.2402 0.4724, -0.9646 1.437 0.3543, -0.9646 1.437 -0.3543, -1.0039 1.437 0.3543, -1.0039 1.437 -0.3543, -0.934 1.433 -0.3849, -1.0345 1.433 -0.3849, -0.9055 1.4212 -0.4134, -1.063 1.4212 -0.4134, -0.8811 1.4024 -0.4378, -1.0875 1.4024 -0.4378, -1.0976 1.3908 -0.448, -0.8709 1.3908 -0.448, -1.1062 1.378 -0.4566, -0.8623 1.378 -0.4566, -0.8554 1.3641 -0.4635, -1.1131 1.3641 -0.4635, -0.8505 1.3495 -0.4684, -1.118 1.3495 -0.4684, -0.8475 1.3343 -0.4714, -1.121 1.3343 -0.4714, -1.063 1.4212 0.4134, -1.0345 1.433 0.3849, -1.121 1.3343 0.4714, -1.118 1.3495 0.4684, -1.1131 1.3641 0.4635, -1.1062 1.378 0.4566, -1.0976 1.3908 0.448, -1.0875 1.4024 0.4378, -0.8475 1.3343 0.4714, -0.8505 1.3495 0.4684, -0.8554 1.3641 0.4635, -0.8623 1.378 0.4566, -0.8709 1.3908 0.448, -0.8811 1.4024 0.4378, -0.9055 1.4212 0.4134, -0.934 1.433 0.3849, 1.0345 1.433 -0.3849, 0.934 1.433 -0.3849, 1.063 1.4212 -0.4134, 0.9055 1.4212 -0.4134, 1.0875 1.4024 -0.4378, 0.8811 1.4024 -0.4378, 0.8709 1.3908 -0.448, 1.0976 1.3908 -0.448, 0.8623 1.378 -0.4566, 1.1062 1.378 -0.4566, 0.8554 1.3641 -0.4635, 1.1131 1.3641 -0.4635, 0.8505 1.3495 -0.4684, 1.118 1.3495 -0.4684, 1.121 1.3343 -0.4714, 0.8475 1.3343 -0.4714, 0.934 1.433 0.3849, 0.9055 1.4212 0.4134, 0.8811 1.4024 0.4378, 0.8709 1.3908 0.448, 0.8623 1.378 0.4566, 0.8554 1.3641 0.4635, 0.8505 1.3495 0.4684, 0.8475 1.3343 0.4714, 1.121 1.3343 0.4714, 1.118 1.3495 0.4684, 1.1131 1.3641 0.4635, 1.1062 1.378 0.4566, 1.0976 1.3908 0.448, 1.0875 1.4024 0.4378, 1.063 1.4212 0.4134, 1.0345 1.433 0.3849, 1.0345 1.433 0.3849
            ]
        }
        coordIndex [
            0,1,2,-1,2,1,3,-1,2,3,4,-1,4,3,5,-1,4,5,6,-1,6,5,7,-1,6,7,0,-1,0,7,1,-1,8,9,10,-1,10,9,11,-1,12,13,14,-1,14,13,15,-1,14,15,16,-1,16,15,17,-1,16,17,18,-1,18,17,19,-1,18,19,12,-1,12,19,13,-1,20,21,22,-1,22,21,23,-1,23,21,24,-1,23,24,25,-1,25,24,26,-1,25,26,27,-1,27,26,28,-1,27,28,29,-1,29,28,30,-1,30,28,31,-1,30,31,32,-1,31,33,32,-1,32,33,34,-1,32,34,35,-1,35,34,36,-1,35,36,37,-1,37,36,38,-1,37,38,39,-1,39,38,14,-1,39,14,16,-1,29,40,27,-1,27,40,41,-1,27,41,25,-1,25,41,22,-1,25,22,23,-1,16,18,39,-1,39,18,42,-1,39,42,37,-1,37,42,43,-1,37,43,35,-1,35,43,44,-1,35,44,32,-1,32,44,45,-1,32,45,30,-1,30,45,46,-1,30,46,29,-1,29,46,47,-1,29,47,40,-1,12,14,38,-1,12,38,48,-1,48,38,36,-1,48,36,49,-1,49,36,50,-1,50,36,34,-1,50,34,51,-1,51,34,33,-1,51,33,52,-1,52,33,31,-1,52,31,53,-1,31,28,53,-1,53,28,26,-1,53,26,54,-1,54,26,24,-1,54,24,55,-1,55,24,21,-1,55,21,20,-1,20,22,41,-1,20,41,55,-1,55,41,40,-1,55,40,54,-1,54,40,47,-1,54,47,53,-1,53,47,52,-1,52,47,46,-1,52,46,51,-1,43,50,44,-1,44,50,51,-1,44,51,45,-1,45,51,46,-1,18,12,42,-1,42,12,48,-1,42,48,43,-1,43,48,49,-1,43,49,50,-1,11,9,56,-1,11,56,57,-1,57,56,58,-1,57,58,59,-1,59,58,60,-1,59,60,61,-1,61,60,62,-1,62,60,63,-1,62,63,64,-1,64,63,65,-1,64,65,66,-1,66,65,67,-1,66,67,68,-1,67,69,68,-1,68,69,70,-1,68,70,71,-1,71,70,2,-1,71,2,4,-1,10,11,57,-1,10,57,72,-1,72,57,59,-1,72,59,73,-1,73,59,61,-1,73,61,74,-1,74,61,75,-1,75,61,62,-1,75,62,76,-1,76,62,64,-1,76,64,77,-1,77,64,66,-1,77,66,78,-1,66,68,78,-1,78,68,71,-1,78,71,79,-1,79,71,4,-1,79,4,6,-1,0,2,80,-1,80,2,70,-1,80,70,81,-1,70,69,81,-1,81,69,67,-1,81,67,82,-1,82,67,65,-1,82,65,83,-1,83,65,84,-1,84,65,63,-1,84,63,85,-1,63,60,85,-1,85,60,58,-1,85,58,86,-1,86,58,56,-1,86,56,87,-1,87,56,9,-1,87,9,8,-1,8,10,72,-1,8,72,87,-1,87,72,73,-1,87,73,86,-1,86,73,74,-1,86,74,85,-1,76,83,84,-1,85,74,84,-1,84,74,75,-1,84,75,76,-1,83,76,82,-1,82,76,77,-1,82,77,81,-1,77,78,81,-1,81,78,79,-1,81,79,80,-1,80,79,6,-1,80,6,0,-1,
        ]
    }
}
Shape{
    appearance Appearance {
        material  Material 	{
            diffuseColor 0.5019607843137255 0.5019607843137255 0.5019607843137255
            specularColor 0.44313725490196076 0.44313725490196076 0.44313725490196076
            ambientIntensity 0.2
            transparency 0
            shininess 0.5
        }
    }
    geometry IndexedFaceSet {
        ccw TRUE
        solid FALSE
        coord DEF co Coordinate {
            point [
                -0.8465 0.4528 -1.9291, -0.8465 0.4528 -0.689, -0.8465 0.3346 -1.9291, -0.8465 0.3346 -0.689, -1.122 0.3346 -0.689, -1.122 0.3346 -1.9291, -0.8512 0.3346 -1.9648, -1.1174 0.3346 -1.9648, -1.1036 0.3346 -1.998, -0.9843 0.3346 -2.0669, -1.0817 0.3346 -2.0266, -1.0531 0.3346 -2.0485, -1.0199 0.3346 -2.0622, -0.9486 0.3346 -2.0622, -0.9154 0.3346 -2.0485, -0.8868 0.3346 -2.0266, -0.8649 0.3346 -1.998, -1.122 0.4528 -1.9291, -1.122 0.4528 -0.689, -1.1174 0.4528 -1.9648, -0.8512 0.4528 -1.9648, -0.8649 0.4528 -1.998, -0.9843 0.4528 -2.0669, -0.8868 0.4528 -2.0266, -0.9154 0.4528 -2.0485, -0.9486 0.4528 -2.0622, -1.0199 0.4528 -2.0622, -1.0531 0.4528 -2.0485, -1.0817 0.4528 -2.0266, -1.1036 0.4528 -1.998, 1.122 0.4528 -1.9291, 1.122 0.4528 -0.689, 1.122 0.3346 -1.9291, 1.122 0.3346 -0.689, 0.8465 0.3346 -0.689, 0.8465 0.3346 -1.9291, 1.1174 0.3346 -1.9648, 0.8512 0.3346 -1.9648, 0.8649 0.3346 -1.998, 0.9843 0.3346 -2.0669, 0.8868 0.3346 -2.0266, 0.9154 0.3346 -2.0485, 0.9486 0.3346 -2.0622, 1.0199 0.3346 -2.0622, 1.0531 0.3346 -2.0485, 1.0817 0.3346 -2.0266, 1.1036 0.3346 -1.998, 0.8465 0.4528 -1.9291, 0.8465 0.4528 -0.689, 0.8512 0.4528 -1.9648, 1.1174 0.4528 -1.9648, 1.1036 0.4528 -1.998, 0.9843 0.4528 -2.0669, 1.0817 0.4528 -2.0266, 1.0531 0.4528 -2.0485, 1.0199 0.4528 -2.0622, 0.9486 0.4528 -2.0622, 0.9154 0.4528 -2.0485, 0.8868 0.4528 -2.0266, 0.8649 0.4528 -1.998, 0.8649 0.4528 -1.998
            ]
        }
        coordIndex [
            0,1,2,-1,2,1,3,-1,3,4,2,-1,2,4,5,-1,2,5,6,-1,7,8,9,-1,8,10,9,-1,9,10,11,-1,9,11,12,-1,7,9,5,-1,5,9,13,-1,5,13,14,-1,14,15,5,-1,5,15,16,-1,5,16,6,-1,5,4,17,-1,17,4,18,-1,18,1,17,-1,17,1,0,-1,17,0,19,-1,20,21,22,-1,21,23,22,-1,22,23,24,-1,22,24,25,-1,20,22,0,-1,0,22,26,-1,0,26,27,-1,27,28,0,-1,0,28,29,-1,0,29,19,-1,30,31,32,-1,32,31,33,-1,33,34,32,-1,32,34,35,-1,32,35,36,-1,37,38,39,-1,38,40,39,-1,39,40,41,-1,39,41,42,-1,37,39,35,-1,35,39,43,-1,35,43,44,-1,44,45,35,-1,35,45,46,-1,35,46,36,-1,35,34,47,-1,47,34,48,-1,48,31,47,-1,47,31,30,-1,47,30,49,-1,50,51,52,-1,51,53,52,-1,52,53,54,-1,52,54,55,-1,50,52,30,-1,30,52,56,-1,30,56,57,-1,57,58,30,-1,30,58,59,-1,30,59,49,-1,
        ]
    }
}
Shape{
    appearance Appearance {
        material  Material 	{
            diffuseColor 0.1803921568627451 0.1803921568627451 0.1803921568627451
            specularColor 0.1568627450980392 0.1568627450980392 0.1568627450980392
            ambientIntensity 0.2
            transparency 0
            shininess 0.5
        }
    }
    geometry IndexedFaceSet {
        ccw TRUE
        solid FALSE
        coord DEF co Coordinate {
            point [
                0.4921 -0.0591 0.689, 0.4921 0.0591 0.689, 0.4921 -0.0591 -0.689, 0.4921 0.0591 -0.689, 0.1544 0.0591 -0.689, -0.4921 0.0591 -0.689, -0.248 0.0591 -0.689, -0.4921 0.0591 0.689, -0.1087 0.0591 -0.689, 0.0065 0.0591 -0.689, -0.4921 -0.0591 0.689, -0.4921 -0.0591 -0.689, -0.4921 -0.0591 -0.689
            ]
        }
        coordIndex [
            0,1,2,-1,2,1,3,-1,4,3,1,-1,5,6,7,-1,7,6,8,-1,7,8,1,-1,1,8,9,-1,1,9,4,-1,7,10,5,-1,5,10,11,-1,
        ]
    }
}
Shape{
    appearance Appearance {
        material  Material 	{
            diffuseColor 1.0 1.0 1.0
            specularColor 0.8784313725490196 0.8784313725490196 0.8784313725490196
            ambientIntensity 0.2
            transparency 0
            shininess 0.5
        }
    }
    geometry IndexedFaceSet {
        ccw TRUE
        solid FALSE
        coord DEF co Coordinate {
            point [
                -0.5574 1.5966 -0.3003, -0.5564 1.5965 -0.3004, -0.575 1.2402 -0.3191, -0.5904 1.5973 -0.2807, -0.6114 1.2402 -0.2948, -0.5943 1.597 -0.2713, -0.613 1.2402 -0.29, -0.5944 1.597 -0.271, -0.6144 1.2402 -0.2798, -0.5957 1.5965 -0.2611, -0.576 1.5973 -0.2951, -0.599 1.2402 -0.311, -0.5841 1.5974 -0.2889, -0.6029 1.2402 -0.3076, -0.5846 1.5974 -0.2883, -0.6062 1.2402 -0.3037, -0.6091 1.2402 -0.2994, -0.5665 1.597 -0.299, -0.5852 1.2402 -0.3177, -0.5676 1.597 -0.2986, -0.5901 1.2402 -0.3161, -0.5947 1.2402 -0.3138, -0.5591 1.5967 -0.3, -0.5661 1.597 -0.2991, -0.5637 1.5969 -0.2994, -0.5613 1.5968 -0.2998, 0.5564 1.5965 -0.3004, 0.5564 1.606 -0.2987, -0.5564 1.606 -0.2987, 0.5564 1.6063 -0.2986, -0.5564 1.6063 -0.2986, 0.5564 1.6151 -0.2946, -0.5564 1.6151 -0.2946, 0.5564 1.6153 -0.2945, -0.5564 1.6153 -0.2945, 0.5564 1.6229 -0.2883, -0.5564 1.6229 -0.2883, 0.5564 1.623 -0.2882, -0.5564 1.623 -0.2882, 0.5564 1.6289 -0.2803, -0.5564 1.6289 -0.2803, 0.5564 1.6289 -0.2802, -0.5564 1.6289 -0.2802, 0.5564 1.6326 -0.271, -0.5564 1.6326 -0.271, 0.5564 1.6326 -0.2709, -0.5564 1.6326 -0.2709, -0.5564 1.6339 -0.2611, 0.5564 1.6339 -0.2611, 0.575 1.2402 -0.3191, 0.5852 1.2402 -0.3177, 0.5574 1.5966 -0.3003, 0.5591 1.5967 -0.3, 0.5613 1.5968 -0.2998, 0.5637 1.5969 -0.2994, 0.5661 1.597 -0.2991, 0.5665 1.597 -0.299, 0.5901 1.2402 -0.3161, 0.5676 1.597 -0.2986, 0.5947 1.2402 -0.3138, 0.576 1.5973 -0.2951, 0.599 1.2402 -0.311, 0.5841 1.5974 -0.2889, 0.6029 1.2402 -0.3076, 0.6062 1.2402 -0.3037, 0.5846 1.5974 -0.2883, 0.6091 1.2402 -0.2994, 0.5904 1.5973 -0.2807, 0.6114 1.2402 -0.2948, 0.5943 1.597 -0.2713, 0.613 1.2402 -0.29, 0.6144 1.2402 -0.2798, 0.5944 1.597 -0.271, 0.5957 1.5965 -0.2611, -0.5928 1.6057 -0.271, -0.5836 1.6028 -0.2883, -0.5761 1.6006 -0.2946, -0.5674 1.5979 -0.2987, -0.5662 1.6006 -0.2987, -0.5644 1.6028 -0.2987, -0.562 1.6046 -0.2987, -0.5593 1.6057 -0.2987, -0.594 1.606 -0.2611, -0.5939 1.6063 -0.2611, -0.5888 1.6145 -0.271, -0.5899 1.6151 -0.2611, -0.5897 1.6153 -0.2611, -0.5827 1.622 -0.271, -0.5836 1.6229 -0.2611, -0.5835 1.623 -0.2611, -0.5749 1.6278 -0.271, -0.5756 1.6289 -0.2611, -0.5755 1.6289 -0.2611, -0.566 1.6314 -0.271, -0.5662 1.6326 -0.2611, -0.5663 1.6326 -0.2611, -0.5892 1.6046 -0.2803, -0.5856 1.6125 -0.2803, -0.5801 1.6193 -0.2803, -0.5731 1.6245 -0.2803, -0.565 1.6278 -0.2803, -0.5635 1.622 -0.2883, -0.5702 1.6193 -0.2883, -0.576 1.615 -0.2883, -0.5806 1.6094 -0.2883, -0.574 1.6053 -0.2946, -0.5707 1.6094 -0.2946, -0.5664 1.6125 -0.2946, -0.5616 1.6145 -0.2946, 0.5939 1.6063 -0.2611, 0.594 1.606 -0.2611, 0.5928 1.6057 -0.271, 0.5897 1.6153 -0.2611, 0.5899 1.6151 -0.2611, 0.5888 1.6145 -0.271, 0.5835 1.623 -0.2611, 0.5836 1.6229 -0.2611, 0.5827 1.622 -0.271, 0.5755 1.6289 -0.2611, 0.5756 1.6289 -0.2611, 0.5749 1.6278 -0.271, 0.5674 1.5979 -0.2987, 0.5593 1.6057 -0.2987, 0.5761 1.6006 -0.2946, 0.5836 1.6028 -0.2883, 0.5892 1.6046 -0.2803, 0.5663 1.6326 -0.2611, 0.566 1.6314 -0.271, 0.5662 1.6326 -0.2611, 0.565 1.6278 -0.2803, 0.5635 1.622 -0.2883, 0.5616 1.6145 -0.2946, 0.5731 1.6245 -0.2803, 0.5702 1.6193 -0.2883, 0.5664 1.6125 -0.2946, 0.562 1.6046 -0.2987, 0.5801 1.6193 -0.2803, 0.576 1.615 -0.2883, 0.5707 1.6094 -0.2946, 0.5644 1.6028 -0.2987, 0.5856 1.6125 -0.2803, 0.5806 1.6094 -0.2883, 0.574 1.6053 -0.2946, 0.5662 1.6006 -0.2987, -0.5591 1.5967 0.3, -0.575 1.2402 0.3191, -0.5574 1.5966 0.3003, -0.5564 1.5965 0.3004, -0.5613 1.5968 0.2998, -0.5637 1.5969 0.2994, -0.5852 1.2402 0.3177, -0.5661 1.597 0.2991, -0.5665 1.597 0.299, -0.5901 1.2402 0.3161, -0.5676 1.597 0.2986, -0.5947 1.2402 0.3138, -0.576 1.5973 0.2951, -0.599 1.2402 0.311, -0.5841 1.5974 0.2889, -0.6029 1.2402 0.3076, -0.6062 1.2402 0.3037, -0.5846 1.5974 0.2883, -0.6091 1.2402 0.2994, -0.5904 1.5973 0.2807, -0.6114 1.2402 0.2948, -0.5943 1.597 0.2713, -0.613 1.2402 0.29, -0.6144 1.2402 0.2798, -0.5944 1.597 0.271, -0.5957 1.5965 0.2611, -0.594 1.606 0.2611, -0.5939 1.6063 0.2611, -0.5899 1.6151 0.2611, -0.5897 1.6153 0.2611, -0.5836 1.6229 0.2611, -0.5835 1.623 0.2611, -0.5756 1.6289 0.2611, -0.5755 1.6289 0.2611, -0.5663 1.6326 0.2611, -0.5662 1.6326 0.2611, -0.5564 1.6339 0.2611, 0.5957 1.5965 0.2611, 0.594 1.606 0.2611, 0.5939 1.6063 0.2611, 0.5899 1.6151 0.2611, 0.5897 1.6153 0.2611, 0.5836 1.6229 0.2611, 0.5835 1.623 0.2611, 0.5756 1.6289 0.2611, 0.5755 1.6289 0.2611, 0.5663 1.6326 0.2611, 0.5662 1.6326 0.2611, 0.5564 1.6339 0.2611, 0.6144 1.2402 0.2798, 0.5944 1.597 0.271, 0.613 1.2402 0.29, 0.5943 1.597 0.2713, 0.6114 1.2402 0.2948, 0.5904 1.5973 0.2807, 0.6091 1.2402 0.2994, 0.6062 1.2402 0.3037, 0.5846 1.5974 0.2883, 0.6029 1.2402 0.3076, 0.5841 1.5974 0.2889, 0.599 1.2402 0.311, 0.576 1.5973 0.2951, 0.5947 1.2402 0.3138, 0.5637 1.5969 0.2994, 0.5613 1.5968 0.2998, 0.575 1.2402 0.3191, 0.5901 1.2402 0.3161, 0.5676 1.597 0.2986, 0.5852 1.2402 0.3177, 0.5665 1.597 0.299, 0.5661 1.597 0.2991, 0.5591 1.5967 0.3, 0.5574 1.5966 0.3003, 0.5564 1.5965 0.3004, -0.566 1.6314 0.271, -0.5749 1.6278 0.271, -0.5827 1.622 0.271, -0.5888 1.6145 0.271, -0.5928 1.6057 0.271, -0.5674 1.5979 0.2987, -0.5593 1.6057 0.2987, -0.5761 1.6006 0.2946, -0.5836 1.6028 0.2883, -0.5892 1.6046 0.2803, -0.5564 1.606 0.2987, -0.5564 1.6063 0.2986, -0.5616 1.6145 0.2946, -0.5564 1.6151 0.2946, -0.5564 1.6153 0.2945, -0.5635 1.622 0.2883, -0.5564 1.6229 0.2883, -0.5564 1.623 0.2882, -0.565 1.6278 0.2803, -0.5564 1.6289 0.2803, -0.5564 1.6289 0.2802, -0.5856 1.6125 0.2803, -0.5806 1.6094 0.2883, -0.574 1.6053 0.2946, -0.5662 1.6006 0.2987, -0.5801 1.6193 0.2803, -0.576 1.615 0.2883, -0.5707 1.6094 0.2946, -0.5644 1.6028 0.2987, -0.5731 1.6245 0.2803, -0.5702 1.6193 0.2883, -0.5664 1.6125 0.2946, -0.562 1.6046 0.2987, -0.5564 1.6326 0.2709, -0.5564 1.6326 0.271, 0.5888 1.6145 0.271, 0.5827 1.622 0.271, 0.5749 1.6278 0.271, 0.5928 1.6057 0.271, 0.5836 1.6028 0.2883, 0.5892 1.6046 0.2803, 0.5674 1.5979 0.2987, 0.5761 1.6006 0.2946, 0.5564 1.606 0.2987, 0.5593 1.6057 0.2987, 0.5564 1.6063 0.2986, 0.5616 1.6145 0.2946, 0.5635 1.622 0.2883, 0.5564 1.6153 0.2945, 0.5564 1.6151 0.2946, 0.565 1.6278 0.2803, 0.5564 1.623 0.2882, 0.5564 1.6229 0.2883, 0.5564 1.6326 0.2709, 0.5564 1.6326 0.271, 0.566 1.6314 0.271, 0.5564 1.6289 0.2802, 0.5564 1.6289 0.2803, 0.5731 1.6245 0.2803, 0.5702 1.6193 0.2883, 0.5664 1.6125 0.2946, 0.562 1.6046 0.2987, 0.5801 1.6193 0.2803, 0.576 1.615 0.2883, 0.5707 1.6094 0.2946, 0.5644 1.6028 0.2987, 0.5856 1.6125 0.2803, 0.5806 1.6094 0.2883, 0.574 1.6053 0.2946, 0.5662 1.6006 0.2987, 0.5662 1.6006 0.2987
            ]
        }
        coordIndex [
            0,1,2,-1,3,4,5,-1,5,4,6,-1,5,6,7,-1,7,6,8,-1,7,8,9,-1,10,11,12,-1,12,11,13,-1,12,13,14,-1,14,13,15,-1,14,15,3,-1,3,15,16,-1,3,16,4,-1,17,18,19,-1,19,18,20,-1,19,20,10,-1,10,20,21,-1,10,21,11,-1,0,2,22,-1,17,23,18,-1,18,23,24,-1,18,24,2,-1,2,24,25,-1,2,25,22,-1,26,1,27,-1,27,1,28,-1,27,28,29,-1,29,28,30,-1,29,30,31,-1,31,30,32,-1,31,32,33,-1,33,32,34,-1,33,34,35,-1,35,34,36,-1,35,36,37,-1,37,36,38,-1,37,38,39,-1,39,38,40,-1,39,40,41,-1,41,40,42,-1,41,42,43,-1,43,42,44,-1,43,44,45,-1,44,46,45,-1,45,46,47,-1,45,47,48,-1,49,26,50,-1,50,26,51,-1,51,52,50,-1,50,52,53,-1,50,53,54,-1,54,55,50,-1,50,55,56,-1,50,56,57,-1,57,56,58,-1,57,58,59,-1,59,58,60,-1,59,60,61,-1,61,60,62,-1,61,62,63,-1,63,62,64,-1,64,62,65,-1,64,65,66,-1,66,65,67,-1,66,67,68,-1,68,67,69,-1,68,69,70,-1,70,69,71,-1,71,69,72,-1,71,72,73,-1,5,7,74,-1,74,7,9,-1,12,14,75,-1,75,14,3,-1,76,10,12,-1,17,19,77,-1,77,19,10,-1,17,77,23,-1,23,77,78,-1,23,78,24,-1,24,78,79,-1,24,79,25,-1,25,79,80,-1,25,80,22,-1,22,80,81,-1,22,81,0,-1,0,81,28,-1,0,28,1,-1,9,82,74,-1,74,82,83,-1,74,83,84,-1,83,85,84,-1,84,85,86,-1,84,86,87,-1,86,88,87,-1,87,88,89,-1,87,89,90,-1,89,91,90,-1,90,91,92,-1,90,92,93,-1,47,46,94,-1,94,46,93,-1,94,93,95,-1,95,93,92,-1,5,74,96,-1,96,74,84,-1,96,84,97,-1,97,84,87,-1,97,87,98,-1,98,87,90,-1,98,90,99,-1,99,90,93,-1,99,93,100,-1,46,44,93,-1,93,44,42,-1,93,42,100,-1,100,42,40,-1,100,40,38,-1,38,101,100,-1,100,101,102,-1,100,102,99,-1,99,102,103,-1,99,103,98,-1,98,103,104,-1,98,104,97,-1,97,104,75,-1,97,75,96,-1,96,75,3,-1,96,3,5,-1,12,75,76,-1,76,75,104,-1,76,104,105,-1,105,104,103,-1,105,103,106,-1,106,103,102,-1,106,102,107,-1,107,102,101,-1,107,101,108,-1,38,36,101,-1,101,36,34,-1,101,34,108,-1,108,34,32,-1,108,32,30,-1,10,76,77,-1,77,76,105,-1,77,105,78,-1,78,105,106,-1,78,106,79,-1,79,106,107,-1,79,107,80,-1,80,107,108,-1,80,108,81,-1,81,108,30,-1,81,30,28,-1,109,110,111,-1,112,113,114,-1,115,116,117,-1,118,119,120,-1,56,55,121,-1,122,51,26,-1,56,121,58,-1,58,121,123,-1,58,123,60,-1,60,123,62,-1,62,123,124,-1,62,124,65,-1,65,124,125,-1,65,125,67,-1,67,125,69,-1,69,125,111,-1,69,111,72,-1,72,111,110,-1,72,110,73,-1,126,127,128,-1,128,127,45,-1,128,45,48,-1,129,41,127,-1,127,41,43,-1,127,43,45,-1,130,37,129,-1,129,37,39,-1,129,39,41,-1,131,33,130,-1,130,33,35,-1,130,35,37,-1,26,27,122,-1,122,27,29,-1,122,29,131,-1,131,29,31,-1,131,31,33,-1,126,118,127,-1,127,118,120,-1,127,120,129,-1,129,120,132,-1,129,132,130,-1,130,132,133,-1,130,133,131,-1,131,133,134,-1,131,134,122,-1,122,134,135,-1,122,135,51,-1,51,135,52,-1,119,115,120,-1,120,115,117,-1,120,117,132,-1,132,117,136,-1,132,136,133,-1,133,136,137,-1,133,137,134,-1,134,137,138,-1,134,138,135,-1,135,138,139,-1,135,139,52,-1,52,139,53,-1,116,112,117,-1,117,112,114,-1,117,114,136,-1,136,114,140,-1,136,140,137,-1,137,140,141,-1,137,141,138,-1,138,141,142,-1,138,142,139,-1,139,142,143,-1,139,143,53,-1,53,143,54,-1,113,109,114,-1,114,109,111,-1,114,111,140,-1,140,111,125,-1,140,125,141,-1,141,125,124,-1,141,124,142,-1,142,124,123,-1,142,123,143,-1,143,123,121,-1,143,121,54,-1,54,121,55,-1,144,145,146,-1,146,145,147,-1,144,148,145,-1,145,148,149,-1,145,149,150,-1,149,151,150,-1,150,151,152,-1,150,152,153,-1,153,152,154,-1,153,154,155,-1,155,154,156,-1,155,156,157,-1,157,156,158,-1,157,158,159,-1,159,158,160,-1,160,158,161,-1,160,161,162,-1,162,161,163,-1,162,163,164,-1,164,163,165,-1,164,165,166,-1,166,165,167,-1,167,165,168,-1,167,168,169,-1,9,169,82,-1,82,169,170,-1,82,170,83,-1,83,170,171,-1,83,171,85,-1,85,171,172,-1,85,172,86,-1,86,172,173,-1,86,173,88,-1,88,173,174,-1,88,174,89,-1,89,174,175,-1,89,175,91,-1,91,175,176,-1,91,176,92,-1,92,176,177,-1,92,177,95,-1,95,177,178,-1,95,178,94,-1,178,179,94,-1,94,179,180,-1,94,180,47,-1,181,73,182,-1,182,73,110,-1,182,110,183,-1,183,110,109,-1,183,109,184,-1,184,109,113,-1,184,113,185,-1,185,113,112,-1,185,112,186,-1,186,112,116,-1,186,116,187,-1,187,116,115,-1,187,115,188,-1,188,115,119,-1,188,119,189,-1,189,119,118,-1,189,118,190,-1,190,118,126,-1,190,126,191,-1,126,128,191,-1,191,128,48,-1,191,48,192,-1,193,181,194,-1,193,194,195,-1,195,194,196,-1,195,196,197,-1,197,196,198,-1,197,198,199,-1,199,198,200,-1,200,198,201,-1,200,201,202,-1,202,201,203,-1,202,203,204,-1,204,203,205,-1,204,205,206,-1,207,208,209,-1,206,205,210,-1,210,205,211,-1,210,211,212,-1,212,211,213,-1,212,213,209,-1,209,213,214,-1,209,214,207,-1,208,215,209,-1,209,215,216,-1,209,216,217,-1,179,178,218,-1,177,176,219,-1,175,174,220,-1,173,172,221,-1,171,170,222,-1,152,151,223,-1,224,146,147,-1,152,223,154,-1,154,223,225,-1,154,225,156,-1,156,225,158,-1,158,225,226,-1,158,226,161,-1,161,226,227,-1,161,227,163,-1,163,227,165,-1,165,227,222,-1,165,222,168,-1,168,222,170,-1,168,170,169,-1,147,228,224,-1,224,228,229,-1,224,229,230,-1,229,231,230,-1,230,231,232,-1,230,232,233,-1,232,234,233,-1,233,234,235,-1,233,235,236,-1,235,237,236,-1,236,237,238,-1,236,238,218,-1,172,171,221,-1,221,171,222,-1,221,222,239,-1,239,222,227,-1,239,227,240,-1,240,227,226,-1,240,226,241,-1,241,226,225,-1,241,225,242,-1,242,225,223,-1,242,223,149,-1,149,223,151,-1,174,173,220,-1,220,173,221,-1,220,221,243,-1,243,221,239,-1,243,239,244,-1,244,239,240,-1,244,240,245,-1,245,240,241,-1,245,241,246,-1,246,241,242,-1,246,242,148,-1,148,242,149,-1,176,175,219,-1,219,175,220,-1,219,220,247,-1,247,220,243,-1,247,243,248,-1,248,243,244,-1,248,244,249,-1,249,244,245,-1,249,245,250,-1,250,245,246,-1,250,246,144,-1,144,246,148,-1,178,177,218,-1,218,177,219,-1,218,219,236,-1,236,219,247,-1,236,247,233,-1,233,247,248,-1,233,248,230,-1,230,248,249,-1,230,249,224,-1,224,249,250,-1,224,250,146,-1,146,250,144,-1,180,179,251,-1,251,179,218,-1,251,218,252,-1,252,218,238,-1,183,184,253,-1,185,186,254,-1,187,188,255,-1,181,182,256,-1,257,198,258,-1,258,198,196,-1,258,196,256,-1,256,196,194,-1,256,194,181,-1,259,205,260,-1,260,205,203,-1,260,203,257,-1,257,203,201,-1,257,201,198,-1,214,213,259,-1,259,213,211,-1,259,211,205,-1,217,216,261,-1,261,216,262,-1,261,262,263,-1,263,262,264,-1,265,266,264,-1,264,266,267,-1,264,267,263,-1,268,269,265,-1,265,269,270,-1,265,270,266,-1,271,272,273,-1,273,272,274,-1,273,274,268,-1,268,274,275,-1,268,275,269,-1,192,271,191,-1,191,271,273,-1,191,273,190,-1,190,273,189,-1,188,189,255,-1,255,189,273,-1,255,273,276,-1,276,273,268,-1,276,268,277,-1,277,268,265,-1,277,265,278,-1,278,265,264,-1,278,264,279,-1,279,264,262,-1,279,262,215,-1,215,262,216,-1,186,187,254,-1,254,187,255,-1,254,255,280,-1,280,255,276,-1,280,276,281,-1,281,276,277,-1,281,277,282,-1,282,277,278,-1,282,278,283,-1,283,278,279,-1,283,279,208,-1,208,279,215,-1,184,185,253,-1,253,185,254,-1,253,254,284,-1,284,254,280,-1,284,280,285,-1,285,280,281,-1,285,281,286,-1,286,281,282,-1,286,282,287,-1,287,282,283,-1,287,283,207,-1,207,283,208,-1,182,183,256,-1,256,183,253,-1,256,253,258,-1,258,253,284,-1,258,284,257,-1,257,284,285,-1,257,285,260,-1,260,285,286,-1,260,286,259,-1,259,286,287,-1,259,287,214,-1,214,287,207,-1,147,217,228,-1,228,217,261,-1,228,261,229,-1,229,261,263,-1,229,263,231,-1,231,263,267,-1,231,267,232,-1,232,267,266,-1,232,266,234,-1,234,266,270,-1,234,270,235,-1,235,270,269,-1,235,269,237,-1,237,269,275,-1,237,275,238,-1,238,275,274,-1,238,274,252,-1,252,274,272,-1,252,272,251,-1,272,271,251,-1,251,271,192,-1,251,192,180,-1,
        ]
    }
}
Shape{
    appearance Appearance {
        material  Material 	{
            diffuseColor 0.5019607843137255 0.5019607843137255 0.5019607843137255
            specularColor 0.44313725490196076 0.44313725490196076 0.44313725490196076
            ambientIntensity 0.2
            transparency 0
            shininess 0.5
        }
    }
    geometry IndexedFaceSet {
        ccw TRUE
        solid FALSE
        coord DEF co Coordinate {
            point [
                1.122 0.4528 -1.9291, 1.122 0.3346 -1.9291, 1.1174 0.3346 -1.9648, 1.1174 0.4528 -1.9648, 1.1036 0.3346 -1.998, 1.1036 0.4528 -1.998, 1.0817 0.3346 -2.0266, 1.0817 0.4528 -2.0266, 1.0531 0.3346 -2.0485, 1.0531 0.4528 -2.0485, 1.0199 0.3346 -2.0622, 1.0199 0.4528 -2.0622, 0.9843 0.3346 -2.0669, 0.9843 0.4528 -2.0669, 0.8465 0.3346 -1.9291, 0.8465 0.4528 -1.9291, 0.8512 0.4528 -1.9648, 0.8512 0.3346 -1.9648, 0.8649 0.4528 -1.998, 0.8649 0.3346 -1.998, 0.8868 0.4528 -2.0266, 0.8868 0.3346 -2.0266, 0.9154 0.4528 -2.0485, 0.9154 0.3346 -2.0485, 0.9486 0.4528 -2.0622, 0.9486 0.3346 -2.0622, -0.8465 0.4528 -1.9291, -0.8465 0.3346 -1.9291, -0.8512 0.3346 -1.9648, -0.8512 0.4528 -1.9648, -0.8649 0.3346 -1.998, -0.8649 0.4528 -1.998, -0.8868 0.3346 -2.0266, -0.8868 0.4528 -2.0266, -0.9154 0.3346 -2.0485, -0.9154 0.4528 -2.0485, -0.9486 0.3346 -2.0622, -0.9486 0.4528 -2.0622, -0.9843 0.3346 -2.0669, -0.9843 0.4528 -2.0669, -1.122 0.3346 -1.9291, -1.122 0.4528 -1.9291, -1.1174 0.4528 -1.9648, -1.1174 0.3346 -1.9648, -1.1036 0.4528 -1.998, -1.1036 0.3346 -1.998, -1.0817 0.4528 -2.0266, -1.0817 0.3346 -2.0266, -1.0531 0.4528 -2.0485, -1.0531 0.3346 -2.0485, -1.0199 0.4528 -2.0622, -1.0199 0.3346 -2.0622, 1.3189 -0.3937 -0.685, 1.3189 -0.7874 -0.685, 1.3583 -0.3937 -0.685, 1.3583 -0.7874 -0.685, 1.3189 -0.7848 -1.9017, 1.3189 -0.3963 -1.9017, 1.3189 -0.7807 -1.921, 1.3189 -0.4004 -1.921, 1.3189 -0.4201 -1.9685, 1.3189 -0.4514 -2.0093, 1.3189 -0.4921 -2.0406, 1.3189 -0.5396 -2.0602, 1.3189 -0.5906 -2.0669, 1.3189 -0.6415 -2.0602, 1.3189 -0.689 -2.0406, 1.3189 -0.7297 -2.0093, 1.3189 -0.761 -1.9685, 1.437 -0.7297 -2.0093, 1.437 -0.689 -2.0406, 1.437 -0.6415 -2.0602, 1.437 -0.5906 -2.0669, 1.437 -0.5396 -2.0602, 1.437 -0.7807 -1.921, 1.437 -0.4921 -2.0406, 1.437 -0.4514 -2.0093, 1.437 -0.3963 -1.9017, 1.437 -0.7848 -1.9017, 1.437 -0.4004 -1.921, 1.437 -0.4201 -1.9685, 1.437 -0.761 -1.9685, 1.4388 -0.394 -1.8812, 1.4528 -0.3937 -1.8427, 1.4528 -0.7874 -1.8427, 1.4441 -0.3937 -1.8613, 1.4441 -0.7874 -1.8613, 1.4413 -0.3937 -1.8701, 1.4413 -0.7874 -1.8701, 1.4388 -0.7871 -1.8812, 1.6314 -0.7874 -1.5335, 1.6314 -0.3937 -1.5335, 1.6432 -0.3937 -1.505, 1.6432 -0.7874 -1.505, 1.6472 -0.3937 -1.4744, 1.6472 -0.7874 -1.4744, 1.6432 -0.3937 -1.4438, 1.6432 -0.7874 -1.4438, 1.6314 -0.3937 -1.4154, 1.6314 -0.7874 -1.4154, 1.4528 -0.7874 -1.1061, 1.4528 -0.3937 -1.1061, 1.441 -0.7874 -1.0777, 1.441 -0.3937 -1.0777, 1.437 -0.7874 -1.0471, 1.437 -0.3937 -1.0471, 1.3189 -0.7874 -1.0471, 1.3189 -0.3937 -1.0471, 1.3269 -0.3937 -1.1082, 1.3269 -0.7874 -1.1082, 1.3505 -0.3937 -1.1652, 1.3505 -0.7874 -1.1652, 1.5291 -0.7874 -1.4744, 1.5291 -0.3937 -1.4744, 1.3505 -0.7874 -1.7836, 1.3505 -0.3937 -1.7836, 1.321 -0.7874 -1.8701, 1.321 -0.3937 -1.8701, 1.3225 -0.7874 -1.8607, 1.3225 -0.3937 -1.8607, 1.3331 -0.7874 -1.8209, 1.3331 -0.3937 -1.8209, 1.3583 -0.7874 -0.9606, 1.437 -0.7874 -0.9606, 1.437 -0.3937 -0.685, 1.437 -1.0433 -0.9606, 1.3583 -1.0433 -0.9606, 1.437 -0.8465 0.685, 1.3583 -0.8465 0.685, 1.3583 -0.8974 0.6783, 1.437 -0.8974 0.6783, 1.3583 -0.9449 0.6587, 1.437 -0.9449 0.6587, 1.3583 -0.9857 0.6274, 1.437 -0.9857 0.6274, 1.3583 -1.0169 0.5866, 1.437 -1.0169 0.5866, 1.3583 -1.0366 0.5391, 1.437 -1.0366 0.5391, 1.3583 -1.0433 0.4882, 1.437 -1.0433 0.4882, 1.3583 0.0984 0.1575, 1.3583 0.6102 0.1575, 1.437 0.0984 0.1575, 1.437 0.6102 0.1575, 1.3583 0.6102 -0.1575, 1.437 0.6102 -0.1575, 1.3583 0.0984 -0.1575, 1.437 0.0984 -0.1575, -1.3583 1.3189 0.685, -1.3583 1.3189 -0.685, -1.3786 1.3162 -0.685, -1.3786 1.3162 0.685, -1.3976 1.3083 -0.685, -1.3976 1.3083 0.685, -1.4139 1.2958 -0.685, -1.4139 1.2958 0.685, -1.4265 1.2795 -0.685, -1.4265 1.2795 0.685, -1.4343 1.2605 -0.685, -1.4343 1.2605 0.685, -1.437 1.2402 -0.685, -1.437 1.2402 0.685, -1.437 -1.0433 -0.9606, -1.3583 -1.0433 -0.9606, -1.437 -1.0433 0.685, -1.3583 -1.0433 0.685, -1.3189 -0.3963 -1.9017, -1.3189 -0.7848 -1.9017, -1.3189 -0.4004 -1.921, -1.3189 -0.7807 -1.921, -1.3189 -0.4201 -1.9685, -1.3189 -0.5906 -2.0669, -1.3189 -0.5396 -2.0602, -1.3189 -0.7297 -2.0093, -1.3189 -0.689 -2.0406, -1.3189 -0.6415 -2.0602, -1.3189 -0.761 -1.9685, -1.3189 -0.4921 -2.0406, -1.3189 -0.4514 -2.0093, -1.321 -0.7874 -1.8701, -1.321 -0.3937 -1.8701, -1.3225 -0.7874 -1.8607, -1.3225 -0.3937 -1.8607, -1.3331 -0.3937 -1.8209, -1.3331 -0.7874 -1.8209, -1.3505 -0.3937 -1.7836, -1.3505 -0.7874 -1.7836, -1.5291 -0.7874 -1.4744, -1.5291 -0.3937 -1.4744, -1.3505 -0.7874 -1.1652, -1.3505 -0.3937 -1.1652, -1.3269 -0.3937 -1.1082, -1.3269 -0.7874 -1.1082, -1.3189 -0.3937 -1.0471, -1.3189 -0.7874 -1.0471, -1.3189 -0.7874 -0.685, -1.3189 -0.3937 -0.685, -1.3583 -0.7874 -0.685, -1.3583 -0.3937 -0.685, -1.437 -0.7874 -1.0471, -1.437 -0.3937 -1.0471, -1.4388 -0.7874 -1.0676, -1.4388 -0.3937 -1.0676, -1.4441 -0.7874 -1.0875, -1.4441 -0.3937 -1.0875, -1.4528 -0.7874 -1.1061, -1.4528 -0.3937 -1.1061, -1.6314 -0.7874 -1.4154, -1.6314 -0.3937 -1.4154, -1.6432 -0.3937 -1.4438, -1.6432 -0.7874 -1.4438, -1.6472 -0.3937 -1.4744, -1.6472 -0.7874 -1.4744, -1.6432 -0.3937 -1.505, -1.6432 -0.7874 -1.505, -1.6314 -0.3937 -1.5335, -1.6314 -0.7874 -1.5335, -1.4528 -0.7874 -1.8427, -1.4528 -0.3937 -1.8427, -1.437 -0.3963 -1.9017, -1.437 -0.7848 -1.9017, -1.4388 -0.7871 -1.8812, -1.4441 -0.7874 -1.8613, -1.4441 -0.3937 -1.8613, -1.4413 -0.7874 -1.8701, -1.4413 -0.3937 -1.8701, -1.4388 -0.394 -1.8812, -1.437 -0.4004 -1.921, -1.437 -0.5906 -2.0669, -1.437 -0.6415 -2.0602, -1.437 -0.7807 -1.921, -1.437 -0.4201 -1.9685, -1.437 -0.4514 -2.0093, -1.437 -0.4921 -2.0406, -1.437 -0.5396 -2.0602, -1.437 -0.689 -2.0406, -1.437 -0.7297 -2.0093, -1.437 -0.761 -1.9685, -1.437 -0.3937 -0.685, -1.3583 -0.7874 -0.9606, -1.437 -0.7874 -0.9606, -1.3583 0.6102 0.1575, -1.3583 0.0984 0.1575, -1.437 0.6102 0.1575, -1.437 0.0984 0.1575, -1.3583 0.0984 -0.1575, -1.437 0.0984 -0.1575, -1.3583 0.6102 -0.1575, -1.437 0.6102 -0.1575, -1.437 0.6102 -0.1575
            ]
        }
        coordIndex [
            0,1,2,-1,0,2,3,-1,3,2,4,-1,3,4,5,-1,5,4,6,-1,5,6,7,-1,7,6,8,-1,7,8,9,-1,9,8,10,-1,9,10,11,-1,11,10,12,-1,11,12,13,-1,14,15,16,-1,14,16,17,-1,17,16,18,-1,17,18,19,-1,19,18,20,-1,19,20,21,-1,21,20,22,-1,21,22,23,-1,23,22,24,-1,23,24,25,-1,25,24,13,-1,25,13,12,-1,26,27,28,-1,26,28,29,-1,29,28,30,-1,29,30,31,-1,31,30,32,-1,31,32,33,-1,33,32,34,-1,33,34,35,-1,35,34,36,-1,35,36,37,-1,37,36,38,-1,37,38,39,-1,40,41,42,-1,40,42,43,-1,43,42,44,-1,43,44,45,-1,45,44,46,-1,45,46,47,-1,47,46,48,-1,47,48,49,-1,49,48,50,-1,49,50,51,-1,51,50,39,-1,51,39,38,-1,52,53,54,-1,54,53,55,-1,56,57,58,-1,58,57,59,-1,59,60,58,-1,58,60,61,-1,58,61,62,-1,62,63,58,-1,58,63,64,-1,58,64,65,-1,66,67,65,-1,65,67,68,-1,65,68,58,-1,69,70,71,-1,72,73,74,-1,74,73,75,-1,74,75,76,-1,77,78,79,-1,79,78,74,-1,79,74,80,-1,80,74,76,-1,72,74,71,-1,71,74,81,-1,71,81,69,-1,78,77,82,-1,83,84,85,-1,85,84,86,-1,85,86,87,-1,87,86,88,-1,87,88,82,-1,82,88,89,-1,82,89,78,-1,90,84,91,-1,91,84,83,-1,90,91,92,-1,90,92,93,-1,93,92,94,-1,93,94,95,-1,95,94,96,-1,95,96,97,-1,97,96,98,-1,97,98,99,-1,100,99,101,-1,101,99,98,-1,100,101,102,-1,102,101,103,-1,102,103,104,-1,104,103,105,-1,106,53,107,-1,107,53,52,-1,106,107,108,-1,106,108,109,-1,109,108,110,-1,109,110,111,-1,112,111,113,-1,113,111,110,-1,114,112,115,-1,115,112,113,-1,57,56,116,-1,57,116,117,-1,117,116,118,-1,117,118,119,-1,119,118,120,-1,119,120,121,-1,121,120,114,-1,121,114,115,-1,93,95,112,-1,55,53,122,-1,122,53,106,-1,116,88,118,-1,118,88,86,-1,118,86,120,-1,123,122,104,-1,104,122,106,-1,104,106,102,-1,102,106,109,-1,102,109,100,-1,100,109,111,-1,100,111,99,-1,99,111,112,-1,99,112,97,-1,97,112,95,-1,120,86,114,-1,114,86,84,-1,114,84,112,-1,112,84,90,-1,112,90,93,-1,96,94,113,-1,54,124,105,-1,94,92,113,-1,113,92,91,-1,113,91,115,-1,115,91,83,-1,115,83,121,-1,121,83,85,-1,121,85,119,-1,119,85,87,-1,119,87,117,-1,52,54,107,-1,107,54,105,-1,107,105,108,-1,108,105,103,-1,108,103,110,-1,110,103,101,-1,110,101,113,-1,113,101,98,-1,113,98,96,-1,123,125,122,-1,122,125,126,-1,117,87,82,-1,117,82,57,-1,57,82,77,-1,57,77,59,-1,77,79,59,-1,59,79,80,-1,59,80,60,-1,60,80,76,-1,60,76,61,-1,61,76,75,-1,61,75,62,-1,62,75,73,-1,62,73,63,-1,63,73,72,-1,63,72,64,-1,89,88,116,-1,89,116,78,-1,78,116,56,-1,78,56,74,-1,56,58,74,-1,74,58,68,-1,74,68,81,-1,81,68,67,-1,81,67,69,-1,69,67,66,-1,69,66,70,-1,70,66,65,-1,70,65,71,-1,71,65,64,-1,71,64,72,-1,127,128,129,-1,127,129,130,-1,130,129,131,-1,130,131,132,-1,132,131,133,-1,132,133,134,-1,134,133,135,-1,134,135,136,-1,136,135,137,-1,136,137,138,-1,138,137,139,-1,138,139,140,-1,141,142,143,-1,143,142,144,-1,142,145,144,-1,144,145,146,-1,145,147,146,-1,146,147,148,-1,147,141,148,-1,148,141,143,-1,149,150,151,-1,149,151,152,-1,152,151,153,-1,152,153,154,-1,154,153,155,-1,154,155,156,-1,156,155,157,-1,156,157,158,-1,158,157,159,-1,158,159,160,-1,160,159,161,-1,160,161,162,-1,163,164,165,-1,165,164,166,-1,167,168,169,-1,169,168,170,-1,169,170,171,-1,172,173,170,-1,174,175,176,-1,172,170,176,-1,176,170,177,-1,176,177,174,-1,173,178,170,-1,170,178,179,-1,170,179,171,-1,168,167,180,-1,180,167,181,-1,180,181,182,-1,181,183,182,-1,182,183,184,-1,182,184,185,-1,185,184,186,-1,185,186,187,-1,188,187,189,-1,189,187,186,-1,190,188,191,-1,191,188,189,-1,190,191,192,-1,190,192,193,-1,193,192,194,-1,193,194,195,-1,196,195,197,-1,197,195,194,-1,196,197,198,-1,198,197,199,-1,200,201,202,-1,202,201,203,-1,202,203,204,-1,204,203,205,-1,204,205,206,-1,206,205,207,-1,208,206,209,-1,209,206,207,-1,208,209,210,-1,208,210,211,-1,211,210,212,-1,211,212,213,-1,213,212,214,-1,213,214,215,-1,215,214,216,-1,215,216,217,-1,218,217,219,-1,219,217,216,-1,220,221,222,-1,218,219,223,-1,223,219,224,-1,223,224,225,-1,225,224,226,-1,225,226,222,-1,222,226,227,-1,222,227,220,-1,221,220,228,-1,229,230,231,-1,221,228,231,-1,231,228,232,-1,231,232,233,-1,233,234,231,-1,231,234,235,-1,231,235,229,-1,236,237,230,-1,230,237,238,-1,230,238,231,-1,214,212,189,-1,199,197,194,-1,181,226,183,-1,183,226,224,-1,183,224,184,-1,212,210,189,-1,189,210,209,-1,189,209,191,-1,191,209,207,-1,191,207,192,-1,239,199,201,-1,201,199,194,-1,201,194,203,-1,203,194,192,-1,203,192,205,-1,205,192,207,-1,184,224,186,-1,186,224,219,-1,186,219,189,-1,189,219,216,-1,189,216,214,-1,164,163,240,-1,240,163,241,-1,227,226,181,-1,227,181,220,-1,220,181,167,-1,220,167,228,-1,167,169,228,-1,228,169,171,-1,228,171,232,-1,232,171,179,-1,232,179,233,-1,233,179,178,-1,233,178,234,-1,234,178,173,-1,234,173,235,-1,235,173,172,-1,235,172,229,-1,180,225,222,-1,180,222,168,-1,168,222,221,-1,168,221,170,-1,221,231,170,-1,170,231,238,-1,170,238,177,-1,177,238,237,-1,177,237,174,-1,174,237,236,-1,174,236,175,-1,175,236,230,-1,175,230,176,-1,176,230,229,-1,176,229,172,-1,242,243,244,-1,244,243,245,-1,243,246,245,-1,245,246,247,-1,246,248,247,-1,247,248,249,-1,248,242,249,-1,249,242,244,-1,
        ]
    }
}