#VRML V2.0 utf8
# 3D model generated by easyeda2kicad.py (https://github.com/uPesy/easyeda2kicad.py)

Shape{
    appearance Appearance {
        material  Material 	{
            diffuseColor 0.0 0.4196078431372549 0.5882352941176471
            specularColor 0.0 0.03137254901960784 0.043137254901960784
            ambientIntensity 0.2
            transparency 0
            shininess 0.5
        }
    }
    geometry IndexedFaceSet {
        ccw TRUE
        solid FALSE
        coord DEF co Coordinate {
            point [
                0.4016 0.0984 0.0, 0.4016 0.0423 0.0, 0.107 0.0423 0.0, -0.5984 0.0984 0.0, -0.5984 0.0423 0.0, -0.6732 0.0423 0.0, -0.4016 -0.0984 0.0, -0.6179 -0.4216 0.0, -0.5984 -0.0984 0.0, -0.6732 -0.3234 0.0, -0.5984 -0.0374 0.0, -0.6732 0.3234 0.0, -0.6179 0.4216 0.0, -0.4016 0.0984 0.0, -0.5371 0.5207 0.0, -0.4406 0.6045 0.0, -0.2849 0.0423 0.0, -0.4016 0.0423 0.0, -0.2849 -0.0374 0.0, -0.4016 -0.0374 0.0, 0.107 0.7376 0.0, 0.1673 0.7291 0.0, 0.289 0.6899 0.0, 0.5906 0.4591 0.0, 0.5906 0.0984 0.0, 0.5038 0.553 0.0, 0.4023 0.6307 0.0, -0.087 0.743 0.0, -0.0203 0.745 0.0, -0.0203 0.0423 0.0, 0.0374 0.7468 0.0, -0.3312 0.6707 0.0, -0.2849 0.6889 0.0, -0.2122 0.7173 0.0, -0.7453 0.0423 0.0, -0.7453 0.0639 0.0, -0.7235 0.1899 0.0, -0.6806 0.3103 0.0, -0.6732 -0.0374 0.0, -0.6806 -0.3103 0.0, -0.7235 -0.1899 0.0, -0.7453 -0.0639 0.0, -0.7453 -0.0374 0.0, -0.2849 -0.4232 0.0, -0.2849 -0.6889 0.0, -0.3312 -0.6707 0.0, -0.4406 -0.6045 0.0, -0.5371 -0.5207 0.0, -0.6166 -0.4232 0.0, -0.2122 -0.7173 0.0, -0.0942 -0.4232 0.0, -0.0942 -0.7415 0.0, -0.087 -0.743 0.0, -0.0203 -0.4232 0.0, -0.0203 -0.745 0.0, 0.0374 -0.4232 0.0, 0.0374 -0.7468 0.0, 0.0408 -0.7469 0.0, 0.107 -0.4232 0.0, 0.107 -0.7376 0.0, 0.5906 -0.4591 0.0, 0.5038 -0.553 0.0, 0.4023 -0.6307 0.0, 0.289 -0.6899 0.0, 0.1673 -0.7291 0.0, 0.4016 -0.0374 0.0, 0.4016 -0.0984 0.0, 0.5906 -0.4232 0.0, 0.5906 -0.0984 0.0, 0.1103 -0.0283 0.0, 0.107 -0.0374 0.0, 0.1103 -0.0369 0.0, 0.1507 -0.0369 0.0, 0.045 -0.0329 0.0, 0.0374 -0.0374 0.0, 0.045 -0.0242 0.0, 0.0374 0.0423 0.0, 0.0566 0.0423 0.0, 0.0541 0.0421 0.0, 0.045 0.0396 0.0, 0.045 0.0291 0.0, 0.0539 0.0329 0.0, 0.0464 -0.025 0.0, 0.0635 0.0341 0.0, 0.0712 0.0332 0.0, 0.0771 0.0311 0.0, 0.0826 0.0275 0.0, 0.0873 0.0222 0.0, 0.093 0.0016 0.0, 0.0923 -0.0069 0.0, 0.0901 -0.0137 0.0, 0.0726 -0.0284 0.0, 0.0652 -0.0293 0.0, 0.0783 -0.0263 0.0, 0.0832 -0.0231 0.0, 0.0869 -0.0192 0.0, 0.0548 -0.0281 0.0, 0.0906 0.0161 0.0, 0.0927 0.0077 0.0, 0.0904 -0.0302 0.0, 0.0963 -0.024 0.0, 0.1005 -0.0165 0.0, 0.0713 -0.0374 0.0, 0.0764 -0.0369 0.0, 0.084 -0.0343 0.0, 0.0995 0.0211 0.0, 0.0948 0.0284 0.0, 0.0877 0.0353 0.0, 0.0803 0.0396 0.0, 0.0408 0.7469 0.0, 0.0694 0.0423 0.0, 0.0715 0.0421 0.0, 0.1028 -0.0082 0.0, 0.1036 0.0009 0.0, 0.1025 0.0121 0.0, 0.0534 -0.0363 0.0, 0.0614 -0.0374 0.0, 0.0645 -0.0379 0.0, 0.0667 -0.0379 0.0, 0.1401 -0.0283 0.0, 0.1401 0.0418 0.0, 0.1507 0.0418 0.0, -0.0203 -0.0374 0.0, -0.0942 -0.0374 0.0, -0.0126 -0.0369 0.0, 0.0297 -0.0369 0.0, 0.0297 0.0418 0.0, -0.0107 0.0418 0.0, -0.0126 -0.0283 0.0, -0.0107 0.0332 0.0, 0.0636 0.0428 0.0, 0.0191 -0.0014 0.0, 0.0191 -0.0283 0.0, -0.0087 -0.0014 0.0, -0.0087 0.0072 0.0, 0.0191 0.0072 0.0, 0.0191 0.0332 0.0, -0.0874 -0.0154 0.0, -0.0829 -0.0224 0.0, -0.0764 -0.0286 0.0, -0.0682 -0.0334 0.0, -0.0942 0.7415 0.0, -0.0942 0.0423 0.0, -0.0502 0.0418 0.0, -0.0615 0.0406 0.0, -0.0708 0.0373 0.0, -0.0793 0.0316 0.0, -0.0794 0.0315 0.0, -0.085 0.0254 0.0, -0.0886 0.0186 0.0, -0.0591 -0.0361 0.0, -0.0494 -0.0369 0.0, -0.0279 -0.0369 0.0, -0.0279 0.0418 0.0, -0.0907 0.0108 0.0, -0.0913 0.0034 0.0, -0.0902 -0.0071 0.0, -0.1566 -0.0369 0.0, -0.1681 -0.0369 0.0, -0.1374 0.0418 0.0, -0.1486 -0.0149 0.0, -0.1161 -0.0149 0.0, -0.1086 -0.0369 0.0, -0.0971 -0.0369 0.0, -0.1268 0.0418 0.0, 0.5906 0.4591 0.3937, 0.5906 0.0 0.3937, 0.5906 -0.4591 0.3937, 0.0408 0.7469 0.3937, 0.1673 0.7291 0.3937, 0.289 0.6899 0.3937, 0.4023 0.6307 0.3937, 0.5038 0.553 0.3937, -0.087 0.743 0.3937, -0.2122 0.7173 0.3937, -0.3312 0.6707 0.3937, -0.4406 0.6045 0.3937, -0.5371 0.5207 0.3937, -0.6179 0.4216 0.3937, -0.6806 0.3103 0.3937, -0.7235 0.1899 0.3937, -0.7453 0.0639 0.3937, -0.7453 -0.0639 0.3937, -0.7235 -0.1899 0.3937, -0.6806 -0.3103 0.3937, -0.6179 -0.4216 0.3937, -0.5371 -0.5207 0.3937, -0.4406 -0.6045 0.3937, -0.3312 -0.6707 0.3937, -0.2122 -0.7173 0.3937, -0.087 -0.743 0.3937, 0.0408 -0.7469 0.3937, 0.1673 -0.7291 0.3937, 0.289 -0.6899 0.3937, 0.4023 -0.6307 0.3937, 0.5038 -0.553 0.3937, 0.5666 -0.1664 0.3937, 0.5879 -0.0561 0.3937, 0.5249 -0.2706 0.3937, 0.4642 -0.3651 0.3937, 0.3867 -0.4463 0.3937, 0.2953 -0.5114 0.3937, 0.1932 -0.5581 0.3937, 0.084 -0.5845 0.3937, -0.0281 -0.5899 0.3937, 0.084 0.5845 0.3937, -0.5906 0.0 0.3937, -0.5799 -0.1118 0.3937, -0.5482 -0.2195 0.3937, -0.4968 -0.3193 0.3937, -0.4274 -0.4075 0.3937, -0.3426 -0.481 0.3937, -0.2453 -0.5372 0.3937, -0.1392 -0.5739 0.3937, 0.5249 0.2706 0.3937, 0.5666 0.1664 0.3937, 0.5879 0.0561 0.3937, -0.0281 0.5899 0.3937, -0.1392 0.5739 0.3937, -0.2453 0.5372 0.3937, -0.3426 0.481 0.3937, -0.4274 0.4075 0.3937, -0.4968 0.3193 0.3937, -0.5482 0.2195 0.3937, -0.5799 0.1118 0.3937, 0.1932 0.5581 0.3937, 0.2953 0.5114 0.3937, 0.3867 0.4463 0.3937, 0.4642 0.3651 0.3937, -0.5851 -0.0804 1.4961, -0.5687 -0.1593 1.4961, -0.5786 -0.1115 1.4961, -0.4961 -0.3188 1.4961, -0.5046 -0.3068 1.4961, -0.5417 -0.2353 1.4961, -0.5474 -0.2192 1.4961, -0.4581 -0.3727 1.4961, -0.4264 -0.4066 1.4961, -0.4031 -0.4316 1.4961, -0.3425 -0.4809 1.4961, -0.3406 -0.4825 1.4961, -0.2717 -0.5243 1.4961, -0.1978 -0.5565 1.4961, -0.2448 -0.536 1.4961, -0.0281 -0.5892 1.4961, -0.0403 -0.5892 1.4961, -0.1202 -0.5782 1.4961, -0.139 -0.5729 1.4961, 0.0403 -0.5892 1.4961, 0.0839 -0.5832 1.4961, 0.1202 -0.5782 1.4961, 0.1931 -0.5578 1.4961, 0.1978 -0.5565 1.4961, 0.2717 -0.5243 1.4961, 0.3406 -0.4825 1.4961, 0.2946 -0.5104 1.4961, 0.4637 -0.3647 1.4961, 0.4581 -0.3727 1.4961, 0.4031 -0.4316 1.4961, 0.386 -0.4455 1.4961, 0.5046 -0.3068 1.4961, 0.5237 -0.27 1.4961, 0.5417 -0.2353 1.4961, 0.5662 -0.1662 1.4961, 0.5687 -0.1593 1.4961, 0.5851 -0.0804 1.4961, 0.5662 0.1662 1.4961, 0.5687 0.1593 1.4961, 0.5851 0.0804 1.4961, 0.5867 0.0561 1.4961, 0.5906 0.0 1.4961, 0.5867 -0.0561 1.4961, 0.5417 0.2353 1.4961, 0.5237 0.27 1.4961, 0.5046 0.3068 1.4961, 0.4637 0.3647 1.4961, 0.4581 0.3727 1.4961, 0.4031 0.4316 1.4961, 0.3406 0.4825 1.4961, 0.386 0.4455 1.4961, 0.1978 0.5565 1.4961, 0.2717 0.5243 1.4961, 0.2946 0.5104 1.4961, 0.1931 0.5578 1.4961, 0.1202 0.5782 1.4961, 0.0839 0.5832 1.4961, 0.0403 0.5892 1.4961, -0.0281 0.5892 1.4961, -0.0403 0.5892 1.4961, -0.1202 0.5782 1.4961, -0.1978 0.5565 1.4961, -0.139 0.5729 1.4961, -0.3406 0.4825 1.4961, -0.2717 0.5243 1.4961, -0.2448 0.536 1.4961, -0.3425 0.4809 1.4961, -0.4031 0.4316 1.4961, -0.4264 0.4066 1.4961, -0.4581 0.3727 1.4961, -0.4961 0.3188 1.4961, -0.5046 0.3068 1.4961, -0.5417 0.2353 1.4961, -0.5687 0.1593 1.4961, -0.5474 0.2192 1.4961, -0.5906 0.0 1.4961, -0.5851 0.0804 1.4961, -0.5786 0.1115 1.4961, 0.58 0.0797 1.5731, 0.537 0.2333 1.5731, 0.5003 0.3042 1.5731, 0.4542 0.3695 1.5731, 0.3376 0.4783 1.5731, 0.2694 0.5199 1.5731, 0.1191 0.5733 1.5731, 0.04 0.5841 1.5731, -0.04 0.5841 1.5731, -0.1961 0.5517 1.5731, -0.2694 0.5199 1.5731, -0.3996 0.4279 1.5731, -0.4542 0.3695 1.5731, -0.5003 0.3042 1.5731, -0.5638 0.158 1.5731, -0.58 0.0797 1.5731, -0.5638 -0.158 1.5731, -0.537 -0.2333 1.5731, -0.4542 -0.3695 1.5731, -0.3996 -0.4279 1.5731, -0.3376 -0.4783 1.5731, -0.1961 -0.5517 1.5731, -0.1191 -0.5733 1.5731, 0.04 -0.5841 1.5731, 0.1191 -0.5733 1.5731, 0.1961 -0.5517 1.5731, 0.3376 -0.4783 1.5731, 0.3996 -0.4279 1.5731, 0.5003 -0.3042 1.5731, 0.537 -0.2333 1.5731, 0.5638 -0.158 1.5731, 0.5855 0.0 1.5731, 0.1186 -0.0965 2.0665, 0.0598 -0.0486 2.0816, 0.0526 -0.0563 2.0816, 0.0 0.0 2.0866, 0.0659 -0.0401 2.0816, 0.1306 -0.0794 2.0665, 0.1931 -0.1174 2.0417, 0.0707 -0.0307 2.0816, 0.1402 -0.0609 2.0665, 0.2073 -0.09 2.0417, 0.2708 -0.1176 2.0075, 0.0742 -0.0208 2.0816, 0.1472 -0.0412 2.0665, 0.2176 -0.061 2.0417, 0.2843 -0.0797 2.0075, 0.3462 -0.097 1.9646, 0.0764 -0.0105 2.0816, 0.1514 -0.0208 2.0665, 0.2239 -0.0308 2.0417, 0.2925 -0.0402 2.0075, 0.3562 -0.049 1.9646, 0.4137 -0.0569 1.9136, 0.0771 0.0 2.0816, 0.1528 0.0 2.0665, 0.226 0.0 2.0417, 0.2953 0.0 2.0075, 0.3595 0.0 1.9646, 0.4176 0.0 1.9136, 0.4685 0.0 1.8556, 0.58 -0.0797 1.5731, 0.5651 -0.0777 1.6489, 0.5704 0.0 1.6489, 0.5405 -0.0743 1.7221, 0.5456 0.0 1.7221, 0.5067 -0.0696 1.7913, 0.5114 0.0 1.7913, 0.4642 -0.0638 1.8556, 0.5493 -0.1539 1.6489, 0.5254 -0.1472 1.7221, 0.4925 -0.138 1.7913, 0.4511 -0.1264 1.8556, 0.4021 -0.1127 1.9136, 0.5232 -0.2273 1.6489, 0.5004 -0.2174 1.7221, 0.4691 -0.2038 1.7913, 0.4297 -0.1867 1.8556, 0.383 -0.1664 1.9136, 0.3297 -0.1432 1.9646, 0.4874 -0.2964 1.6489, 0.4662 -0.2835 1.7221, 0.437 -0.2657 1.7913, 0.4003 -0.2434 1.8556, 0.3568 -0.217 1.9136, 0.3072 -0.1868 1.9646, 0.2523 -0.1534 2.0075, 0.4542 -0.3695 1.5731, 0.4425 -0.36 1.6489, 0.4232 -0.3443 1.7221, 0.3967 -0.3228 1.7913, 0.3634 -0.2957 1.8556, 0.3239 -0.2635 1.9136, 0.2789 -0.2269 1.9646, 0.229 -0.1863 2.0075, 0.1753 -0.1426 2.0417, 0.3893 -0.4169 1.6489, 0.3724 -0.3987 1.7221, 0.3491 -0.3738 1.7913, 0.3198 -0.3424 1.8556, 0.285 -0.3052 1.9136, 0.2454 -0.2627 1.9646, 0.2015 -0.2158 2.0075, 0.1543 -0.1652 2.0417, 0.1043 -0.1117 2.0665, 0.329 -0.466 1.6489, 0.3146 -0.4457 1.7221, 0.2949 -0.4178 1.7913, 0.2702 -0.3828 1.8556, 0.2408 -0.3412 1.9136, 0.2073 -0.2937 1.9646, 0.1703 -0.2412 2.0075, 0.1303 -0.1846 2.0417, 0.0881 -0.1249 2.0665, 0.0445 -0.063 2.0816, 0.2694 -0.5199 1.5731, 0.2624 -0.5065 1.6489, 0.251 -0.4844 1.7221, 0.2353 -0.4541 1.7913, 0.2155 -0.416 1.8556, 0.1921 -0.3708 1.9136, 0.1654 -0.3192 1.9646, 0.1358 -0.2622 2.0075, 0.104 -0.2007 2.0417, 0.0703 -0.1357 2.0665, 0.0355 -0.0684 2.0816, 0.191 -0.5375 1.6489, 0.1827 -0.5141 1.7221, 0.1713 -0.4819 1.7913, 0.1569 -0.4415 1.8556, 0.1398 -0.3935 1.9136, 0.1204 -0.3387 1.9646, 0.0989 -0.2782 2.0075, 0.0757 -0.2129 2.0417, 0.0512 -0.144 2.0665, 0.0258 -0.0726 2.0816, 0.1161 -0.5585 1.6489, 0.111 -0.5342 1.7221, 0.1041 -0.5007 1.7913, 0.0953 -0.4587 1.8556, 0.085 -0.4088 1.9136, 0.0731 -0.352 1.9646, 0.0601 -0.2891 2.0075, 0.046 -0.2213 2.0417, 0.0311 -0.1496 2.0665, 0.0157 -0.0755 2.0816, 0.0389 -0.5691 1.6489, 0.0372 -0.5443 1.7221, 0.0349 -0.5102 1.7913, 0.032 -0.4674 1.8556, 0.0285 -0.4166 1.9136, 0.0245 -0.3587 1.9646, 0.0202 -0.2946 2.0075, 0.0154 -0.2255 2.0417, 0.0104 -0.1525 2.0665, 0.0053 -0.0769 2.0816, -0.04 -0.5841 1.5731, -0.0389 -0.5691 1.6489, -0.0372 -0.5443 1.7221, -0.0349 -0.5102 1.7913, -0.032 -0.4674 1.8556, -0.0285 -0.4166 1.9136, -0.0245 -0.3587 1.9646, -0.0202 -0.2946 2.0075, -0.0154 -0.2255 2.0417, -0.0104 -0.1525 2.0665, -0.0053 -0.0769 2.0816, -0.1161 -0.5585 1.6489, -0.111 -0.5342 1.7221, -0.1041 -0.5007 1.7913, -0.0953 -0.4587 1.8556, -0.085 -0.4088 1.9136, -0.0731 -0.352 1.9646, -0.0601 -0.2891 2.0075, -0.046 -0.2213 2.0417, -0.0311 -0.1496 2.0665, -0.0157 -0.0755 2.0816, -0.191 -0.5375 1.6489, -0.1827 -0.5141 1.7221, -0.1713 -0.4819 1.7913, -0.1569 -0.4415 1.8556, -0.1398 -0.3935 1.9136, -0.1204 -0.3387 1.9646, -0.0989 -0.2782 2.0075, -0.0757 -0.2129 2.0417, -0.0512 -0.144 2.0665, -0.0258 -0.0726 2.0816, -0.2694 -0.5199 1.5731, -0.2624 -0.5065 1.6489, -0.251 -0.4844 1.7221, -0.2353 -0.4541 1.7913, -0.2155 -0.416 1.8556, -0.1921 -0.3708 1.9136, -0.1654 -0.3192 1.9646, -0.1358 -0.2622 2.0075, -0.104 -0.2007 2.0417, -0.0703 -0.1357 2.0665, -0.0355 -0.0684 2.0816, -0.329 -0.466 1.6489, -0.3146 -0.4457 1.7221, -0.2949 -0.4178 1.7913, -0.2702 -0.3828 1.8556, -0.2408 -0.3412 1.9136, -0.2073 -0.2937 1.9646, -0.1703 -0.2412 2.0075, -0.1303 -0.1846 2.0417, -0.0881 -0.1249 2.0665, -0.0445 -0.063 2.0816, -0.3893 -0.4169 1.6489, -0.3724 -0.3987 1.7221, -0.3491 -0.3738 1.7913, -0.3198 -0.3424 1.8556, -0.285 -0.3052 1.9136, -0.2454 -0.2627 1.9646, -0.2015 -0.2158 2.0075, -0.1543 -0.1652 2.0417, -0.1043 -0.1117 2.0665, -0.0526 -0.0563 2.0816, -0.4425 -0.36 1.6489, -0.4232 -0.3443 1.7221, -0.3967 -0.3228 1.7913, -0.3634 -0.2957 1.8556, -0.3239 -0.2635 1.9136, -0.2789 -0.2269 1.9646, -0.229 -0.1863 2.0075, -0.1753 -0.1426 2.0417, -0.1186 -0.0965 2.0665, -0.0598 -0.0486 2.0816, -0.5003 -0.3042 1.5731, -0.4874 -0.2964 1.6489, -0.4662 -0.2835 1.7221, -0.437 -0.2657 1.7913, -0.4003 -0.2434 1.8556, -0.3568 -0.217 1.9136, -0.3072 -0.1868 1.9646, -0.2523 -0.1534 2.0075, -0.1931 -0.1174 2.0417, -0.1306 -0.0794 2.0665, -0.0659 -0.0401 2.0816, -0.5232 -0.2273 1.6489, -0.5004 -0.2174 1.7221, -0.4691 -0.2038 1.7913, -0.4297 -0.1867 1.8556, -0.383 -0.1664 1.9136, -0.3297 -0.1432 1.9646, -0.2708 -0.1176 2.0075, -0.2073 -0.09 2.0417, -0.1402 -0.0609 2.0665, -0.0707 -0.0307 2.0816, -0.5493 -0.1539 1.6489, -0.5254 -0.1472 1.7221, -0.4925 -0.138 1.7913, -0.4511 -0.1264 1.8556, -0.4021 -0.1127 1.9136, -0.3462 -0.097 1.9646, -0.2843 -0.0797 2.0075, -0.2176 -0.061 2.0417, -0.1472 -0.0412 2.0665, -0.0742 -0.0208 2.0816, -0.58 -0.0797 1.5731, -0.5651 -0.0777 1.6489, -0.5405 -0.0743 1.7221, -0.5067 -0.0696 1.7913, -0.4642 -0.0638 1.8556, -0.4137 -0.0569 1.9136, -0.3562 -0.049 1.9646, -0.2925 -0.0402 2.0075, -0.2239 -0.0308 2.0417, -0.1514 -0.0208 2.0665, -0.0764 -0.0105 2.0816, -0.5855 -0.0 1.5731, -0.5704 -0.0 1.6489, -0.5456 -0.0 1.7221, -0.5114 -0.0 1.7913, -0.4685 -0.0 1.8556, -0.4176 -0.0 1.9136, -0.3595 -0.0 1.9646, -0.2953 -0.0 2.0075, -0.226 -0.0 2.0417, -0.1528 -0.0 2.0665, -0.0771 -0.0 2.0816, -0.5651 0.0777 1.6489, -0.5405 0.0743 1.7221, -0.5067 0.0696 1.7913, -0.4642 0.0638 1.8556, -0.4137 0.0569 1.9136, -0.3562 0.049 1.9646, -0.2925 0.0402 2.0075, -0.2239 0.0308 2.0417, -0.1514 0.0208 2.0665, -0.0764 0.0105 2.0816, -0.5493 0.1539 1.6489, -0.5254 0.1472 1.7221, -0.4925 0.138 1.7913, -0.4511 0.1264 1.8556, -0.4021 0.1127 1.9136, -0.3462 0.097 1.9646, -0.2843 0.0797 2.0075, -0.2176 0.061 2.0417, -0.1472 0.0412 2.0665, -0.0742 0.0208 2.0816, -0.537 0.2333 1.5731, -0.5232 0.2273 1.6489, -0.5004 0.2174 1.7221, -0.4691 0.2038 1.7913, -0.4297 0.1867 1.8556, -0.383 0.1664 1.9136, -0.3297 0.1432 1.9646, -0.2708 0.1176 2.0075, -0.2073 0.09 2.0417, -0.1402 0.0609 2.0665, -0.0707 0.0307 2.0816, -0.4874 0.2964 1.6489, -0.4662 0.2835 1.7221, -0.437 0.2657 1.7913, -0.4003 0.2434 1.8556, -0.3568 0.217 1.9136, -0.3072 0.1868 1.9646, -0.2523 0.1534 2.0075, -0.1931 0.1174 2.0417, -0.1306 0.0794 2.0665, -0.0659 0.0401 2.0816, -0.4425 0.36 1.6489, -0.4232 0.3443 1.7221, -0.3967 0.3228 1.7913, -0.3634 0.2957 1.8556, -0.3239 0.2635 1.9136, -0.2789 0.2269 1.9646, -0.229 0.1863 2.0075, -0.1753 0.1426 2.0417, -0.1186 0.0965 2.0665, -0.0598 0.0486 2.0816, -0.3893 0.4169 1.6489, -0.3724 0.3987 1.7221, -0.3491 0.3738 1.7913, -0.3198 0.3424 1.8556, -0.285 0.3052 1.9136, -0.2454 0.2627 1.9646, -0.2015 0.2158 2.0075, -0.1543 0.1652 2.0417, -0.1043 0.1117 2.0665, -0.0526 0.0563 2.0816, -0.3376 0.4783 1.5731, -0.329 0.466 1.6489, -0.3146 0.4457 1.7221, -0.2949 0.4178 1.7913, -0.2702 0.3828 1.8556, -0.2408 0.3412 1.9136, -0.2073 0.2937 1.9646, -0.1703 0.2412 2.0075, -0.1303 0.1846 2.0417, -0.0881 0.1249 2.0665, -0.0445 0.063 2.0816, -0.2624 0.5065 1.6489, -0.251 0.4844 1.7221, -0.2353 0.4541 1.7913, -0.2155 0.416 1.8556, -0.1921 0.3708 1.9136, -0.1654 0.3192 1.9646, -0.1358 0.2622 2.0075, -0.104 0.2007 2.0417, -0.0703 0.1357 2.0665, -0.0355 0.0684 2.0816, -0.191 0.5375 1.6489, -0.1827 0.5141 1.7221, -0.1713 0.4819 1.7913, -0.1569 0.4415 1.8556, -0.1398 0.3935 1.9136, -0.1204 0.3387 1.9646, -0.0989 0.2782 2.0075, -0.0757 0.2129 2.0417, -0.0512 0.144 2.0665, -0.0258 0.0726 2.0816, -0.1191 0.5733 1.5731, -0.1161 0.5585 1.6489, -0.111 0.5342 1.7221, -0.1041 0.5007 1.7913, -0.0953 0.4587 1.8556, -0.085 0.4088 1.9136, -0.0731 0.352 1.9646, -0.0601 0.2891 2.0075, -0.046 0.2213 2.0417, -0.0311 0.1496 2.0665, -0.0157 0.0755 2.0816, -0.0389 0.5691 1.6489, -0.0372 0.5443 1.7221, -0.0349 0.5102 1.7913, -0.032 0.4674 1.8556, -0.0285 0.4166 1.9136, -0.0245 0.3587 1.9646, -0.0202 0.2946 2.0075, -0.0154 0.2255 2.0417, -0.0104 0.1525 2.0665, -0.0053 0.0769 2.0816, 0.0389 0.5691 1.6489, 0.0372 0.5443 1.7221, 0.0349 0.5102 1.7913, 0.032 0.4674 1.8556, 0.0285 0.4166 1.9136, 0.0245 0.3587 1.9646, 0.0202 0.2946 2.0075, 0.0154 0.2255 2.0417, 0.0104 0.1525 2.0665, 0.0053 0.0769 2.0816, 0.1161 0.5585 1.6489, 0.111 0.5342 1.7221, 0.1041 0.5007 1.7913, 0.0953 0.4587 1.8556, 0.085 0.4088 1.9136, 0.0731 0.352 1.9646, 0.0601 0.2891 2.0075, 0.046 0.2213 2.0417, 0.0311 0.1496 2.0665, 0.0157 0.0755 2.0816, 0.1961 0.5517 1.5731, 0.191 0.5375 1.6489, 0.1827 0.5141 1.7221, 0.1713 0.4819 1.7913, 0.1569 0.4415 1.8556, 0.1398 0.3935 1.9136, 0.1204 0.3387 1.9646, 0.0989 0.2782 2.0075, 0.0757 0.2129 2.0417, 0.0512 0.144 2.0665, 0.0258 0.0726 2.0816, 0.2624 0.5065 1.6489, 0.251 0.4844 1.7221, 0.2353 0.4541 1.7913, 0.2155 0.416 1.8556, 0.1921 0.3708 1.9136, 0.1654 0.3192 1.9646, 0.1358 0.2622 2.0075, 0.104 0.2007 2.0417, 0.0703 0.1357 2.0665, 0.0355 0.0684 2.0816, 0.329 0.466 1.6489, 0.3146 0.4457 1.7221, 0.2949 0.4178 1.7913, 0.2702 0.3828 1.8556, 0.2408 0.3412 1.9136, 0.2073 0.2937 1.9646, 0.1703 0.2412 2.0075, 0.1303 0.1846 2.0417, 0.0881 0.1249 2.0665, 0.0445 0.063 2.0816, 0.3996 0.4279 1.5731, 0.3893 0.4169 1.6489, 0.3724 0.3987 1.7221, 0.3491 0.3738 1.7913, 0.3198 0.3424 1.8556, 0.285 0.3052 1.9136, 0.2454 0.2627 1.9646, 0.2015 0.2158 2.0075, 0.1543 0.1652 2.0417, 0.1043 0.1117 2.0665, 0.0526 0.0563 2.0816, 0.4425 0.36 1.6489, 0.4232 0.3443 1.7221, 0.3967 0.3228 1.7913, 0.3634 0.2957 1.8556, 0.3239 0.2635 1.9136, 0.2789 0.2269 1.9646, 0.229 0.1863 2.0075, 0.1753 0.1426 2.0417, 0.1186 0.0965 2.0665, 0.0598 0.0486 2.0816, 0.4874 0.2964 1.6489, 0.4662 0.2835 1.7221, 0.437 0.2657 1.7913, 0.4003 0.2434 1.8556, 0.3568 0.217 1.9136, 0.3072 0.1868 1.9646, 0.2523 0.1534 2.0075, 0.1931 0.1174 2.0417, 0.1306 0.0794 2.0665, 0.0659 0.0401 2.0816, 0.5232 0.2273 1.6489, 0.5004 0.2174 1.7221, 0.4691 0.2038 1.7913, 0.4297 0.1867 1.8556, 0.383 0.1664 1.9136, 0.3297 0.1432 1.9646, 0.2708 0.1176 2.0075, 0.2073 0.09 2.0417, 0.1402 0.0609 2.0665, 0.0707 0.0307 2.0816, 0.5638 0.158 1.5731, 0.5493 0.1539 1.6489, 0.5254 0.1472 1.7221, 0.4925 0.138 1.7913, 0.4511 0.1264 1.8556, 0.4021 0.1127 1.9136, 0.3462 0.097 1.9646, 0.2843 0.0797 2.0075, 0.2176 0.061 2.0417, 0.1472 0.0412 2.0665, 0.0742 0.0208 2.0816, 0.5651 0.0777 1.6489, 0.5405 0.0743 1.7221, 0.5067 0.0696 1.7913, 0.4642 0.0638 1.8556, 0.4137 0.0569 1.9136, 0.3562 0.049 1.9646, 0.2925 0.0402 2.0075, 0.2239 0.0308 2.0417, 0.1514 0.0208 2.0665, 0.0764 0.0105 2.0816, 0.0764 0.0105 2.0816
            ]
        }
        coordIndex [
            0,1,2,-1,3,4,5,-1,6,7,8,-1,8,7,9,-1,8,9,10,-1,11,12,13,-1,13,12,14,-1,13,14,15,-1,13,16,17,-1,17,16,18,-1,17,18,19,-1,19,18,6,-1,2,20,0,-1,0,20,21,-1,0,21,22,-1,23,24,25,-1,25,24,0,-1,25,0,26,-1,26,0,22,-1,27,28,29,-1,29,28,30,-1,15,31,13,-1,13,31,32,-1,13,32,16,-1,16,32,33,-1,34,35,5,-1,5,35,36,-1,13,3,11,-1,11,3,5,-1,11,5,37,-1,37,5,36,-1,4,10,5,-1,5,10,38,-1,5,38,34,-1,10,9,38,-1,38,9,39,-1,38,39,40,-1,40,41,38,-1,38,41,42,-1,38,42,34,-1,43,44,45,-1,45,46,43,-1,43,46,47,-1,43,47,48,-1,44,43,49,-1,49,43,50,-1,49,50,51,-1,51,50,52,-1,52,50,53,-1,52,53,54,-1,55,56,54,-1,56,55,57,-1,57,55,58,-1,57,58,59,-1,60,61,58,-1,58,61,62,-1,62,63,58,-1,58,63,64,-1,58,64,59,-1,65,66,58,-1,60,58,67,-1,67,58,66,-1,67,66,68,-1,2,69,70,-1,70,69,71,-1,70,71,72,-1,73,74,75,-1,75,74,76,-1,76,77,78,-1,78,79,76,-1,76,79,80,-1,76,80,75,-1,75,80,81,-1,75,81,82,-1,82,81,83,-1,82,83,84,-1,84,85,82,-1,82,85,86,-1,82,86,87,-1,88,89,82,-1,82,89,90,-1,91,92,93,-1,93,92,94,-1,90,95,82,-1,82,95,94,-1,82,94,96,-1,96,94,92,-1,87,97,82,-1,82,97,98,-1,82,98,88,-1,99,100,70,-1,70,100,101,-1,102,103,70,-1,70,103,104,-1,70,104,99,-1,105,106,2,-1,2,106,107,-1,2,107,108,-1,109,20,110,-1,110,20,2,-1,110,2,111,-1,111,2,108,-1,101,112,70,-1,70,112,113,-1,70,113,2,-1,2,113,114,-1,2,114,105,-1,73,115,74,-1,74,115,116,-1,74,116,55,-1,55,116,117,-1,55,117,58,-1,58,117,118,-1,119,69,120,-1,120,69,2,-1,120,2,121,-1,121,2,1,-1,121,1,72,-1,72,1,65,-1,72,65,70,-1,70,65,58,-1,70,58,102,-1,102,58,118,-1,122,53,123,-1,123,53,50,-1,123,50,18,-1,18,50,43,-1,18,43,6,-1,6,43,48,-1,6,48,7,-1,122,124,125,-1,54,53,55,-1,55,53,122,-1,55,122,74,-1,74,122,125,-1,74,125,76,-1,76,125,126,-1,76,126,127,-1,124,122,128,-1,128,122,29,-1,128,29,129,-1,110,130,109,-1,109,130,77,-1,109,77,30,-1,30,77,76,-1,30,76,29,-1,29,76,127,-1,29,127,129,-1,131,132,133,-1,133,132,128,-1,133,128,134,-1,134,128,129,-1,134,129,135,-1,135,129,136,-1,137,138,123,-1,123,138,139,-1,123,139,140,-1,141,27,142,-1,142,27,29,-1,142,29,143,-1,143,144,142,-1,142,144,145,-1,142,145,146,-1,146,147,142,-1,142,147,148,-1,142,148,149,-1,140,150,123,-1,123,150,151,-1,123,151,122,-1,122,151,152,-1,122,152,29,-1,29,152,153,-1,29,153,143,-1,149,154,142,-1,142,154,155,-1,142,155,123,-1,123,155,156,-1,123,156,137,-1,157,123,158,-1,158,123,18,-1,158,18,159,-1,159,18,16,-1,159,16,142,-1,142,16,33,-1,142,33,141,-1,160,161,157,-1,157,161,162,-1,157,162,123,-1,123,162,163,-1,123,163,142,-1,142,163,164,-1,142,164,159,-1,23,165,24,-1,24,165,166,-1,24,166,68,-1,68,166,167,-1,68,167,67,-1,67,167,60,-1,109,168,20,-1,20,168,169,-1,20,169,21,-1,21,169,170,-1,21,170,22,-1,22,170,171,-1,22,171,26,-1,26,171,172,-1,26,172,25,-1,25,172,165,-1,25,165,23,-1,109,30,168,-1,168,30,28,-1,168,28,173,-1,28,27,173,-1,173,27,141,-1,173,141,174,-1,141,33,174,-1,174,33,32,-1,174,32,175,-1,32,31,175,-1,175,31,15,-1,175,15,176,-1,176,15,14,-1,176,14,177,-1,177,14,12,-1,177,12,178,-1,178,12,11,-1,178,11,179,-1,11,37,179,-1,179,37,36,-1,179,36,180,-1,180,36,35,-1,180,35,181,-1,35,34,181,-1,181,34,42,-1,181,42,182,-1,42,41,182,-1,182,41,40,-1,182,40,183,-1,183,40,39,-1,183,39,184,-1,184,39,9,-1,184,9,185,-1,9,7,185,-1,185,7,48,-1,185,48,186,-1,48,47,186,-1,186,47,46,-1,186,46,187,-1,187,46,45,-1,187,45,188,-1,188,45,44,-1,188,44,189,-1,44,49,189,-1,189,49,51,-1,189,51,190,-1,190,51,52,-1,190,52,191,-1,191,52,54,-1,191,54,56,-1,56,57,191,-1,191,57,59,-1,191,59,192,-1,59,64,192,-1,192,64,63,-1,192,63,193,-1,193,63,62,-1,193,62,194,-1,194,62,61,-1,194,61,195,-1,195,61,60,-1,195,60,167,-1,196,167,197,-1,197,167,166,-1,196,198,167,-1,167,198,199,-1,167,199,195,-1,195,199,200,-1,195,200,194,-1,194,200,201,-1,194,201,193,-1,193,201,202,-1,193,202,192,-1,192,202,203,-1,192,203,191,-1,191,203,204,-1,205,169,168,-1,206,182,207,-1,207,182,183,-1,207,183,208,-1,208,183,184,-1,208,184,209,-1,209,184,185,-1,209,185,210,-1,210,185,186,-1,210,186,211,-1,211,186,187,-1,211,187,212,-1,212,187,188,-1,212,188,213,-1,213,188,189,-1,213,189,204,-1,204,189,190,-1,204,190,191,-1,214,215,165,-1,165,215,216,-1,165,216,166,-1,205,168,217,-1,217,168,173,-1,217,173,218,-1,218,173,174,-1,218,174,219,-1,219,174,175,-1,219,175,220,-1,220,175,176,-1,220,176,221,-1,221,176,177,-1,221,177,222,-1,222,177,178,-1,222,178,223,-1,223,178,179,-1,223,179,224,-1,224,179,180,-1,224,180,206,-1,206,180,181,-1,206,181,182,-1,169,205,170,-1,170,205,225,-1,170,225,171,-1,171,225,226,-1,171,226,172,-1,172,226,227,-1,172,227,165,-1,165,227,228,-1,165,228,214,-1,206,207,229,-1,208,230,207,-1,207,230,231,-1,207,231,229,-1,232,233,209,-1,209,233,234,-1,209,234,208,-1,208,234,235,-1,208,235,230,-1,232,209,236,-1,236,209,210,-1,236,210,237,-1,237,210,238,-1,238,210,211,-1,238,211,239,-1,239,211,240,-1,240,211,212,-1,240,212,241,-1,213,242,212,-1,212,242,243,-1,212,243,241,-1,244,245,204,-1,204,245,246,-1,204,246,213,-1,213,246,247,-1,213,247,242,-1,244,204,248,-1,248,204,203,-1,248,203,249,-1,249,203,250,-1,250,203,202,-1,250,202,251,-1,251,202,252,-1,252,202,201,-1,252,201,253,-1,200,254,201,-1,201,254,255,-1,201,255,253,-1,256,257,199,-1,199,257,258,-1,199,258,200,-1,200,258,259,-1,200,259,254,-1,256,199,260,-1,260,199,198,-1,260,198,261,-1,261,198,262,-1,262,198,196,-1,262,196,263,-1,263,196,264,-1,264,196,197,-1,264,197,265,-1,266,267,215,-1,215,267,268,-1,215,268,216,-1,216,268,269,-1,216,269,166,-1,166,269,270,-1,166,270,197,-1,197,270,271,-1,197,271,265,-1,266,215,272,-1,272,215,214,-1,272,214,273,-1,273,214,274,-1,274,214,228,-1,274,228,275,-1,275,228,276,-1,276,228,227,-1,276,227,277,-1,226,278,227,-1,227,278,279,-1,227,279,277,-1,280,281,226,-1,226,281,282,-1,226,282,278,-1,280,226,283,-1,283,226,225,-1,283,225,284,-1,284,225,205,-1,284,205,285,-1,285,205,286,-1,286,205,217,-1,286,217,287,-1,287,217,288,-1,288,217,218,-1,288,218,289,-1,219,290,218,-1,218,290,291,-1,218,291,289,-1,292,293,219,-1,219,293,294,-1,219,294,290,-1,292,219,295,-1,295,219,220,-1,295,220,296,-1,296,220,221,-1,296,221,297,-1,297,221,298,-1,298,221,222,-1,298,222,299,-1,299,222,300,-1,300,222,223,-1,300,223,301,-1,224,302,223,-1,223,302,303,-1,223,303,301,-1,229,304,206,-1,206,304,305,-1,206,305,224,-1,224,305,306,-1,224,306,302,-1,269,268,307,-1,266,272,308,-1,273,274,309,-1,275,276,310,-1,279,278,311,-1,282,281,312,-1,283,284,313,-1,285,286,314,-1,287,288,315,-1,291,290,316,-1,294,293,317,-1,295,296,318,-1,297,298,319,-1,299,300,320,-1,303,302,321,-1,306,305,322,-1,231,230,323,-1,235,234,324,-1,232,236,325,-1,237,238,326,-1,239,240,327,-1,243,242,328,-1,247,246,329,-1,244,248,330,-1,249,250,331,-1,251,252,332,-1,255,254,333,-1,259,258,334,-1,256,260,335,-1,261,262,336,-1,263,264,337,-1,271,270,338,-1,339,340,341,-1,341,340,342,-1,343,342,340,-1,343,340,344,-1,344,340,339,-1,344,339,345,-1,346,342,343,-1,346,343,347,-1,347,343,344,-1,347,344,348,-1,348,344,345,-1,348,345,349,-1,350,342,346,-1,350,346,351,-1,351,346,347,-1,351,347,352,-1,352,347,348,-1,352,348,353,-1,353,348,349,-1,353,349,354,-1,355,342,350,-1,355,350,356,-1,356,350,351,-1,356,351,357,-1,357,351,352,-1,357,352,358,-1,358,352,353,-1,358,353,359,-1,359,353,354,-1,359,354,360,-1,361,342,355,-1,361,355,362,-1,362,355,356,-1,362,356,363,-1,363,356,357,-1,363,357,364,-1,364,357,358,-1,364,358,365,-1,365,358,359,-1,365,359,366,-1,366,359,360,-1,366,360,367,-1,265,271,368,-1,368,271,338,-1,368,338,369,-1,369,338,370,-1,369,370,371,-1,371,370,372,-1,371,372,373,-1,373,372,374,-1,373,374,375,-1,264,265,337,-1,337,265,368,-1,337,368,376,-1,376,368,369,-1,376,369,377,-1,377,369,371,-1,377,371,378,-1,378,371,373,-1,378,373,379,-1,379,373,375,-1,379,375,380,-1,262,263,336,-1,336,263,337,-1,336,337,381,-1,381,337,376,-1,381,376,382,-1,382,376,377,-1,382,377,383,-1,383,377,378,-1,383,378,384,-1,384,378,379,-1,384,379,385,-1,385,379,380,-1,385,380,386,-1,260,261,335,-1,335,261,336,-1,335,336,387,-1,387,336,381,-1,387,381,388,-1,388,381,382,-1,388,382,389,-1,389,382,383,-1,389,383,390,-1,390,383,384,-1,390,384,391,-1,391,384,385,-1,391,385,392,-1,392,385,386,-1,392,386,393,-1,257,256,394,-1,394,256,335,-1,394,335,395,-1,395,335,387,-1,395,387,396,-1,396,387,388,-1,396,388,397,-1,397,388,389,-1,397,389,398,-1,398,389,390,-1,398,390,399,-1,399,390,391,-1,399,391,400,-1,400,391,392,-1,400,392,401,-1,401,392,393,-1,401,393,402,-1,258,257,334,-1,334,257,394,-1,334,394,403,-1,403,394,395,-1,403,395,404,-1,404,395,396,-1,404,396,405,-1,405,396,397,-1,405,397,406,-1,406,397,398,-1,406,398,407,-1,407,398,399,-1,407,399,408,-1,408,399,400,-1,408,400,409,-1,409,400,401,-1,409,401,410,-1,410,401,402,-1,410,402,411,-1,254,259,333,-1,333,259,334,-1,333,334,412,-1,412,334,403,-1,412,403,413,-1,413,403,404,-1,413,404,414,-1,414,404,405,-1,414,405,415,-1,415,405,406,-1,415,406,416,-1,416,406,407,-1,416,407,417,-1,417,407,408,-1,417,408,418,-1,418,408,409,-1,418,409,419,-1,419,409,410,-1,419,410,420,-1,420,410,411,-1,420,411,421,-1,253,255,422,-1,422,255,333,-1,422,333,423,-1,423,333,412,-1,423,412,424,-1,424,412,413,-1,424,413,425,-1,425,413,414,-1,425,414,426,-1,426,414,415,-1,426,415,427,-1,427,415,416,-1,427,416,428,-1,428,416,417,-1,428,417,429,-1,429,417,418,-1,429,418,430,-1,430,418,419,-1,430,419,431,-1,431,419,420,-1,431,420,432,-1,432,420,421,-1,252,253,332,-1,332,253,422,-1,332,422,433,-1,433,422,423,-1,433,423,434,-1,434,423,424,-1,434,424,435,-1,435,424,425,-1,435,425,436,-1,436,425,426,-1,436,426,437,-1,437,426,427,-1,437,427,438,-1,438,427,428,-1,438,428,439,-1,439,428,429,-1,439,429,440,-1,440,429,430,-1,440,430,441,-1,441,430,431,-1,441,431,442,-1,442,431,432,-1,442,432,342,-1,421,342,432,-1,374,367,375,-1,375,367,360,-1,375,360,380,-1,380,360,354,-1,380,354,386,-1,386,354,349,-1,386,349,393,-1,393,349,345,-1,393,345,402,-1,402,345,339,-1,402,339,411,-1,411,339,341,-1,411,341,421,-1,421,341,342,-1,250,251,331,-1,331,251,332,-1,331,332,443,-1,443,332,433,-1,443,433,444,-1,444,433,434,-1,444,434,445,-1,445,434,435,-1,445,435,446,-1,446,435,436,-1,446,436,447,-1,447,436,437,-1,447,437,448,-1,448,437,438,-1,448,438,449,-1,449,438,439,-1,449,439,450,-1,450,439,440,-1,450,440,451,-1,451,440,441,-1,451,441,452,-1,452,441,442,-1,452,442,342,-1,248,249,330,-1,330,249,331,-1,330,331,453,-1,453,331,443,-1,453,443,454,-1,454,443,444,-1,454,444,455,-1,455,444,445,-1,455,445,456,-1,456,445,446,-1,456,446,457,-1,457,446,447,-1,457,447,458,-1,458,447,448,-1,458,448,459,-1,459,448,449,-1,459,449,460,-1,460,449,450,-1,460,450,461,-1,461,450,451,-1,461,451,462,-1,462,451,452,-1,462,452,342,-1,245,244,463,-1,463,244,330,-1,463,330,464,-1,464,330,453,-1,464,453,465,-1,465,453,454,-1,465,454,466,-1,466,454,455,-1,466,455,467,-1,467,455,456,-1,467,456,468,-1,468,456,457,-1,468,457,469,-1,469,457,458,-1,469,458,470,-1,470,458,459,-1,470,459,471,-1,471,459,460,-1,471,460,472,-1,472,460,461,-1,472,461,473,-1,473,461,462,-1,473,462,342,-1,246,245,329,-1,329,245,463,-1,329,463,474,-1,474,463,464,-1,474,464,475,-1,475,464,465,-1,475,465,476,-1,476,465,466,-1,476,466,477,-1,477,466,467,-1,477,467,478,-1,478,467,468,-1,478,468,479,-1,479,468,469,-1,479,469,480,-1,480,469,470,-1,480,470,481,-1,481,470,471,-1,481,471,482,-1,482,471,472,-1,482,472,483,-1,483,472,473,-1,483,473,342,-1,242,247,328,-1,328,247,329,-1,328,329,484,-1,484,329,474,-1,484,474,485,-1,485,474,475,-1,485,475,486,-1,486,475,476,-1,486,476,487,-1,487,476,477,-1,487,477,488,-1,488,477,478,-1,488,478,489,-1,489,478,479,-1,489,479,490,-1,490,479,480,-1,490,480,491,-1,491,480,481,-1,491,481,492,-1,492,481,482,-1,492,482,493,-1,493,482,483,-1,493,483,342,-1,241,243,494,-1,494,243,328,-1,494,328,495,-1,495,328,484,-1,495,484,496,-1,496,484,485,-1,496,485,497,-1,497,485,486,-1,497,486,498,-1,498,486,487,-1,498,487,499,-1,499,487,488,-1,499,488,500,-1,500,488,489,-1,500,489,501,-1,501,489,490,-1,501,490,502,-1,502,490,491,-1,502,491,503,-1,503,491,492,-1,503,492,504,-1,504,492,493,-1,504,493,342,-1,240,241,327,-1,327,241,494,-1,327,494,505,-1,505,494,495,-1,505,495,506,-1,506,495,496,-1,506,496,507,-1,507,496,497,-1,507,497,508,-1,508,497,498,-1,508,498,509,-1,509,498,499,-1,509,499,510,-1,510,499,500,-1,510,500,511,-1,511,500,501,-1,511,501,512,-1,512,501,502,-1,512,502,513,-1,513,502,503,-1,513,503,514,-1,514,503,504,-1,514,504,342,-1,238,239,326,-1,326,239,327,-1,326,327,515,-1,515,327,505,-1,515,505,516,-1,516,505,506,-1,516,506,517,-1,517,506,507,-1,517,507,518,-1,518,507,508,-1,518,508,519,-1,519,508,509,-1,519,509,520,-1,520,509,510,-1,520,510,521,-1,521,510,511,-1,521,511,522,-1,522,511,512,-1,522,512,523,-1,523,512,513,-1,523,513,524,-1,524,513,514,-1,524,514,342,-1,236,237,325,-1,325,237,326,-1,325,326,525,-1,525,326,515,-1,525,515,526,-1,526,515,516,-1,526,516,527,-1,527,516,517,-1,527,517,528,-1,528,517,518,-1,528,518,529,-1,529,518,519,-1,529,519,530,-1,530,519,520,-1,530,520,531,-1,531,520,521,-1,531,521,532,-1,532,521,522,-1,532,522,533,-1,533,522,523,-1,533,523,534,-1,534,523,524,-1,534,524,342,-1,233,232,535,-1,535,232,325,-1,535,325,536,-1,536,325,525,-1,536,525,537,-1,537,525,526,-1,537,526,538,-1,538,526,527,-1,538,527,539,-1,539,527,528,-1,539,528,540,-1,540,528,529,-1,540,529,541,-1,541,529,530,-1,541,530,542,-1,542,530,531,-1,542,531,543,-1,543,531,532,-1,543,532,544,-1,544,532,533,-1,544,533,545,-1,545,533,534,-1,545,534,342,-1,234,233,324,-1,324,233,535,-1,324,535,546,-1,546,535,536,-1,546,536,547,-1,547,536,537,-1,547,537,548,-1,548,537,538,-1,548,538,549,-1,549,538,539,-1,549,539,550,-1,550,539,540,-1,550,540,551,-1,551,540,541,-1,551,541,552,-1,552,541,542,-1,552,542,553,-1,553,542,543,-1,553,543,554,-1,554,543,544,-1,554,544,555,-1,555,544,545,-1,555,545,342,-1,230,235,323,-1,323,235,324,-1,323,324,556,-1,556,324,546,-1,556,546,557,-1,557,546,547,-1,557,547,558,-1,558,547,548,-1,558,548,559,-1,559,548,549,-1,559,549,560,-1,560,549,550,-1,560,550,561,-1,561,550,551,-1,561,551,562,-1,562,551,552,-1,562,552,563,-1,563,552,553,-1,563,553,564,-1,564,553,554,-1,564,554,565,-1,565,554,555,-1,565,555,342,-1,229,231,566,-1,566,231,323,-1,566,323,567,-1,567,323,556,-1,567,556,568,-1,568,556,557,-1,568,557,569,-1,569,557,558,-1,569,558,570,-1,570,558,559,-1,570,559,571,-1,571,559,560,-1,571,560,572,-1,572,560,561,-1,572,561,573,-1,573,561,562,-1,573,562,574,-1,574,562,563,-1,574,563,575,-1,575,563,564,-1,575,564,576,-1,576,564,565,-1,576,565,342,-1,304,229,577,-1,577,229,566,-1,577,566,578,-1,578,566,567,-1,578,567,579,-1,579,567,568,-1,579,568,580,-1,580,568,569,-1,580,569,581,-1,581,569,570,-1,581,570,582,-1,582,570,571,-1,582,571,583,-1,583,571,572,-1,583,572,584,-1,584,572,573,-1,584,573,585,-1,585,573,574,-1,585,574,586,-1,586,574,575,-1,586,575,587,-1,587,575,576,-1,587,576,342,-1,305,304,322,-1,322,304,577,-1,322,577,588,-1,588,577,578,-1,588,578,589,-1,589,578,579,-1,589,579,590,-1,590,579,580,-1,590,580,591,-1,591,580,581,-1,591,581,592,-1,592,581,582,-1,592,582,593,-1,593,582,583,-1,593,583,594,-1,594,583,584,-1,594,584,595,-1,595,584,585,-1,595,585,596,-1,596,585,586,-1,596,586,597,-1,597,586,587,-1,597,587,342,-1,302,306,321,-1,321,306,322,-1,321,322,598,-1,598,322,588,-1,598,588,599,-1,599,588,589,-1,599,589,600,-1,600,589,590,-1,600,590,601,-1,601,590,591,-1,601,591,602,-1,602,591,592,-1,602,592,603,-1,603,592,593,-1,603,593,604,-1,604,593,594,-1,604,594,605,-1,605,594,595,-1,605,595,606,-1,606,595,596,-1,606,596,607,-1,607,596,597,-1,607,597,342,-1,301,303,608,-1,608,303,321,-1,608,321,609,-1,609,321,598,-1,609,598,610,-1,610,598,599,-1,610,599,611,-1,611,599,600,-1,611,600,612,-1,612,600,601,-1,612,601,613,-1,613,601,602,-1,613,602,614,-1,614,602,603,-1,614,603,615,-1,615,603,604,-1,615,604,616,-1,616,604,605,-1,616,605,617,-1,617,605,606,-1,617,606,618,-1,618,606,607,-1,618,607,342,-1,300,301,320,-1,320,301,608,-1,320,608,619,-1,619,608,609,-1,619,609,620,-1,620,609,610,-1,620,610,621,-1,621,610,611,-1,621,611,622,-1,622,611,612,-1,622,612,623,-1,623,612,613,-1,623,613,624,-1,624,613,614,-1,624,614,625,-1,625,614,615,-1,625,615,626,-1,626,615,616,-1,626,616,627,-1,627,616,617,-1,627,617,628,-1,628,617,618,-1,628,618,342,-1,298,299,319,-1,319,299,320,-1,319,320,629,-1,629,320,619,-1,629,619,630,-1,630,619,620,-1,630,620,631,-1,631,620,621,-1,631,621,632,-1,632,621,622,-1,632,622,633,-1,633,622,623,-1,633,623,634,-1,634,623,624,-1,634,624,635,-1,635,624,625,-1,635,625,636,-1,636,625,626,-1,636,626,637,-1,637,626,627,-1,637,627,638,-1,638,627,628,-1,638,628,342,-1,296,297,318,-1,318,297,319,-1,318,319,639,-1,639,319,629,-1,639,629,640,-1,640,629,630,-1,640,630,641,-1,641,630,631,-1,641,631,642,-1,642,631,632,-1,642,632,643,-1,643,632,633,-1,643,633,644,-1,644,633,634,-1,644,634,645,-1,645,634,635,-1,645,635,646,-1,646,635,636,-1,646,636,647,-1,647,636,637,-1,647,637,648,-1,648,637,638,-1,648,638,342,-1,292,295,649,-1,649,295,318,-1,649,318,650,-1,650,318,639,-1,650,639,651,-1,651,639,640,-1,651,640,652,-1,652,640,641,-1,652,641,653,-1,653,641,642,-1,653,642,654,-1,654,642,643,-1,654,643,655,-1,655,643,644,-1,655,644,656,-1,656,644,645,-1,656,645,657,-1,657,645,646,-1,657,646,658,-1,658,646,647,-1,658,647,659,-1,659,647,648,-1,659,648,342,-1,293,292,317,-1,317,292,649,-1,317,649,660,-1,660,649,650,-1,660,650,661,-1,661,650,651,-1,661,651,662,-1,662,651,652,-1,662,652,663,-1,663,652,653,-1,663,653,664,-1,664,653,654,-1,664,654,665,-1,665,654,655,-1,665,655,666,-1,666,655,656,-1,666,656,667,-1,667,656,657,-1,667,657,668,-1,668,657,658,-1,668,658,669,-1,669,658,659,-1,669,659,342,-1,290,294,316,-1,316,294,317,-1,316,317,670,-1,670,317,660,-1,670,660,671,-1,671,660,661,-1,671,661,672,-1,672,661,662,-1,672,662,673,-1,673,662,663,-1,673,663,674,-1,674,663,664,-1,674,664,675,-1,675,664,665,-1,675,665,676,-1,676,665,666,-1,676,666,677,-1,677,666,667,-1,677,667,678,-1,678,667,668,-1,678,668,679,-1,679,668,669,-1,679,669,342,-1,289,291,680,-1,680,291,316,-1,680,316,681,-1,681,316,670,-1,681,670,682,-1,682,670,671,-1,682,671,683,-1,683,671,672,-1,683,672,684,-1,684,672,673,-1,684,673,685,-1,685,673,674,-1,685,674,686,-1,686,674,675,-1,686,675,687,-1,687,675,676,-1,687,676,688,-1,688,676,677,-1,688,677,689,-1,689,677,678,-1,689,678,690,-1,690,678,679,-1,690,679,342,-1,288,289,315,-1,315,289,680,-1,315,680,691,-1,691,680,681,-1,691,681,692,-1,692,681,682,-1,692,682,693,-1,693,682,683,-1,693,683,694,-1,694,683,684,-1,694,684,695,-1,695,684,685,-1,695,685,696,-1,696,685,686,-1,696,686,697,-1,697,686,687,-1,697,687,698,-1,698,687,688,-1,698,688,699,-1,699,688,689,-1,699,689,700,-1,700,689,690,-1,700,690,342,-1,286,287,314,-1,314,287,315,-1,314,315,701,-1,701,315,691,-1,701,691,702,-1,702,691,692,-1,702,692,703,-1,703,692,693,-1,703,693,704,-1,704,693,694,-1,704,694,705,-1,705,694,695,-1,705,695,706,-1,706,695,696,-1,706,696,707,-1,707,696,697,-1,707,697,708,-1,708,697,698,-1,708,698,709,-1,709,698,699,-1,709,699,710,-1,710,699,700,-1,710,700,342,-1,284,285,313,-1,313,285,314,-1,313,314,711,-1,711,314,701,-1,711,701,712,-1,712,701,702,-1,712,702,713,-1,713,702,703,-1,713,703,714,-1,714,703,704,-1,714,704,715,-1,715,704,705,-1,715,705,716,-1,716,705,706,-1,716,706,717,-1,717,706,707,-1,717,707,718,-1,718,707,708,-1,718,708,719,-1,719,708,709,-1,719,709,720,-1,720,709,710,-1,720,710,342,-1,280,283,721,-1,721,283,313,-1,721,313,722,-1,722,313,711,-1,722,711,723,-1,723,711,712,-1,723,712,724,-1,724,712,713,-1,724,713,725,-1,725,713,714,-1,725,714,726,-1,726,714,715,-1,726,715,727,-1,727,715,716,-1,727,716,728,-1,728,716,717,-1,728,717,729,-1,729,717,718,-1,729,718,730,-1,730,718,719,-1,730,719,731,-1,731,719,720,-1,731,720,342,-1,281,280,312,-1,312,280,721,-1,312,721,732,-1,732,721,722,-1,732,722,733,-1,733,722,723,-1,733,723,734,-1,734,723,724,-1,734,724,735,-1,735,724,725,-1,735,725,736,-1,736,725,726,-1,736,726,737,-1,737,726,727,-1,737,727,738,-1,738,727,728,-1,738,728,739,-1,739,728,729,-1,739,729,740,-1,740,729,730,-1,740,730,741,-1,741,730,731,-1,741,731,342,-1,278,282,311,-1,311,282,312,-1,311,312,742,-1,742,312,732,-1,742,732,743,-1,743,732,733,-1,743,733,744,-1,744,733,734,-1,744,734,745,-1,745,734,735,-1,745,735,746,-1,746,735,736,-1,746,736,747,-1,747,736,737,-1,747,737,748,-1,748,737,738,-1,748,738,749,-1,749,738,739,-1,749,739,750,-1,750,739,740,-1,750,740,751,-1,751,740,741,-1,751,741,342,-1,277,279,752,-1,752,279,311,-1,752,311,753,-1,753,311,742,-1,753,742,754,-1,754,742,743,-1,754,743,755,-1,755,743,744,-1,755,744,756,-1,756,744,745,-1,756,745,757,-1,757,745,746,-1,757,746,758,-1,758,746,747,-1,758,747,759,-1,759,747,748,-1,759,748,760,-1,760,748,749,-1,760,749,761,-1,761,749,750,-1,761,750,762,-1,762,750,751,-1,762,751,342,-1,276,277,310,-1,310,277,752,-1,310,752,763,-1,763,752,753,-1,763,753,764,-1,764,753,754,-1,764,754,765,-1,765,754,755,-1,765,755,766,-1,766,755,756,-1,766,756,767,-1,767,756,757,-1,767,757,768,-1,768,757,758,-1,768,758,769,-1,769,758,759,-1,769,759,770,-1,770,759,760,-1,770,760,771,-1,771,760,761,-1,771,761,772,-1,772,761,762,-1,772,762,342,-1,274,275,309,-1,309,275,310,-1,309,310,773,-1,773,310,763,-1,773,763,774,-1,774,763,764,-1,774,764,775,-1,775,764,765,-1,775,765,776,-1,776,765,766,-1,776,766,777,-1,777,766,767,-1,777,767,778,-1,778,767,768,-1,778,768,779,-1,779,768,769,-1,779,769,780,-1,780,769,770,-1,780,770,781,-1,781,770,771,-1,781,771,782,-1,782,771,772,-1,782,772,342,-1,272,273,308,-1,308,273,309,-1,308,309,783,-1,783,309,773,-1,783,773,784,-1,784,773,774,-1,784,774,785,-1,785,774,775,-1,785,775,786,-1,786,775,776,-1,786,776,787,-1,787,776,777,-1,787,777,788,-1,788,777,778,-1,788,778,789,-1,789,778,779,-1,789,779,790,-1,790,779,780,-1,790,780,791,-1,791,780,781,-1,791,781,792,-1,792,781,782,-1,792,782,342,-1,267,266,793,-1,793,266,308,-1,793,308,794,-1,794,308,783,-1,794,783,795,-1,795,783,784,-1,795,784,796,-1,796,784,785,-1,796,785,797,-1,797,785,786,-1,797,786,798,-1,798,786,787,-1,798,787,799,-1,799,787,788,-1,799,788,800,-1,800,788,789,-1,800,789,801,-1,801,789,790,-1,801,790,802,-1,802,790,791,-1,802,791,803,-1,803,791,792,-1,803,792,342,-1,268,267,307,-1,307,267,793,-1,307,793,804,-1,804,793,794,-1,804,794,805,-1,805,794,795,-1,805,795,806,-1,806,795,796,-1,806,796,807,-1,807,796,797,-1,807,797,808,-1,808,797,798,-1,808,798,809,-1,809,798,799,-1,809,799,810,-1,810,799,800,-1,810,800,811,-1,811,800,801,-1,811,801,812,-1,812,801,802,-1,812,802,813,-1,813,802,803,-1,813,803,342,-1,270,269,338,-1,338,269,307,-1,338,307,370,-1,370,307,804,-1,370,804,372,-1,372,804,805,-1,372,805,374,-1,374,805,806,-1,374,806,367,-1,367,806,807,-1,367,807,366,-1,366,807,808,-1,366,808,365,-1,365,808,809,-1,365,809,364,-1,364,809,810,-1,364,810,363,-1,363,810,811,-1,363,811,362,-1,362,811,812,-1,362,812,361,-1,361,812,813,-1,361,813,342,-1,
        ]
    }
}
Shape{
    appearance Appearance {
        material  Material 	{
            diffuseColor 0.6666666666666666 0.6666666666666666 0.6666666666666666
            specularColor 0.4666666666666667 0.4666666666666667 0.4666666666666667
            ambientIntensity 0.2
            transparency 0
            shininess 0.5
        }
    }
    geometry IndexedFaceSet {
        ccw TRUE
        solid FALSE
        coord DEF co Coordinate {
            point [
                -0.4016 -0.0984 0.0, -0.4016 -0.0984 -1.9685, -0.4016 -0.0374 0.0, -0.4016 0.0984 -1.9685, -0.4016 0.0423 0.0, -0.4016 0.0984 0.0, -0.5984 -0.0984 -1.9685, -0.5984 -0.0984 0.0, -0.5984 0.0984 0.0, -0.5984 0.0984 -1.9685, -0.5984 0.0423 0.0, -0.5984 -0.0374 0.0, 0.4016 0.0984 0.0, 0.4016 0.0984 -1.1811, 0.4016 0.0423 0.0, 0.4016 -0.0984 -1.1811, 0.4016 -0.0374 0.0, 0.4016 -0.0984 0.0, 0.5984 0.0984 0.0, 0.5984 0.0984 -1.1811, 0.5906 0.0984 0.0, 0.5984 -0.0984 -1.1811, 0.5984 -0.0984 0.0, 0.5906 -0.0984 0.0, 0.5906 -0.0984 0.0
            ]
        }
        coordIndex [
            0,1,2,-1,2,1,3,-1,2,3,4,-1,4,3,5,-1,6,1,7,-1,7,1,0,-1,8,9,10,-1,10,9,6,-1,10,6,11,-1,11,6,7,-1,3,9,5,-1,5,9,8,-1,6,9,1,-1,1,9,3,-1,12,13,14,-1,14,13,15,-1,14,15,16,-1,16,15,17,-1,18,19,20,-1,20,19,13,-1,20,13,12,-1,19,18,21,-1,21,18,22,-1,17,15,23,-1,23,15,21,-1,23,21,22,-1,22,18,23,-1,23,18,20,-1,15,13,21,-1,21,13,19,-1,
        ]
    }
}
Shape{
    appearance Appearance {
        material  Material 	{
            diffuseColor 1.0 1.0 1.0
            specularColor 0.8784313725490196 0.8784313725490196 0.8784313725490196
            ambientIntensity 0.2
            transparency 0
            shininess 0.5
        }
    }
    geometry IndexedFaceSet {
        ccw TRUE
        solid FALSE
        coord DEF co Coordinate {
            point [
                -0.1374 0.0418 0.0394, -0.1681 -0.0369 0.0394, -0.1374 0.0418 0.0, -0.1681 -0.0369 0.0, -0.1566 -0.0369 0.0394, -0.1566 -0.0369 0.0, -0.1486 -0.0149 0.0394, -0.1486 -0.0149 0.0, -0.1161 -0.0149 0.0394, -0.1161 -0.0149 0.0, -0.1086 -0.0369 0.0394, -0.1086 -0.0369 0.0, -0.0971 -0.0369 0.0394, -0.0971 -0.0369 0.0, -0.1268 0.0418 0.0394, -0.1268 0.0418 0.0, -0.1188 -0.0062 0.0394, -0.1451 -0.0062 0.0394, -0.1305 0.0267 0.0394, -0.1313 0.0294 0.0394, -0.1318 0.0322 0.0394, -0.132 0.0322 0.0394, -0.1326 0.0294 0.0394, -0.1333 0.0267 0.0394, -0.1188 -0.0062 0.0, -0.1451 -0.0062 0.0, -0.1305 0.0267 0.0, -0.1313 0.0294 0.0, -0.1318 0.0322 0.0, -0.132 0.0322 0.0, -0.1326 0.0294 -0.0, -0.1333 0.0267 0.0, -0.0494 -0.0369 0.0394, -0.0279 -0.0369 0.0394, -0.0494 -0.0369 0.0, -0.0279 -0.0369 0.0, -0.0279 0.0418 0.0394, -0.0279 0.0418 0.0, -0.0502 0.0418 0.0394, -0.0502 0.0418 0.0, -0.0913 0.0034 0.0394, -0.0913 0.0034 0.0, -0.0907 0.0108 0.0, -0.0907 0.0108 0.0394, -0.0886 0.0186 0.0, -0.0886 0.0186 0.0394, -0.085 0.0254 0.0, -0.085 0.0254 0.0394, -0.0794 0.0315 0.0, -0.0794 0.0315 0.0394, -0.0793 0.0316 0.0, -0.0793 0.0316 0.0394, -0.0708 0.0373 0.0, -0.0708 0.0373 0.0394, -0.0615 0.0406 0.0, -0.0615 0.0406 0.0394, -0.0591 -0.0361 0.0, -0.0591 -0.0361 0.0394, -0.0682 -0.0334 0.0, -0.0682 -0.0334 0.0394, -0.0764 -0.0286 0.0, -0.0764 -0.0286 0.0394, -0.0829 -0.0224 0.0, -0.0829 -0.0224 0.0394, -0.0874 -0.0154 0.0, -0.0874 -0.0154 0.0394, -0.0902 -0.0071 0.0, -0.0902 -0.0071 0.0394, -0.0755 0.0221 0.0394, -0.0717 0.0262 0.0394, -0.0659 0.0299 0.0394, -0.0594 0.0322 0.0394, -0.0501 0.0332 0.0394, -0.0385 0.0332 0.0394, -0.0385 -0.0283 0.0394, -0.0497 -0.0283 0.0394, -0.058 -0.0275 0.0394, -0.0646 -0.0255 0.0394, -0.07 -0.0223 0.0394, -0.0744 -0.0179 0.0394, -0.0777 -0.0125 0.0394, -0.08 -0.0051 0.0394, -0.0808 0.0032 0.0394, -0.0801 0.011 0.0394, -0.0782 0.0173 0.0394, -0.0501 0.0332 0.0, -0.0385 0.0332 0.0, -0.0594 0.0322 0.0, -0.0659 0.0299 0.0, -0.0717 0.0262 0.0, -0.0755 0.0221 -0.0, -0.0782 0.0173 0.0, -0.0801 0.011 0.0, -0.0808 0.0032 0.0, -0.08 -0.0051 0.0, -0.0777 -0.0125 0.0, -0.0744 -0.0179 0.0, -0.07 -0.0223 0.0, -0.0646 -0.0255 0.0, -0.058 -0.0275 0.0, -0.0497 -0.0283 0.0, -0.0385 -0.0283 0.0, -0.0126 -0.0283 0.0394, -0.0126 -0.0369 0.0394, -0.0126 -0.0283 0.0, -0.0126 -0.0369 0.0, 0.0297 -0.0369 0.0394, 0.0297 -0.0369 0.0, 0.0297 0.0418 0.0394, 0.0297 0.0418 0.0, -0.0107 0.0418 0.0394, -0.0107 0.0418 0.0, -0.0107 0.0332 0.0394, -0.0107 0.0332 0.0, 0.0191 0.0332 0.0394, 0.0191 0.0332 0.0, 0.0191 0.0072 0.0394, 0.0191 0.0072 0.0, -0.0087 0.0072 0.0394, -0.0087 0.0072 0.0, -0.0087 -0.0014 0.0394, -0.0087 -0.0014 0.0, 0.0191 -0.0014 0.0394, 0.0191 -0.0014 0.0, 0.0191 -0.0283 0.0394, 0.0191 -0.0283 0.0, 0.045 -0.0242 0.0394, 0.045 -0.0329 0.0394, 0.045 -0.0242 0.0, 0.045 -0.0329 0.0, 0.0534 -0.0363 0.0394, 0.0667 -0.0379 0.0394, 0.0667 -0.0379 0.0, 0.0645 -0.0379 0.0, 0.0645 -0.0379 0.0394, 0.0614 -0.0374 0.0, 0.0534 -0.0363 0.0, 0.0713 -0.0374 0.0, 0.0764 -0.0369 0.0394, 0.0764 -0.0369 0.0, 0.084 -0.0343 0.0394, 0.084 -0.0343 0.0, 0.0904 -0.0302 0.0394, 0.0904 -0.0302 0.0, 0.0963 -0.024 0.0394, 0.0963 -0.024 0.0, 0.1005 -0.0165 0.0394, 0.1005 -0.0165 0.0, 0.1028 -0.0082 0.0394, 0.1028 -0.0082 0.0, 0.1036 0.0009 0.0394, 0.1036 0.0009 0.0, 0.0636 0.0428 0.0, 0.0694 0.0423 0.0, 0.0636 0.0428 0.0394, 0.0715 0.0421 0.0394, 0.0715 0.0421 0.0, 0.0803 0.0396 0.0, 0.0803 0.0396 0.0394, 0.0877 0.0353 0.0, 0.0877 0.0353 0.0394, 0.0948 0.0284 0.0, 0.0948 0.0284 0.0394, 0.0995 0.0211 0.0, 0.0995 0.0211 0.0394, 0.1025 0.0121 0.0, 0.1025 0.0121 0.0394, 0.0566 0.0423 0.0, 0.0541 0.0421 0.0394, 0.0541 0.0421 0.0, 0.045 0.0396 0.0394, 0.045 0.0396 0.0, 0.045 0.0291 0.0394, 0.045 0.0291 0.0, 0.0635 0.0341 0.0394, 0.0635 0.0341 0.0, 0.0539 0.0329 0.0, 0.0539 0.0329 0.0394, 0.093 0.0016 0.0394, 0.093 0.0016 0.0, 0.0927 0.0077 0.0, 0.0927 0.0077 0.0394, 0.0906 0.0161 0.0, 0.0906 0.0161 0.0394, 0.0873 0.0222 0.0, 0.0873 0.0222 0.0394, 0.0826 0.0275 0.0, 0.0826 0.0275 0.0394, 0.0771 0.0311 0.0, 0.0771 0.0311 0.0394, 0.0712 0.0332 0.0, 0.0712 0.0332 0.0394, 0.0652 -0.0293 0.0394, 0.0652 -0.0293 0.0, 0.0726 -0.0284 0.0, 0.0726 -0.0284 0.0394, 0.0783 -0.0263 0.0, 0.0783 -0.0263 0.0394, 0.0832 -0.0231 0.0, 0.0832 -0.0231 0.0394, 0.0869 -0.0192 0.0, 0.0869 -0.0192 0.0394, 0.0901 -0.0137 0.0, 0.0901 -0.0137 0.0394, 0.0923 -0.0069 0.0, 0.0923 -0.0069 0.0394, 0.0464 -0.025 0.0, 0.0464 -0.025 0.0394, 0.0548 -0.0281 0.0, 0.0548 -0.0281 0.0394, 0.1103 -0.0283 0.0394, 0.1103 -0.0369 0.0394, 0.1103 -0.0283 0.0, 0.1103 -0.0369 0.0, 0.1507 -0.0369 0.0394, 0.1507 -0.0369 0.0, 0.1507 0.0418 0.0394, 0.1507 0.0418 0.0, 0.1401 0.0418 0.0394, 0.1401 0.0418 0.0, 0.1401 -0.0283 0.0394, 0.1401 -0.0283 0.0, 0.1401 -0.0283 0.0
            ]
        }
        coordIndex [
            0,1,2,-1,2,1,3,-1,1,4,3,-1,3,4,5,-1,4,6,5,-1,5,6,7,-1,6,8,7,-1,7,8,9,-1,8,10,9,-1,9,10,11,-1,10,12,11,-1,11,12,13,-1,12,14,13,-1,13,14,15,-1,14,0,15,-1,15,0,2,-1,16,8,17,-1,17,8,6,-1,18,14,16,-1,16,14,12,-1,16,12,8,-1,8,12,10,-1,18,19,14,-1,14,19,20,-1,14,20,0,-1,0,20,21,-1,0,21,22,-1,22,23,0,-1,0,23,17,-1,0,17,1,-1,1,17,6,-1,1,6,4,-1,16,17,24,-1,24,17,25,-1,18,16,26,-1,26,16,24,-1,18,26,27,-1,18,27,19,-1,19,27,28,-1,19,28,20,-1,21,20,29,-1,29,20,28,-1,21,29,30,-1,21,30,22,-1,22,30,31,-1,22,31,23,-1,17,23,25,-1,25,23,31,-1,32,33,34,-1,34,33,35,-1,33,36,35,-1,35,36,37,-1,36,38,37,-1,37,38,39,-1,40,41,42,-1,40,42,43,-1,43,42,44,-1,43,44,45,-1,45,44,46,-1,45,46,47,-1,47,46,48,-1,47,48,49,-1,49,48,50,-1,49,50,51,-1,51,50,52,-1,51,52,53,-1,53,52,54,-1,53,54,55,-1,55,54,39,-1,55,39,38,-1,32,34,56,-1,32,56,57,-1,57,56,58,-1,57,58,59,-1,59,58,60,-1,59,60,61,-1,61,60,62,-1,61,62,63,-1,63,62,64,-1,63,64,65,-1,65,64,66,-1,65,66,67,-1,67,66,41,-1,67,41,40,-1,45,47,68,-1,68,47,49,-1,68,49,69,-1,69,49,51,-1,69,51,70,-1,70,51,53,-1,70,53,71,-1,71,53,55,-1,71,55,72,-1,72,55,38,-1,72,38,73,-1,73,38,36,-1,73,36,74,-1,74,36,33,-1,74,33,75,-1,75,33,32,-1,75,32,76,-1,76,32,57,-1,76,57,77,-1,77,57,59,-1,77,59,78,-1,78,59,61,-1,78,61,79,-1,79,61,63,-1,79,63,80,-1,80,63,65,-1,80,65,81,-1,81,65,67,-1,81,67,82,-1,82,67,40,-1,82,40,83,-1,83,40,43,-1,83,43,84,-1,84,43,45,-1,84,45,68,-1,72,73,85,-1,85,73,86,-1,72,85,87,-1,72,87,71,-1,71,87,88,-1,71,88,70,-1,70,88,89,-1,70,89,69,-1,69,89,90,-1,69,90,68,-1,68,90,91,-1,68,91,84,-1,84,91,92,-1,84,92,83,-1,83,92,93,-1,83,93,82,-1,82,93,94,-1,82,94,81,-1,81,94,95,-1,81,95,80,-1,80,95,96,-1,80,96,79,-1,79,96,97,-1,79,97,78,-1,78,97,98,-1,78,98,77,-1,77,98,99,-1,77,99,76,-1,76,99,100,-1,76,100,75,-1,74,75,101,-1,101,75,100,-1,73,74,86,-1,86,74,101,-1,102,103,104,-1,104,103,105,-1,103,106,105,-1,105,106,107,-1,106,108,107,-1,107,108,109,-1,108,110,109,-1,109,110,111,-1,110,112,111,-1,111,112,113,-1,112,114,113,-1,113,114,115,-1,114,116,115,-1,115,116,117,-1,116,118,117,-1,117,118,119,-1,118,120,119,-1,119,120,121,-1,120,122,121,-1,121,122,123,-1,122,124,123,-1,123,124,125,-1,124,102,125,-1,125,102,104,-1,106,103,102,-1,102,124,106,-1,106,124,122,-1,106,122,108,-1,112,110,114,-1,114,110,108,-1,114,108,116,-1,116,108,122,-1,116,122,118,-1,118,122,120,-1,126,127,128,-1,128,127,129,-1,129,127,130,-1,131,132,133,-1,131,133,134,-1,134,133,135,-1,134,135,130,-1,130,135,136,-1,130,136,129,-1,132,131,137,-1,137,131,138,-1,137,138,139,-1,139,138,140,-1,139,140,141,-1,141,140,142,-1,141,142,143,-1,143,142,144,-1,143,144,145,-1,145,144,146,-1,145,146,147,-1,147,146,148,-1,147,148,149,-1,149,148,150,-1,149,150,151,-1,152,153,154,-1,154,153,155,-1,153,156,155,-1,155,156,157,-1,155,157,158,-1,158,157,159,-1,158,159,160,-1,160,159,161,-1,160,161,162,-1,162,161,163,-1,162,163,164,-1,164,163,165,-1,164,165,166,-1,166,165,151,-1,166,151,150,-1,152,154,167,-1,167,154,168,-1,167,168,169,-1,169,168,170,-1,169,170,171,-1,170,172,171,-1,171,172,173,-1,174,175,176,-1,174,176,177,-1,177,176,173,-1,177,173,172,-1,178,179,180,-1,178,180,181,-1,181,180,182,-1,181,182,183,-1,183,182,184,-1,183,184,185,-1,185,184,186,-1,185,186,187,-1,187,186,188,-1,187,188,189,-1,189,188,190,-1,189,190,191,-1,191,190,175,-1,191,175,174,-1,192,193,194,-1,192,194,195,-1,195,194,196,-1,195,196,197,-1,197,196,198,-1,197,198,199,-1,199,198,200,-1,199,200,201,-1,201,200,202,-1,201,202,203,-1,203,202,204,-1,203,204,205,-1,205,204,179,-1,205,179,178,-1,126,128,206,-1,126,206,207,-1,207,206,208,-1,207,208,209,-1,209,208,193,-1,209,193,192,-1,195,131,192,-1,192,131,134,-1,192,134,209,-1,209,134,130,-1,209,130,207,-1,207,130,127,-1,207,127,126,-1,172,170,177,-1,177,170,168,-1,177,168,174,-1,174,168,154,-1,174,154,191,-1,191,154,155,-1,191,155,189,-1,189,155,158,-1,189,158,187,-1,187,158,160,-1,187,160,185,-1,185,160,162,-1,185,162,183,-1,183,162,164,-1,183,164,181,-1,181,164,166,-1,181,166,178,-1,178,166,150,-1,178,150,205,-1,205,150,148,-1,205,148,203,-1,203,148,146,-1,203,146,201,-1,201,146,144,-1,201,144,199,-1,199,144,142,-1,199,142,197,-1,197,142,140,-1,197,140,195,-1,195,140,138,-1,195,138,131,-1,210,211,212,-1,212,211,213,-1,211,214,213,-1,213,214,215,-1,214,216,215,-1,215,216,217,-1,216,218,217,-1,217,218,219,-1,218,220,219,-1,219,220,221,-1,220,210,221,-1,221,210,212,-1,218,216,220,-1,220,216,214,-1,220,214,210,-1,210,214,211,-1,
        ]
    }
}
Shape{
    appearance Appearance {
        material  Material 	{
            diffuseColor 0.0 0.4196078431372549 0.5882352941176471
            specularColor 0.0 0.03137254901960784 0.043137254901960784
            ambientIntensity 0.2
            transparency 0
            shininess 0.5
        }
    }
    geometry IndexedFaceSet {
        ccw TRUE
        solid FALSE
        coord DEF co Coordinate {
            point [
                -0.1188 -0.0062 0.0, -0.1451 -0.0062 0.0, -0.1305 0.0267 0.0, -0.1333 0.0267 0.0, -0.1313 0.0294 0.0, -0.1326 0.0294 -0.0, -0.1318 0.0322 0.0, -0.132 0.0322 0.0, -0.0385 0.0332 0.0, -0.0385 -0.0283 0.0, -0.0501 0.0332 0.0, -0.0497 -0.0283 0.0, -0.058 -0.0275 0.0, -0.0808 0.0032 0.0, -0.0801 0.011 0.0, -0.0782 0.0173 0.0, -0.0594 0.0322 0.0, -0.0646 -0.0255 0.0, -0.07 -0.0223 0.0, -0.0744 -0.0179 0.0, -0.0777 -0.0125 0.0, -0.08 -0.0051 0.0, -0.0755 0.0221 -0.0, -0.0717 0.0262 0.0, -0.0659 0.0299 0.0, -0.0659 0.0299 0.0
            ]
        }
        coordIndex [
            0,1,2,-1,2,1,3,-1,2,3,4,-1,4,3,5,-1,4,5,6,-1,6,5,7,-1,8,9,10,-1,10,9,11,-1,10,11,12,-1,13,14,10,-1,10,14,15,-1,10,15,16,-1,12,17,10,-1,10,17,18,-1,10,18,19,-1,19,20,10,-1,10,20,21,-1,10,21,13,-1,22,23,15,-1,15,23,24,-1,15,24,16,-1,
        ]
    }
}