#VRML V2.0 utf8
# 3D model generated by easyeda2kicad.py (https://github.com/uPesy/easyeda2kicad.py)

Shape{
    appearance Appearance {
        material  Material 	{
            diffuseColor 1.0 1.0 1.0
            specularColor 0.30196078431372547 0.30196078431372547 0.30196078431372547
            ambientIntensity 0.2
            transparency 0
            shininess 0.5
        }
    }
    geometry IndexedFaceSet {
        ccw TRUE
        solid FALSE
        coord DEF co Coordinate {
            point [
                -1.1024 -0.7672 2.2846, -1.1024 -0.5704 2.2846, -1.1126 -0.5704 2.2832, -1.1126 -0.7672 2.2832, -1.122 -0.5704 2.2793, -1.122 -0.7672 2.2793, -1.1302 -0.5704 2.273, -1.1302 -0.7672 2.273, -1.1365 -0.5704 2.2649, -1.1365 -0.7672 2.2649, -1.1404 -0.5704 2.2554, -1.1404 -0.7672 2.2554, -1.1417 -0.5704 2.2452, -1.1417 -0.7672 2.2452, -1.1417 -0.7672 0.0405, -1.1417 -0.5704 0.0405, -1.1404 -0.5704 0.0303, -1.1404 -0.7672 0.0303, -1.1365 -0.5704 0.0208, -1.1365 -0.7672 0.0208, -1.1302 -0.5704 0.0126, -1.1302 -0.7672 0.0126, -1.122 -0.5704 0.0064, -1.122 -0.7672 0.0064, -1.1126 -0.5704 0.0024, -1.1126 -0.7672 0.0024, -1.1024 -0.5704 0.0011, -1.1024 -0.7672 0.0011, 1.1024 -0.7672 0.0011, 1.1024 -0.5704 0.0011, 1.1126 -0.5704 0.0024, 1.1126 -0.7672 0.0024, 1.122 -0.5704 0.0064, 1.122 -0.7672 0.0064, 1.1302 -0.5704 0.0126, 1.1302 -0.7672 0.0126, 1.1365 -0.5704 0.0208, 1.1365 -0.7672 0.0208, 1.1404 -0.5704 0.0303, 1.1404 -0.7672 0.0303, 1.1417 -0.5704 0.0405, 1.1417 -0.7672 0.0405, 1.1417 -0.7672 2.2452, 1.1417 -0.5704 2.2452, 1.1404 -0.5704 2.2554, 1.1404 -0.7672 2.2554, 1.1365 -0.5704 2.2649, 1.1365 -0.7672 2.2649, 1.1302 -0.5704 2.273, 1.1302 -0.7672 2.273, 1.122 -0.5704 2.2793, 1.122 -0.7672 2.2793, 1.1126 -0.5704 2.2832, 1.1126 -0.7672 2.2832, 1.1024 -0.5704 2.2846, 1.1024 -0.7672 2.2846, -0.9055 -1.0035 2.0483, -0.9055 -1.0035 0.2373, 0.9055 -1.0035 2.0483, 0.9055 -1.0035 0.2373, -1.0276 -0.9509 0.0908, 1.0276 -0.9509 0.0908, 1.0044 -0.9715 0.1186, 0.9198 -1.0028 0.2201, -0.9198 -1.0028 0.2201, 0.9491 -0.9962 0.185, -0.9491 -0.9962 0.185, 0.9638 -0.9929 0.1673, -0.9638 -0.9929 0.1673, 0.9905 -0.9788 0.1354, -0.9905 -0.9788 0.1354, -1.0044 -0.9715 0.1186, 1.0396 -0.9402 0.0764, -1.0396 -0.9402 0.0764, 1.0586 -0.9137 0.0536, -1.0821 -0.8692 0.0255, 1.0677 -0.9011 0.0427, -1.0677 -0.9011 0.0427, -1.0586 -0.9137 0.0536, -1.0989 -0.8112 0.0052, 1.0989 -0.8112 0.0052, -1.0969 -0.8196 0.0077, 1.0969 -0.8196 0.0077, -1.0878 -0.8565 0.0186, 1.0878 -0.8565 0.0186, 1.0821 -0.8692 0.0255, 1.1351 -0.8196 0.046, 1.1242 -0.8565 0.0551, 1.1219 -0.8591 0.0464, 1.1087 -0.8128 0.0068, 1.1174 -0.8692 0.0608, 1.1001 -0.9011 0.0751, 1.0972 -0.9039 0.0681, 1.0893 -0.9137 0.0842, 1.0664 -0.9402 0.1032, 1.0632 -0.9424 0.0979, 1.052 -0.9509 0.1152, 1.0242 -0.9715 0.1384, 1.0214 -0.9728 0.1348, 1.0075 -0.9788 0.1524, 0.9755 -0.9929 0.179, 0.9736 -0.9933 0.177, 1.008 -0.9728 0.1214, 0.9658 -0.9933 0.1692, 0.9218 -1.0029 0.222, 0.9222 -1.0029 0.2225, 0.9213 -1.0029 0.2216, 0.9578 -0.9962 0.1937, 0.9227 -1.0028 0.223, 0.9208 -1.0029 0.2211, 0.9203 -1.0029 0.2206, 0.9717 -0.9936 0.175, 0.9698 -0.9937 0.173, 0.9678 -0.9936 0.1711, 1.0183 -0.9736 0.1312, 1.015 -0.9738 0.1278, 1.0116 -0.9736 0.1245, 1.0593 -0.9438 0.0928, 1.0549 -0.9442 0.0879, 1.05 -0.9438 0.0835, 1.0449 -0.9424 0.0796, 1.0747 -0.9039 0.0457, 1.0929 -0.9057 0.0613, 1.0876 -0.9063 0.0552, 1.0815 -0.9057 0.0499, 1.0964 -0.8591 0.0209, 1.1178 -0.8608 0.0382, 1.1119 -0.8613 0.031, 1.1046 -0.8608 0.0251, 1.1376 -0.8112 0.0439, 1.136 -0.8128 0.0341, 1.132 -0.8137 0.0249, 1.1258 -0.8141 0.017, 1.1179 -0.8137 0.0108, -1.0964 -0.8591 0.0209, -1.1351 -0.8196 0.046, -1.1376 -0.8112 0.0439, -1.136 -0.8128 0.0341, -1.0747 -0.9039 0.0457, -1.0449 -0.9424 0.0796, -1.008 -0.9728 0.1214, -0.9658 -0.9933 0.1692, -1.0075 -0.9788 0.1524, -1.0242 -0.9715 0.1384, -1.0214 -0.9728 0.1348, -0.9578 -0.9962 0.1937, -0.9755 -0.9929 0.179, -0.9736 -0.9933 0.177, -0.9208 -1.0029 0.2211, -0.9203 -1.0029 0.2206, -0.9213 -1.0029 0.2216, -0.9218 -1.0029 0.222, -0.9222 -1.0029 0.2225, -0.9227 -1.0028 0.223, -0.9678 -0.9936 0.1711, -0.9698 -0.9937 0.173, -0.9717 -0.9936 0.175, -1.0116 -0.9736 0.1245, -1.015 -0.9738 0.1278, -1.0183 -0.9736 0.1312, -1.05 -0.9438 0.0835, -1.0549 -0.9442 0.0879, -1.0593 -0.9438 0.0928, -1.0632 -0.9424 0.0979, -1.052 -0.9509 0.1152, -1.0664 -0.9402 0.1032, -1.0893 -0.9137 0.0842, -1.0972 -0.9039 0.0681, -1.0815 -0.9057 0.0499, -1.0876 -0.9063 0.0552, -1.0929 -0.9057 0.0613, -1.1001 -0.9011 0.0751, -1.1174 -0.8692 0.0608, -1.1219 -0.8591 0.0464, -1.1046 -0.8608 0.0251, -1.1119 -0.8613 0.031, -1.1178 -0.8608 0.0382, -1.1242 -0.8565 0.0551, -1.1087 -0.8128 0.0068, -1.1179 -0.8137 0.0108, -1.1258 -0.8141 0.017, -1.132 -0.8137 0.0249, 1.052 -0.9509 2.1704, 1.0242 -0.9715 2.1473, 0.9227 -1.0028 2.0627, 0.9578 -0.9962 2.0919, 0.9755 -0.9929 2.1067, 1.0075 -0.9788 2.1333, 1.0664 -0.9402 2.1824, 1.0893 -0.9137 2.2015, 1.1001 -0.9011 2.2105, 1.1174 -0.8692 2.2249, 1.1242 -0.8565 2.2306, 1.1351 -0.8196 2.2397, 1.1376 -0.8112 2.2418, -1.1376 -0.8112 2.2418, -1.1351 -0.8196 2.2397, -1.1242 -0.8565 2.2306, -1.1174 -0.8692 2.2249, -1.1001 -0.9011 2.2105, -1.0893 -0.9137 2.2015, -1.0664 -0.9402 2.1824, -1.052 -0.9509 2.1704, -0.9227 -1.0028 2.0627, -0.9578 -0.9962 2.0919, -0.9755 -0.9929 2.1067, -1.0075 -0.9788 2.1333, -1.0242 -0.9715 2.1473, 1.0969 -0.8196 2.278, 1.0878 -0.8565 2.267, 1.0964 -0.8591 2.2648, 1.136 -0.8128 2.2516, 1.0821 -0.8692 2.2602, 1.0677 -0.9011 2.243, 1.0747 -0.9039 2.24, 1.0586 -0.9137 2.2321, 1.0396 -0.9402 2.2092, 1.0449 -0.9424 2.206, 1.0276 -0.9509 2.1948, 1.0044 -0.9715 2.1671, 1.008 -0.9728 2.1642, 0.9905 -0.9788 2.1503, 0.9638 -0.9929 2.1183, 0.9658 -0.9933 2.1165, 1.0214 -0.9728 2.1509, 0.9736 -0.9933 2.1087, 0.9208 -1.0029 2.0646, 0.9203 -1.0029 2.0651, 0.9213 -1.0029 2.0641, 0.9491 -0.9962 2.1006, 0.9198 -1.0028 2.0655, 0.9218 -1.0029 2.0636, 0.9222 -1.0029 2.0632, 0.9678 -0.9936 2.1146, 0.9698 -0.9937 2.1126, 0.9717 -0.9936 2.1107, 1.0116 -0.9736 2.1612, 1.015 -0.9738 2.1579, 1.0183 -0.9736 2.1544, 1.05 -0.9438 2.2022, 1.0549 -0.9442 2.1977, 1.0593 -0.9438 2.1929, 1.0632 -0.9424 2.1877, 1.0972 -0.9039 2.2176, 1.0815 -0.9057 2.2358, 1.0876 -0.9063 2.2305, 1.0929 -0.9057 2.2243, 1.1219 -0.8591 2.2393, 1.1046 -0.8608 2.2606, 1.1119 -0.8613 2.2547, 1.1178 -0.8608 2.2475, 1.0989 -0.8112 2.2804, 1.1087 -0.8128 2.2788, 1.1179 -0.8137 2.2748, 1.1258 -0.8141 2.2686, 1.132 -0.8137 2.2607, -1.1219 -0.8591 2.2393, -1.0969 -0.8196 2.278, -1.0989 -0.8112 2.2804, -1.1087 -0.8128 2.2788, -1.0972 -0.9039 2.2176, -1.0632 -0.9424 2.1877, -1.0214 -0.9728 2.1509, -0.9736 -0.9933 2.1087, -0.9905 -0.9788 2.1503, -1.0044 -0.9715 2.1671, -1.008 -0.9728 2.1642, -0.9491 -0.9962 2.1006, -0.9638 -0.9929 2.1183, -0.9658 -0.9933 2.1165, -0.9218 -1.0029 2.0636, -0.9222 -1.0029 2.0632, -0.9213 -1.0029 2.0641, -0.9208 -1.0029 2.0646, -0.9203 -1.0029 2.0651, -0.9198 -1.0028 2.0655, -0.9717 -0.9936 2.1107, -0.9698 -0.9937 2.1126, -0.9678 -0.9936 2.1146, -1.0183 -0.9736 2.1544, -1.015 -0.9738 2.1579, -1.0116 -0.9736 2.1612, -1.0593 -0.9438 2.1929, -1.0549 -0.9442 2.1977, -1.05 -0.9438 2.2022, -1.0449 -0.9424 2.206, -1.0276 -0.9509 2.1948, -1.0396 -0.9402 2.2092, -1.0586 -0.9137 2.2321, -1.0747 -0.9039 2.24, -1.0929 -0.9057 2.2243, -1.0876 -0.9063 2.2305, -1.0815 -0.9057 2.2358, -1.0677 -0.9011 2.243, -1.0821 -0.8692 2.2602, -1.0964 -0.8591 2.2648, -1.1178 -0.8608 2.2475, -1.1119 -0.8613 2.2547, -1.1046 -0.8608 2.2606, -1.0878 -0.8565 2.267, -1.136 -0.8128 2.2516, -1.132 -0.8137 2.2607, -1.1258 -0.8141 2.2686, -1.1179 -0.8137 2.2748, -1.1179 -0.8137 2.2748
            ]
        }
        coordIndex [
            0,1,2,-1,0,2,3,-1,3,2,4,-1,3,4,5,-1,5,4,6,-1,5,6,7,-1,7,6,8,-1,7,8,9,-1,9,8,10,-1,9,10,11,-1,11,10,12,-1,11,12,13,-1,13,12,14,-1,14,12,15,-1,14,15,16,-1,14,16,17,-1,17,16,18,-1,17,18,19,-1,19,18,20,-1,19,20,21,-1,21,20,22,-1,21,22,23,-1,23,22,24,-1,23,24,25,-1,25,24,26,-1,25,26,27,-1,27,26,28,-1,28,26,29,-1,28,29,30,-1,28,30,31,-1,31,30,32,-1,31,32,33,-1,33,32,34,-1,33,34,35,-1,35,34,36,-1,35,36,37,-1,37,36,38,-1,37,38,39,-1,39,38,40,-1,39,40,41,-1,41,40,42,-1,42,40,43,-1,42,43,44,-1,42,44,45,-1,45,44,46,-1,45,46,47,-1,47,46,48,-1,47,48,49,-1,49,48,50,-1,49,50,51,-1,51,50,52,-1,51,52,53,-1,53,52,54,-1,53,54,55,-1,55,54,0,-1,0,54,1,-1,56,57,58,-1,58,57,59,-1,43,40,54,-1,40,15,54,-1,54,15,12,-1,54,12,1,-1,1,12,2,-1,36,29,38,-1,38,29,40,-1,8,6,4,-1,50,48,46,-1,34,32,36,-1,36,32,30,-1,36,30,29,-1,40,29,15,-1,15,29,26,-1,15,26,24,-1,54,52,43,-1,43,52,50,-1,43,50,44,-1,44,50,46,-1,18,16,20,-1,20,16,15,-1,20,15,22,-1,22,15,24,-1,2,12,4,-1,4,12,10,-1,4,10,8,-1,60,61,62,-1,59,57,63,-1,63,57,64,-1,63,64,65,-1,65,64,66,-1,65,66,67,-1,67,66,68,-1,67,68,69,-1,69,68,70,-1,69,70,62,-1,62,70,71,-1,62,71,60,-1,61,60,72,-1,72,60,73,-1,72,73,74,-1,75,76,77,-1,77,76,74,-1,77,74,78,-1,78,74,73,-1,27,28,79,-1,79,28,80,-1,79,80,81,-1,81,80,82,-1,81,82,83,-1,83,82,84,-1,83,84,75,-1,75,84,85,-1,75,85,76,-1,86,87,88,-1,82,80,89,-1,90,91,92,-1,93,94,95,-1,96,97,98,-1,99,100,101,-1,69,62,102,-1,65,67,103,-1,104,105,59,-1,104,59,106,-1,107,108,105,-1,105,108,59,-1,109,106,59,-1,110,109,59,-1,63,110,59,-1,100,107,101,-1,101,107,105,-1,101,105,111,-1,111,105,104,-1,111,104,112,-1,112,104,106,-1,112,106,113,-1,113,106,109,-1,113,109,103,-1,103,109,110,-1,103,110,65,-1,65,110,63,-1,97,99,98,-1,98,99,101,-1,98,101,114,-1,114,101,111,-1,114,111,115,-1,115,111,112,-1,115,112,116,-1,116,112,113,-1,116,113,102,-1,102,113,103,-1,102,103,69,-1,69,103,67,-1,94,96,95,-1,95,96,98,-1,95,98,117,-1,117,98,114,-1,117,114,118,-1,118,114,115,-1,118,115,119,-1,119,115,116,-1,119,116,120,-1,120,116,102,-1,120,102,61,-1,61,102,62,-1,72,74,121,-1,91,93,92,-1,92,93,95,-1,92,95,122,-1,122,95,117,-1,122,117,123,-1,123,117,118,-1,123,118,124,-1,124,118,119,-1,124,119,121,-1,121,119,120,-1,121,120,72,-1,72,120,61,-1,76,85,125,-1,87,90,88,-1,88,90,92,-1,88,92,126,-1,126,92,122,-1,126,122,127,-1,127,122,123,-1,127,123,128,-1,128,123,124,-1,128,124,125,-1,125,124,121,-1,125,121,76,-1,76,121,74,-1,82,89,84,-1,129,86,130,-1,130,86,88,-1,130,88,131,-1,131,88,126,-1,131,126,132,-1,132,126,127,-1,132,127,133,-1,133,127,128,-1,133,128,89,-1,89,128,125,-1,89,125,84,-1,84,125,85,-1,41,129,39,-1,39,129,130,-1,39,130,37,-1,37,130,131,-1,37,131,35,-1,35,131,132,-1,35,132,33,-1,33,132,133,-1,33,133,31,-1,31,133,89,-1,31,89,28,-1,28,89,80,-1,81,83,134,-1,135,136,137,-1,75,77,138,-1,78,73,139,-1,60,71,140,-1,70,68,141,-1,142,143,144,-1,145,146,147,-1,148,149,57,-1,148,57,150,-1,66,64,149,-1,149,64,57,-1,151,150,57,-1,152,151,57,-1,153,152,57,-1,68,66,141,-1,141,66,149,-1,141,149,154,-1,154,149,148,-1,154,148,155,-1,155,148,150,-1,155,150,156,-1,156,150,151,-1,156,151,147,-1,147,151,152,-1,147,152,145,-1,145,152,153,-1,71,70,140,-1,140,70,141,-1,140,141,157,-1,157,141,154,-1,157,154,158,-1,158,154,155,-1,158,155,159,-1,159,155,156,-1,159,156,144,-1,144,156,147,-1,144,147,142,-1,142,147,146,-1,73,60,139,-1,139,60,140,-1,139,140,160,-1,160,140,157,-1,160,157,161,-1,161,157,158,-1,161,158,162,-1,162,158,159,-1,162,159,163,-1,163,159,144,-1,163,144,164,-1,164,144,143,-1,165,166,167,-1,77,78,138,-1,138,78,139,-1,138,139,168,-1,168,139,160,-1,168,160,169,-1,169,160,161,-1,169,161,170,-1,170,161,162,-1,170,162,167,-1,167,162,163,-1,167,163,165,-1,165,163,164,-1,171,172,173,-1,83,75,134,-1,134,75,138,-1,134,138,174,-1,174,138,168,-1,174,168,175,-1,175,168,169,-1,175,169,176,-1,176,169,170,-1,176,170,173,-1,173,170,167,-1,173,167,171,-1,171,167,166,-1,135,137,177,-1,79,81,178,-1,178,81,134,-1,178,134,179,-1,179,134,174,-1,179,174,180,-1,180,174,175,-1,180,175,181,-1,181,175,176,-1,181,176,137,-1,137,176,173,-1,137,173,177,-1,177,173,172,-1,27,79,25,-1,25,79,178,-1,25,178,23,-1,23,178,179,-1,23,179,21,-1,21,179,180,-1,21,180,19,-1,19,180,181,-1,19,181,17,-1,17,181,137,-1,17,137,14,-1,14,137,136,-1,96,182,183,-1,58,59,184,-1,184,59,108,-1,184,108,185,-1,185,108,107,-1,185,107,186,-1,186,107,100,-1,186,100,187,-1,187,100,99,-1,187,99,183,-1,183,99,97,-1,183,97,96,-1,182,96,188,-1,188,96,94,-1,188,94,189,-1,94,93,189,-1,189,93,91,-1,189,91,190,-1,190,91,90,-1,190,90,191,-1,191,90,192,-1,192,90,87,-1,192,87,193,-1,87,86,193,-1,193,86,129,-1,193,129,194,-1,194,129,41,-1,194,41,42,-1,13,14,136,-1,13,136,195,-1,195,136,135,-1,195,135,196,-1,196,135,197,-1,197,135,177,-1,197,177,198,-1,198,177,172,-1,198,172,199,-1,199,172,171,-1,199,171,200,-1,200,171,166,-1,200,166,201,-1,201,166,165,-1,201,165,202,-1,202,165,164,-1,202,164,143,-1,57,56,153,-1,153,56,203,-1,153,203,145,-1,145,203,204,-1,145,204,146,-1,146,204,205,-1,146,205,142,-1,142,205,206,-1,142,206,143,-1,143,206,207,-1,143,207,202,-1,208,209,210,-1,193,194,211,-1,212,213,214,-1,215,216,217,-1,218,219,220,-1,221,222,223,-1,187,183,224,-1,185,186,225,-1,226,227,58,-1,226,58,228,-1,229,230,227,-1,227,230,58,-1,231,228,58,-1,232,231,58,-1,184,232,58,-1,222,229,223,-1,223,229,227,-1,223,227,233,-1,233,227,226,-1,233,226,234,-1,234,226,228,-1,234,228,235,-1,235,228,231,-1,235,231,225,-1,225,231,232,-1,225,232,185,-1,185,232,184,-1,219,221,220,-1,220,221,223,-1,220,223,236,-1,236,223,233,-1,236,233,237,-1,237,233,234,-1,237,234,238,-1,238,234,235,-1,238,235,224,-1,224,235,225,-1,224,225,187,-1,187,225,186,-1,216,218,217,-1,217,218,220,-1,217,220,239,-1,239,220,236,-1,239,236,240,-1,240,236,237,-1,240,237,241,-1,241,237,238,-1,241,238,242,-1,242,238,224,-1,242,224,182,-1,182,224,183,-1,188,189,243,-1,213,215,214,-1,214,215,217,-1,214,217,244,-1,244,217,239,-1,244,239,245,-1,245,239,240,-1,245,240,246,-1,246,240,241,-1,246,241,243,-1,243,241,242,-1,243,242,188,-1,188,242,182,-1,190,191,247,-1,209,212,210,-1,210,212,214,-1,210,214,248,-1,248,214,244,-1,248,244,249,-1,249,244,245,-1,249,245,250,-1,250,245,246,-1,250,246,247,-1,247,246,243,-1,247,243,190,-1,190,243,189,-1,193,211,192,-1,251,208,252,-1,252,208,210,-1,252,210,253,-1,253,210,248,-1,253,248,254,-1,254,248,249,-1,254,249,255,-1,255,249,250,-1,255,250,211,-1,211,250,247,-1,211,247,192,-1,192,247,191,-1,55,251,53,-1,53,251,252,-1,53,252,51,-1,51,252,253,-1,51,253,49,-1,49,253,254,-1,49,254,47,-1,47,254,255,-1,47,255,45,-1,45,255,211,-1,45,211,42,-1,42,211,194,-1,196,197,256,-1,257,258,259,-1,198,199,260,-1,200,201,261,-1,202,207,262,-1,206,205,263,-1,264,265,266,-1,267,268,269,-1,270,271,56,-1,270,56,272,-1,204,203,271,-1,271,203,56,-1,273,272,56,-1,274,273,56,-1,275,274,56,-1,205,204,263,-1,263,204,271,-1,263,271,276,-1,276,271,270,-1,276,270,277,-1,277,270,272,-1,277,272,278,-1,278,272,273,-1,278,273,269,-1,269,273,274,-1,269,274,267,-1,267,274,275,-1,207,206,262,-1,262,206,263,-1,262,263,279,-1,279,263,276,-1,279,276,280,-1,280,276,277,-1,280,277,281,-1,281,277,278,-1,281,278,266,-1,266,278,269,-1,266,269,264,-1,264,269,268,-1,201,202,261,-1,261,202,262,-1,261,262,282,-1,282,262,279,-1,282,279,283,-1,283,279,280,-1,283,280,284,-1,284,280,281,-1,284,281,285,-1,285,281,266,-1,285,266,286,-1,286,266,265,-1,287,288,289,-1,199,200,260,-1,260,200,261,-1,260,261,290,-1,290,261,282,-1,290,282,291,-1,291,282,283,-1,291,283,292,-1,292,283,284,-1,292,284,289,-1,289,284,285,-1,289,285,287,-1,287,285,286,-1,293,294,295,-1,197,198,256,-1,256,198,260,-1,256,260,296,-1,296,260,290,-1,296,290,297,-1,297,290,291,-1,297,291,298,-1,298,291,292,-1,298,292,295,-1,295,292,289,-1,295,289,293,-1,293,289,288,-1,257,259,299,-1,195,196,300,-1,300,196,256,-1,300,256,301,-1,301,256,296,-1,301,296,302,-1,302,296,297,-1,302,297,303,-1,303,297,298,-1,303,298,259,-1,259,298,295,-1,259,295,299,-1,299,295,294,-1,13,195,11,-1,11,195,300,-1,11,300,9,-1,9,300,301,-1,9,301,7,-1,7,301,302,-1,7,302,5,-1,5,302,303,-1,5,303,3,-1,3,303,259,-1,3,259,0,-1,0,259,258,-1,221,264,268,-1,56,58,275,-1,275,58,230,-1,275,230,267,-1,267,230,229,-1,267,229,268,-1,268,229,222,-1,268,222,221,-1,218,286,265,-1,264,221,265,-1,265,221,219,-1,265,219,218,-1,286,218,287,-1,287,218,216,-1,287,216,288,-1,212,293,213,-1,213,293,288,-1,213,288,215,-1,215,288,216,-1,55,0,251,-1,251,0,258,-1,251,258,208,-1,208,258,257,-1,208,257,209,-1,209,257,299,-1,209,299,212,-1,212,299,294,-1,212,294,293,-1,
        ]
    }
}
Shape{
    appearance Appearance {
        material  Material 	{
            diffuseColor 0.10980392156862745 0.10980392156862745 0.10980392156862745
            specularColor 0.0784313725490196 0.0784313725490196 0.0784313725490196
            ambientIntensity 0.2
            transparency 0
            shininess 0.5
        }
    }
    geometry IndexedFaceSet {
        ccw TRUE
        solid FALSE
        coord DEF co Coordinate {
            point [
                -0.0247 0.0547 0.0011, -0.0343 0.0535 0.0011, -0.0382 0.0546 0.0011, -0.0249 0.0455 0.0011, -0.0159 0.048 0.0011, -0.0082 -0.5664 0.0011, -0.0159 0.1205 0.0011, -0.0082 0.125 0.0011, -0.0159 0.1118 0.0011, -0.0159 0.0585 0.0011, -0.0256 0.1157 0.0011, -0.0361 0.1169 0.0011, -0.1215 0.1245 0.0011, -0.0394 0.125 0.0011, -0.0811 0.1245 0.0011, -0.0438 0.1239 0.0011, -0.0586 0.1184 0.0011, -0.0559 0.0629 0.0011, -0.0586 0.0661 0.0011, -0.0449 0.1148 0.0011, -0.0608 0.0703 0.0011, -0.0625 0.0764 0.0011, -0.0639 0.086 0.0011, -0.062 0.0956 0.0011, -0.0504 0.1127 0.0011, -0.0511 0.0595 0.0011, -0.0592 0.1038 0.0011, -0.0566 0.1081 0.0011, -0.0541 0.1105 0.0011, -0.0643 0.1146 0.0011, -0.0677 0.1107 0.0011, -0.0811 0.1159 0.0011, -0.0704 0.1057 0.0011, -0.0726 0.0983 0.0011, -0.0744 0.0866 0.0011, -0.0735 0.0822 0.0011, -0.068 0.0641 0.0011, -0.064 0.0575 0.0011, -0.06 0.0535 0.0011, -0.0547 0.0503 0.0011, -0.0469 0.0475 0.0011, -0.0344 0.0448 0.0011, -0.0264 0.1244 0.0011, -0.0327 0.125 0.0011, -0.0082 1.0044 0.0011, -0.0375 0.1255 0.0011, -0.1109 0.1159 0.0011, -0.1109 0.0458 0.0011, -0.1215 0.0458 0.0011, -1.1024 -0.5664 0.0011, -1.1024 0.125 0.0011, -1.1024 1.0044 0.0011, 1.1024 0.125 0.0011, 0.1973 0.1245 0.0011, 0.1858 0.1245 0.0011, 0.1263 0.1245 0.0011, 0.1131 0.1066 0.0011, 0.1089 0.113 0.0011, 0.0418 0.1245 0.0011, -0.0005 0.1245 0.0011, -0.0005 0.0458 0.0011, 0.0398 0.0458 0.0011, 1.1024 -0.5664 0.0011, 0.0785 0.1245 0.0011, 0.0571 0.1245 0.0011, 0.1047 0.1169 0.0011, 0.0992 0.1198 0.0011, 0.0913 0.1223 0.0011, 0.0101 0.0544 0.0011, 0.0101 0.0804 0.0011, 0.0398 0.0544 0.0011, 0.0379 0.0804 0.0011, 0.1666 0.0458 0.0011, 0.156 0.0458 0.0011, 0.1778 0.1024 0.0011, 0.1453 0.1024 0.0011, 0.1378 0.1245 0.0011, 0.0379 0.089 0.0011, 0.0571 0.0458 0.0011, 0.1017 0.0519 0.0011, 0.108 0.0556 0.0011, 0.1119 0.0595 0.0011, 0.115 0.0646 0.0011, 0.0793 0.0458 0.0011, 0.0848 0.0469 0.0011, 0.1178 0.0721 0.0011, 0.1205 0.0842 0.0011, 0.1193 0.0889 0.0011, 1.1024 1.0044 0.0011, 0.0418 0.1159 0.0011, 0.0101 0.1159 0.0011, 0.0101 0.089 0.0011, -1.1417 -0.0783 0.1783, -1.1417 1.0044 0.0405, -1.1417 -0.5664 0.0405, -1.1417 -0.0783 0.2964, -1.1417 -0.3145 0.2964, -1.1417 -0.5664 0.4539, -1.1417 -0.3145 0.1783, -1.1417 1.0044 0.5523, -1.1417 0.4729 0.2964, -1.1417 0.4729 0.1783, -1.1417 0.7091 0.1783, -1.1417 0.7091 0.2964, 1.1417 0.4729 0.2964, 1.1417 -0.0783 0.2964, 1.1417 0.4729 0.1783, 1.1417 -0.0783 0.1783, 1.1417 0.7091 0.1783, 1.1417 1.0044 0.0405, 1.1417 0.7091 0.2964, 1.1417 1.0044 0.5523, 1.1417 -0.5664 0.4539, 1.1417 -0.5664 0.0405, 1.1417 -0.3145 0.1783, 1.1417 -0.3145 0.2964, 1.1417 1.0044 1.7334, 1.1417 1.0044 2.2452, 1.1417 -0.5664 1.8318, 1.1417 -0.5664 2.2452, -1.1024 -0.5664 2.2846, 1.1024 -0.5664 2.2846, -1.1024 1.0044 2.2846, 1.1024 1.0044 2.2846, -1.1417 -0.5664 1.8318, -1.1417 -0.5664 2.2452, -1.1417 1.0044 1.7334, -1.1417 1.0044 2.2452, 1.0433 -0.5664 0.4539, 1.1126 -0.5664 0.0024, 1.122 -0.5664 0.0064, 1.1302 -0.5664 0.0126, -1.0433 -0.5664 1.8318, 1.0433 -0.5664 1.8318, -1.0433 -0.5664 0.4539, 1.1365 -0.5664 0.0208, 1.1404 -0.5664 0.0303, 1.1404 -0.5664 2.2554, 1.1126 -0.5664 2.2832, 1.1365 -0.5664 2.2649, 1.1302 -0.5664 2.273, 1.122 -0.5664 2.2793, -1.1365 -0.5664 2.2649, -1.1126 -0.5664 2.2832, -1.1302 -0.5664 2.273, -1.122 -0.5664 2.2793, -1.1404 -0.5664 2.2554, -1.1126 -0.5664 0.0024, -1.122 -0.5664 0.0064, -1.1302 -0.5664 0.0126, -1.1404 -0.5664 0.0303, -1.1365 -0.5664 0.0208, -1.0433 1.0044 1.7334, 1.0433 1.0044 1.7334, 0.2756 1.0044 0.2964, 0.2756 1.0044 0.1783, 0.5118 1.0044 0.1783, 1.0433 1.0044 0.5523, -0.2756 1.0044 0.2964, -0.5118 1.0044 0.2964, -1.0433 1.0044 0.5523, -0.5118 1.0044 0.1783, -1.1126 1.0044 0.0024, -1.122 1.0044 0.0064, -1.1302 1.0044 0.0126, -1.1365 1.0044 0.0208, -1.1404 1.0044 0.0303, 0.5118 1.0044 0.2964, -1.1404 1.0044 2.2554, -1.1126 1.0044 2.2832, -1.1365 1.0044 2.2649, -1.1302 1.0044 2.273, -1.122 1.0044 2.2793, 1.1365 1.0044 0.0208, 1.1302 1.0044 0.0126, 1.122 1.0044 0.0064, 1.1365 1.0044 2.2649, 1.1126 1.0044 2.2832, 1.1302 1.0044 2.273, 1.122 1.0044 2.2793, 1.1404 1.0044 2.2554, -0.2756 1.0044 0.1783, 1.1404 1.0044 0.0303, 1.1126 1.0044 0.0024, 1.1126 1.0044 0.0024
            ]
        }
        coordIndex [
            0,1,2,-1,3,4,5,-1,6,7,8,-1,8,7,9,-1,9,0,8,-1,8,0,2,-1,8,2,10,-1,10,2,11,-1,12,13,14,-1,14,13,15,-1,14,15,16,-1,17,18,19,-1,19,18,20,-1,19,20,21,-1,21,22,19,-1,19,22,23,-1,19,23,24,-1,11,2,19,-1,19,2,25,-1,19,25,17,-1,26,27,23,-1,23,27,28,-1,23,28,24,-1,16,29,14,-1,14,29,30,-1,14,30,31,-1,31,30,32,-1,32,33,31,-1,31,33,34,-1,31,34,5,-1,5,34,35,-1,5,35,36,-1,36,37,5,-1,5,37,38,-1,5,38,39,-1,39,40,5,-1,5,40,41,-1,5,41,3,-1,6,42,7,-1,7,42,43,-1,7,43,44,-1,44,43,45,-1,44,45,13,-1,46,31,47,-1,47,31,5,-1,47,5,48,-1,48,5,49,-1,48,49,12,-1,12,49,50,-1,12,50,13,-1,13,50,51,-1,13,51,44,-1,52,53,54,-1,55,56,57,-1,58,59,7,-1,7,59,60,-1,61,62,60,-1,60,62,5,-1,60,5,7,-1,7,5,4,-1,7,4,9,-1,52,63,64,-1,57,65,55,-1,55,65,66,-1,55,66,67,-1,68,69,70,-1,70,69,71,-1,53,52,72,-1,72,52,62,-1,72,62,73,-1,74,75,54,-1,54,75,76,-1,54,76,52,-1,52,76,55,-1,52,55,63,-1,63,55,67,-1,77,64,71,-1,71,64,78,-1,71,78,70,-1,70,78,61,-1,79,80,73,-1,73,80,81,-1,73,81,82,-1,61,78,62,-1,62,78,83,-1,62,83,73,-1,73,83,84,-1,73,84,79,-1,82,85,73,-1,73,85,86,-1,73,86,55,-1,55,86,87,-1,55,87,56,-1,44,88,7,-1,7,88,52,-1,7,52,58,-1,58,52,64,-1,58,64,89,-1,89,64,77,-1,89,77,90,-1,90,77,91,-1,92,93,94,-1,95,96,97,-1,97,96,94,-1,94,96,98,-1,94,98,92,-1,97,99,95,-1,95,99,100,-1,95,100,92,-1,92,100,101,-1,92,101,93,-1,93,101,102,-1,93,102,99,-1,99,102,103,-1,99,103,100,-1,104,105,106,-1,106,105,107,-1,108,109,110,-1,110,109,111,-1,110,111,104,-1,104,111,112,-1,104,112,105,-1,108,106,109,-1,109,106,107,-1,109,107,113,-1,113,107,114,-1,113,114,112,-1,112,114,115,-1,112,115,105,-1,116,117,118,-1,118,117,119,-1,120,121,122,-1,122,121,123,-1,124,125,126,-1,126,125,127,-1,113,112,128,-1,129,130,131,-1,125,124,132,-1,118,119,133,-1,133,119,120,-1,132,134,5,-1,129,131,62,-1,62,131,135,-1,62,135,136,-1,5,134,49,-1,49,134,97,-1,49,97,94,-1,137,138,119,-1,119,138,121,-1,119,121,120,-1,137,139,138,-1,138,139,140,-1,138,140,141,-1,142,143,144,-1,144,143,145,-1,136,113,62,-1,62,113,128,-1,62,128,5,-1,5,128,133,-1,5,133,132,-1,132,133,120,-1,132,120,125,-1,125,120,143,-1,125,143,146,-1,146,143,142,-1,147,49,148,-1,148,49,149,-1,94,150,49,-1,49,150,151,-1,49,151,149,-1,152,126,127,-1,117,116,153,-1,154,155,44,-1,44,155,156,-1,157,111,109,-1,158,159,123,-1,127,123,152,-1,152,123,159,-1,152,159,160,-1,160,159,161,-1,162,163,161,-1,161,163,164,-1,161,164,165,-1,99,160,93,-1,93,160,161,-1,93,161,166,-1,166,161,165,-1,154,153,167,-1,167,153,157,-1,167,157,156,-1,168,169,127,-1,127,169,122,-1,127,122,123,-1,168,170,169,-1,169,170,171,-1,169,171,172,-1,173,174,156,-1,156,174,175,-1,176,177,178,-1,178,177,179,-1,176,180,177,-1,177,180,117,-1,177,117,123,-1,123,117,153,-1,123,153,158,-1,158,153,154,-1,158,154,181,-1,181,154,44,-1,181,44,161,-1,161,44,51,-1,161,51,162,-1,157,109,156,-1,156,109,182,-1,156,182,173,-1,175,183,156,-1,156,183,88,-1,156,88,44,-1,50,49,147,-1,162,148,163,-1,163,148,149,-1,163,149,164,-1,164,149,151,-1,164,151,165,-1,165,151,150,-1,165,150,166,-1,166,150,94,-1,166,94,93,-1,51,50,162,-1,162,50,147,-1,162,147,148,-1,52,88,183,-1,129,62,52,-1,52,183,129,-1,129,183,175,-1,129,175,130,-1,130,175,174,-1,130,174,131,-1,131,174,173,-1,131,173,135,-1,135,173,182,-1,135,182,136,-1,136,182,109,-1,136,109,113,-1,120,122,169,-1,120,169,143,-1,143,169,172,-1,143,172,145,-1,145,172,171,-1,145,171,144,-1,144,171,170,-1,144,170,142,-1,142,170,168,-1,142,168,146,-1,146,168,127,-1,146,127,125,-1,119,117,180,-1,119,180,137,-1,137,180,176,-1,137,176,139,-1,139,176,178,-1,139,178,140,-1,140,178,179,-1,140,179,141,-1,141,179,177,-1,141,177,138,-1,138,177,123,-1,138,123,121,-1,157,128,111,-1,111,128,112,-1,133,153,118,-1,118,153,116,-1,153,133,157,-1,157,133,128,-1,134,160,97,-1,97,160,99,-1,152,132,126,-1,126,132,124,-1,152,160,132,-1,132,160,134,-1,
        ]
    }
}
Shape{
    appearance Appearance {
        material  Material 	{
            diffuseColor 0.7764705882352941 0.7568627450980392 0.7372549019607844
            specularColor 0.38823529411764707 0.3764705882352941 0.3686274509803922
            ambientIntensity 0.2
            transparency 0
            shininess 0.5
        }
    }
    geometry IndexedFaceSet {
        ccw TRUE
        solid FALSE
        coord DEF co Coordinate {
            point [
                -1.3779 0.532 -0.7832, -1.3779 0.6501 -0.7832, -1.2599 0.532 -0.7894, -1.2599 0.6501 -0.7894, -1.1904 0.7091 0.2964, -1.1417 0.7091 0.2964, -1.1904 0.7091 0.1783, -1.1417 0.7091 0.1783, -1.1904 0.4729 0.1783, -1.1417 0.4729 0.1783, -1.1904 0.4729 0.2964, -1.1417 0.4729 0.2964, -1.2101 0.7091 0.1596, -1.328 0.7091 0.1658, -1.2092 0.7091 0.1645, -1.3218 0.7091 0.2, -1.2071 0.7091 0.169, -1.3073 0.7091 0.2316, -1.204 0.7091 0.1729, -1.2853 0.7091 0.2585, -1.2 0.7091 0.1758, -1.2572 0.7091 0.2791, -1.1953 0.7091 0.1776, -1.2249 0.7091 0.292, -1.1953 0.4729 0.1776, -1.2 0.4729 0.1758, -1.204 0.4729 0.1729, -1.2071 0.4729 0.169, -1.2092 0.4729 0.1645, -1.2101 0.4729 0.1596, -1.2249 0.4729 0.292, -1.2572 0.4729 0.2791, -1.2853 0.4729 0.2585, -1.3073 0.4729 0.2316, -1.3218 0.4729 0.2, -1.328 0.4729 0.1658, -1.3675 0.7091 -0.5866, -1.2496 0.7091 -0.5928, -1.2496 0.4729 -0.5928, -1.3675 0.4729 -0.5866, -1.3779 -0.2554 -0.7832, -1.3779 -0.1373 -0.7832, -1.2599 -0.2554 -0.7894, -1.2599 -0.1373 -0.7894, -1.1904 -0.0783 0.2964, -1.1417 -0.0783 0.2964, -1.1904 -0.0783 0.1783, -1.1417 -0.0783 0.1783, -1.1904 -0.3145 0.1783, -1.1417 -0.3145 0.1783, -1.1904 -0.3145 0.2964, -1.1417 -0.3145 0.2964, -1.2101 -0.0783 0.1596, -1.328 -0.0783 0.1658, -1.2092 -0.0783 0.1645, -1.3218 -0.0783 0.2, -1.2071 -0.0783 0.169, -1.3073 -0.0783 0.2316, -1.204 -0.0783 0.1729, -1.2853 -0.0783 0.2585, -1.2 -0.0783 0.1758, -1.2572 -0.0783 0.2791, -1.1953 -0.0783 0.1776, -1.2249 -0.0783 0.292, -1.1953 -0.3145 0.1776, -1.2 -0.3145 0.1758, -1.204 -0.3145 0.1729, -1.2071 -0.3145 0.169, -1.2092 -0.3145 0.1645, -1.2101 -0.3145 0.1596, -1.2249 -0.3145 0.292, -1.2572 -0.3145 0.2791, -1.2853 -0.3145 0.2585, -1.3073 -0.3145 0.2316, -1.3218 -0.3145 0.2, -1.328 -0.3145 0.1658, -1.3675 -0.0783 -0.5866, -1.2496 -0.0783 -0.5928, -1.2496 -0.3145 -0.5928, -1.3675 -0.3145 -0.5866, 1.2599 0.532 -0.7894, 1.2599 0.6501 -0.7894, 1.3779 0.532 -0.7832, 1.3779 0.6501 -0.7832, 1.1904 0.4729 0.2964, 1.1417 0.4729 0.2964, 1.1904 0.4729 0.1783, 1.1417 0.4729 0.1783, 1.1904 0.7091 0.1783, 1.1417 0.7091 0.1783, 1.1904 0.7091 0.2964, 1.1417 0.7091 0.2964, 1.2101 0.4729 0.1596, 1.328 0.4729 0.1658, 1.2092 0.4729 0.1645, 1.3218 0.4729 0.2, 1.2071 0.4729 0.169, 1.3073 0.4729 0.2316, 1.204 0.4729 0.1729, 1.2853 0.4729 0.2585, 1.2 0.4729 0.1758, 1.2572 0.4729 0.2791, 1.1953 0.4729 0.1776, 1.2249 0.4729 0.292, 1.1953 0.7091 0.1776, 1.2 0.7091 0.1758, 1.204 0.7091 0.1729, 1.2071 0.7091 0.169, 1.2092 0.7091 0.1645, 1.2101 0.7091 0.1596, 1.2249 0.7091 0.292, 1.2572 0.7091 0.2791, 1.2853 0.7091 0.2585, 1.3073 0.7091 0.2316, 1.3218 0.7091 0.2, 1.328 0.7091 0.1658, 1.3675 0.4729 -0.5866, 1.2496 0.4729 -0.5928, 1.2496 0.7091 -0.5928, 1.3675 0.7091 -0.5866, 1.2599 -0.2554 -0.7894, 1.2599 -0.1373 -0.7894, 1.3779 -0.2554 -0.7832, 1.3779 -0.1373 -0.7832, 1.1904 -0.3145 0.2964, 1.1417 -0.3145 0.2964, 1.1904 -0.3145 0.1783, 1.1417 -0.3145 0.1783, 1.1904 -0.0783 0.1783, 1.1417 -0.0783 0.1783, 1.1904 -0.0783 0.2964, 1.1417 -0.0783 0.2964, 1.2101 -0.3145 0.1596, 1.328 -0.3145 0.1658, 1.2092 -0.3145 0.1645, 1.3218 -0.3145 0.2, 1.2071 -0.3145 0.169, 1.3073 -0.3145 0.2316, 1.204 -0.3145 0.1729, 1.2853 -0.3145 0.2585, 1.2 -0.3145 0.1758, 1.2572 -0.3145 0.2791, 1.1953 -0.3145 0.1776, 1.2249 -0.3145 0.292, 1.1953 -0.0783 0.1776, 1.2 -0.0783 0.1758, 1.204 -0.0783 0.1729, 1.2071 -0.0783 0.169, 1.2092 -0.0783 0.1645, 1.2101 -0.0783 0.1596, 1.2249 -0.0783 0.292, 1.2572 -0.0783 0.2791, 1.2853 -0.0783 0.2585, 1.3073 -0.0783 0.2316, 1.3218 -0.0783 0.2, 1.328 -0.0783 0.1658, 1.3675 -0.3145 -0.5866, 1.2496 -0.3145 -0.5928, 1.2496 -0.0783 -0.5928, 1.3675 -0.0783 -0.5866, 0.3346 1.1816 -0.7844, 0.4528 1.1816 -0.7844, 0.3346 1.0635 -0.7882, 0.4528 1.0635 -0.7882, 0.5118 1.0318 0.2964, 0.5118 1.0044 0.2964, 0.5118 1.0318 0.1783, 0.5118 1.0044 0.1783, 0.2756 1.0318 0.1783, 0.2756 1.0044 0.1783, 0.2756 1.0318 0.2964, 0.2756 1.0044 0.2964, 0.5118 1.1499 0.1821, 0.5118 1.145 0.2119, 0.5118 1.1328 0.2395, 0.5118 1.114 0.2631, 0.5118 1.0898 0.2812, 0.5118 1.0618 0.2925, 0.2756 1.0618 0.2925, 0.2756 1.0898 0.2812, 0.2756 1.114 0.2631, 0.2756 1.1328 0.2395, 0.2756 1.145 0.2119, 0.2756 1.1499 0.1821, 0.5118 1.1751 -0.5876, 0.5118 1.0571 -0.5915, 0.2756 1.0571 -0.5915, 0.2756 1.1751 -0.5876, -0.4528 1.1816 -0.7844, -0.3346 1.1816 -0.7844, -0.4528 1.0635 -0.7882, -0.3346 1.0635 -0.7882, -0.2756 1.0318 0.2964, -0.2756 1.0044 0.2964, -0.2756 1.0318 0.1783, -0.2756 1.0044 0.1783, -0.5118 1.0318 0.1783, -0.5118 1.0044 0.1783, -0.5118 1.0318 0.2964, -0.5118 1.0044 0.2964, -0.2756 1.1499 0.1821, -0.2756 1.145 0.2119, -0.2756 1.1328 0.2395, -0.2756 1.114 0.2631, -0.2756 1.0898 0.2812, -0.2756 1.0618 0.2925, -0.5118 1.0618 0.2925, -0.5118 1.0898 0.2812, -0.5118 1.114 0.2631, -0.5118 1.1328 0.2395, -0.5118 1.145 0.2119, -0.5118 1.1499 0.1821, -0.2756 1.1751 -0.5876, -0.2756 1.0571 -0.5915, -0.5118 1.0571 -0.5915, -0.5118 1.1751 -0.5876, -0.5118 1.1751 -0.5876
            ]
        }
        coordIndex [
            0,1,2,-1,2,1,3,-1,4,5,6,-1,6,5,7,-1,6,7,8,-1,8,7,9,-1,8,9,10,-1,10,9,11,-1,11,5,10,-1,10,5,4,-1,12,13,14,-1,14,13,15,-1,14,15,16,-1,16,15,17,-1,16,17,18,-1,18,17,19,-1,18,19,20,-1,20,19,21,-1,20,21,22,-1,22,21,23,-1,22,23,6,-1,6,23,4,-1,6,8,22,-1,22,8,24,-1,22,24,20,-1,20,24,25,-1,20,25,18,-1,18,25,26,-1,18,26,16,-1,16,26,27,-1,16,27,14,-1,14,27,28,-1,14,28,12,-1,12,28,29,-1,8,10,24,-1,24,10,30,-1,24,30,25,-1,25,30,31,-1,25,31,26,-1,26,31,32,-1,26,32,27,-1,27,32,33,-1,27,33,28,-1,28,33,34,-1,28,34,29,-1,29,34,35,-1,13,35,34,-1,13,34,15,-1,15,34,33,-1,15,33,17,-1,17,33,32,-1,17,32,19,-1,19,32,31,-1,19,31,21,-1,21,31,30,-1,21,30,23,-1,23,30,10,-1,23,10,4,-1,36,13,37,-1,37,13,12,-1,12,29,37,-1,37,29,38,-1,37,38,3,-1,3,38,2,-1,38,29,39,-1,39,29,35,-1,1,0,36,-1,36,0,39,-1,36,39,13,-1,13,39,35,-1,40,41,42,-1,42,41,43,-1,44,45,46,-1,46,45,47,-1,46,47,48,-1,48,47,49,-1,48,49,50,-1,50,49,51,-1,51,45,50,-1,50,45,44,-1,52,53,54,-1,54,53,55,-1,54,55,56,-1,56,55,57,-1,56,57,58,-1,58,57,59,-1,58,59,60,-1,60,59,61,-1,60,61,62,-1,62,61,63,-1,62,63,46,-1,46,63,44,-1,46,48,62,-1,62,48,64,-1,62,64,60,-1,60,64,65,-1,60,65,58,-1,58,65,66,-1,58,66,56,-1,56,66,67,-1,56,67,54,-1,54,67,68,-1,54,68,52,-1,52,68,69,-1,48,50,64,-1,64,50,70,-1,64,70,65,-1,65,70,71,-1,65,71,66,-1,66,71,72,-1,66,72,67,-1,67,72,73,-1,67,73,68,-1,68,73,74,-1,68,74,69,-1,69,74,75,-1,53,75,74,-1,53,74,55,-1,55,74,73,-1,55,73,57,-1,57,73,72,-1,57,72,59,-1,59,72,71,-1,59,71,61,-1,61,71,70,-1,61,70,63,-1,63,70,50,-1,63,50,44,-1,76,53,77,-1,77,53,52,-1,52,69,77,-1,77,69,78,-1,77,78,43,-1,43,78,42,-1,78,69,79,-1,79,69,75,-1,41,40,76,-1,76,40,79,-1,76,79,53,-1,53,79,75,-1,79,40,78,-1,78,40,42,-1,77,43,76,-1,76,43,41,-1,39,0,38,-1,38,0,2,-1,37,3,36,-1,36,3,1,-1,80,81,82,-1,82,81,83,-1,84,85,86,-1,86,85,87,-1,86,87,88,-1,88,87,89,-1,88,89,90,-1,90,89,91,-1,91,85,90,-1,90,85,84,-1,92,93,94,-1,94,93,95,-1,94,95,96,-1,96,95,97,-1,96,97,98,-1,98,97,99,-1,98,99,100,-1,100,99,101,-1,100,101,102,-1,102,101,103,-1,102,103,86,-1,86,103,84,-1,86,88,102,-1,102,88,104,-1,102,104,100,-1,100,104,105,-1,100,105,98,-1,98,105,106,-1,98,106,96,-1,96,106,107,-1,96,107,94,-1,94,107,108,-1,94,108,92,-1,92,108,109,-1,88,90,104,-1,104,90,110,-1,104,110,105,-1,105,110,111,-1,105,111,106,-1,106,111,112,-1,106,112,107,-1,107,112,113,-1,107,113,108,-1,108,113,114,-1,108,114,109,-1,109,114,115,-1,93,115,114,-1,93,114,95,-1,95,114,113,-1,95,113,97,-1,97,113,112,-1,97,112,99,-1,99,112,111,-1,99,111,101,-1,101,111,110,-1,101,110,103,-1,103,110,90,-1,103,90,84,-1,116,93,117,-1,117,93,92,-1,92,109,117,-1,117,109,118,-1,117,118,80,-1,80,118,81,-1,118,109,119,-1,119,109,115,-1,82,83,116,-1,116,83,119,-1,116,119,93,-1,93,119,115,-1,120,121,122,-1,122,121,123,-1,124,125,126,-1,126,125,127,-1,126,127,128,-1,128,127,129,-1,128,129,130,-1,130,129,131,-1,131,125,130,-1,130,125,124,-1,132,133,134,-1,134,133,135,-1,134,135,136,-1,136,135,137,-1,136,137,138,-1,138,137,139,-1,138,139,140,-1,140,139,141,-1,140,141,142,-1,142,141,143,-1,142,143,126,-1,126,143,124,-1,126,128,142,-1,142,128,144,-1,142,144,140,-1,140,144,145,-1,140,145,138,-1,138,145,146,-1,138,146,136,-1,136,146,147,-1,136,147,134,-1,134,147,148,-1,134,148,132,-1,132,148,149,-1,128,130,144,-1,144,130,150,-1,144,150,145,-1,145,150,151,-1,145,151,146,-1,146,151,152,-1,146,152,147,-1,147,152,153,-1,147,153,148,-1,148,153,154,-1,148,154,149,-1,149,154,155,-1,133,155,154,-1,133,154,135,-1,135,154,153,-1,135,153,137,-1,137,153,152,-1,137,152,139,-1,139,152,151,-1,139,151,141,-1,141,151,150,-1,141,150,143,-1,143,150,130,-1,143,130,124,-1,156,133,157,-1,157,133,132,-1,121,120,158,-1,158,120,157,-1,158,157,149,-1,149,157,132,-1,158,149,159,-1,159,149,155,-1,155,133,159,-1,159,133,156,-1,159,156,123,-1,123,156,122,-1,157,120,156,-1,156,120,122,-1,159,123,158,-1,158,123,121,-1,117,80,116,-1,116,80,82,-1,119,83,118,-1,118,83,81,-1,160,161,162,-1,162,161,163,-1,164,165,166,-1,166,165,167,-1,166,167,168,-1,168,167,169,-1,168,169,170,-1,170,169,171,-1,171,165,170,-1,170,165,164,-1,172,173,166,-1,166,173,174,-1,166,174,175,-1,175,176,166,-1,166,176,177,-1,166,177,164,-1,170,178,168,-1,168,178,179,-1,168,179,180,-1,180,181,168,-1,168,181,182,-1,168,182,183,-1,172,183,182,-1,172,182,173,-1,173,182,181,-1,173,181,174,-1,174,181,180,-1,174,180,175,-1,175,180,179,-1,175,179,176,-1,176,179,178,-1,176,178,177,-1,177,178,170,-1,177,170,164,-1,184,172,185,-1,185,172,166,-1,162,163,186,-1,186,163,185,-1,186,185,168,-1,168,185,166,-1,186,168,187,-1,187,168,183,-1,183,172,187,-1,187,172,184,-1,187,184,160,-1,160,184,161,-1,188,189,190,-1,190,189,191,-1,192,193,194,-1,194,193,195,-1,194,195,196,-1,196,195,197,-1,196,197,198,-1,198,197,199,-1,199,193,198,-1,198,193,192,-1,200,201,194,-1,194,201,202,-1,194,202,203,-1,203,204,194,-1,194,204,205,-1,194,205,192,-1,198,206,196,-1,196,206,207,-1,196,207,208,-1,208,209,196,-1,196,209,210,-1,196,210,211,-1,200,211,210,-1,200,210,201,-1,201,210,209,-1,201,209,202,-1,202,209,208,-1,202,208,203,-1,203,208,207,-1,203,207,204,-1,204,207,206,-1,204,206,205,-1,205,206,198,-1,205,198,192,-1,212,200,213,-1,213,200,194,-1,190,191,214,-1,214,191,213,-1,214,213,196,-1,196,213,194,-1,214,196,215,-1,215,196,211,-1,211,200,215,-1,215,200,212,-1,215,212,188,-1,188,212,189,-1,215,188,214,-1,214,188,190,-1,213,191,212,-1,212,191,189,-1,187,160,186,-1,186,160,162,-1,185,163,184,-1,184,163,161,-1,
        ]
    }
}
Shape{
    appearance Appearance {
        material  Material 	{
            diffuseColor 1.0 1.0 1.0
            specularColor 0.8784313725490196 0.8784313725490196 0.8784313725490196
            ambientIntensity 0.2
            transparency 0
            shininess 0.5
        }
    }
    geometry IndexedFaceSet {
        ccw TRUE
        solid FALSE
        coord DEF co Coordinate {
            point [
                0.1453 0.1024 0.0011, 0.1453 0.1024 0.005, 0.1378 0.1245 0.0011, 0.1378 0.1245 0.005, 0.1778 0.1024 0.0011, 0.1778 0.1024 0.005, 0.1858 0.1245 0.0011, 0.1858 0.1245 0.005, 0.1973 0.1245 0.0011, 0.1973 0.1245 0.005, 0.1666 0.0458 0.0011, 0.1666 0.0458 0.005, 0.156 0.0458 0.0011, 0.156 0.0458 0.005, 0.1263 0.1245 0.0011, 0.1263 0.1245 0.005, 0.148 0.0938 0.005, 0.1597 0.0609 0.005, 0.1618 0.0581 0.005, 0.161 0.0554 0.005, 0.1605 0.0582 0.005, 0.1743 0.0938 0.005, 0.1624 0.0609 0.005, 0.148 0.0938 0.0011, 0.1597 0.0609 0.0011, 0.1743 0.0938 0.0011, 0.1624 0.0609 0.0011, 0.1618 0.0581 0.0011, 0.161 0.0554 0.0011, 0.1605 0.0582 0.0011, 0.0571 0.1245 0.0011, 0.0571 0.1245 0.005, 0.0571 0.0458 0.0011, 0.0571 0.0458 0.005, 0.0785 0.1245 0.0011, 0.0785 0.1245 0.005, 0.1205 0.0842 0.0011, 0.1205 0.0842 0.005, 0.1193 0.0889 0.005, 0.1193 0.0889 0.0011, 0.1131 0.1066 0.005, 0.1131 0.1066 0.0011, 0.1089 0.113 0.005, 0.1089 0.113 0.0011, 0.1047 0.1169 0.005, 0.1047 0.1169 0.0011, 0.0992 0.1198 0.005, 0.0992 0.1198 0.0011, 0.0913 0.1223 0.005, 0.0913 0.1223 0.0011, 0.0793 0.0458 0.0011, 0.0793 0.0458 0.005, 0.0848 0.0469 0.005, 0.0848 0.0469 0.0011, 0.1017 0.0519 0.005, 0.1017 0.0519 0.0011, 0.108 0.0556 0.005, 0.108 0.0556 0.0011, 0.1119 0.0595 0.005, 0.1119 0.0595 0.0011, 0.115 0.0646 0.005, 0.115 0.0646 0.0011, 0.1178 0.0721 0.005, 0.1178 0.0721 0.0011, 0.1073 0.0738 0.005, 0.1041 0.0659 0.005, 0.1012 0.0619 0.005, 0.0984 0.0595 0.005, 0.0944 0.0575 0.005, 0.0899 0.1132 0.005, 0.098 0.11 0.005, 0.1021 0.107 0.005, 0.1047 0.104 0.005, 0.1068 0.0999 0.005, 0.1085 0.0939 0.005, 0.1099 0.0844 0.005, 0.0885 0.0558 0.005, 0.0793 0.0544 0.005, 0.0677 0.0544 0.005, 0.0677 0.1159 0.005, 0.0789 0.1159 0.005, 0.1099 0.0844 0.0011, 0.1073 0.0738 0.0011, 0.1041 0.0659 0.0011, 0.1012 0.0619 0.0011, 0.0984 0.0595 0.0011, 0.0944 0.0575 0.0011, 0.0885 0.0558 0.0011, 0.0793 0.0544 0.0011, 0.0677 0.0544 0.0011, 0.0677 0.1159 0.0011, 0.0789 0.1159 0.0011, 0.0899 0.1132 0.0011, 0.098 0.11 0.0011, 0.1021 0.107 0.0011, 0.1047 0.104 0.0011, 0.1068 0.0999 0.0011, 0.1085 0.0939 0.0011, 0.0379 0.0804 0.0011, 0.0379 0.0804 0.005, 0.0379 0.089 0.0011, 0.0379 0.089 0.005, 0.0101 0.0804 0.0011, 0.0101 0.0804 0.005, 0.0101 0.0544 0.0011, 0.0101 0.0544 0.005, 0.0398 0.0544 0.0011, 0.0398 0.0544 0.005, 0.0398 0.0458 0.0011, 0.0398 0.0458 0.005, -0.0005 0.0458 0.0011, -0.0005 0.0458 0.005, -0.0005 0.1245 0.0011, -0.0005 0.1245 0.005, 0.0418 0.1245 0.0011, 0.0418 0.1245 0.005, 0.0418 0.1159 0.0011, 0.0418 0.1159 0.005, 0.0101 0.1159 0.0011, 0.0101 0.1159 0.005, 0.0101 0.089 0.0011, 0.0101 0.089 0.005, -0.0159 0.0585 0.0011, -0.0159 0.0585 0.005, -0.0247 0.0547 0.005, -0.0247 0.0547 0.0011, -0.0343 0.0535 0.005, -0.0343 0.0535 0.0011, -0.0159 0.048 0.0011, -0.0159 0.048 0.005, -0.0344 0.0448 0.0011, -0.0344 0.0448 0.005, -0.0249 0.0455 0.005, -0.0249 0.0455 0.0011, -0.0744 0.0866 0.0011, -0.0744 0.0866 0.005, -0.0735 0.0822 0.005, -0.0735 0.0822 0.0011, -0.068 0.0641 0.005, -0.068 0.0641 0.0011, -0.064 0.0575 0.005, -0.064 0.0575 0.0011, -0.06 0.0535 0.005, -0.06 0.0535 0.0011, -0.0547 0.0503 0.005, -0.0547 0.0503 0.0011, -0.0469 0.0475 0.005, -0.0469 0.0475 0.0011, -0.0375 0.1255 0.0011, -0.0375 0.1255 0.005, -0.0394 0.125 0.0011, -0.0438 0.1239 0.005, -0.0438 0.1239 0.0011, -0.0586 0.1184 0.005, -0.0586 0.1184 0.0011, -0.0643 0.1146 0.005, -0.0643 0.1146 0.0011, -0.0677 0.1107 0.005, -0.0677 0.1107 0.0011, -0.0704 0.1057 0.005, -0.0704 0.1057 0.0011, -0.0726 0.0983 0.005, -0.0726 0.0983 0.0011, -0.0264 0.1244 0.0011, -0.0159 0.1205 0.0011, -0.0264 0.1244 0.005, -0.0159 0.1205 0.005, -0.0327 0.125 0.0011, -0.0159 0.1118 0.0011, -0.0159 0.1118 0.005, -0.0361 0.1169 0.0011, -0.0361 0.1169 0.005, -0.0256 0.1157 0.005, -0.0256 0.1157 0.0011, -0.0639 0.086 0.0011, -0.0639 0.086 0.005, -0.062 0.0956 0.005, -0.062 0.0956 0.0011, -0.0592 0.1038 0.005, -0.0592 0.1038 0.0011, -0.0566 0.1081 0.005, -0.0566 0.1081 0.0011, -0.0541 0.1105 0.005, -0.0541 0.1105 0.0011, -0.0504 0.1127 0.005, -0.0504 0.1127 0.0011, -0.0449 0.1148 0.005, -0.0449 0.1148 0.0011, -0.0382 0.0546 0.005, -0.0382 0.0546 0.0011, -0.0511 0.0595 0.005, -0.0511 0.0595 0.0011, -0.0559 0.0629 0.005, -0.0559 0.0629 0.0011, -0.0586 0.0661 0.005, -0.0586 0.0661 0.0011, -0.0608 0.0703 0.005, -0.0608 0.0703 0.0011, -0.0625 0.0764 0.005, -0.0625 0.0764 0.0011, -0.1215 0.1245 0.0011, -0.1215 0.1245 0.005, -0.1215 0.0458 0.0011, -0.1215 0.0458 0.005, -0.0811 0.1245 0.0011, -0.0811 0.1245 0.005, -0.0811 0.1159 0.0011, -0.0811 0.1159 0.005, -0.1109 0.1159 0.0011, -0.1109 0.1159 0.005, -0.1109 0.0458 0.0011, -0.1109 0.0458 0.005, -0.1109 0.0458 0.005
            ]
        }
        coordIndex [
            0,1,2,-1,2,1,3,-1,4,5,0,-1,0,5,1,-1,6,7,4,-1,4,7,5,-1,8,9,6,-1,6,9,7,-1,10,11,8,-1,8,11,9,-1,12,13,10,-1,10,13,11,-1,14,15,12,-1,12,15,13,-1,14,2,15,-1,15,2,3,-1,16,17,13,-1,15,3,1,-1,18,11,19,-1,19,11,13,-1,19,13,20,-1,20,13,17,-1,13,15,16,-1,16,15,1,-1,16,1,21,-1,21,1,5,-1,18,22,11,-1,11,22,21,-1,11,21,9,-1,9,21,5,-1,9,5,7,-1,16,23,17,-1,17,23,24,-1,21,25,16,-1,16,25,23,-1,22,26,21,-1,21,26,25,-1,26,22,18,-1,26,18,27,-1,27,18,19,-1,27,19,28,-1,28,19,20,-1,28,20,29,-1,29,20,17,-1,29,17,24,-1,30,31,32,-1,32,31,33,-1,34,35,30,-1,30,35,31,-1,36,37,38,-1,36,38,39,-1,39,38,40,-1,39,40,41,-1,41,40,42,-1,41,42,43,-1,43,42,44,-1,43,44,45,-1,45,44,46,-1,45,46,47,-1,47,46,48,-1,47,48,49,-1,49,48,35,-1,49,35,34,-1,50,51,52,-1,50,52,53,-1,53,52,54,-1,53,54,55,-1,55,54,56,-1,55,56,57,-1,57,56,58,-1,57,58,59,-1,59,58,60,-1,59,60,61,-1,61,60,62,-1,61,62,63,-1,63,62,37,-1,63,37,36,-1,50,32,51,-1,51,32,33,-1,64,60,65,-1,65,60,58,-1,65,58,66,-1,66,58,56,-1,66,56,67,-1,67,56,54,-1,67,54,68,-1,69,46,70,-1,70,46,44,-1,70,44,71,-1,71,44,42,-1,71,42,72,-1,72,42,40,-1,72,40,73,-1,73,40,74,-1,74,40,38,-1,74,38,75,-1,75,38,37,-1,75,37,64,-1,64,37,62,-1,64,62,60,-1,68,54,76,-1,76,54,52,-1,76,52,77,-1,77,52,51,-1,77,51,78,-1,78,51,33,-1,78,33,79,-1,79,33,31,-1,79,31,80,-1,80,31,35,-1,80,35,69,-1,69,35,48,-1,69,48,46,-1,81,75,64,-1,81,64,82,-1,82,64,65,-1,82,65,83,-1,83,65,66,-1,83,66,84,-1,84,66,67,-1,84,67,85,-1,85,67,68,-1,85,68,86,-1,86,68,76,-1,86,76,87,-1,87,76,77,-1,87,77,88,-1,78,89,77,-1,77,89,88,-1,79,90,78,-1,78,90,89,-1,80,91,79,-1,79,91,90,-1,91,80,69,-1,91,69,92,-1,92,69,70,-1,92,70,93,-1,93,70,71,-1,93,71,94,-1,94,71,72,-1,94,72,95,-1,95,72,73,-1,95,73,96,-1,96,73,74,-1,96,74,97,-1,97,74,75,-1,97,75,81,-1,98,99,100,-1,100,99,101,-1,102,103,98,-1,98,103,99,-1,104,105,102,-1,102,105,103,-1,106,107,104,-1,104,107,105,-1,108,109,106,-1,106,109,107,-1,110,111,108,-1,108,111,109,-1,112,113,110,-1,110,113,111,-1,114,115,112,-1,112,115,113,-1,116,117,114,-1,114,117,115,-1,118,119,116,-1,116,119,117,-1,120,121,118,-1,118,121,119,-1,120,100,121,-1,121,100,101,-1,113,115,117,-1,117,119,113,-1,113,119,121,-1,113,121,111,-1,107,109,105,-1,105,109,111,-1,105,111,103,-1,103,111,121,-1,103,121,99,-1,99,121,101,-1,122,123,124,-1,122,124,125,-1,125,124,126,-1,125,126,127,-1,128,129,122,-1,122,129,123,-1,130,131,132,-1,130,132,133,-1,133,132,129,-1,133,129,128,-1,134,135,136,-1,134,136,137,-1,137,136,138,-1,137,138,139,-1,139,138,140,-1,139,140,141,-1,141,140,142,-1,141,142,143,-1,143,142,144,-1,143,144,145,-1,145,144,146,-1,145,146,147,-1,147,146,131,-1,147,131,130,-1,148,149,150,-1,150,149,151,-1,150,151,152,-1,152,151,153,-1,152,153,154,-1,154,153,155,-1,154,155,156,-1,156,155,157,-1,156,157,158,-1,158,157,159,-1,158,159,160,-1,160,159,161,-1,160,161,162,-1,162,161,135,-1,162,135,134,-1,163,164,165,-1,165,164,166,-1,163,165,167,-1,167,165,149,-1,167,149,148,-1,168,169,164,-1,164,169,166,-1,170,171,172,-1,170,172,173,-1,173,172,169,-1,173,169,168,-1,174,175,176,-1,174,176,177,-1,177,176,178,-1,177,178,179,-1,179,178,180,-1,179,180,181,-1,181,180,182,-1,181,182,183,-1,183,182,184,-1,183,184,185,-1,185,184,186,-1,185,186,187,-1,187,186,171,-1,187,171,170,-1,127,126,188,-1,127,188,189,-1,189,188,190,-1,189,190,191,-1,191,190,192,-1,191,192,193,-1,193,192,194,-1,193,194,195,-1,195,194,196,-1,195,196,197,-1,197,196,198,-1,197,198,199,-1,199,198,175,-1,199,175,174,-1,123,129,124,-1,124,129,132,-1,124,132,126,-1,126,132,131,-1,126,131,188,-1,188,131,146,-1,188,146,190,-1,176,159,178,-1,178,159,157,-1,178,157,180,-1,180,157,155,-1,180,155,182,-1,182,155,153,-1,146,144,190,-1,190,144,142,-1,190,142,192,-1,192,142,140,-1,192,140,194,-1,194,140,138,-1,194,138,196,-1,166,169,165,-1,165,169,172,-1,165,172,149,-1,149,172,171,-1,149,171,151,-1,151,171,186,-1,151,186,153,-1,153,186,184,-1,153,184,182,-1,196,138,198,-1,198,138,136,-1,198,136,175,-1,175,136,135,-1,175,135,176,-1,176,135,161,-1,176,161,159,-1,200,201,202,-1,202,201,203,-1,204,205,200,-1,200,205,201,-1,206,207,204,-1,204,207,205,-1,208,209,206,-1,206,209,207,-1,210,211,208,-1,208,211,209,-1,210,202,211,-1,211,202,203,-1,211,203,209,-1,209,203,201,-1,209,201,207,-1,207,201,205,-1,
        ]
    }
}
Shape{
    appearance Appearance {
        material  Material 	{
            diffuseColor 0.10980392156862745 0.10980392156862745 0.10980392156862745
            specularColor 0.0784313725490196 0.0784313725490196 0.0784313725490196
            ambientIntensity 0.2
            transparency 0
            shininess 0.5
        }
    }
    geometry IndexedFaceSet {
        ccw TRUE
        solid FALSE
        coord DEF co Coordinate {
            point [
                0.148 0.0938 0.0011, 0.1743 0.0938 0.0011, 0.1597 0.0609 0.0011, 0.1624 0.0609 0.0011, 0.1605 0.0582 0.0011, 0.1618 0.0581 0.0011, 0.161 0.0554 0.0011, 0.0793 0.0544 0.0011, 0.0677 0.0544 0.0011, 0.1085 0.0939 0.0011, 0.1068 0.0999 0.0011, 0.0944 0.0575 0.0011, 0.0885 0.0558 0.0011, 0.1073 0.0738 0.0011, 0.1099 0.0844 0.0011, 0.0677 0.1159 0.0011, 0.0789 0.1159 0.0011, 0.0899 0.1132 0.0011, 0.098 0.11 0.0011, 0.1021 0.107 0.0011, 0.1047 0.104 0.0011, 0.0984 0.0595 0.0011, 0.1041 0.0659 0.0011, 0.1012 0.0619 0.0011, 0.1012 0.0619 0.0011
            ]
        }
        coordIndex [
            0,1,2,-1,2,1,3,-1,2,3,4,-1,4,3,5,-1,4,5,6,-1,7,8,9,-1,9,8,10,-1,11,12,13,-1,7,9,12,-1,12,9,14,-1,12,14,13,-1,15,16,8,-1,8,16,17,-1,8,17,18,-1,18,19,8,-1,8,19,20,-1,8,20,10,-1,11,13,21,-1,21,13,22,-1,21,22,23,-1,
        ]
    }
}
Shape{
    appearance Appearance {
        material  Material 	{
            diffuseColor 1.0 1.0 1.0
            specularColor 0.30196078431372547 0.30196078431372547 0.30196078431372547
            ambientIntensity 0.2
            transparency 0
            shininess 0.5
        }
    }
    geometry IndexedFaceSet {
        ccw TRUE
        solid FALSE
        coord DEF co Coordinate {
            point [
                1.1417 0.8728 0.5835, 1.063 0.8728 0.5835, 1.063 0.897 0.5881, 1.1417 0.897 0.5881, 1.063 0.9193 0.5986, 1.1417 0.9193 0.5986, 1.063 0.9384 0.6143, 1.1417 0.9384 0.6143, 1.063 0.9529 0.6343, 1.1417 0.9529 0.6343, 1.063 0.962 0.6572, 1.1417 0.962 0.6572, 1.063 0.965 0.6817, 1.1417 0.965 0.6817, 1.1417 0.965 1.604, 1.063 0.965 1.604, 1.063 0.962 1.6284, 1.1417 0.962 1.6284, 1.063 0.9529 1.6514, 1.1417 0.9529 1.6514, 1.063 0.9384 1.6713, 1.1417 0.9384 1.6713, 1.063 0.9193 1.6871, 1.1417 0.9193 1.6871, 1.063 0.897 1.6976, 1.1417 0.897 1.6976, 1.063 0.8728 1.7022, 1.1417 0.8728 1.7022, 1.1417 -0.5664 1.7924, 1.063 -0.5664 1.7924, 1.1417 -0.5664 0.4933, 1.063 -0.5664 0.4933, -1.1417 0.965 0.6817, -1.063 0.965 0.6817, -1.063 0.962 0.6572, -1.1417 0.962 0.6572, -1.063 0.9529 0.6343, -1.1417 0.9529 0.6343, -1.063 0.9384 0.6143, -1.1417 0.9384 0.6143, -1.063 0.9193 0.5986, -1.1417 0.9193 0.5986, -1.063 0.897 0.5881, -1.1417 0.897 0.5881, -1.063 0.8728 0.5835, -1.1417 0.8728 0.5835, -1.1417 -0.5664 0.4933, -1.063 -0.5664 0.4933, -1.1417 -0.5664 1.7924, -1.063 -0.5664 1.7924, -1.1417 0.8728 1.7022, -1.063 0.8728 1.7022, -1.063 0.897 1.6976, -1.1417 0.897 1.6976, -1.063 0.9193 1.6871, -1.1417 0.9193 1.6871, -1.063 0.9384 1.6713, -1.1417 0.9384 1.6713, -1.063 0.9529 1.6514, -1.1417 0.9529 1.6514, -1.063 0.962 1.6284, -1.1417 0.962 1.6284, -1.063 0.965 1.604, -1.1417 0.965 1.604, 0.6693 -1.0035 0.6113, 0.6693 -1.0035 1.6743, 0.6693 -1.8302 0.6113, 0.6693 -1.8302 1.6743, -0.6299 -1.8302 1.7137, 0.6299 -1.8302 1.7137, -0.6299 -1.0035 1.7137, 0.6299 -1.0035 1.7137, -0.6693 -1.0035 1.6743, -0.6693 -1.0035 0.6113, -0.6693 -1.8302 1.6743, -0.6693 -1.8302 0.6113, 0.6299 -1.8302 0.572, -0.6299 -1.8302 0.572, 0.6299 -1.0035 0.572, -0.6299 -1.0035 0.572, -0.6299 -1.8696 1.6743, -0.6299 -1.8696 0.6113, 0.6299 -1.8696 1.6743, 0.6299 -1.8696 0.6113, -0.6683 -1.0035 0.6026, 0.6496 -1.0035 0.5772, 0.6401 -1.0035 0.5733, 0.6578 -1.0035 0.5835, 0.664 -1.0035 0.5917, -0.6545 -1.0035 0.5806, -0.6607 -1.0035 0.5868, -0.647 -1.0035 0.5759, -0.6387 -1.0035 0.573, -0.6654 -1.0035 0.5943, 0.668 -1.0035 0.6011, -0.668 -1.0035 1.6845, -0.6401 -1.0035 1.7124, -0.664 -1.0035 1.694, -0.6578 -1.0035 1.7022, -0.6496 -1.0035 1.7084, 0.664 -1.0035 1.694, 0.6401 -1.0035 1.7124, 0.6578 -1.0035 1.7022, 0.6496 -1.0035 1.7084, 0.668 -1.0035 1.6845, 0.6401 -1.8302 0.5733, 0.6496 -1.8302 0.5772, 0.6578 -1.8302 0.5835, 0.664 -1.8302 0.5917, 0.668 -1.8302 0.6011, -0.6299 -1.8684 0.6026, 0.6299 -1.8684 0.6026, 0.6299 -1.8683 0.6011, -0.6299 -1.8683 0.6011, 0.6299 -1.8654 0.5944, -0.6299 -1.8654 0.5944, 0.6299 -1.8643 0.5917, -0.6299 -1.8643 0.5917, 0.6299 -1.8607 0.587, -0.6299 -1.8607 0.587, 0.6299 -1.8581 0.5835, -0.6299 -1.8581 0.5835, 0.6299 -1.8546 0.5808, -0.6299 -1.8546 0.5808, 0.6299 -1.8499 0.5772, -0.6299 -1.8499 0.5772, 0.6299 -1.8472 0.5761, -0.6299 -1.8472 0.5761, 0.6299 -1.8404 0.5733, -0.6299 -1.8404 0.5733, 0.6299 -1.839 0.5731, -0.6299 -1.839 0.5731, -0.6681 -1.8302 0.6026, -0.668 -1.8302 0.6011, -0.6651 -1.8302 0.5944, -0.664 -1.8302 0.5917, -0.6604 -1.8302 0.587, -0.6578 -1.8302 0.5835, -0.6543 -1.8302 0.5808, -0.6387 -1.8302 0.5731, -0.6401 -1.8302 0.5733, -0.6469 -1.8302 0.5761, -0.6496 -1.8302 0.5772, 0.668 -1.8404 0.6113, 0.6667 -1.8404 0.6015, 0.664 -1.8499 0.6113, 0.6629 -1.8499 0.6025, 0.6489 -1.8643 0.6062, 0.6398 -1.8683 0.6087, 0.6387 -1.8683 0.6062, 0.6401 -1.8683 0.6113, 0.6326 -1.8683 0.6015, 0.635 -1.8683 0.6025, 0.6496 -1.8643 0.6113, 0.6578 -1.8581 0.6113, 0.647 -1.8643 0.6015, 0.6371 -1.8683 0.6041, 0.6438 -1.8643 0.5974, 0.6398 -1.8643 0.5943, 0.635 -1.8643 0.5923, 0.6568 -1.8581 0.6041, 0.654 -1.8581 0.5974, 0.6496 -1.8581 0.5917, 0.6438 -1.8581 0.5872, 0.6371 -1.8581 0.5844, 0.6594 -1.8499 0.5943, 0.654 -1.8499 0.5872, 0.647 -1.8499 0.5818, 0.6387 -1.8499 0.5784, 0.6629 -1.8404 0.5923, 0.6568 -1.8404 0.5844, 0.6489 -1.8404 0.5784, 0.6398 -1.8404 0.5746, -0.6667 -1.8404 0.6015, -0.6629 -1.8404 0.5923, -0.6568 -1.8404 0.5844, -0.6489 -1.8404 0.5784, -0.6326 -1.8683 0.6015, -0.635 -1.8643 0.5923, -0.6371 -1.8581 0.5844, -0.6387 -1.8499 0.5784, -0.6398 -1.8404 0.5746, -0.647 -1.8499 0.5818, -0.6438 -1.8581 0.5872, -0.6398 -1.8643 0.5943, -0.635 -1.8683 0.6025, -0.654 -1.8499 0.5872, -0.6496 -1.8581 0.5917, -0.6438 -1.8643 0.5974, -0.6371 -1.8683 0.6041, -0.6594 -1.8499 0.5943, -0.654 -1.8581 0.5974, -0.647 -1.8643 0.6015, -0.6387 -1.8683 0.6062, -0.6629 -1.8499 0.6025, -0.6568 -1.8581 0.6041, -0.6489 -1.8643 0.6062, -0.6398 -1.8683 0.6087, -0.668 -1.8404 0.6113, -0.664 -1.8499 0.6113, -0.6578 -1.8581 0.6113, -0.6496 -1.8643 0.6113, -0.6401 -1.8683 0.6113, 0.668 -1.8302 1.6845, 0.664 -1.8302 1.694, 0.6578 -1.8302 1.7022, 0.6496 -1.8302 1.7084, 0.6401 -1.8302 1.7124, 0.6401 -1.8683 1.6743, 0.6496 -1.8643 1.6743, 0.6578 -1.8581 1.6743, 0.664 -1.8499 1.6743, 0.668 -1.8404 1.6743, -0.6401 -1.8683 1.6743, -0.6496 -1.8643 1.6743, -0.6578 -1.8581 1.6743, -0.664 -1.8499 1.6743, -0.668 -1.8404 1.6743, -0.6401 -1.8302 1.7124, -0.6496 -1.8302 1.7084, -0.6578 -1.8302 1.7022, -0.664 -1.8302 1.694, -0.668 -1.8302 1.6845, 0.6299 -1.8404 1.7124, 0.6398 -1.8404 1.7111, 0.6398 -1.8643 1.6914, 0.635 -1.8683 1.6832, 0.6371 -1.8683 1.6815, 0.6398 -1.8683 1.677, 0.6326 -1.8683 1.6842, 0.635 -1.8643 1.6933, 0.6371 -1.8581 1.7012, 0.6299 -1.8683 1.6845, 0.6438 -1.8643 1.6882, 0.6387 -1.8683 1.6794, 0.647 -1.8643 1.6842, 0.6489 -1.8643 1.6794, 0.6299 -1.8643 1.694, 0.6299 -1.8581 1.7022, 0.6299 -1.8499 1.7084, 0.6438 -1.8581 1.6984, 0.6496 -1.8581 1.694, 0.654 -1.8581 1.6882, 0.6568 -1.8581 1.6815, 0.6387 -1.8499 1.7073, 0.647 -1.8499 1.7039, 0.654 -1.8499 1.6984, 0.6594 -1.8499 1.6914, 0.6629 -1.8499 1.6832, 0.6489 -1.8404 1.7073, 0.6568 -1.8404 1.7012, 0.6629 -1.8404 1.6933, 0.6667 -1.8404 1.6842, -0.6667 -1.8404 1.6842, -0.647 -1.8643 1.6842, -0.6387 -1.8683 1.6794, -0.6371 -1.8683 1.6815, -0.6299 -1.8683 1.6845, -0.6326 -1.8683 1.6842, -0.6398 -1.8683 1.677, -0.6489 -1.8643 1.6794, -0.6568 -1.8581 1.6815, -0.6438 -1.8643 1.6882, -0.635 -1.8683 1.6832, -0.6398 -1.8643 1.6914, -0.635 -1.8643 1.6933, -0.6299 -1.8643 1.694, -0.654 -1.8581 1.6882, -0.6496 -1.8581 1.694, -0.6438 -1.8581 1.6984, -0.6371 -1.8581 1.7012, -0.6299 -1.8581 1.7022, -0.6629 -1.8499 1.6832, -0.6594 -1.8499 1.6914, -0.654 -1.8499 1.6984, -0.647 -1.8499 1.7039, -0.6387 -1.8499 1.7073, -0.6299 -1.8499 1.7084, -0.6629 -1.8404 1.6933, -0.6568 -1.8404 1.7012, -0.6489 -1.8404 1.7073, -0.6398 -1.8404 1.7111, -0.6299 -1.8404 1.7124, -0.6299 -1.8404 1.7124
            ]
        }
        coordIndex [
            0,1,2,-1,0,2,3,-1,3,2,4,-1,3,4,5,-1,5,4,6,-1,5,6,7,-1,7,6,8,-1,7,8,9,-1,9,8,10,-1,9,10,11,-1,11,10,12,-1,11,12,13,-1,14,13,15,-1,15,13,12,-1,14,15,16,-1,14,16,17,-1,17,16,18,-1,17,18,19,-1,19,18,20,-1,19,20,21,-1,21,20,22,-1,21,22,23,-1,23,22,24,-1,23,24,25,-1,25,24,26,-1,25,26,27,-1,28,27,29,-1,29,27,26,-1,30,28,31,-1,31,28,29,-1,0,30,1,-1,1,30,31,-1,28,30,27,-1,27,30,0,-1,9,11,0,-1,0,11,13,-1,0,13,27,-1,27,13,14,-1,27,14,25,-1,25,14,17,-1,17,19,25,-1,25,19,21,-1,25,21,23,-1,9,0,7,-1,7,0,3,-1,7,3,5,-1,31,29,1,-1,1,29,26,-1,18,24,20,-1,20,24,22,-1,18,16,24,-1,24,16,15,-1,24,15,26,-1,26,15,1,-1,1,15,12,-1,1,12,10,-1,10,8,1,-1,1,8,6,-1,1,6,2,-1,2,6,4,-1,32,33,34,-1,32,34,35,-1,35,34,36,-1,35,36,37,-1,37,36,38,-1,37,38,39,-1,39,38,40,-1,39,40,41,-1,41,40,42,-1,41,42,43,-1,43,42,44,-1,43,44,45,-1,46,45,47,-1,47,45,44,-1,48,46,49,-1,49,46,47,-1,50,48,51,-1,51,48,49,-1,50,51,52,-1,50,52,53,-1,53,52,54,-1,53,54,55,-1,55,54,56,-1,55,56,57,-1,57,56,58,-1,57,58,59,-1,59,58,60,-1,59,60,61,-1,61,60,62,-1,61,62,63,-1,32,63,33,-1,33,63,62,-1,46,48,45,-1,45,48,50,-1,50,53,63,-1,63,53,55,-1,55,57,63,-1,63,57,59,-1,63,59,61,-1,50,63,45,-1,45,63,32,-1,45,32,35,-1,35,37,45,-1,45,37,39,-1,45,39,43,-1,43,39,41,-1,49,47,51,-1,51,47,44,-1,60,58,51,-1,51,58,56,-1,51,56,52,-1,52,56,54,-1,36,34,44,-1,44,34,33,-1,44,33,51,-1,51,33,62,-1,51,62,60,-1,36,44,38,-1,38,44,42,-1,38,42,40,-1,64,65,66,-1,66,65,67,-1,68,69,70,-1,70,69,71,-1,72,73,74,-1,74,73,75,-1,76,77,78,-1,78,77,79,-1,80,81,82,-1,82,81,83,-1,84,73,79,-1,79,73,78,-1,85,86,87,-1,87,86,78,-1,87,78,88,-1,89,90,91,-1,91,90,92,-1,92,90,79,-1,79,90,93,-1,79,93,84,-1,72,65,73,-1,73,65,64,-1,73,64,78,-1,78,64,94,-1,78,94,88,-1,95,96,72,-1,72,96,70,-1,72,70,65,-1,95,97,96,-1,96,97,98,-1,96,98,99,-1,100,101,102,-1,102,101,103,-1,70,71,65,-1,65,71,101,-1,65,101,104,-1,104,101,100,-1,76,78,86,-1,76,86,105,-1,105,86,85,-1,105,85,106,-1,106,85,87,-1,106,87,107,-1,107,87,88,-1,107,88,108,-1,108,88,94,-1,108,94,109,-1,109,94,64,-1,109,64,66,-1,81,110,83,-1,83,110,111,-1,111,110,112,-1,112,110,113,-1,112,113,114,-1,114,113,115,-1,114,115,116,-1,116,115,117,-1,116,117,118,-1,118,117,119,-1,118,119,120,-1,120,119,121,-1,120,121,122,-1,122,121,123,-1,122,123,124,-1,124,123,125,-1,124,125,126,-1,126,125,127,-1,126,127,128,-1,128,127,129,-1,128,129,130,-1,129,131,130,-1,130,131,77,-1,130,77,76,-1,73,84,75,-1,75,84,132,-1,132,84,133,-1,133,84,93,-1,133,93,134,-1,134,93,135,-1,135,93,90,-1,135,90,136,-1,136,90,137,-1,137,90,89,-1,137,89,138,-1,139,140,91,-1,91,140,141,-1,91,141,89,-1,89,141,142,-1,89,142,138,-1,91,92,139,-1,139,92,79,-1,139,79,77,-1,66,143,144,-1,143,145,146,-1,147,148,149,-1,149,148,83,-1,150,83,148,-1,151,83,111,-1,152,83,151,-1,150,148,153,-1,153,148,147,-1,153,147,154,-1,155,156,157,-1,157,156,152,-1,157,152,158,-1,158,152,151,-1,158,151,159,-1,111,112,151,-1,151,112,114,-1,151,114,159,-1,159,114,116,-1,159,116,118,-1,160,155,161,-1,161,155,157,-1,161,157,162,-1,162,157,158,-1,162,158,163,-1,163,158,159,-1,163,159,164,-1,164,159,118,-1,164,118,120,-1,145,160,146,-1,146,160,161,-1,146,161,165,-1,165,161,162,-1,165,162,166,-1,166,162,163,-1,166,163,167,-1,167,163,164,-1,167,164,168,-1,168,164,120,-1,168,120,122,-1,143,146,144,-1,144,146,165,-1,144,165,169,-1,169,165,166,-1,169,166,170,-1,170,166,167,-1,170,167,171,-1,171,167,168,-1,171,168,172,-1,156,83,152,-1,145,154,160,-1,160,154,147,-1,160,147,155,-1,155,147,149,-1,155,149,156,-1,156,149,83,-1,122,124,168,-1,168,124,126,-1,168,126,172,-1,172,126,128,-1,172,128,130,-1,66,144,109,-1,109,144,169,-1,109,169,108,-1,108,169,170,-1,108,170,107,-1,107,170,171,-1,107,171,106,-1,106,171,172,-1,106,172,105,-1,105,172,130,-1,105,130,76,-1,132,133,173,-1,134,135,174,-1,136,137,175,-1,138,142,176,-1,110,81,177,-1,178,115,177,-1,177,115,113,-1,177,113,110,-1,179,119,178,-1,178,119,117,-1,178,117,115,-1,180,123,179,-1,179,123,121,-1,179,121,119,-1,131,129,181,-1,181,129,127,-1,181,127,180,-1,180,127,125,-1,180,125,123,-1,77,131,139,-1,139,131,181,-1,139,181,140,-1,140,181,141,-1,142,141,176,-1,176,141,181,-1,176,181,182,-1,182,181,180,-1,182,180,183,-1,183,180,179,-1,183,179,184,-1,184,179,178,-1,184,178,185,-1,185,178,177,-1,185,177,81,-1,137,138,175,-1,175,138,176,-1,175,176,186,-1,186,176,182,-1,186,182,187,-1,187,182,183,-1,187,183,188,-1,188,183,184,-1,188,184,189,-1,189,184,185,-1,189,185,81,-1,135,136,174,-1,174,136,175,-1,174,175,190,-1,190,175,186,-1,190,186,191,-1,191,186,187,-1,191,187,192,-1,192,187,188,-1,192,188,193,-1,193,188,189,-1,193,189,81,-1,133,134,173,-1,173,134,174,-1,173,174,194,-1,194,174,190,-1,194,190,195,-1,195,190,191,-1,195,191,196,-1,196,191,192,-1,196,192,197,-1,197,192,193,-1,197,193,81,-1,75,132,198,-1,198,132,173,-1,198,173,199,-1,199,173,194,-1,199,194,200,-1,200,194,195,-1,200,195,201,-1,201,195,196,-1,201,196,202,-1,202,196,197,-1,202,197,81,-1,67,65,104,-1,67,104,203,-1,203,104,100,-1,203,100,204,-1,204,100,102,-1,204,102,205,-1,205,102,103,-1,205,103,206,-1,206,103,101,-1,206,101,207,-1,207,101,71,-1,207,71,69,-1,82,83,150,-1,82,150,208,-1,208,150,153,-1,208,153,209,-1,209,153,154,-1,209,154,210,-1,210,154,145,-1,210,145,211,-1,211,145,143,-1,211,143,212,-1,212,143,66,-1,212,66,67,-1,81,80,213,-1,81,213,202,-1,202,213,214,-1,202,214,201,-1,201,214,215,-1,201,215,200,-1,200,215,216,-1,200,216,199,-1,199,216,217,-1,199,217,198,-1,198,217,74,-1,198,74,75,-1,68,70,96,-1,68,96,218,-1,218,96,99,-1,218,99,219,-1,219,99,98,-1,219,98,220,-1,220,98,97,-1,220,97,221,-1,221,97,95,-1,221,95,222,-1,222,95,72,-1,222,72,74,-1,69,223,224,-1,225,226,227,-1,82,208,228,-1,227,226,82,-1,229,82,226,-1,229,226,230,-1,230,226,225,-1,230,225,231,-1,232,82,229,-1,233,234,235,-1,235,234,228,-1,235,228,236,-1,236,228,208,-1,236,208,209,-1,232,229,237,-1,237,229,230,-1,237,230,238,-1,238,230,231,-1,238,231,239,-1,240,233,241,-1,241,233,235,-1,241,235,242,-1,242,235,236,-1,242,236,243,-1,243,236,209,-1,243,209,210,-1,244,240,245,-1,245,240,241,-1,245,241,246,-1,246,241,242,-1,246,242,247,-1,247,242,243,-1,247,243,248,-1,248,243,210,-1,248,210,211,-1,223,244,224,-1,224,244,245,-1,224,245,249,-1,249,245,246,-1,249,246,250,-1,250,246,247,-1,250,247,251,-1,251,247,248,-1,251,248,252,-1,252,248,211,-1,252,211,212,-1,69,224,207,-1,207,224,249,-1,207,249,206,-1,206,249,250,-1,206,250,205,-1,205,250,251,-1,205,251,204,-1,204,251,252,-1,204,252,203,-1,203,252,212,-1,203,212,67,-1,234,82,228,-1,223,239,244,-1,244,239,231,-1,244,231,240,-1,240,231,225,-1,240,225,233,-1,233,225,227,-1,233,227,234,-1,234,227,82,-1,74,217,253,-1,254,255,256,-1,80,257,258,-1,256,255,80,-1,259,80,255,-1,259,255,260,-1,260,255,254,-1,260,254,261,-1,213,80,259,-1,262,263,264,-1,264,263,258,-1,264,258,265,-1,265,258,257,-1,265,257,266,-1,213,259,214,-1,214,259,260,-1,214,260,215,-1,215,260,261,-1,215,261,216,-1,267,262,268,-1,268,262,264,-1,268,264,269,-1,269,264,265,-1,269,265,270,-1,270,265,266,-1,270,266,271,-1,272,267,273,-1,273,267,268,-1,273,268,274,-1,274,268,269,-1,274,269,275,-1,275,269,270,-1,275,270,276,-1,276,270,271,-1,276,271,277,-1,217,272,253,-1,253,272,273,-1,253,273,278,-1,278,273,274,-1,278,274,279,-1,279,274,275,-1,279,275,280,-1,280,275,276,-1,280,276,281,-1,281,276,277,-1,281,277,282,-1,74,253,222,-1,222,253,278,-1,222,278,221,-1,221,278,279,-1,221,279,220,-1,220,279,280,-1,220,280,219,-1,219,280,281,-1,219,281,218,-1,218,281,282,-1,218,282,68,-1,263,80,258,-1,217,216,272,-1,272,216,261,-1,272,261,267,-1,267,261,254,-1,267,254,262,-1,262,254,256,-1,262,256,263,-1,263,256,80,-1,80,82,232,-1,80,232,257,-1,257,232,237,-1,257,237,266,-1,266,237,238,-1,266,238,271,-1,271,238,239,-1,271,239,277,-1,277,239,223,-1,277,223,282,-1,282,223,69,-1,282,69,68,-1,
        ]
    }
}